<svg width="24" height="24" viewBox="0 0 24 24" fill="none" xmlns="http://www.w3.org/2000/svg">
<g clip-path="url(#clip0_933_891)">
<path d="M11.9998 22.2001C17.6331 22.2001 22.1998 17.6334 22.1998 12C22.1998 6.36674 17.6331 1.80005 11.9998 1.80005C6.3665 1.80005 1.7998 6.36674 1.7998 12C1.7998 17.6334 6.3665 22.2001 11.9998 22.2001Z" fill="url(#paint0_radial_933_891)"/>
<path d="M14.3955 11.8734C15.1877 11.339 15.7127 10.4343 15.7127 9.41245C15.7127 7.77651 14.3814 6.44995 12.7502 6.44995C11.1189 6.44995 9.7877 7.7812 9.7877 9.41245C9.7877 10.439 10.3127 11.3437 11.1049 11.8734C8.84551 12.5765 7.2002 14.6859 7.2002 17.175C7.2002 17.3812 7.36895 17.55 7.5752 17.55C7.78145 17.55 7.9502 17.3812 7.9502 17.175C7.9502 14.5265 10.1018 12.375 12.7502 12.375C15.3986 12.375 17.5502 14.5265 17.5502 17.175C17.5502 17.3812 17.7189 17.55 17.9252 17.55C18.1314 17.55 18.3002 17.3812 18.3002 17.175C18.3002 14.6859 16.6549 12.5765 14.3955 11.8734ZM10.5377 9.41245C10.5377 8.1937 11.5314 7.19995 12.7502 7.19995C13.9689 7.19995 14.9627 8.1937 14.9627 9.41245C14.9627 10.6312 13.9689 11.625 12.7502 11.625C11.5314 11.625 10.5377 10.6312 10.5377 9.41245Z" fill="#B32F2F"/>
<path d="M13.6455 11.8734C14.4377 11.339 14.9627 10.4343 14.9627 9.41245C14.9627 7.77651 13.6314 6.44995 12.0002 6.44995C10.3689 6.44995 9.0377 7.7812 9.0377 9.41245C9.0377 10.439 9.56269 11.3437 10.3549 11.8734C8.09551 12.5765 6.4502 14.6859 6.4502 17.175C6.4502 17.3812 6.61895 17.55 6.8252 17.55C7.03145 17.55 7.2002 17.3812 7.2002 17.175C7.2002 14.5265 9.35176 12.375 12.0002 12.375C14.6486 12.375 16.8002 14.5265 16.8002 17.175C16.8002 17.3812 16.9689 17.55 17.1752 17.55C17.3814 17.55 17.5502 17.3812 17.5502 17.175C17.5502 14.6859 15.9049 12.5765 13.6455 11.8734ZM9.7877 9.41245C9.7877 8.1937 10.7814 7.19995 12.0002 7.19995C13.2189 7.19995 14.2127 8.1937 14.2127 9.41245C14.2127 10.6312 13.2189 11.625 12.0002 11.625C10.7814 11.625 9.7877 10.6312 9.7877 9.41245Z" fill="url(#paint1_radial_933_891)"/>
</g>
<defs>
<radialGradient id="paint0_radial_933_891" cx="0" cy="0" r="1" gradientUnits="userSpaceOnUse" gradientTransform="translate(12.0467 11.9063) scale(49.1694)">
<stop stop-color="#EE3E3E"/>
<stop offset="0.616" stop-color="#CB3535"/>
<stop offset="1" stop-color="#B32F2F"/>
</radialGradient>
<radialGradient id="paint1_radial_933_891" cx="0" cy="0" r="1" gradientUnits="userSpaceOnUse" gradientTransform="translate(12.38 13.4085) scale(27.1465)">
<stop stop-color="#F8EDE7"/>
<stop offset="0.495" stop-color="#F6EBE5"/>
<stop offset="0.673" stop-color="#EFE5DF"/>
<stop offset="0.8" stop-color="#E4DAD4"/>
<stop offset="0.902" stop-color="#D3CAC4"/>
<stop offset="0.99" stop-color="#BDB5B0"/>
<stop offset="1" stop-color="#BAB2AD"/>
</radialGradient>
<clipPath id="clip0_933_891">
<rect width="24" height="24" fill="white"/>
</clipPath>
</defs>
</svg>
