<svg width="45" height="45" viewBox="0 0 45 45" fill="none" xmlns="http://www.w3.org/2000/svg">
<g clip-path="url(#clip0_728_9621)">
<g clip-path="url(#clip1_728_9621)">
<path d="M42.3632 22.5C43.3564 21.5771 43.8749 20.1885 43.6201 18.7646C43.3652 17.332 42.4072 16.207 41.1679 15.6797C41.7831 14.4756 41.8007 12.9902 41.08 11.7334C40.3593 10.4766 39.0673 9.74707 37.7226 9.67676C37.8896 8.33203 37.4062 6.93457 36.29 6.00293C35.7655 5.56011 35.1375 5.25701 34.4645 5.12179C33.7915 4.98658 33.0952 5.02362 32.4404 5.22949C32.1415 3.91113 31.2011 2.75977 29.8476 2.26758C28.4853 1.7666 27.0351 2.03906 25.9628 2.86523C25.2158 1.72266 23.9501 0.966797 22.4999 0.966797C21.0498 0.966797 19.7841 1.72266 19.0546 2.85645C17.9824 2.03906 16.5322 1.7666 15.1699 2.25879C13.8076 2.75977 12.8671 3.90234 12.5771 5.2207C11.9222 5.01483 11.226 4.97779 10.553 5.11301C9.87995 5.24822 9.25202 5.55132 8.72749 5.99414C7.60249 6.94336 7.11909 8.34082 7.28608 9.67676C5.94135 9.73828 4.64936 10.4678 3.92866 11.7334C3.20796 12.9902 3.21675 14.4756 3.84077 15.6797C2.60151 16.207 1.63471 17.332 1.38862 18.7646C1.13374 20.1973 1.65229 21.5859 2.64546 22.5C1.65229 23.4229 1.13374 24.8115 1.38862 26.2354C1.6435 27.668 2.60151 28.793 3.84077 29.3203C3.22553 30.5244 3.20796 32.0098 3.92866 33.2666C4.64936 34.5234 5.94135 35.2529 7.28608 35.3232C7.11909 36.668 7.60249 38.0654 8.7187 38.9971C9.24323 39.4399 9.87116 39.743 10.5442 39.8782C11.2172 40.0134 11.9134 39.9764 12.5683 39.7705C12.8671 41.0889 13.8076 42.2402 15.1611 42.7324C16.5234 43.2334 17.9736 42.9609 19.0458 42.1348C19.7753 43.2773 21.0498 44.0244 22.4912 44.0244C23.9414 44.0244 25.207 43.2686 25.9365 42.1348C27.0087 42.9521 28.4589 43.2246 29.8212 42.7324C31.1835 42.2314 32.124 41.0889 32.414 39.7705C33.6972 40.1748 35.1562 39.9287 36.2636 38.9971C37.371 38.0654 37.8632 36.6592 37.6962 35.3232C39.041 35.2617 40.333 34.5322 41.0537 33.2666C41.7744 32.0098 41.7656 30.5244 41.1415 29.3203C42.3808 28.793 43.3476 27.668 43.5937 26.2354C43.8662 24.8115 43.3476 23.4229 42.3632 22.5Z" fill="white"/>
<path d="M22.5 44.6924C21.0937 44.6924 19.793 44.0859 18.8965 43.0312C17.6924 43.708 16.2598 43.8311 14.9414 43.3564C13.623 42.873 12.6035 41.8535 12.1201 40.5615C10.7578 40.79 9.36913 40.4121 8.29686 39.5068C7.2246 38.6016 6.61815 37.292 6.60057 35.9033C5.24706 35.6484 4.06932 34.8135 3.3662 33.6006C2.66307 32.3789 2.54003 30.9375 2.99706 29.6367C1.81053 28.9336 0.984362 27.7471 0.738269 26.3584C0.492175 24.9697 0.870104 23.5723 1.74022 22.5088C0.861315 21.4365 0.492175 20.0391 0.738269 18.6592C0.984362 17.2705 1.81053 16.084 2.99706 15.3809C2.54003 14.0713 2.66307 12.6299 3.3662 11.417C4.06932 10.1953 5.24706 9.36914 6.60057 9.11426C6.61815 7.73438 7.2246 6.41602 8.29686 5.51074C9.36913 4.60547 10.7666 4.22754 12.1201 4.45605C12.6035 3.16406 13.623 2.13574 14.9414 1.66113C16.2598 1.17773 17.6924 1.30078 18.8965 1.98633C19.793 0.914062 21.0937 0.307617 22.5 0.307617C23.9062 0.307617 25.207 0.914062 26.1035 1.96875C27.3076 1.29199 28.7402 1.16895 30.0586 1.64355C31.3769 2.12695 32.3965 3.14648 32.8799 4.43848C34.2422 4.20996 35.6308 4.58789 36.7031 5.49316C37.7754 6.39844 38.3818 7.70801 38.3994 9.09668C39.7529 9.35156 40.9307 10.1865 41.6338 11.3994C42.3369 12.6211 42.4599 14.0625 42.0029 15.3633C43.1894 16.0664 44.0156 17.2529 44.2617 18.6416C44.5078 20.0303 44.1299 21.4277 43.2598 22.4912C44.1387 23.5635 44.5078 24.9609 44.2617 26.3408C44.0156 27.7295 43.1894 28.916 42.0029 29.6191C42.4599 30.9287 42.3369 32.3701 41.6338 33.583C40.9307 34.8047 39.7529 35.6309 38.3994 35.8857C38.3818 37.2656 37.7754 38.584 36.7031 39.4893C35.6308 40.3945 34.2334 40.7725 32.8799 40.5439C32.3965 41.8359 31.3769 42.8643 30.0586 43.3389C28.7402 43.8223 27.3076 43.6992 26.1035 43.0137C25.207 44.0859 23.9062 44.6924 22.5 44.6924ZM19.0547 41.4844C19.0898 41.4844 19.1338 41.4844 19.1689 41.4932C19.3535 41.5283 19.5117 41.6338 19.6084 41.7832C20.25 42.7764 21.331 43.374 22.5 43.374C23.6777 43.374 24.7588 42.7764 25.3916 41.7832C25.4883 41.625 25.6465 41.5195 25.831 41.4932C26.0156 41.458 26.2002 41.5107 26.3496 41.6162C27.29 42.3281 28.5029 42.5215 29.6103 42.1172C30.7178 41.7129 31.5264 40.7812 31.79 39.6299C31.834 39.4541 31.9482 39.2959 32.1064 39.208C32.2646 39.1201 32.458 39.0938 32.6338 39.1465C33.7588 39.498 34.9629 39.252 35.8682 38.4961C36.7734 37.7402 37.2217 36.5801 37.0723 35.4111C37.0459 35.2266 37.1074 35.042 37.2217 34.9014C37.3359 34.7607 37.5117 34.6729 37.6963 34.6641C38.874 34.6113 39.9287 33.9609 40.5176 32.9414C41.1064 31.9219 41.1328 30.6826 40.5967 29.6279C40.5088 29.4609 40.5 29.2764 40.5615 29.1006C40.623 28.9248 40.7549 28.793 40.9219 28.7227C42.0117 28.2656 42.7764 27.2988 42.9873 26.1387C43.1894 24.9785 42.7939 23.8008 41.9326 23.001C41.8008 22.8779 41.7217 22.7022 41.7217 22.5176C41.7217 22.333 41.8008 22.1572 41.9326 22.0342C42.8027 21.2344 43.1982 20.0566 42.9873 18.8965C42.7851 17.7363 42.0117 16.7695 40.9219 16.3125C40.7549 16.2422 40.623 16.1016 40.5615 15.9346C40.5 15.7676 40.5088 15.5742 40.5967 15.4072C41.1328 14.3525 41.1064 13.1133 40.5176 12.0938C39.9287 11.0742 38.874 10.4238 37.6963 10.3711C37.5117 10.3623 37.3447 10.2744 37.2217 10.1338C37.1074 9.99316 37.0459 9.80859 37.0723 9.62402C37.2217 8.44629 36.7734 7.29492 35.8682 6.53906C34.9717 5.7832 33.7588 5.53711 32.6338 5.88867C32.458 5.94141 32.2646 5.92383 32.1064 5.82715C31.9482 5.73926 31.834 5.58105 31.79 5.40527C31.5264 4.25391 30.7178 3.32227 29.6103 2.91797C28.5029 2.51367 27.29 2.69824 26.3496 3.41895C26.2002 3.5332 26.0156 3.57715 25.831 3.54199C25.6465 3.50684 25.4883 3.40137 25.3916 3.25195C24.75 2.25879 23.6689 1.66113 22.5 1.66113C21.3223 1.66113 20.2412 2.25879 19.6084 3.25195C19.5117 3.41016 19.3535 3.51562 19.1689 3.54199C18.9844 3.57715 18.7998 3.52441 18.6504 3.41895C17.7099 2.70703 16.4971 2.51367 15.3896 2.91797C14.2822 3.32227 13.4736 4.25391 13.2099 5.40527C13.166 5.58105 13.0517 5.73926 12.8935 5.82715C12.7353 5.91504 12.542 5.94141 12.3662 5.88867C11.2412 5.53711 10.0371 5.7832 9.13182 6.53906C8.22655 7.29492 7.77831 8.45508 7.92772 9.62402C7.95409 9.80859 7.89257 9.99316 7.77831 10.1338C7.66405 10.2744 7.48827 10.3623 7.3037 10.3711C6.12596 10.4238 5.07128 11.0742 4.48241 12.0938C3.89354 13.1133 3.86717 14.3525 4.40331 15.4072C4.4912 15.5742 4.49999 15.7588 4.43846 15.9346C4.37694 16.1104 4.2451 16.2422 4.07811 16.3125C2.98827 16.7695 2.22362 17.7363 2.01268 18.8965C1.81053 20.0566 2.20604 21.2344 3.06737 22.0342C3.19921 22.1572 3.27831 22.333 3.27831 22.5176C3.27831 22.7022 3.19921 22.8779 3.06737 23.001C2.19725 23.8008 1.80175 24.9785 2.01268 26.1387C2.21483 27.2988 2.98827 28.2656 4.07811 28.7227C4.2451 28.793 4.37694 28.9336 4.43846 29.1006C4.49999 29.2764 4.4912 29.4609 4.40331 29.6279C3.86717 30.6826 3.89354 31.9219 4.48241 32.9414C5.07128 33.9609 6.12596 34.6113 7.3037 34.6641C7.48827 34.6729 7.65526 34.7607 7.77831 34.9014C7.89257 35.042 7.95409 35.2266 7.92772 35.4111C7.77831 36.5889 8.22655 37.7402 9.13182 38.4961C10.0283 39.252 11.2412 39.498 12.3662 39.1465C12.542 39.0938 12.7353 39.1113 12.8935 39.208C13.0517 39.2959 13.166 39.4541 13.2099 39.6299C13.4736 40.7812 14.2822 41.7129 15.3896 42.1172C16.4971 42.5215 17.7099 42.3369 18.6504 41.6162C18.7646 41.5283 18.9053 41.4844 19.0547 41.4844Z" fill="black"/>
<path d="M22.5 37.1602C30.5966 37.1602 37.1602 30.5966 37.1602 22.5C37.1602 14.4034 30.5966 7.83984 22.5 7.83984C14.4034 7.83984 7.83984 14.4034 7.83984 22.5C7.83984 30.5966 14.4034 37.1602 22.5 37.1602Z" fill="#12B3EF"/>
<path d="M22.5 37.8193C14.0537 37.8193 7.18066 30.9463 7.18066 22.5C7.18066 14.0537 14.0537 7.18066 22.5 7.18066C30.9463 7.18066 37.8193 14.0537 37.8193 22.5C37.8193 30.9463 30.9463 37.8193 22.5 37.8193ZM22.5 8.49902C14.7832 8.49902 8.49902 14.7832 8.49902 22.5C8.49902 30.2168 14.7832 36.501 22.5 36.501C30.2168 36.501 36.501 30.2168 36.501 22.5C36.501 14.7832 30.2168 8.49902 22.5 8.49902Z" fill="black"/>
<path d="M14.7744 22.5C14.7744 15.6006 19.5469 9.80859 25.9717 8.25293C24.8643 7.98047 23.6953 7.83984 22.5088 7.83984C14.4141 7.83984 7.84863 14.4053 7.84863 22.5C7.84863 30.5947 14.4053 37.1602 22.5 37.1602C23.6953 37.1602 24.8555 37.0195 25.9629 36.7471C19.5469 35.1914 14.7744 29.3994 14.7744 22.5Z" fill="#0C86B4"/>
<path d="M22.5 37.8193C14.0537 37.8193 7.18066 30.9463 7.18066 22.5C7.18066 14.0537 14.0537 7.18066 22.5 7.18066C30.9463 7.18066 37.8193 14.0537 37.8193 22.5C37.8193 30.9463 30.9463 37.8193 22.5 37.8193ZM22.5 8.49902C14.7832 8.49902 8.49902 14.7832 8.49902 22.5C8.49902 30.2168 14.7832 36.501 22.5 36.501C30.2168 36.501 36.501 30.2168 36.501 22.5C36.501 14.7832 30.2168 8.49902 22.5 8.49902Z" fill="black"/>
<g clip-path="url(#clip2_728_9621)">
<path d="M32.5978 22.9495C32.5978 23.7252 31.6314 24.3817 31.4664 25.1077C31.2958 25.8569 31.8774 26.8666 31.5508 27.5425C31.2187 28.2295 30.0628 28.4026 29.591 28.9932C29.1165 29.5859 29.2031 30.7499 28.6095 31.2235C28.0181 31.6949 26.9025 31.3533 26.2147 31.6846C25.5375 32.0103 25.1115 33.098 24.3615 33.2686C23.6351 33.4332 22.7801 32.642 22.004 32.642C21.2274 32.642 20.3724 33.4332 19.6455 33.2682C18.8955 33.098 18.4691 32.0103 17.7924 31.6842C17.1045 31.3529 15.9885 31.694 15.398 31.2226C14.804 30.749 14.8905 29.5855 14.4165 28.9923C13.9447 28.4022 12.7884 28.229 12.4567 27.542C12.1301 26.8662 12.7117 25.8565 12.5411 25.1073C12.3761 24.3817 11.4097 23.7252 11.4097 22.9495C11.4097 22.1737 12.3761 21.5172 12.5411 20.7912C12.7117 20.042 12.1305 19.0323 12.4571 18.3569C12.7888 17.6695 13.9451 17.4963 14.417 16.9062C14.891 16.313 14.8044 15.149 15.3984 14.6759C15.9894 14.2045 17.105 14.546 17.7928 14.2143C18.47 13.8886 18.896 12.8009 19.646 12.6307C20.3724 12.4657 21.2274 13.2565 22.004 13.2565C22.7805 13.2565 23.6351 12.4657 24.362 12.6307C25.112 12.8009 25.5384 13.8886 26.2151 14.2147C26.903 14.546 28.0194 14.2049 28.61 14.6763C29.2035 15.1499 29.1174 16.3135 29.5914 16.9066C30.0628 17.4967 31.2191 17.6699 31.5508 18.3569C31.8774 19.0327 31.2958 20.0425 31.4664 20.7916C31.6314 21.5172 32.5978 22.1737 32.5978 22.9495Z" fill="#12B3EF"/>
<path d="M17.8567 31.7184C17.9544 31.7716 18.0478 31.8427 18.137 31.9272C18.0349 31.87 17.9407 31.7999 17.8567 31.7184Z" fill="#F6991D"/>
<path d="M26.1058 14.1573C25.8743 14.015 25.6742 13.7883 25.4736 13.5526C25.7051 13.6991 25.9099 13.9263 26.1058 14.1573Z" fill="#FFED91"/>
<path d="M22.0034 30.1833C26.0033 30.1833 29.2458 26.9446 29.2458 22.9494C29.2458 18.9543 26.0033 15.7156 22.0034 15.7156C18.0035 15.7156 14.761 18.9543 14.761 22.9494C14.761 26.9446 18.0035 30.1833 22.0034 30.1833Z" fill="#FBFBFB"/>
<path d="M22.0034 30.5047C17.8329 30.5047 14.4399 27.1156 14.4399 22.9495C14.4399 18.7833 17.8329 15.3937 22.0034 15.3937C26.1738 15.3937 29.5677 18.7837 29.5677 22.9495C29.5677 27.1152 26.1738 30.5047 22.0034 30.5047ZM22.0034 16.0366C18.1874 16.0366 15.0828 19.1377 15.0828 22.9495C15.0828 26.7612 18.1874 29.8623 22.0034 29.8623C25.8198 29.8623 28.9248 26.7612 28.9248 22.9495C28.9248 19.1377 25.8198 16.0366 22.0034 16.0366Z" fill="black"/>
<path d="M27.6909 18.476C26.4137 17.4649 24.8324 16.9149 23.2033 16.9152C19.2099 16.9152 15.9643 20.1616 15.9643 24.1503C15.9643 25.8359 16.5429 27.392 17.5222 28.6237C15.8396 27.2986 14.7622 25.2487 14.7622 22.9494C14.7622 18.9607 18.0121 15.7147 22.0055 15.7147C24.3069 15.7147 26.3641 16.7947 27.6909 18.476Z" fill="#E5E5E5"/>
<path d="M22.0034 30.5047C17.8329 30.5047 14.4399 27.1156 14.4399 22.9495C14.4399 18.7833 17.8329 15.3937 22.0034 15.3937C26.1738 15.3937 29.5677 18.7837 29.5677 22.9495C29.5677 27.1152 26.1738 30.5047 22.0034 30.5047ZM22.0034 16.0366C18.1874 16.0366 15.0828 19.1377 15.0828 22.9495C15.0828 26.7612 18.1874 29.8623 22.0034 29.8623C25.8198 29.8623 28.9248 26.7612 28.9248 22.9495C28.9248 19.1377 25.8198 16.0366 22.0034 16.0366Z" fill="black"/>
<path d="M22.0033 18.1392L23.1986 21.8142H27.0669L23.9375 24.0852L25.1328 27.7597L22.0033 25.4887L18.8743 27.7597L20.0696 24.0852L16.9402 21.8142H20.808L22.0033 18.1392Z" fill="#12B3EF"/>
<path d="M23.9376 24.083L25.1312 27.7601L22.0056 25.4883L18.8757 27.7606L19.8687 24.7053C21.5959 24.1764 23.0076 23.1359 23.8043 21.815H27.0674L23.9376 24.083Z" fill="#0A8DBE"/>
<path d="M25.1329 28.0811C25.0651 28.081 24.9991 28.0596 24.9443 28.0199L22.0034 25.8856L19.063 28.0199C19.0081 28.0602 18.9418 28.082 18.8737 28.0821C18.8056 28.0822 18.7392 28.0607 18.6841 28.0206C18.6291 27.9805 18.5882 27.924 18.5674 27.8591C18.5466 27.7943 18.547 27.7245 18.5684 27.6599L19.6913 24.2081L16.7513 22.0743C16.6964 22.0344 16.6555 21.9782 16.6344 21.9136C16.6134 21.8491 16.6134 21.7796 16.6343 21.715C16.6553 21.6504 16.6961 21.5942 16.751 21.5542C16.8059 21.5143 16.872 21.4928 16.9399 21.4927H20.5746L21.6979 18.0397C21.7189 17.9752 21.7598 17.9191 21.8147 17.8793C21.8696 17.8394 21.9356 17.818 22.0034 17.818C22.0712 17.818 22.1373 17.8394 22.1922 17.8793C22.2471 17.9191 22.288 17.9752 22.309 18.0397L23.4323 21.4927H27.067C27.1349 21.4928 27.201 21.5143 27.2559 21.5542C27.3108 21.5942 27.3516 21.6504 27.3725 21.715C27.3935 21.7796 27.3934 21.8491 27.3724 21.9136C27.3514 21.9782 27.3105 22.0344 27.2556 22.0743L24.3156 24.2081L25.4384 27.6603C25.4541 27.7085 25.4582 27.7597 25.4503 27.8098C25.4424 27.8599 25.4227 27.9073 25.393 27.9484C25.3632 27.9894 25.3242 28.0228 25.2791 28.0459C25.2339 28.069 25.1836 28.0811 25.1329 28.0811ZM22.0034 25.1669C22.0694 25.1669 22.1363 25.1874 22.192 25.2281L24.5217 26.9189L23.6324 24.1846C23.6113 24.1199 23.6112 24.0503 23.6321 23.9856C23.6531 23.9209 23.694 23.8645 23.749 23.8246L26.077 22.1356H23.1987C23.1309 22.1355 23.0648 22.1141 23.0099 22.0742C22.955 22.0343 22.9141 21.9781 22.8931 21.9136L22.0034 19.1784L21.1137 21.9136C21.0927 21.9781 21.0519 22.0343 20.997 22.0742C20.9421 22.1141 20.876 22.1355 20.8081 22.1356H17.9303L20.2583 23.8246C20.3133 23.8645 20.3542 23.9209 20.3752 23.9856C20.3961 24.0503 20.396 24.1199 20.3749 24.1846L19.4856 26.9189L21.8149 25.2281C21.8697 25.1884 21.9357 25.167 22.0034 25.1669Z" fill="black"/>
</g>
</g>
</g>
<defs>
<clipPath id="clip0_728_9621">
<rect width="45" height="45" fill="white"/>
</clipPath>
<clipPath id="clip1_728_9621">
<rect width="45" height="45" fill="white"/>
</clipPath>
<clipPath id="clip2_728_9621">
<rect width="30" height="30" fill="white" transform="translate(7 11)"/>
</clipPath>
</defs>
</svg>
