<svg width="12" height="13" viewBox="0 0 12 13" fill="none" xmlns="http://www.w3.org/2000/svg">
<path fill-rule="evenodd" clip-rule="evenodd" d="M6 0.5C2.68629 0.5 0 3.18629 0 6.5C0 9.81371 2.68629 12.5 6 12.5C9.31371 12.5 12 9.81371 12 6.5C12 3.18629 9.31371 0.5 6 0.5ZM9.68232 5.23106C10.0861 4.85422 10.1079 4.22143 9.73106 3.81768C9.35422 3.41393 8.72143 3.39211 8.31768 3.76894L4.71429 7.13211L3.68232 6.16894C3.27857 5.79211 2.64578 5.81393 2.26894 6.21768C1.89211 6.62143 1.91393 7.25422 2.31768 7.63106L4.03197 9.23106C4.41617 9.58965 5.0124 9.58965 5.3966 9.23106L9.68232 5.23106Z" fill="#12B3EF"/>
</svg>
