<svg width="65" height="65" viewBox="0 0 65 65" fill="none" xmlns="http://www.w3.org/2000/svg">
<g clip-path="url(#clip0_972_4677)">
<path d="M32.5 65C50.4493 65 65 50.4493 65 32.5C65 14.5507 50.4493 0 32.5 0C14.5507 0 0 14.5507 0 32.5C0 50.4493 14.5507 65 32.5 65Z" fill="#FDBE5E" fill-opacity="0.6"/>
<path d="M8.9375 25.0859V54.7422C8.9375 57.2812 10.9688 59.3125 13.5078 59.3125H51.3906C53.9297 59.3125 55.9609 57.2812 55.9609 54.7422V25.0859H8.9375Z" fill="#E1E6E9"/>
<path d="M51.3906 60.3281H13.5078C10.4609 60.3281 7.92188 57.7891 7.92188 54.7422V25.0859C7.92188 24.4766 8.32812 24.0703 8.9375 24.0703H55.9609C56.5703 24.0703 56.9766 24.4766 56.9766 25.0859V54.7422C56.9766 57.7891 54.4375 60.3281 51.3906 60.3281ZM9.95312 26.1016V54.7422C9.95312 56.6719 11.5781 58.2969 13.5078 58.2969H51.3906C53.3203 58.2969 54.9453 56.6719 54.9453 54.7422V26.1016H9.95312Z" fill="#183651"/>
<path d="M13.5078 56.2656C12.6953 56.2656 11.9844 55.5547 11.9844 54.7422V28.1328H52.9141V54.7422C52.9141 55.5547 52.2031 56.2656 51.3906 56.2656H13.5078Z" fill="white"/>
<path d="M55.9609 25.0859V20.5156C55.9609 17.9766 53.9297 15.9453 51.3906 15.9453H13.5078C10.9688 15.9453 8.9375 17.9766 8.9375 20.5156V25.0859H55.9609Z" fill="#E1E6E9"/>
<path d="M55.9609 26.1016H8.9375C8.32812 26.1016 7.92188 25.6953 7.92188 25.0859V20.5156C7.92188 17.4688 10.4609 14.9297 13.5078 14.9297H51.3906C54.4375 14.9297 56.9766 17.4688 56.9766 20.5156V25.0859C56.9766 25.6953 56.4688 26.1016 55.9609 26.1016ZM9.95312 24.0703H54.9453V20.5156C54.9453 18.5859 53.3203 16.9609 51.3906 16.9609H13.5078C11.5781 16.9609 9.95312 18.5859 9.95312 20.5156V24.0703Z" fill="#183651"/>
<path d="M47.125 36.6641C48.6395 36.6641 49.8672 35.4363 49.8672 33.9219C49.8672 32.4074 48.6395 31.1797 47.125 31.1797C45.6105 31.1797 44.3828 32.4074 44.3828 33.9219C44.3828 35.4363 45.6105 36.6641 47.125 36.6641Z" fill="white"/>
<path d="M47.125 37.6797C45.0938 37.6797 43.3672 35.9531 43.3672 33.9219C43.3672 31.8906 45.0938 30.1641 47.125 30.1641C49.1563 30.1641 50.8828 31.8906 50.8828 33.9219C50.8828 35.9531 49.1563 37.6797 47.125 37.6797ZM47.125 32.1953C46.2109 32.1953 45.3984 33.0078 45.3984 33.9219C45.3984 34.8359 46.2109 35.6484 47.125 35.6484C48.0391 35.6484 48.8516 34.8359 48.8516 33.9219C48.8516 32.9063 48.0391 32.1953 47.125 32.1953Z" fill="#183651"/>
<path d="M17.7734 36.6641C19.2879 36.6641 20.5156 35.4363 20.5156 33.9219C20.5156 32.4074 19.2879 31.1797 17.7734 31.1797C16.259 31.1797 15.0312 32.4074 15.0312 33.9219C15.0312 35.4363 16.259 36.6641 17.7734 36.6641Z" fill="white"/>
<path d="M17.7734 37.6797C15.7422 37.6797 14.0156 35.9531 14.0156 33.9219C14.0156 31.8906 15.7422 30.1641 17.7734 30.1641C19.8047 30.1641 21.5313 31.8906 21.5313 33.9219C21.5313 35.9531 19.8047 37.6797 17.7734 37.6797ZM17.7734 32.1953C16.8594 32.1953 16.0469 33.0078 16.0469 33.9219C16.0469 34.8359 16.8594 35.6484 17.7734 35.6484C18.6875 35.6484 19.5 34.8359 19.5 33.9219C19.5 32.9063 18.6875 32.1953 17.7734 32.1953Z" fill="#183651"/>
<path d="M27.5234 36.6641C29.0379 36.6641 30.2656 35.4363 30.2656 33.9219C30.2656 32.4074 29.0379 31.1797 27.5234 31.1797C26.009 31.1797 24.7812 32.4074 24.7812 33.9219C24.7812 35.4363 26.009 36.6641 27.5234 36.6641Z" fill="white"/>
<path d="M27.5234 37.6797C25.4922 37.6797 23.7656 35.9531 23.7656 33.9219C23.7656 31.8906 25.4922 30.1641 27.5234 30.1641C29.5547 30.1641 31.2812 31.8906 31.2812 33.9219C31.2812 35.9531 29.6563 37.6797 27.5234 37.6797ZM27.5234 32.1953C26.6094 32.1953 25.7969 33.0078 25.7969 33.9219C25.7969 34.8359 26.6094 35.6484 27.5234 35.6484C28.4375 35.6484 29.25 34.8359 29.25 33.9219C29.25 32.9063 28.5391 32.1953 27.5234 32.1953Z" fill="#183651"/>
<path d="M37.375 36.6641C38.8895 36.6641 40.1172 35.4363 40.1172 33.9219C40.1172 32.4074 38.8895 31.1797 37.375 31.1797C35.8605 31.1797 34.6328 32.4074 34.6328 33.9219C34.6328 35.4363 35.8605 36.6641 37.375 36.6641Z" fill="white"/>
<path d="M37.375 37.6797C35.3438 37.6797 33.6172 35.9531 33.6172 33.9219C33.6172 31.8906 35.3438 30.1641 37.375 30.1641C39.4063 30.1641 41.1328 31.8906 41.1328 33.9219C41.1328 35.9531 39.4063 37.6797 37.375 37.6797ZM37.375 32.1953C36.4609 32.1953 35.6484 33.0078 35.6484 33.9219C35.6484 34.8359 36.4609 35.6484 37.375 35.6484C38.2891 35.6484 39.1016 34.8359 39.1016 33.9219C39.1016 32.9063 38.2891 32.1953 37.375 32.1953Z" fill="#183651"/>
<path d="M47.125 44.8906C48.6395 44.8906 49.8672 43.6629 49.8672 42.1484C49.8672 40.634 48.6395 39.4062 47.125 39.4062C45.6105 39.4062 44.3828 40.634 44.3828 42.1484C44.3828 43.6629 45.6105 44.8906 47.125 44.8906Z" fill="white"/>
<path d="M47.125 45.9063C45.0938 45.9063 43.3672 44.1797 43.3672 42.1484C43.3672 40.1172 45.0938 38.3906 47.125 38.3906C49.1563 38.3906 50.8828 40.1172 50.8828 42.1484C50.8828 44.2813 49.1563 45.9063 47.125 45.9063ZM47.125 40.4219C46.2109 40.4219 45.3984 41.2344 45.3984 42.1484C45.3984 43.0625 46.2109 43.875 47.125 43.875C48.0391 43.875 48.8516 43.0625 48.8516 42.1484C48.8516 41.2344 48.0391 40.4219 47.125 40.4219Z" fill="#183651"/>
<path d="M17.7734 44.8906C19.2879 44.8906 20.5156 43.6629 20.5156 42.1484C20.5156 40.634 19.2879 39.4062 17.7734 39.4062C16.259 39.4062 15.0312 40.634 15.0312 42.1484C15.0312 43.6629 16.259 44.8906 17.7734 44.8906Z" fill="white"/>
<path d="M17.7734 45.9063C15.7422 45.9063 14.0156 44.1797 14.0156 42.1484C14.0156 40.1172 15.7422 38.3906 17.7734 38.3906C19.8047 38.3906 21.5313 40.1172 21.5313 42.1484C21.5313 44.2813 19.8047 45.9063 17.7734 45.9063ZM17.7734 40.4219C16.8594 40.4219 16.0469 41.2344 16.0469 42.1484C16.0469 43.0625 16.8594 43.875 17.7734 43.875C18.6875 43.875 19.5 43.0625 19.5 42.1484C19.5 41.2344 18.6875 40.4219 17.7734 40.4219Z" fill="#183651"/>
<path d="M27.5234 44.8906C29.0379 44.8906 30.2656 43.6629 30.2656 42.1484C30.2656 40.634 29.0379 39.4062 27.5234 39.4062C26.009 39.4062 24.7812 40.634 24.7812 42.1484C24.7812 43.6629 26.009 44.8906 27.5234 44.8906Z" fill="white"/>
<path d="M27.5234 45.9063C25.4922 45.9063 23.7656 44.1797 23.7656 42.1484C23.7656 40.1172 25.4922 38.3906 27.5234 38.3906C29.5547 38.3906 31.2812 40.1172 31.2812 42.1484C31.2812 44.2813 29.6563 45.9063 27.5234 45.9063ZM27.5234 40.4219C26.6094 40.4219 25.7969 41.2344 25.7969 42.1484C25.7969 43.0625 26.6094 43.875 27.5234 43.875C28.4375 43.875 29.25 43.0625 29.25 42.1484C29.25 41.2344 28.5391 40.4219 27.5234 40.4219Z" fill="#183651"/>
<path d="M37.375 44.8906C38.8895 44.8906 40.1172 43.6629 40.1172 42.1484C40.1172 40.634 38.8895 39.4062 37.375 39.4062C35.8605 39.4062 34.6328 40.634 34.6328 42.1484C34.6328 43.6629 35.8605 44.8906 37.375 44.8906Z" fill="white"/>
<path d="M37.375 45.9063C35.3438 45.9063 33.6172 44.1797 33.6172 42.1484C33.6172 40.1172 35.3438 38.3906 37.375 38.3906C39.4063 38.3906 41.1328 40.1172 41.1328 42.1484C41.1328 44.2813 39.4063 45.9063 37.375 45.9063ZM37.375 40.4219C36.4609 40.4219 35.6484 41.2344 35.6484 42.1484C35.6484 43.0625 36.4609 43.875 37.375 43.875C38.2891 43.875 39.1016 43.0625 39.1016 42.1484C39.1016 41.2344 38.2891 40.4219 37.375 40.4219Z" fill="#183651"/>
<path d="M47.125 53.2188C48.6395 53.2188 49.8672 51.991 49.8672 50.4766C49.8672 48.9621 48.6395 47.7344 47.125 47.7344C45.6105 47.7344 44.3828 48.9621 44.3828 50.4766C44.3828 51.991 45.6105 53.2188 47.125 53.2188Z" fill="white"/>
<path d="M47.125 54.2344C45.0938 54.2344 43.3672 52.5078 43.3672 50.4766C43.3672 48.4453 45.0938 46.7188 47.125 46.7188C49.1563 46.7188 50.8828 48.4453 50.8828 50.4766C50.8828 52.5078 49.1563 54.2344 47.125 54.2344ZM47.125 48.75C46.2109 48.75 45.3984 49.5625 45.3984 50.4766C45.3984 51.3906 46.2109 52.2031 47.125 52.2031C48.0391 52.2031 48.8516 51.3906 48.8516 50.4766C48.8516 49.4609 48.0391 48.75 47.125 48.75Z" fill="#183651"/>
<path d="M17.7734 53.2188C19.2879 53.2188 20.5156 51.991 20.5156 50.4766C20.5156 48.9621 19.2879 47.7344 17.7734 47.7344C16.259 47.7344 15.0312 48.9621 15.0312 50.4766C15.0312 51.991 16.259 53.2188 17.7734 53.2188Z" fill="white"/>
<path d="M17.7734 54.2344C15.7422 54.2344 14.0156 52.5078 14.0156 50.4766C14.0156 48.4453 15.7422 46.7188 17.7734 46.7188C19.8047 46.7188 21.5313 48.4453 21.5313 50.4766C21.5313 52.5078 19.8047 54.2344 17.7734 54.2344ZM17.7734 48.75C16.8594 48.75 16.0469 49.5625 16.0469 50.4766C16.0469 51.3906 16.8594 52.2031 17.7734 52.2031C18.6875 52.2031 19.5 51.3906 19.5 50.4766C19.5 49.4609 18.6875 48.75 17.7734 48.75Z" fill="#183651"/>
<path d="M27.5234 53.2188C29.0379 53.2188 30.2656 51.991 30.2656 50.4766C30.2656 48.9621 29.0379 47.7344 27.5234 47.7344C26.009 47.7344 24.7812 48.9621 24.7812 50.4766C24.7812 51.991 26.009 53.2188 27.5234 53.2188Z" fill="white"/>
<path d="M27.5234 54.2344C25.4922 54.2344 23.7656 52.5078 23.7656 50.4766C23.7656 48.4453 25.4922 46.7188 27.5234 46.7188C29.5547 46.7188 31.2812 48.4453 31.2812 50.4766C31.2812 52.5078 29.6563 54.2344 27.5234 54.2344ZM27.5234 48.75C26.6094 48.75 25.7969 49.5625 25.7969 50.4766C25.7969 51.3906 26.6094 52.2031 27.5234 52.2031C28.4375 52.2031 29.25 51.3906 29.25 50.4766C29.25 49.4609 28.5391 48.75 27.5234 48.75Z" fill="#183651"/>
<path d="M37.375 53.2188C38.8895 53.2188 40.1172 51.991 40.1172 50.4766C40.1172 48.9621 38.8895 47.7344 37.375 47.7344C35.8605 47.7344 34.6328 48.9621 34.6328 50.4766C34.6328 51.991 35.8605 53.2188 37.375 53.2188Z" fill="white"/>
<path d="M37.375 54.2344C35.3438 54.2344 33.6172 52.5078 33.6172 50.4766C33.6172 48.4453 35.3438 46.7188 37.375 46.7188C39.4063 46.7188 41.1328 48.4453 41.1328 50.4766C41.1328 52.5078 39.4063 54.2344 37.375 54.2344ZM37.375 48.75C36.4609 48.75 35.6484 49.5625 35.6484 50.4766C35.6484 51.3906 36.4609 52.2031 37.375 52.2031C38.2891 52.2031 39.1016 51.3906 39.1016 50.4766C39.1016 49.4609 38.2891 48.75 37.375 48.75Z" fill="#183651"/>
<path d="M47.8359 11.4766C46.6172 11.4766 45.6016 12.4922 45.6016 13.7109V18.3828C45.6016 19.6016 46.6172 20.6172 47.8359 20.6172C49.0547 20.6172 50.0703 19.6016 50.0703 18.3828V13.7109C50.0703 12.4922 49.0547 11.4766 47.8359 11.4766Z" fill="white"/>
<path d="M47.8359 21.6328C46.0078 21.6328 44.5859 20.1094 44.5859 18.3828V13.7109C44.5859 11.8828 46.1094 10.4609 47.8359 10.4609C49.6641 10.4609 51.0859 11.9844 51.0859 13.7109V18.3828C51.0859 20.1094 49.6641 21.6328 47.8359 21.6328ZM47.8359 12.4922C47.125 12.4922 46.6172 13.1016 46.6172 13.7109V18.3828C46.6172 19.0938 47.2266 19.6016 47.8359 19.6016C48.5469 19.6016 49.0547 18.9922 49.0547 18.3828V13.7109C49.0547 13 48.5469 12.4922 47.8359 12.4922Z" fill="#183651"/>
<path d="M37.5781 11.4766C36.3594 11.4766 35.3438 12.4922 35.3438 13.7109V18.3828C35.3438 19.6016 36.3594 20.6172 37.5781 20.6172C38.7969 20.6172 39.8125 19.6016 39.8125 18.3828V13.7109C39.8125 12.4922 38.7969 11.4766 37.5781 11.4766Z" fill="white"/>
<path d="M37.5781 21.6328C35.75 21.6328 34.3281 20.1094 34.3281 18.3828V13.7109C34.3281 11.8828 35.8516 10.4609 37.5781 10.4609C39.4063 10.4609 40.8281 11.9844 40.8281 13.7109V18.3828C40.8281 20.1094 39.4063 21.6328 37.5781 21.6328ZM37.5781 12.4922C36.8672 12.4922 36.3594 13.1016 36.3594 13.7109V18.3828C36.3594 19.0938 36.9688 19.6016 37.5781 19.6016C38.2891 19.6016 38.7969 18.9922 38.7969 18.3828V13.7109C38.7969 13 38.2891 12.4922 37.5781 12.4922Z" fill="#183651"/>
<path d="M27.3203 11.4766C26.1016 11.4766 25.0859 12.4922 25.0859 13.7109V18.3828C25.0859 19.6016 26.1016 20.6172 27.3203 20.6172C28.5391 20.6172 29.5547 19.6016 29.5547 18.3828V13.7109C29.5547 12.4922 28.5391 11.4766 27.3203 11.4766Z" fill="white"/>
<path d="M27.3203 21.6328C25.4922 21.6328 24.0703 20.1094 24.0703 18.3828V13.7109C24.0703 11.8828 25.5937 10.4609 27.3203 10.4609C29.0469 10.4609 30.5703 11.9844 30.5703 13.7109V18.3828C30.5703 20.1094 29.1484 21.6328 27.3203 21.6328ZM27.3203 12.4922C26.6094 12.4922 26.1016 13.1016 26.1016 13.7109V18.3828C26.1016 19.0938 26.7109 19.6016 27.3203 19.6016C28.0312 19.6016 28.5391 18.9922 28.5391 18.3828V13.7109C28.5391 13 28.0312 12.4922 27.3203 12.4922Z" fill="#183651"/>
<path d="M17.0625 11.4766C15.8437 11.4766 14.8281 12.4922 14.8281 13.7109V18.3828C14.8281 19.6016 15.8437 20.6172 17.0625 20.6172C18.2812 20.6172 19.2969 19.6016 19.2969 18.3828V13.7109C19.2969 12.4922 18.2812 11.4766 17.0625 11.4766Z" fill="white"/>
<path d="M17.0625 21.6328C15.2344 21.6328 13.8125 20.1094 13.8125 18.3828V13.7109C13.8125 11.8828 15.3359 10.4609 17.0625 10.4609C18.8906 10.4609 20.3125 11.9844 20.3125 13.7109V18.3828C20.3125 20.1094 18.8906 21.6328 17.0625 21.6328ZM17.0625 12.4922C16.3516 12.4922 15.8438 13.1016 15.8438 13.7109V18.3828C15.8438 19.0938 16.4531 19.6016 17.0625 19.6016C17.7734 19.6016 18.2812 18.9922 18.2812 18.3828V13.7109C18.2812 13 17.7734 12.4922 17.0625 12.4922Z" fill="#183651"/>
</g>
<defs>
<clipPath id="clip0_972_4677">
<rect width="65" height="65" fill="white"/>
</clipPath>
</defs>
</svg>
