<svg width="24" height="24" viewBox="0 0 24 24" fill="none" xmlns="http://www.w3.org/2000/svg">
<path d="M2.625 8.75073H21.375V19.4502C21.375 19.9607 21.1722 20.4502 20.8113 20.8112C20.4503 21.1721 19.9608 21.3749 19.4503 21.3749H4.54969C4.03923 21.3749 3.54968 21.1721 3.18873 20.8112C2.82778 20.4502 2.625 19.9607 2.625 19.4502V8.75073Z" fill="white"/>
<path d="M4.54969 4.61719H19.4503C19.9608 4.61719 20.4503 4.81997 20.8113 5.18092C21.1722 5.54186 21.375 6.03142 21.375 6.54187V8.75081H2.625V6.54187C2.625 6.03142 2.82778 5.54186 3.18873 5.18092C3.54968 4.81997 4.03923 4.61719 4.54969 4.61719Z" fill="url(#paint0_linear_424_41687)"/>
<path d="M6.76163 19.3125C6.82379 19.3125 6.8834 19.2878 6.92735 19.2439C6.97131 19.1999 6.996 19.1403 6.996 19.0781V10.9219C6.996 10.8597 6.97131 10.8001 6.92735 10.7561C6.8834 10.7122 6.82379 10.6875 6.76163 10.6875C6.69947 10.6875 6.63985 10.7122 6.5959 10.7561C6.55194 10.8001 6.52725 10.8597 6.52725 10.9219V14.7656H4.78125C4.71909 14.7656 4.65948 14.7903 4.61552 14.8343C4.57157 14.8782 4.54688 14.9378 4.54688 15C4.54688 15.0622 4.57157 15.1218 4.61552 15.1657C4.65948 15.2097 4.71909 15.2344 4.78125 15.2344H6.52725V19.0781C6.52725 19.1403 6.55194 19.1999 6.5959 19.2439C6.63985 19.2878 6.69947 19.3125 6.76163 19.3125ZM10.2538 10.6875C10.1917 10.6875 10.132 10.7122 10.0881 10.7561C10.0441 10.8001 10.0194 10.8597 10.0194 10.9219V14.7656H8.21944C8.15728 14.7656 8.09766 14.7903 8.05371 14.8343C8.00976 14.8782 7.98506 14.9378 7.98506 15C7.98506 15.0622 8.00976 15.1218 8.05371 15.1657C8.09766 15.2097 8.15728 15.2344 8.21944 15.2344H10.0194V19.0781C10.0194 19.1403 10.0441 19.1999 10.0881 19.2439C10.132 19.2878 10.1917 19.3125 10.2538 19.3125C10.316 19.3125 10.3756 19.2878 10.4195 19.2439C10.4635 19.1999 10.4882 19.1403 10.4882 19.0781V15.2344H13.5116V19.0781C13.5116 19.1403 13.5363 19.1999 13.5803 19.2439C13.6242 19.2878 13.6838 19.3125 13.746 19.3125C13.8082 19.3125 13.8678 19.2878 13.9117 19.2439C13.9557 19.1999 13.9804 19.1403 13.9804 19.0781V10.9219C13.9804 10.8597 13.9557 10.8001 13.9117 10.7561C13.8678 10.7122 13.8082 10.6875 13.746 10.6875C13.6838 10.6875 13.6242 10.7122 13.5803 10.7561C13.5363 10.8001 13.5116 10.8597 13.5116 10.9219V14.7656H10.4882V10.9219C10.4882 10.8597 10.4635 10.8001 10.4195 10.7561C10.3756 10.7122 10.316 10.6875 10.2538 10.6875ZM17.2382 10.6875C17.176 10.6875 17.1164 10.7122 17.0725 10.7561C17.0285 10.8001 17.0038 10.8597 17.0038 10.9219V14.7656H15.2891C15.227 14.7656 15.1674 14.7903 15.1234 14.8343C15.0794 14.8782 15.0548 14.9378 15.0548 15C15.0548 15.0622 15.0794 15.1218 15.1234 15.1657C15.1674 15.2097 15.227 15.2344 15.2891 15.2344H17.0038V19.0781C17.0038 19.1403 17.0285 19.1999 17.0725 19.2439C17.1164 19.2878 17.176 19.3125 17.2382 19.3125C17.3003 19.3125 17.36 19.2878 17.4039 19.2439C17.4479 19.1999 17.4726 19.1403 17.4726 19.0781V15.2344H19.2188C19.2809 15.2344 19.3405 15.2097 19.3845 15.1657C19.4284 15.1218 19.4531 15.0622 19.4531 15C19.4531 14.9378 19.4284 14.8782 19.3845 14.8343C19.3405 14.7903 19.2809 14.7656 19.2188 14.7656H17.4726V10.9219C17.4726 10.8597 17.4479 10.8001 17.4039 10.7561C17.36 10.7122 17.3003 10.6875 17.2382 10.6875Z" fill="#670100"/>
<path d="M19.4501 4.38289H18.7969C18.7347 4.38289 18.6751 4.40758 18.6311 4.45153C18.5872 4.49549 18.5625 4.5551 18.5625 4.61726C18.5625 4.67942 18.5872 4.73904 18.6311 4.78299C18.6751 4.82694 18.7347 4.85164 18.7969 4.85164H19.4501C19.8983 4.85208 20.328 5.03031 20.6449 5.3472C20.9619 5.66409 21.1401 6.09377 21.1406 6.54195V8.51651H4.125C4.06284 8.51651 4.00323 8.5412 3.95927 8.58516C3.91532 8.62911 3.89062 8.68873 3.89062 8.75089C3.89062 8.81305 3.91532 8.87266 3.95927 8.91661C4.00323 8.96057 4.06284 8.98526 4.125 8.98526H21.1406V19.4504C21.1401 19.8986 20.9619 20.3282 20.6449 20.6451C20.328 20.962 19.8983 21.1403 19.4501 21.1407H4.54988C4.1017 21.1403 3.672 20.962 3.35507 20.6451C3.03814 20.3282 2.85987 19.8986 2.85938 19.4504V6.54195C2.85987 6.09377 3.03814 5.66409 3.35507 5.3472C3.672 5.03031 4.1017 4.85208 4.54988 4.85164H6.57037C6.63253 4.85164 6.69215 4.82694 6.7361 4.78299C6.78006 4.73904 6.80475 4.67942 6.80475 4.61726C6.8043 4.34184 6.88327 4.07212 7.0322 3.84044C7.18113 3.60875 7.39371 3.42492 7.64445 3.31096C7.8952 3.19701 8.17348 3.15776 8.44596 3.19793C8.71844 3.2381 8.97356 3.35598 9.18075 3.53745C9.00669 3.78908 8.89628 4.07919 8.859 4.38289H8.03906C7.9769 4.38289 7.91729 4.40758 7.87333 4.45153C7.82938 4.49549 7.80469 4.5551 7.80469 4.61726C7.80469 4.67942 7.82938 4.73904 7.87333 4.78299C7.91729 4.82694 7.9769 4.85164 8.03906 4.85164H9.65306C9.59733 5.18652 9.42473 5.49081 9.16591 5.7105C8.90709 5.93019 8.5788 6.05105 8.23931 6.05164C8.17715 6.05164 8.11754 6.07633 8.07358 6.12028C8.02963 6.16424 8.00494 6.22385 8.00494 6.28601C8.00494 6.34817 8.02963 6.40778 8.07358 6.45174C8.11754 6.49569 8.17715 6.52039 8.23931 6.52039C8.70313 6.51968 9.15076 6.34977 9.49824 6.04255C9.84571 5.73532 10.0692 5.31187 10.1267 4.85164H12.1601C12.1044 5.18652 11.9318 5.49081 11.673 5.7105C11.4142 5.93019 11.0859 6.05105 10.7464 6.05164C10.6842 6.05164 10.6246 6.07633 10.5806 6.12028C10.5367 6.16424 10.512 6.22385 10.512 6.28601C10.512 6.34817 10.5367 6.40778 10.5806 6.45174C10.6246 6.49569 10.6842 6.52039 10.7464 6.52039C11.2102 6.51968 11.6578 6.34977 12.0053 6.04255C12.3528 5.73532 12.5762 5.31187 12.6337 4.85164H14.6674C14.6116 5.1865 14.439 5.49078 14.1802 5.71046C13.9214 5.93014 13.5931 6.05102 13.2536 6.05164C13.1915 6.05164 13.1319 6.07633 13.0879 6.12028C13.0439 6.16424 13.0192 6.22385 13.0192 6.28601C13.0192 6.34817 13.0439 6.40778 13.0879 6.45174C13.1319 6.49569 13.1915 6.52039 13.2536 6.52039C13.7174 6.51968 14.1651 6.34977 14.5125 6.04255C14.86 5.73532 15.0835 5.31187 15.141 4.85164H17.175C17.1193 5.18652 16.9467 5.49081 16.6879 5.7105C16.429 5.93019 16.1007 6.05105 15.7612 6.05164C15.6991 6.05164 15.6395 6.07633 15.5955 6.12028C15.5516 6.16424 15.5269 6.22385 15.5269 6.28601C15.5269 6.34817 15.5516 6.40778 15.5955 6.45174C15.6395 6.49569 15.6991 6.52039 15.7612 6.52039C16.0693 6.52104 16.3729 6.44692 16.646 6.30438C16.9191 6.16184 17.1535 5.95515 17.3291 5.70205C17.5047 5.44896 17.6162 5.15702 17.6541 4.85131C17.692 4.54561 17.6552 4.23527 17.5467 3.94695C17.4383 3.65862 17.2615 3.40093 17.0315 3.19601C16.8015 2.99108 16.5252 2.84505 16.2263 2.77044C15.9274 2.69583 15.6149 2.69487 15.3156 2.76766C15.0162 2.84045 14.7391 2.9848 14.5078 3.18832C14.1619 2.88246 13.716 2.71362 13.2543 2.71362C12.7925 2.71362 12.3467 2.88246 12.0007 3.18832C11.6548 2.88246 11.209 2.71362 10.7472 2.71362C10.2855 2.71362 9.83962 2.88246 9.49369 3.18832C9.23428 2.95958 8.91733 2.80602 8.57703 2.74422C8.23674 2.68242 7.88604 2.71473 7.56276 2.83765C7.23949 2.96058 6.95592 3.16946 6.74267 3.44174C6.52941 3.71403 6.39457 4.03939 6.35269 4.3827H4.54988C3.97739 4.38329 3.42852 4.61098 3.02371 5.01579C2.6189 5.42059 2.39122 5.96946 2.39062 6.54195V19.4504C2.39127 20.0228 2.61898 20.5717 3.02378 20.9764C3.42858 21.3812 3.97742 21.6089 4.54988 21.6094H19.4503C20.0228 21.6089 20.5716 21.3812 20.9764 20.9764C21.3812 20.5717 21.6089 20.0228 21.6096 19.4504V6.54195C21.6089 5.96946 21.3812 5.42061 20.9763 5.01584C20.5715 4.61107 20.0226 4.38343 19.4501 4.38289ZM9.49294 3.92145C9.5725 4.06489 9.62667 4.221 9.65306 4.38289H9.33262C9.35907 4.22098 9.41331 4.06487 9.49294 3.92145ZM12 3.92145C12.0796 4.06489 12.1337 4.221 12.1601 4.38289H11.8397C11.8661 4.22098 11.9204 4.06487 12 3.92145ZM14.5071 3.92145C14.5866 4.06489 14.6408 4.221 14.6672 4.38289H14.3469C14.3733 4.221 14.4275 4.06489 14.5071 3.92145ZM17.175 4.38289H15.141C15.1037 4.07919 14.9933 3.78908 14.8193 3.53745C15.0112 3.36902 15.2448 3.25505 15.4957 3.20738C15.7466 3.1597 16.0057 3.18006 16.2461 3.26633C16.4865 3.3526 16.6994 3.50164 16.8628 3.69799C17.0261 3.89433 17.1339 4.13081 17.175 4.38289ZM14.1956 3.53745C14.0216 3.78908 13.9112 4.07919 13.8739 4.38289H12.6345C12.5972 4.07919 12.4868 3.78908 12.3127 3.53745C12.5731 3.30878 12.9077 3.18267 13.2542 3.18267C13.6007 3.18267 13.9353 3.30878 14.1956 3.53745ZM11.6886 3.53745C11.5145 3.78908 11.4041 4.07919 11.3668 4.38289H10.1269C10.0896 4.07919 9.97919 3.78908 9.80512 3.53745C10.0654 3.30878 10.4001 3.18267 10.7466 3.18267C11.093 3.18267 11.4277 3.30878 11.688 3.53745H11.6886Z" fill="#670100"/>
<defs>
<linearGradient id="paint0_linear_424_41687" x1="2.625" y1="6.684" x2="21.375" y2="6.684" gradientUnits="userSpaceOnUse">
<stop stop-color="#FFC6CE" stop-opacity="0.75"/>
<stop offset="1" stop-color="#FFA5A5"/>
</linearGradient>
</defs>
</svg>
