<svg width="20" height="20" viewBox="0 0 20 20" fill="none" xmlns="http://www.w3.org/2000/svg">
<g clip-path="url(#clip0_398_28914)">
<path d="M10 20C15.5228 20 20 15.5228 20 10C20 4.47715 15.5228 0 10 0C4.47715 0 0 4.47715 0 10C0 15.5228 4.47715 20 10 20Z" fill="#1D951B"/>
<path fill-rule="evenodd" clip-rule="evenodd" d="M11.559 12.4922C11.3925 12.5979 11.1841 12.6131 11.004 12.5327C10.647 12.3347 9.99598 11.8622 9.09298 10.9592C8.18998 10.0562 7.67548 9.36169 7.47598 9.00919C7.39555 8.82911 7.41075 8.62069 7.51648 8.45419L8.03548 7.54519C8.22148 7.22269 8.26348 7.01869 8.06098 6.70519L6.72748 4.66369C6.34798 4.06369 6.15448 4.09069 5.82748 4.24069C4.12648 5.01469 3.46198 6.10969 5.87548 9.92119C6.52648 10.9487 8.51548 13.1237 10.212 14.2247C13.845 16.5842 15.0405 15.8747 15.75 14.2247C15.9 13.8917 15.966 13.6982 15.3945 13.3247L13.3305 12.0122C13.017 11.8112 12.864 11.7587 12.54 11.9462L11.559 12.4922Z" fill="white"/>
</g>
<defs>
<clipPath id="clip0_398_28914">
<rect width="20" height="20" fill="white"/>
</clipPath>
</defs>
</svg>
