<svg width="24" height="24" viewBox="0 0 24 24" fill="none" xmlns="http://www.w3.org/2000/svg">
<g clip-path="url(#clip0_943_2842)">
<g clip-path="url(#clip1_943_2842)">
<path d="M16.6444 6.62939C15.6234 6.92459 14.65 7.36811 13.6281 7.66139C11.627 8.23451 9.51064 8.21435 7.44713 8.48699C5.38313 8.75867 3.23753 9.40091 1.86473 10.9662C0.0815262 12.9995 0.0997661 16.2174 1.46585 18.5516C2.83193 20.8859 5.30441 22.4075 7.89544 23.1851C10.0372 23.8278 12.3345 24.0193 14.5242 23.5643C16.714 23.1092 18.7857 21.9836 20.2314 20.2777C21.2418 19.0859 21.9244 17.6521 22.4898 16.1953C23.2118 14.3368 23.7666 12.3241 23.4076 10.3633C22.786 6.96539 19.7428 5.73371 16.6444 6.62939Z" fill="#FFE8B6"/>
<path d="M2.21959 8.11105C2.47408 8.11105 2.68039 7.90475 2.68039 7.65025C2.68039 7.39576 2.47408 7.18945 2.21959 7.18945C1.9651 7.18945 1.75879 7.39576 1.75879 7.65025C1.75879 7.90475 1.9651 8.11105 2.21959 8.11105Z" fill="#FF5892"/>
<path d="M22.5991 16.9205C22.5963 16.8583 22.6061 16.7962 22.6279 16.7379C22.6498 16.6795 22.6832 16.6262 22.7262 16.5812C22.7693 16.5362 22.821 16.5003 22.8782 16.4758C22.9355 16.4513 22.9971 16.4387 23.0594 16.4387C23.1217 16.4387 23.1834 16.4513 23.2406 16.4758C23.2979 16.5003 23.3496 16.5362 23.3926 16.5812C23.4356 16.6262 23.4691 16.6795 23.4909 16.7379C23.5128 16.7962 23.5226 16.8583 23.5198 16.9205C23.5143 17.039 23.4635 17.1508 23.3777 17.2327C23.292 17.3146 23.178 17.3603 23.0594 17.3603C22.9409 17.3603 22.8269 17.3146 22.7411 17.2327C22.6554 17.1508 22.6045 17.039 22.5991 16.9205Z" fill="#06D506"/>
<path d="M19.5233 4.49289C19.7778 4.49289 19.9841 4.28658 19.9841 4.03209C19.9841 3.7776 19.7778 3.57129 19.5233 3.57129C19.2688 3.57129 19.0625 3.7776 19.0625 4.03209C19.0625 4.28658 19.2688 4.49289 19.5233 4.49289Z" fill="#FF5F4A"/>
<path d="M17.0867 6.08067V7.65027H14.6723V5.95587C14.6723 4.17027 13.2179 2.71587 11.4323 2.71587H11.4275C9.63708 2.71587 8.18748 4.17027 8.18748 5.95587V7.65027H5.77308V6.08067C5.77308 2.96067 8.30748 0.42627 11.4275 0.42627H11.4323C14.5523 0.42627 17.0867 2.96067 17.0867 6.08067ZM12.2305 12.6811L12.9457 15.0043C12.9564 15.0393 12.9587 15.0762 12.9525 15.1121C12.9463 15.1481 12.9318 15.1821 12.9101 15.2115C12.8884 15.2408 12.8601 15.2647 12.8276 15.2811C12.795 15.2976 12.759 15.3062 12.7225 15.3063H10.1353C10.0988 15.3062 10.0627 15.2976 10.0301 15.2811C9.9975 15.2646 9.9692 15.2407 9.9475 15.2113C9.92579 15.1819 9.91129 15.1478 9.90514 15.1118C9.899 15.0758 9.90139 15.0388 9.91212 15.0039L10.6273 12.6807C10.3202 12.5106 10.0751 12.2472 9.92756 11.9286C9.78 11.61 9.73761 11.2528 9.80652 10.9085C9.92652 10.2874 10.4161 9.77331 11.032 9.62883C11.2757 9.56924 11.5298 9.56577 11.7751 9.6187C12.0204 9.67162 12.2505 9.77955 12.448 9.93434C12.6455 10.0891 12.8053 10.2868 12.9153 10.5123C13.0253 10.7378 13.0826 10.9854 13.083 11.2363C13.0826 11.5313 13.0034 11.8208 12.8535 12.0748C12.7036 12.3289 12.4885 12.5382 12.2305 12.6811ZM5.36748 21.0883C5.36748 21.6216 4.9326 22.0507 4.40508 22.0507C4.15066 22.0507 3.90667 21.9497 3.72677 21.7698C3.54687 21.5899 3.4458 21.3459 3.4458 21.0915C3.4458 20.837 3.54687 20.5931 3.72677 20.4132C3.90667 20.2333 4.15066 20.1322 4.40508 20.1322C4.9326 20.1322 5.36748 20.5613 5.36748 21.0883ZM9.11964 21.0883C9.11964 21.6216 8.68428 22.0507 8.15724 22.0507C7.90282 22.0507 7.65883 21.9497 7.47893 21.7698C7.29903 21.5899 7.19796 21.3459 7.19796 21.0915C7.19796 20.837 7.29903 20.5931 7.47893 20.4132C7.65883 20.2333 7.90282 20.1322 8.15724 20.1322C8.68428 20.1322 9.11964 20.5613 9.11964 21.0883ZM12.8713 21.0883C12.8713 21.6216 12.436 22.0507 11.9089 22.0507C11.6545 22.0507 11.4105 21.9497 11.2306 21.7698C11.0507 21.5899 10.9496 21.3459 10.9496 21.0915C10.9496 20.837 11.0507 20.5931 11.2306 20.4132C11.4105 20.2333 11.6545 20.1322 11.9089 20.1322C12.436 20.1322 12.8713 20.5613 12.8713 21.0883ZM16.623 21.0883C16.623 21.6216 16.1881 22.0507 15.6611 22.0507C15.4067 22.0507 15.1627 21.9497 14.9828 21.7698C14.8029 21.5899 14.7018 21.3459 14.7018 21.0915C14.7018 20.837 14.8029 20.5931 14.9828 20.4132C15.1627 20.2333 15.4067 20.1322 15.6611 20.1322C16.1881 20.1322 16.623 20.5613 16.623 21.0883ZM20.3752 21.0883C20.3752 21.6216 19.9398 22.0507 19.4128 22.0507C19.1583 22.0507 18.9143 21.9497 18.7344 21.7698C18.5545 21.5899 18.4535 21.3459 18.4535 21.0915C18.4535 20.837 18.5545 20.5931 18.7344 20.4132C18.9143 20.2333 19.1583 20.1322 19.4128 20.1322C19.9398 20.1322 20.3752 20.5613 20.3752 21.0883Z" fill="#FDCB4D"/>
<path d="M17.3384 7.40548H17.2328V6.08068C17.2328 2.83108 14.588 0.186279 11.3336 0.186279C8.08396 0.186279 5.43916 2.83108 5.43916 6.08068V7.40548H5.32876C4.55116 7.40548 3.92236 8.03908 3.92236 8.81668V16.4823C3.92236 17.2599 4.55116 17.8935 5.32876 17.8935H17.3384C18.116 17.8935 18.7496 17.2599 18.7496 16.4823V8.81668C18.7496 8.03908 18.116 7.40548 17.3384 7.40548ZM5.91916 6.08068C5.91916 3.09508 8.34796 0.666279 11.3384 0.666279C14.324 0.666279 16.7528 3.09508 16.7528 6.08068V7.40548H14.8184V5.95588C14.8184 5.03229 14.4515 4.14653 13.7984 3.49345C13.1453 2.84037 12.2596 2.47348 11.336 2.47348C10.4124 2.47348 9.52661 2.84037 8.87353 3.49345C8.22046 4.14653 7.85356 5.03229 7.85356 5.95588V7.40548H5.91916V6.08068ZM14.3384 5.95588V7.40548H8.33356V5.95588C8.33356 4.29988 9.67756 2.95588 11.3384 2.95588C12.9944 2.95588 14.3384 4.29988 14.3384 5.95588ZM18.2696 16.4823C18.2696 16.9959 17.852 17.4135 17.3384 17.4135H5.32876C5.08263 17.4122 4.847 17.3135 4.67341 17.139C4.49981 16.9646 4.40236 16.7284 4.40236 16.4823V8.81668C4.40236 8.30308 4.81996 7.88548 5.32876 7.88548H17.3384C17.852 7.88548 18.2696 8.30308 18.2696 8.81668V16.4823Z" fill="#2E3F68"/>
<path d="M10.1109 12.8318L9.4749 14.8972C9.4197 15.0763 9.45282 15.2735 9.56466 15.4243C9.6765 15.575 9.85458 15.6657 10.0423 15.6657H12.6295C12.7223 15.6656 12.8138 15.6437 12.8966 15.6018C12.9795 15.5599 13.0514 15.4992 13.1065 15.4245C13.1617 15.3499 13.1986 15.2633 13.2143 15.1718C13.2299 15.0804 13.224 14.9865 13.1968 14.8977L12.5603 12.8318C12.8054 12.644 13.004 12.4024 13.1408 12.1257C13.2776 11.849 13.349 11.5445 13.3495 11.2358C13.3495 9.94793 12.1495 8.97257 10.8563 9.27737C10.1075 9.45305 9.50706 10.0809 9.36018 10.8393C9.28775 11.2084 9.31962 11.5903 9.45223 11.9423C9.58484 12.2942 9.81293 12.6023 10.1109 12.8318ZM10.0672 10.9761C10.1152 10.7366 10.2303 10.5156 10.3991 10.339C10.5679 10.1624 10.7834 10.0374 11.0205 9.97865C11.2114 9.93133 11.4107 9.92806 11.6031 9.9691C11.7955 10.0101 11.976 10.0944 12.131 10.2155C12.286 10.3366 12.4115 10.4914 12.4978 10.6682C12.5842 10.845 12.6292 11.039 12.6295 11.2358C12.6295 11.7033 12.3736 12.1363 11.9618 12.3662C11.8897 12.4062 11.8337 12.4698 11.8029 12.5462C11.7721 12.6227 11.7686 12.7074 11.7928 12.7862L12.4581 14.9457H10.2131L10.8784 12.7862C10.9027 12.7074 10.8991 12.6227 10.8684 12.5462C10.8376 12.4698 10.7815 12.4062 10.7095 12.3662C10.4677 12.2338 10.2748 12.0272 10.1592 11.777C10.0436 11.5268 10.0113 11.246 10.0672 10.9761ZM21.0712 18.4785H2.56002C2.25928 18.479 1.971 18.5987 1.75838 18.8114C1.54577 19.0241 1.42616 19.3125 1.42578 19.6132V22.57C1.42616 22.8707 1.54578 23.159 1.75841 23.3716C1.97104 23.5843 2.25932 23.7039 2.56002 23.7043H21.0712C21.372 23.704 21.6604 23.5844 21.8731 23.3718C22.0859 23.1591 22.2056 22.8708 22.2059 22.57V19.6132C22.2056 19.3124 22.0859 19.024 21.8732 18.8113C21.6604 18.5985 21.372 18.4789 21.0712 18.4785ZM21.7259 22.57C21.7259 22.931 21.4322 23.2243 21.0712 23.2243H2.56002C2.38658 23.224 2.22032 23.155 2.09768 23.0324C1.97505 22.9097 1.90604 22.7435 1.90578 22.57V19.6132C1.90578 19.2523 2.19858 18.9585 2.56002 18.9585H21.0712C21.4322 18.9585 21.7259 19.2523 21.7259 19.6132V22.57Z" fill="#2E3F68"/>
<path d="M4.31118 19.7727C3.96155 19.7723 3.62603 19.9106 3.37822 20.1573C3.13041 20.4039 2.99053 20.7388 2.98926 21.0884C2.98951 21.4389 3.12885 21.7751 3.37669 22.023C3.62453 22.2709 3.96062 22.4104 4.31118 22.4108C4.66178 22.4104 4.99792 22.271 5.24583 22.023C5.49375 21.7751 5.6332 21.439 5.63358 21.0884C5.63231 20.7387 5.49236 20.4037 5.24445 20.1571C4.99653 19.9104 4.66089 19.7722 4.31118 19.7727ZM4.31118 21.6908C4.15153 21.6905 3.99851 21.627 3.88567 21.514C3.77283 21.4011 3.70938 21.248 3.70926 21.0884C3.7104 20.9297 3.77438 20.7779 3.88719 20.6662C4.00001 20.5546 4.15246 20.4922 4.31118 20.4927C4.46998 20.4921 4.62255 20.5544 4.73547 20.6661C4.84839 20.7777 4.91244 20.9296 4.91358 21.0884C4.91358 21.4205 4.64382 21.6908 4.31118 21.6908ZM8.06334 19.7727C7.71371 19.7723 7.37819 19.9106 7.13038 20.1573C6.88257 20.4039 6.74269 20.7388 6.74142 21.0884C6.74167 21.4389 6.88101 21.7751 7.12885 22.023C7.37669 22.2709 7.71278 22.4104 8.06334 22.4108C8.41394 22.4104 8.75008 22.271 8.99799 22.023C9.24591 21.7751 9.38536 21.439 9.38574 21.0884C9.38447 20.7387 9.24452 20.4037 8.9966 20.1571C8.74869 19.9104 8.41305 19.7722 8.06334 19.7727ZM8.06334 21.6908C7.90369 21.6905 7.75067 21.627 7.63783 21.514C7.52499 21.4011 7.46154 21.248 7.46142 21.0884C7.46256 20.9297 7.52654 20.7779 7.63935 20.6662C7.75217 20.5546 7.90462 20.4922 8.06334 20.4927C8.22214 20.4921 8.37471 20.5544 8.48763 20.6661C8.60055 20.7777 8.6646 20.9296 8.66574 21.0884C8.66574 21.4205 8.3955 21.6908 8.06334 21.6908ZM11.815 19.7727C11.4654 19.7723 11.1299 19.9106 10.8821 20.1573C10.6342 20.4039 10.4944 20.7388 10.4931 21.0884C10.4934 21.4389 10.6327 21.7751 10.8805 22.023C11.1284 22.2709 11.4645 22.4104 11.815 22.4108C12.1656 22.4104 12.5018 22.271 12.7497 22.023C12.9976 21.7751 13.137 21.439 13.1374 21.0884C13.1361 20.7387 12.9962 20.4037 12.7483 20.1571C12.5004 19.9104 12.1647 19.7722 11.815 19.7727ZM11.815 21.6908C11.6554 21.6905 11.5023 21.627 11.3895 21.514C11.2767 21.4011 11.2132 21.248 11.2131 21.0884C11.2142 20.9297 11.2782 20.7779 11.391 20.6662C11.5038 20.5546 11.6563 20.4922 11.815 20.4927C11.9738 20.4921 12.1264 20.5544 12.2393 20.6661C12.3522 20.7777 12.4163 20.9296 12.4174 21.0884C12.4174 21.4205 12.1472 21.6908 11.815 21.6908ZM15.5672 19.7727C15.2175 19.7723 14.882 19.9106 14.6342 20.1573C14.3864 20.4039 14.2465 20.7388 14.2453 21.0884C14.2455 21.4389 14.3849 21.7751 14.6327 22.023C14.8805 22.2709 15.2166 22.4104 15.5672 22.4108C15.9177 22.4103 16.2537 22.2708 16.5015 22.0229C16.7493 21.775 16.8887 21.4389 16.8891 21.0884C16.8878 20.7388 16.7479 20.4039 16.5001 20.1573C16.2523 19.9106 15.9168 19.7723 15.5672 19.7727ZM15.5672 21.6908C15.4075 21.6905 15.2545 21.627 15.1417 21.514C15.0288 21.4011 14.9654 21.248 14.9653 21.0884C14.9664 20.9297 15.0304 20.7779 15.1432 20.6662C15.256 20.5546 15.4085 20.4922 15.5672 20.4927C15.7259 20.4922 15.8783 20.5546 15.9912 20.6662C16.104 20.7779 16.168 20.9297 16.1691 21.0884C16.1691 21.4205 15.8993 21.6908 15.5672 21.6908ZM19.3189 19.7727C18.9692 19.7723 18.6337 19.9106 18.3859 20.1573C18.1381 20.4039 17.9982 20.7388 17.9969 21.0884C17.9972 21.4389 18.1365 21.7751 18.3844 22.023C18.6322 22.2709 18.9683 22.4104 19.3189 22.4108C19.6695 22.4104 20.0056 22.271 20.2535 22.023C20.5014 21.7751 20.6409 21.439 20.6413 21.0884C20.64 20.7387 20.5 20.4037 20.2521 20.1571C20.0042 19.9104 19.6686 19.7722 19.3189 19.7727ZM19.3189 21.6908C19.1592 21.6905 19.0062 21.627 18.8933 21.514C18.7805 21.4011 18.7171 21.248 18.7169 21.0884C18.7181 20.9297 18.7821 20.7779 18.8949 20.6662C19.0077 20.5546 19.1601 20.4922 19.3189 20.4927C19.4777 20.4921 19.6302 20.5544 19.7431 20.6661C19.8561 20.7777 19.9201 20.9296 19.9213 21.0884C19.9213 21.4205 19.651 21.6908 19.3189 21.6908Z" fill="#2E3F68"/>
</g>
</g>
<defs>
<clipPath id="clip0_943_2842">
<rect width="24" height="24" fill="white"/>
</clipPath>
<clipPath id="clip1_943_2842">
<rect width="24" height="24" fill="white"/>
</clipPath>
</defs>
</svg>
