<svg width="40" height="40" viewBox="0 0 40 40" fill="none" xmlns="http://www.w3.org/2000/svg">
<rect opacity="0.1" width="40" height="40" rx="20" fill="#88DF52"/>
<g clip-path="url(#clip0_517_4388)">
<path d="M25.1334 16.2665H14.8667C14.609 16.2665 14.4001 16.4755 14.4001 16.7332C14.4001 16.9909 14.609 17.1998 14.8667 17.1998H25.1334C25.3911 17.1998 25.6001 16.9909 25.6001 16.7332C25.6001 16.4755 25.3911 16.2665 25.1334 16.2665ZM21.4001 19.0665H14.8667C14.609 19.0665 14.4001 19.2755 14.4001 19.5332C14.4001 19.7909 14.609 19.9998 14.8667 19.9998H18.1334H21.4001C21.6578 19.9998 21.8667 19.7909 21.8667 19.5332C21.8667 19.2755 21.6578 19.0665 21.4001 19.0665ZM26.5334 10.6665H13.4667C11.921 10.6682 10.6685 11.9208 10.6667 13.4665V22.7998C10.6685 24.3456 11.921 25.5981 13.4667 25.5998H24.9402L28.5368 29.1964C28.6243 29.284 28.743 29.3332 28.8667 29.3332C29.1245 29.3332 29.3334 29.1242 29.3334 28.8665V13.4665C29.3317 11.9208 28.0791 10.6682 26.5334 10.6665ZM28.4001 27.7399L25.4634 24.8032C25.3759 24.7157 25.2572 24.6665 25.1334 24.6665H13.4667C12.4363 24.6652 11.6014 23.8302 11.6001 22.7998V13.4665C11.6014 12.4361 12.4363 11.6011 13.4667 11.5998H26.5334C27.5638 11.6011 28.3988 12.4361 28.4001 13.4665V27.7399Z" fill="#1D951B"/>
</g>
<defs>
<clipPath id="clip0_517_4388">
<rect width="22.4" height="22.4" fill="white" transform="translate(8.80005 8.7998)"/>
</clipPath>
</defs>
</svg>
