<svg width="12" height="14" viewBox="0 0 12 14" fill="none" xmlns="http://www.w3.org/2000/svg">
<path d="M9.47297 3.62849L10.0579 4.21338L10.8811 3.39014L10.2962 2.80525L9.47297 3.62849Z" fill="url(#paint0_linear_728_12834)"/>
<path d="M9.91492 3.15857L10.5277 3.7714C10.7532 3.99689 11.1188 3.99689 11.3443 3.7714C11.5698 3.54591 11.5698 3.18031 11.3443 2.95482L10.7315 2.34199C10.506 2.1165 10.1404 2.1165 9.91492 2.34199C9.68943 2.56749 9.68943 2.93308 9.91492 3.15857Z" fill="url(#paint1_linear_728_12834)"/>
<path d="M1.45671 2.80574L0.871826 3.39062L1.69506 4.21386L2.27995 3.62898L1.45671 2.80574Z" fill="url(#paint2_linear_728_12834)"/>
<path d="M1.02112 2.34216L0.408288 2.95499C0.182797 3.18048 0.182797 3.54608 0.408288 3.77157C0.633779 3.99706 0.999373 3.99706 1.22486 3.77157L1.83769 3.15874C2.06318 2.93325 2.06318 2.56765 1.83769 2.34216C1.6122 2.11667 1.24661 2.11667 1.02112 2.34216Z" fill="url(#paint3_linear_728_12834)"/>
<path d="M6.60732 0.919922H5.14539V2.17781H6.60732V0.919922Z" fill="url(#paint4_linear_728_12834)"/>
<path d="M5.87627 13.5997C9.08321 13.5997 11.683 11 11.683 7.79302C11.683 4.58607 9.08321 1.98633 5.87627 1.98633C2.66932 1.98633 0.0695801 4.58607 0.0695801 7.79302C0.0695801 11 2.66932 13.5997 5.87627 13.5997Z" fill="url(#paint5_linear_728_12834)"/>
<path d="M5.87634 12.3149C8.3739 12.3149 10.3986 10.2903 10.3986 7.79273C10.3986 5.29517 8.3739 3.27051 5.87634 3.27051C3.37879 3.27051 1.35413 5.29517 1.35413 7.79273C1.35413 10.2903 3.37879 12.3149 5.87634 12.3149Z" fill="url(#paint6_linear_728_12834)"/>
<path d="M3.60591 5.52242C3.58632 5.54202 3.56306 5.55757 3.53746 5.56818C3.51186 5.57879 3.48442 5.58425 3.45671 5.58425C3.429 5.58425 3.40156 5.57879 3.37596 5.56818C3.35035 5.55757 3.3271 5.54202 3.30751 5.52242L2.52943 4.7442C2.491 4.70441 2.46974 4.65113 2.47022 4.59582C2.4707 4.54052 2.49289 4.48761 2.532 4.4485C2.57111 4.40939 2.62401 4.38721 2.67932 4.38673C2.73463 4.38625 2.78791 4.40751 2.82769 4.44593L3.60591 5.22401C3.62551 5.2436 3.64106 5.26686 3.65167 5.29246C3.66228 5.31806 3.66774 5.3455 3.66774 5.37321C3.66774 5.40092 3.66228 5.42837 3.65167 5.45397C3.64106 5.47957 3.62551 5.50283 3.60591 5.52242Z" fill="url(#paint7_linear_728_12834)"/>
<path d="M3.60577 10.3619L2.82769 11.14C2.78791 11.1784 2.73463 11.1996 2.67932 11.1992C2.62401 11.1987 2.57111 11.1765 2.532 11.1374C2.49289 11.0983 2.4707 11.0454 2.47022 10.9901C2.46974 10.9348 2.491 10.8815 2.52943 10.8417L3.30751 10.0636C3.34729 10.0252 3.40057 10.0039 3.45588 10.0044C3.51119 10.0049 3.56409 10.0271 3.6032 10.0662C3.64231 10.1053 3.6645 10.1582 3.66498 10.2135C3.66546 10.2688 3.6442 10.3221 3.60577 10.3619Z" fill="url(#paint8_linear_728_12834)"/>
<path d="M8.14679 5.52242C8.16638 5.54202 8.18964 5.55757 8.21524 5.56818C8.24084 5.57879 8.26828 5.58425 8.29599 5.58425C8.32371 5.58425 8.35115 5.57879 8.37675 5.56818C8.40235 5.55757 8.42561 5.54202 8.4452 5.52242L9.22328 4.7442C9.2617 4.70441 9.28296 4.65113 9.28248 4.59582C9.282 4.54052 9.25982 4.48761 9.22071 4.4485C9.1816 4.40939 9.12869 4.38721 9.07338 4.38673C9.01808 4.38625 8.96479 4.40751 8.92501 4.44593L8.14679 5.22401C8.12719 5.2436 8.11164 5.26686 8.10103 5.29246C8.09042 5.31806 8.08496 5.3455 8.08496 5.37321C8.08496 5.40092 8.09042 5.42837 8.10103 5.45397C8.11164 5.47957 8.12719 5.50283 8.14679 5.52242Z" fill="url(#paint9_linear_728_12834)"/>
<path d="M8.14686 10.3619L8.92494 11.14C8.96472 11.1784 9.018 11.1996 9.07331 11.1992C9.12862 11.1987 9.18152 11.1765 9.22063 11.1374C9.25974 11.0983 9.28193 11.0454 9.28241 10.9901C9.28289 10.9348 9.26163 10.8815 9.2232 10.8417L8.44512 10.0636C8.40534 10.0252 8.35206 10.0039 8.29675 10.0044C8.24144 10.0049 8.18854 10.0271 8.14943 10.0662C8.11032 10.1053 8.08814 10.1582 8.08765 10.2135C8.08717 10.2688 8.10844 10.3221 8.14686 10.3619Z" fill="url(#paint10_linear_728_12834)"/>
<path d="M5.87633 5.38818C5.92285 5.38818 5.96891 5.39735 6.01189 5.41515C6.05487 5.43295 6.09392 5.45904 6.12681 5.49194C6.1597 5.52483 6.1858 5.56388 6.2036 5.60686C6.2214 5.64984 6.23056 5.6959 6.23056 5.74242V7.39729H5.52209V5.74256C5.52208 5.69603 5.53123 5.64995 5.54902 5.60696C5.56681 5.56396 5.5929 5.52489 5.6258 5.49199C5.65869 5.45908 5.69775 5.43297 5.74074 5.41516C5.78372 5.39735 5.8298 5.38818 5.87633 5.38818Z" fill="url(#paint11_linear_728_12834)"/>
<path d="M3.86048 9.81055C3.79405 9.74412 3.75673 9.65402 3.75673 9.56007C3.75673 9.46612 3.79405 9.37602 3.86048 9.30959L5.40125 7.76882L5.90222 8.26978L4.36154 9.81045C4.32865 9.84337 4.2896 9.86948 4.24662 9.8873C4.20364 9.90512 4.15756 9.9143 4.11103 9.91431C4.0645 9.91432 4.01842 9.90516 3.97543 9.88736C3.93244 9.86955 3.89338 9.84346 3.86048 9.81055Z" fill="url(#paint12_linear_728_12834)"/>
<path d="M6.79406 0H4.95862C4.56261 0 4.24158 0.321033 4.24158 0.717047C4.24158 1.11306 4.56261 1.43409 4.95862 1.43409H6.79406C7.19008 1.43409 7.51111 1.11306 7.51111 0.717047C7.51111 0.321033 7.19008 0 6.79406 0Z" fill="url(#paint13_linear_728_12834)"/>
<path d="M5.87629 8.32924C6.17243 8.32924 6.41249 8.08918 6.41249 7.79304C6.41249 7.4969 6.17243 7.25684 5.87629 7.25684C5.58015 7.25684 5.34009 7.4969 5.34009 7.79304C5.34009 8.08918 5.58015 8.32924 5.87629 8.32924Z" fill="url(#paint14_linear_728_12834)"/>
<path d="M5.87635 12.5259C4.94022 12.5259 4.02511 12.2483 3.24675 11.7282C2.46838 11.2081 1.86172 10.4689 1.50348 9.60403C1.14524 8.73916 1.05151 7.78748 1.23414 6.86934C1.41677 5.95119 1.86756 5.10783 2.5295 4.44588C3.19144 3.78394 4.03481 3.33315 4.95295 3.15052C5.8711 2.96789 6.82278 3.06162 7.68765 3.41986C8.55252 3.7781 9.29174 4.38476 9.81182 5.16313C10.3319 5.94149 10.6095 6.8566 10.6095 7.79273C10.6079 9.04756 10.1088 10.2505 9.22147 11.1378C8.33417 12.0251 7.13118 12.5243 5.87635 12.5259ZM5.87635 3.48145C5.02366 3.48145 4.19011 3.7343 3.48113 4.20803C2.77214 4.68176 2.21955 5.35509 1.89324 6.14287C1.56693 6.93066 1.48155 7.79751 1.64791 8.63382C1.81426 9.47012 2.22487 10.2383 2.82781 10.8413C3.43075 11.4442 4.19895 11.8548 5.03526 12.0212C5.87156 12.1875 6.73842 12.1021 7.5262 11.7758C8.31399 11.4495 8.98732 10.8969 9.46105 10.1879C9.93478 9.47896 10.1876 8.64542 10.1876 7.79273C10.1863 6.64971 9.73168 5.55387 8.92344 4.74563C8.1152 3.93739 7.01937 3.48275 5.87635 3.48145Z" fill="url(#paint15_linear_728_12834)"/>
<path d="M5.87842 4.48975C6.07258 4.48975 6.22998 4.33235 6.22998 4.13818C6.22998 3.94402 6.07258 3.78662 5.87842 3.78662C5.68426 3.78662 5.52686 3.94402 5.52686 4.13818C5.52686 4.33235 5.68426 4.48975 5.87842 4.48975Z" fill="url(#paint16_linear_728_12834)"/>
<path d="M5.87842 11.7954C6.07258 11.7954 6.22998 11.638 6.22998 11.4438C6.22998 11.2497 6.07258 11.0923 5.87842 11.0923C5.68426 11.0923 5.52686 11.2497 5.52686 11.4438C5.52686 11.638 5.68426 11.7954 5.87842 11.7954Z" fill="url(#paint17_linear_728_12834)"/>
<path d="M2.22546 8.14258C2.41963 8.14258 2.57703 7.98518 2.57703 7.79102C2.57703 7.59685 2.41963 7.43945 2.22546 7.43945C2.0313 7.43945 1.8739 7.59685 1.8739 7.79102C1.8739 7.98518 2.0313 8.14258 2.22546 8.14258Z" fill="url(#paint18_linear_728_12834)"/>
<path d="M9.53125 8.14258C9.72541 8.14258 9.88281 7.98518 9.88281 7.79102C9.88281 7.59685 9.72541 7.43945 9.53125 7.43945C9.33709 7.43945 9.17969 7.59685 9.17969 7.79102C9.17969 7.98518 9.33709 8.14258 9.53125 8.14258Z" fill="url(#paint19_linear_728_12834)"/>
<defs>
<linearGradient id="paint0_linear_728_12834" x1="9.92789" y1="3.75576" x2="11.8404" y2="1.84312" gradientUnits="userSpaceOnUse">
<stop stop-color="#FF8E81"/>
<stop offset="1" stop-color="#FFC9AE"/>
</linearGradient>
<linearGradient id="paint1_linear_728_12834" x1="10.0366" y1="3.84822" x2="10.9155" y2="2.67049" gradientUnits="userSpaceOnUse">
<stop stop-color="#FF9C93"/>
<stop offset="1" stop-color="#FFC9AE"/>
</linearGradient>
<linearGradient id="paint2_linear_728_12834" x1="1.82485" y1="3.7589" x2="-0.087655" y2="1.84626" gradientUnits="userSpaceOnUse">
<stop stop-color="#FF8E81"/>
<stop offset="1" stop-color="#FFC9AE"/>
</linearGradient>
<linearGradient id="paint3_linear_728_12834" x1="1.71529" y1="3.85087" x2="0.836388" y2="2.67313" gradientUnits="userSpaceOnUse">
<stop stop-color="#FF9C93"/>
<stop offset="1" stop-color="#FFC9AE"/>
</linearGradient>
<linearGradient id="paint4_linear_728_12834" x1="14.7984" y1="2.04875" x2="13.106" y2="0.356338" gradientUnits="userSpaceOnUse">
<stop stop-color="#FF8E81"/>
<stop offset="1" stop-color="#FFC9AE"/>
</linearGradient>
<linearGradient id="paint5_linear_728_12834" x1="3.84914" y1="-10.4463" x2="17.6798" y2="3.38433" gradientUnits="userSpaceOnUse">
<stop stop-color="#FF9C93"/>
<stop offset="1" stop-color="#FFC9AE"/>
</linearGradient>
<linearGradient id="paint6_linear_728_12834" x1="5.87634" y1="17.988" x2="5.87634" y2="-0.0845227" gradientUnits="userSpaceOnUse">
<stop stop-color="#FFD3BD"/>
<stop offset="1" stop-color="white"/>
</linearGradient>
<linearGradient id="paint7_linear_728_12834" x1="0.655865" y1="4.98411" x2="3.67407" y2="4.98421" gradientUnits="userSpaceOnUse">
<stop stop-color="#81B3CE"/>
<stop offset="1" stop-color="#904D5B"/>
</linearGradient>
<linearGradient id="paint8_linear_728_12834" x1="6.24521" y1="13.3078" x2="5.83504" y2="11.5925" gradientUnits="userSpaceOnUse">
<stop stop-color="#81B3CE"/>
<stop offset="1" stop-color="#904D5B"/>
</linearGradient>
<linearGradient id="paint9_linear_728_12834" x1="11.1001" y1="4.98548" x2="8.08194" y2="4.98558" gradientUnits="userSpaceOnUse">
<stop stop-color="#81B3CE"/>
<stop offset="1" stop-color="#904D5B"/>
</linearGradient>
<linearGradient id="paint10_linear_728_12834" x1="9.515" y1="11.9535" x2="8.59208" y2="10.4505" gradientUnits="userSpaceOnUse">
<stop stop-color="#81B3CE"/>
<stop offset="1" stop-color="#904D5B"/>
</linearGradient>
<linearGradient id="paint11_linear_728_12834" x1="10.2897" y1="-4.00597" x2="12.7282" y2="-1.56748" gradientUnits="userSpaceOnUse">
<stop stop-color="#FF9C93"/>
<stop offset="1" stop-color="#FFC9AE"/>
</linearGradient>
<linearGradient id="paint12_linear_728_12834" x1="5.92316" y1="7.3971" x2="3.60284" y2="10.4909" gradientUnits="userSpaceOnUse">
<stop stop-color="#FF9C93"/>
<stop offset="1" stop-color="#FFC9AE"/>
</linearGradient>
<linearGradient id="paint13_linear_728_12834" x1="14.9944" y1="0.698836" x2="16.4346" y2="2.13908" gradientUnits="userSpaceOnUse">
<stop stop-color="#FF9C93"/>
<stop offset="1" stop-color="#FFC9AE"/>
</linearGradient>
<linearGradient id="paint14_linear_728_12834" x1="10.0668" y1="-2.68269" x2="11.5544" y2="-1.19511" gradientUnits="userSpaceOnUse">
<stop stop-color="#FF8E81"/>
<stop offset="1" stop-color="#FFC9AE"/>
</linearGradient>
<linearGradient id="paint15_linear_728_12834" x1="5.87635" y1="14.8708" x2="5.87635" y2="2.05832" gradientUnits="userSpaceOnUse">
<stop stop-color="#FFC2A1"/>
<stop offset="1" stop-color="#FFDDD4"/>
</linearGradient>
<linearGradient id="paint16_linear_728_12834" x1="5.87846" y1="3.78027" x2="5.87846" y2="5.74932" gradientUnits="userSpaceOnUse">
<stop stop-color="#FF9C93"/>
<stop offset="1" stop-color="#FFC9AE"/>
</linearGradient>
<linearGradient id="paint17_linear_728_12834" x1="5.87846" y1="11.9836" x2="5.87846" y2="9.47977" gradientUnits="userSpaceOnUse">
<stop stop-color="#FF9C93"/>
<stop offset="1" stop-color="#FFC9AE"/>
</linearGradient>
<linearGradient id="paint18_linear_728_12834" x1="1.61467" y1="7.97368" x2="3.88511" y2="7.29423" gradientUnits="userSpaceOnUse">
<stop stop-color="#FF9C93"/>
<stop offset="1" stop-color="#FFC9AE"/>
</linearGradient>
<linearGradient id="paint19_linear_728_12834" x1="10.4082" y1="7.79092" x2="7.55572" y2="7.79092" gradientUnits="userSpaceOnUse">
<stop stop-color="#FF9C93"/>
<stop offset="1" stop-color="#FFC9AE"/>
</linearGradient>
</defs>
</svg>
