<svg width="24" height="24" viewBox="0 0 24 24" fill="none" xmlns="http://www.w3.org/2000/svg">
<path d="M18.8001 8.1L17.1001 19.3C16.9001 20.3 16.1001 21 15.1001 21H12.1001C13.1001 21 13.9001 20.3 14.1001 19.3L15.8001 8.1C15.9001 7.5 15.4001 7 14.8001 7H17.8001C18.5001 7 18.9001 7.5 18.8001 8.1Z" fill="#FFA9A9"/>
<path d="M17.8 6H6.2C5.6 6 5 6.3 4.6 6.7C4.2 7.1 4.1 7.7 4.1 8.3L5.8 19.4C6 20.9 7.3 22 8.8 22H15.1C16.6 22 17.8 20.9 18.1 19.5L19.8 8.4C19.9 7.8 19.7 7.2 19.3 6.8C19 6.3 18.4 6 17.8 6ZM16.1 19.2C16 19.7 15.6 20 15.1 20H8.8C8.3 20 7.9 19.6 7.8 19.1L6.2 8H17.9L16.1 19.2ZM5 5H19C19.6 5 20 4.6 20 4C20 3.4 19.6 3 19 3H15C15 2.4 14.6 2 14 2H10C9.4 2 9 2.4 9 3H5C4.4 3 4 3.4 4 4C4 4.6 4.4 5 5 5Z" fill="#FF4D4D"/>
<path d="M12 19C12.6 19 13 18.6 13 18V12C13 11.4 12.6 11 12 11C11.4 11 11 11.4 11 12V18C11 18.6 11.4 19 12 19Z" fill="#FF4D4D"/>
</svg>
