<svg width="24" height="24" viewBox="0 0 24 24" fill="none" xmlns="http://www.w3.org/2000/svg">
<g clip-path="url(#clip0_933_807)">
<path d="M20.25 5.65837C20.2499 5.38983 20.1874 5.12498 20.0674 4.88475L18.5033 1.75612C18.352 1.45382 18.1195 1.19958 17.832 1.02188C17.5444 0.844189 17.213 0.750047 16.875 0.75H7.125C6.78696 0.750047 6.4556 0.844189 6.16803 1.02188C5.88045 1.19958 5.64802 1.45382 5.49675 1.75612L3.93263 4.88475C3.81259 5.12498 3.75007 5.38983 3.75 5.65837C3.75003 5.88555 3.70531 6.11051 3.61838 6.3204C3.53145 6.53029 3.40402 6.72099 3.24338 6.88163C2.36732 7.75777 1.87511 8.946 1.875 10.185V12.8625C1.875 13.6283 2.17922 14.3628 2.72073 14.9043C3.26224 15.4458 3.99669 15.75 4.7625 15.75H17.625V12.375H6L5.625 10.125H3.75V9C3.75 8.70163 3.86853 8.41548 4.0795 8.2045C4.29048 7.99353 4.57663 7.875 4.875 7.875H5.25L6.2595 6.36075C6.02895 6.27325 5.83965 6.10237 5.72909 5.88194C5.61853 5.66152 5.59477 5.40761 5.6625 5.1705L5.97038 4.0695C6.08674 3.65389 6.33587 3.28775 6.67976 3.02694C7.02364 2.76613 7.4434 2.62497 7.875 2.625H16.125C16.5565 2.62506 16.9762 2.76625 17.32 3.02705C17.6638 3.28785 17.9129 3.65395 18.0293 4.0695L18.3371 5.1705C18.4049 5.40757 18.3812 5.66143 18.2707 5.88185C18.1602 6.10227 17.971 6.27318 17.7405 6.36075L18.75 7.875H19.125C19.4234 7.875 19.7095 7.99353 19.9205 8.2045C20.1315 8.41548 20.25 8.70163 20.25 9V10.125H18.375L18 12.375H20.625V15.3937C21.0795 15.1457 21.4588 14.7797 21.7227 14.3342C21.9867 13.8887 22.1257 13.3803 22.125 12.8625V10.185C22.125 9.5715 22.0042 8.964 21.7694 8.3972C21.5346 7.8304 21.1905 7.3154 20.7566 6.88163C20.596 6.72099 20.4686 6.53029 20.3816 6.3204C20.2947 6.11051 20.25 5.88555 20.25 5.65837ZM8.25 14.25H15.75L16.5 15.75H7.5L8.25 14.25Z" fill="#F4B2B0"/>
<path d="M23.625 6.00001C23.625 5.70164 23.5065 5.41549 23.2955 5.20452C23.0845 4.99354 22.7984 4.87501 22.5 4.87501H20.4705C20.4491 4.82176 20.4285 4.76851 20.4026 4.71714L18.8385 1.58851C18.6573 1.22301 18.3772 0.9156 18.0302 0.701119C17.6832 0.486637 17.283 0.373666 16.875 0.375012H7.125C6.71703 0.373666 6.31685 0.486637 5.9698 0.701119C5.62276 0.9156 5.34275 1.22301 5.1615 1.58851L3.59738 4.71676C3.5715 4.76814 3.55087 4.82176 3.5295 4.87501H1.5C1.20163 4.87501 0.915483 4.99354 0.704505 5.20452C0.493526 5.41549 0.375 5.70164 0.375 6.00001C0.375 6.29838 0.493526 6.58453 0.704505 6.79551C0.915483 7.00649 1.20163 7.12501 1.5 7.12501H2.5395C1.86417 8.00201 1.49861 9.07813 1.5 10.185V12.8625C1.49962 13.3291 1.59993 13.7903 1.79408 14.2146C1.98823 14.6389 2.27166 15.0163 2.625 15.321V16.875C2.625 17.2728 2.78304 17.6544 3.06434 17.9357C3.34564 18.217 3.72718 18.375 4.125 18.375H4.875C5.27282 18.375 5.65436 18.217 5.93566 17.9357C6.21696 17.6544 6.375 17.2728 6.375 16.875V16.125H17.4697L18 16.6553V17.25H17.25C17.2194 17.2501 17.1889 17.2539 17.1593 17.2613L15.6593 17.6363C15.5781 17.6565 15.506 17.7033 15.4545 17.7692C15.403 17.8351 15.375 17.9164 15.375 18V19.5C15.375 19.5837 15.403 19.6649 15.4545 19.7308C15.506 19.7967 15.5781 19.8435 15.6593 19.8638L17.1593 20.2388C17.1889 20.2461 17.2194 20.2499 17.25 20.25H19.95L20.2594 21.6439C20.7 23.625 20.7 23.625 21 23.625H22.875C22.9312 23.6251 22.9867 23.6125 23.0373 23.5882C23.088 23.5639 23.1326 23.5286 23.1677 23.4848C23.2029 23.441 23.2278 23.3898 23.2405 23.3351C23.2533 23.2804 23.2536 23.2235 23.2414 23.1686L22.5926 20.25H23.25C23.3495 20.25 23.4448 20.2105 23.5152 20.1402C23.5855 20.0699 23.625 19.9745 23.625 19.875V18.375C23.625 18.2756 23.5855 18.1802 23.5152 18.1098C23.4448 18.0395 23.3495 18 23.25 18H22.2803L21.6401 17.3599C21.5698 17.2896 21.4744 17.25 21.375 17.25H20.25V16.6553L20.8901 16.0151C20.9605 15.9448 21 15.8495 21 15.75V15.6053C21.095 15.545 21.1869 15.4799 21.2752 15.4103C21.6582 15.1054 21.9673 14.7178 22.1794 14.2766C22.3915 13.8355 22.5011 13.352 22.5 12.8625V10.185C22.5014 9.07813 22.1358 8.00201 21.4605 7.12501H22.5C22.7984 7.12501 23.0845 7.00649 23.2955 6.79551C23.5065 6.58453 23.625 6.29838 23.625 6.00001ZM22.5 5.62501C22.5995 5.62501 22.6948 5.66452 22.7652 5.73485C22.8355 5.80517 22.875 5.90056 22.875 6.00001C22.875 6.09947 22.8355 6.19485 22.7652 6.26518C22.6948 6.3355 22.5995 6.37501 22.5 6.37501H20.8335C20.6977 6.16061 20.6255 5.91216 20.625 5.65839C20.625 5.64714 20.625 5.63626 20.625 5.62501H22.5ZM1.125 6.00001C1.125 5.90056 1.16451 5.80517 1.23483 5.73485C1.30516 5.66452 1.40054 5.62501 1.5 5.62501H3.37687C3.37687 5.63589 3.375 5.64676 3.375 5.65764C3.37469 5.91166 3.3024 6.1604 3.1665 6.37501H1.5C1.40054 6.37501 1.30516 6.3355 1.23483 6.26518C1.16451 6.19485 1.125 6.09947 1.125 6.00001ZM5.625 16.875C5.625 17.0739 5.54598 17.2647 5.40533 17.4053C5.26468 17.546 5.07391 17.625 4.875 17.625H4.125C3.92609 17.625 3.73532 17.546 3.59467 17.4053C3.45402 17.2647 3.375 17.0739 3.375 16.875V15.8123C3.80891 16.0172 4.28264 16.1239 4.7625 16.125H5.625V16.875ZM8.10675 15.375L8.48175 14.625H15.5182L15.8932 15.375H8.10675ZM4.93237 8.25001L5.1825 9.75001H4.125V9.00001C4.125 8.8011 4.20402 8.61033 4.34467 8.46968C4.48532 8.32903 4.67609 8.25001 4.875 8.25001H4.93237ZM5.69287 8.25001H6.51788L6.789 8.79264C6.82018 8.85503 6.86814 8.90749 6.9275 8.94413C6.98685 8.98076 7.05525 9.00011 7.125 9.00001H7.5C7.7326 9.0003 7.95942 9.07253 8.14935 9.2068C8.33929 9.34108 8.48303 9.53082 8.56087 9.75001H5.94263L5.69287 8.25001ZM9 10.5C9.09946 10.5 9.19484 10.4605 9.26517 10.3902C9.33549 10.3199 9.375 10.2245 9.375 10.125C9.3744 9.62791 9.17667 9.15135 8.82517 8.79984C8.47367 8.44834 7.9971 8.25061 7.5 8.25001H7.35675L7.0875 7.70739C7.05621 7.64476 7.00801 7.59215 6.94837 7.5555C6.88872 7.51885 6.82 7.49963 6.75 7.50001H5.9505L6.42712 6.78489C6.48825 6.79533 6.55002 6.80159 6.612 6.80364H17.388C17.4499 6.80157 17.5115 6.79531 17.5725 6.78489L18.0491 7.50001H17.25C17.18 7.49963 17.1113 7.51885 17.0516 7.5555C16.992 7.59215 16.9438 7.64476 16.9125 7.70739L16.6432 8.25001H16.5C16.0029 8.25061 15.5263 8.44834 15.1748 8.79984C14.8233 9.15135 14.6256 9.62791 14.625 10.125C14.625 10.2245 14.6645 10.3199 14.7348 10.3902C14.8052 10.4605 14.9005 10.5 15 10.5H17.9321L17.6824 12H6.31763L6.0675 10.5H9ZM17.388 6.05364H6.612C6.51712 6.05364 6.42353 6.03159 6.33863 5.98922C6.25374 5.94684 6.17986 5.88531 6.12283 5.80947C6.0658 5.73364 6.02719 5.64559 6.01003 5.55227C5.99288 5.45895 5.99766 5.36292 6.024 5.27176L6.33225 4.17076C6.42705 3.83436 6.62896 3.53806 6.90737 3.32678C7.18578 3.1155 7.5255 3.00078 7.875 3.00001H16.125C16.4745 3.00078 16.8142 3.1155 17.0926 3.32678C17.371 3.53806 17.573 3.83436 17.6677 4.17076L17.9764 5.27364C17.9921 5.32825 18 5.38481 18 5.44164C17.9998 5.60389 17.9353 5.75944 17.8205 5.87417C17.7058 5.9889 17.5503 6.05344 17.388 6.05364ZM19.125 8.25001C19.3239 8.25001 19.5147 8.32903 19.6553 8.46968C19.796 8.61033 19.875 8.8011 19.875 9.00001V9.75001H18.8175L19.0676 8.25001H19.125ZM18.0574 9.75001H15.4391C15.517 9.53082 15.6607 9.34108 15.8506 9.2068C16.0406 9.07253 16.2674 9.0003 16.5 9.00001H16.875C16.945 9.00039 17.0137 8.98117 17.0734 8.94452C17.133 8.90787 17.1812 8.85526 17.2125 8.79264L17.4818 8.25001H18.3068L18.0574 9.75001ZM20.25 12.75V13.5H18V12.75H20.25ZM16.125 18.2929L16.875 18.1054V19.3946L16.125 19.2071V18.2929ZM21.8599 18.6401C21.9302 18.7105 22.0256 18.75 22.125 18.75H22.875V19.5H22.125C22.0688 19.5 22.0133 19.5125 21.9627 19.5368C21.912 19.5611 21.8674 19.5964 21.8323 19.6403C21.7971 19.6841 21.7722 19.7352 21.7595 19.7899C21.7467 19.8447 21.7464 19.9015 21.7586 19.9564L22.4074 22.875H21.3C21.1178 22.0556 20.616 19.7936 20.616 19.7936C20.5975 19.7104 20.5511 19.6359 20.4846 19.5825C20.4181 19.5291 20.3353 19.5 20.25 19.5H17.625V18H21.2197L21.8599 18.6401ZM19.6099 16.2349C19.5395 16.3052 19.5 16.4006 19.5 16.5V17.25H18.75V16.5C18.75 16.4006 18.7105 16.3052 18.6401 16.2349L18 15.5948V14.25H20.25V15.5948L19.6099 16.2349ZM21.75 12.8625C21.7506 13.1957 21.6846 13.5256 21.5558 13.8329C21.427 14.1401 21.238 14.4185 21 14.6516V12.375C21 12.2756 20.9605 12.1802 20.8902 12.1098C20.8198 12.0395 20.7245 12 20.625 12H18.4425L18.6926 10.5H20.25C20.3495 10.5 20.4448 10.4605 20.5152 10.3902C20.5855 10.3199 20.625 10.2245 20.625 10.125V9.00001C20.625 8.60219 20.467 8.22066 20.1857 7.93935C19.9044 7.65805 19.5228 7.50001 19.125 7.50001H18.9506L18.2663 6.47364C18.4665 6.30664 18.614 6.08502 18.6906 5.83575C18.7673 5.58648 18.7698 5.32031 18.6979 5.06964L18.39 3.96864C18.2506 3.47487 17.9542 3.03998 17.5454 2.72985C17.1367 2.41973 16.6381 2.25127 16.125 2.25001H7.875C7.36195 2.25127 6.86328 2.41973 6.45457 2.72985C6.04585 3.03998 5.74935 3.47487 5.61 3.96864L5.30288 5.06739C5.23038 5.31827 5.23248 5.58484 5.30892 5.83456C5.38537 6.08427 5.53285 6.30633 5.73337 6.47364L5.04938 7.50001H4.875C4.47718 7.50001 4.09564 7.65805 3.81434 7.93935C3.53304 8.22066 3.375 8.60219 3.375 9.00001V10.125C3.375 10.2245 3.41451 10.3199 3.48484 10.3902C3.55516 10.4605 3.65054 10.5 3.75 10.5H5.30737L5.63025 12.4365C5.64481 12.5241 5.68995 12.6036 5.75766 12.661C5.82536 12.7184 5.91124 12.75 6 12.75H17.25V15.375H16.7318L16.0875 14.0824C16.0562 14.0198 16.008 13.9671 15.9484 13.9305C15.8887 13.8939 15.82 13.8746 15.75 13.875H8.25C8.18031 13.875 8.112 13.8944 8.05271 13.931C7.99343 13.9676 7.94552 14.0201 7.91437 14.0824L7.26825 15.375H4.7625C4.09614 15.375 3.45708 15.1103 2.98589 14.6391C2.51471 14.1679 2.25 13.5289 2.25 12.8625V10.185C2.24847 9.62067 2.35888 9.06164 2.57483 8.54025C2.79079 8.01887 3.10801 7.54549 3.50812 7.14751C3.70436 6.95246 3.85992 6.7204 3.96581 6.46478C4.0717 6.20916 4.12581 5.93507 4.125 5.65839C4.12523 5.44815 4.17427 5.24083 4.26825 5.05276L5.83238 1.92414C5.95158 1.68341 6.13588 1.48092 6.36437 1.33966C6.59286 1.19841 6.85638 1.12404 7.125 1.12501H16.875C17.1436 1.12404 17.4071 1.19841 17.6356 1.33966C17.8641 1.48092 18.0484 1.68341 18.1676 1.92414L19.7318 5.05314C19.8258 5.24106 19.8748 5.44826 19.875 5.65839C19.8742 5.93501 19.9284 6.20903 20.0343 6.46458C20.1401 6.72013 20.2957 6.95213 20.4919 7.14714C20.892 7.54516 21.2093 8.0186 21.4252 8.54005C21.6412 9.0615 21.7516 9.62061 21.75 10.185V12.8625Z" fill="#B3404A"/>
<path d="M13.3496 16.5755L12.8999 17.1753L14.4001 18.3L14.8498 17.7002L13.3496 16.5755Z" fill="#B3404A"/>
<path d="M14.4001 19.2L12.8999 20.3247L13.3496 20.9245L14.8498 19.7998L14.4001 19.2Z" fill="#B3404A"/>
<path d="M13.5 18.375H11.25V19.125H13.5V18.375Z" fill="#B3404A"/>
</g>
<defs>
<clipPath id="clip0_933_807">
<rect width="24" height="24" fill="white"/>
</clipPath>
</defs>
</svg>
