<svg width="24" height="24" viewBox="0 0 24 24" fill="none" xmlns="http://www.w3.org/2000/svg">
<circle cx="12" cy="12" r="12" fill="white"/>
<path d="M9.74482 13.0407C8.81853 14.7226 8.34321 16.6116 8.36759 18.5373C10.0129 17.5501 11.3657 16.1485 12.2919 14.4666L15.2535 9.12851L12.7551 7.67822L9.74482 13.0407Z" fill="#FFA9BE"/>
<path d="M8.3675 18.9029C8.30656 18.9029 8.24562 18.8907 8.18469 18.8541C8.075 18.7932 8.00187 18.6713 8.00187 18.5372C7.96531 16.5629 8.465 14.6007 9.4156 12.8579L12.3772 7.51975C12.4747 7.34913 12.6941 7.276 12.8769 7.3735C13.0475 7.471 13.1206 7.69038 13.0231 7.87319L10.0616 13.2235C9.2694 14.6494 8.81844 16.2338 8.74531 17.8547C10.0859 16.9285 11.195 15.7097 11.975 14.2838L14.7659 9.26261L14.1322 8.90913L11.8653 12.9919C11.7678 13.1626 11.5484 13.2357 11.3656 13.1382C11.195 13.0407 11.1219 12.8213 11.2194 12.6385L13.6569 8.23881C13.7544 8.06819 13.9737 7.99507 14.1566 8.09257L15.4362 8.79944C15.5216 8.84819 15.5825 8.92132 15.6069 9.01881C15.6312 9.11631 15.6191 9.21381 15.5703 9.29911L12.6209 14.6372C11.6581 16.3679 10.2566 17.8304 8.5625 18.8419C8.50156 18.8907 8.42844 18.9029 8.3675 18.9029Z" fill="#444B54"/>
<path d="M15.729 5.22859C15.3024 4.99702 14.8027 4.93609 14.3396 5.07015C13.8643 5.20421 13.4865 5.5089 13.2427 5.93546L13.0599 6.25234C13.0112 6.33765 12.999 6.43515 13.0234 6.53265C13.0477 6.63015 13.1087 6.70327 13.194 6.75202L15.7534 8.16577C15.8143 8.20234 15.8752 8.21452 15.9362 8.21452C16.0702 8.21452 16.1921 8.1414 16.2531 8.03171L16.4359 7.71484C16.9356 6.83734 16.6187 5.71609 15.729 5.22859Z" fill="#6F4986"/>
</svg>
