<svg width="24" height="24" viewBox="0 0 24 24" fill="none" xmlns="http://www.w3.org/2000/svg">
<path d="M12 3.375C10.3456 3.3735 8.72568 3.84828 7.33383 4.74264C5.94198 5.637 4.83701 6.91312 4.15092 8.41858C3.46482 9.92403 3.22661 11.5952 3.46472 13.2324C3.70284 14.8696 4.40723 16.4036 5.49374 17.6513C6.0656 16.6505 6.86061 15.795 7.81694 15.1516C8.77326 14.5081 9.86513 14.0939 11.0076 13.9411C12.1501 13.7884 13.3125 13.9012 14.4042 14.2709C15.496 14.6406 16.4878 15.2571 17.3025 16.0725C17.774 16.5412 18.179 17.0724 18.5062 17.6513C19.5927 16.4036 20.2971 14.8696 20.5352 13.2324C20.7734 11.5952 20.5351 9.92403 19.8491 8.41858C19.163 6.91312 18.058 5.637 16.6661 4.74264C15.2743 3.84828 13.6544 3.3735 12 3.375ZM15 9.375C15 10.1707 14.6839 10.9337 14.1213 11.4963C13.5587 12.0589 12.7956 12.375 12 12.375C11.2043 12.375 10.4413 12.0589 9.87867 11.4963C9.31606 10.9337 8.99999 10.1707 8.99999 9.375V8.625C8.99999 7.82935 9.31606 7.06629 9.87867 6.50368C10.4413 5.94107 11.2043 5.625 12 5.625C12.7956 5.625 13.5587 5.94107 14.1213 6.50368C14.6839 7.06629 15 7.82935 15 8.625V9.375Z" fill="#FFA133"/>
<path d="M6.27378 3.64878C8.35499 2.22191 10.8941 1.62381 13.3934 1.97169C15.8926 2.31958 18.1719 3.58837 19.7843 5.52937C21.3967 7.47037 22.2261 9.94361 22.1098 12.4643C21.9935 14.985 20.9399 17.3714 19.1556 19.1556C17.3714 20.9399 14.985 21.9935 12.4643 22.1098C9.94361 22.2261 7.47037 21.3967 5.52937 19.7843C3.58837 18.1719 2.31958 15.8926 1.97169 13.3934C1.62381 10.8941 2.22191 8.35499 3.64878 6.27378M5.03253 4.65753C4.90128 4.77753 4.77753 4.90128 4.65753 5.03253" stroke="#394D59" stroke-linecap="round" stroke-linejoin="round"/>
<path d="M15 8.625C15 6.96815 13.6569 5.625 12 5.625C10.3431 5.625 9 6.96815 9 8.625V9.375C9 11.0319 10.3431 12.375 12 12.375C13.6569 12.375 15 11.0319 15 9.375V8.625Z" stroke="#394D59" stroke-linecap="round" stroke-linejoin="round"/>
<path d="M18.5064 17.655C18.5064 17.655 18.5101 17.655 18.5064 17.6512C18.1792 17.0724 17.7741 16.5412 17.3026 16.0725C16.4879 15.2571 15.4961 14.6405 14.4044 14.2709C13.3126 13.9012 12.1502 13.7883 11.0077 13.9411C9.86525 14.0938 8.77338 14.5081 7.81705 15.1515C6.86073 15.795 6.06572 16.6504 5.49385 17.6512C5.4901 17.655 5.49385 17.655 5.49385 17.655" stroke="#394D59" stroke-linecap="round" stroke-linejoin="round"/>
</svg>
