<svg width="24" height="24" viewBox="0 0 24 24" fill="none" xmlns="http://www.w3.org/2000/svg">
<path d="M18.6701 16.96L16.2751 14.57C15.9952 14.2982 15.6203 14.1461 15.2301 14.1461C14.8399 14.1461 14.4651 14.2982 14.1851 14.57L13.0851 15.665C12.8101 15.945 11.5201 15.42 10.0401 13.945C8.56013 12.47 8.04013 11.175 8.32013 10.9L9.41513 9.80001C9.68698 9.52008 9.83904 9.14522 9.83904 8.75501C9.83904 8.3648 9.68698 7.98995 9.41513 7.71001L7.02513 5.31501C6.74496 5.04167 6.36905 4.88867 5.97763 4.88867C5.58621 4.88867 5.2103 5.04167 4.93013 5.31501L3.57513 6.72001C3.33724 6.95543 3.16223 7.24679 3.06614 7.56738C2.97005 7.88797 2.95595 8.22756 3.02513 8.55501C4.22513 13.97 10.0251 19.775 15.4451 20.975C15.7726 21.0442 16.1122 21.0301 16.4328 20.934C16.7534 20.8379 17.0447 20.6629 17.2801 20.425L18.6551 19.055C18.9305 18.7768 19.0862 18.402 19.089 18.0106C19.0918 17.6191 18.9415 17.2421 18.6701 16.96ZM17.9451 18.345L16.5751 19.72C16.4577 19.8386 16.3124 19.9258 16.1526 19.9739C15.9928 20.0219 15.8235 20.0292 15.6601 19.995C10.5751 18.87 5.13013 13.425 4.00013 8.34001C3.96598 8.17666 3.97325 8.00736 4.02128 7.84755C4.06932 7.68773 4.15658 7.54247 4.27513 7.42501L5.65013 6.05501C5.74244 5.96081 5.86824 5.90689 6.00013 5.90501C6.06055 5.90481 6.12041 5.91664 6.17621 5.93982C6.23201 5.963 6.28263 5.99706 6.32513 6.04001L8.72013 8.43001C8.80588 8.52247 8.85352 8.64391 8.85352 8.77001C8.85352 8.89611 8.80588 9.01755 8.72013 9.11001L7.62013 10.21C7.28513 10.545 7.01513 11.21 7.62013 12.4C8.07341 13.2391 8.65358 14.0031 9.34013 14.665C10.0021 15.3516 10.7661 15.9317 11.6051 16.385C12.8101 16.995 13.4601 16.725 13.7951 16.385L14.8951 15.285C14.9876 15.1993 15.109 15.1516 15.2351 15.1516C15.3612 15.1516 15.4827 15.1993 15.5751 15.285L17.9651 17.68C18.044 17.774 18.0855 17.8937 18.0818 18.0163C18.0781 18.1389 18.0295 18.2559 17.9451 18.345Z" fill="#8E0606"/>
<path opacity="0.5" d="M11.6 16.385C11.8351 16.5078 12.0833 16.6034 12.34 16.67C12.0459 16.7436 11.7398 16.7563 11.4406 16.7072C11.1413 16.6582 10.8553 16.5486 10.6 16.385C9.76093 15.9318 8.99693 15.3516 8.335 14.665C7.64845 14.0031 7.06828 13.2391 6.615 12.4C6.005 11.195 6.275 10.545 6.615 10.21L7.715 9.11003C7.80075 9.01757 7.84839 8.89613 7.84839 8.77003C7.84839 8.64393 7.80075 8.52249 7.715 8.43003L5.5 6.21003L5.655 6.05503C5.74732 5.96082 5.87312 5.90691 6.005 5.90503C6.06542 5.90483 6.12528 5.91666 6.18108 5.93984C6.23688 5.96302 6.28751 5.99708 6.33 6.04003L8.725 8.43003C8.81075 8.52249 8.85839 8.64393 8.85839 8.77003C8.85839 8.89613 8.81075 9.01757 8.725 9.11003L7.625 10.21C7.29 10.545 7.02 11.21 7.625 12.4C8.07828 13.2391 8.65845 14.0031 9.345 14.665C10.0039 15.3508 10.7645 15.9309 11.6 16.385ZM17.945 18.345L16.575 19.72C16.4575 19.8386 16.3123 19.9258 16.1525 19.9739C15.9926 20.0219 15.8233 20.0292 15.66 19.995L15.315 19.905C15.4115 19.8585 15.4994 19.7959 15.575 19.72L16.945 18.345C17.0293 18.2529 17.0761 18.1325 17.0761 18.0075C17.0761 17.8826 17.0293 17.7622 16.945 17.67L14.72 15.445L14.875 15.29C14.9675 15.2043 15.0889 15.1566 15.215 15.1566C15.3411 15.1566 15.4625 15.2043 15.555 15.29L17.945 17.685C18.0252 17.7763 18.0694 17.8936 18.0694 18.015C18.0694 18.1365 18.0252 18.2538 17.945 18.345Z" fill="#8E0606"/>
<path opacity="0.5" d="M14.7353 15.4449L13.7903 16.3899C13.5991 16.5676 13.3618 16.688 13.1054 16.7375C12.8491 16.787 12.584 16.7636 12.3403 16.6699C12.5097 16.612 12.6636 16.5163 12.7903 16.3899L13.8903 15.2899C13.9828 15.2041 14.1042 15.1565 14.2303 15.1565C14.3564 15.1565 14.4779 15.2041 14.5703 15.2899L14.7353 15.4449Z" fill="#8E0606"/>
<path d="M7.00009 9.5C6.93429 9.50038 6.86906 9.48777 6.80814 9.46289C6.74722 9.438 6.69181 9.40134 6.64509 9.355L4.14509 6.855C4.05094 6.76085 3.99805 6.63315 3.99805 6.5C3.99805 6.36685 4.05094 6.23915 4.14509 6.145C4.23924 6.05085 4.36694 5.99795 4.50009 5.99795C4.63324 5.99795 4.76094 6.05085 4.85509 6.145L7.35509 8.645C7.40196 8.69148 7.43915 8.74678 7.46454 8.80771C7.48992 8.86864 7.50299 8.93399 7.50299 9C7.50299 9.06601 7.48992 9.13136 7.46454 9.19229C7.43915 9.25322 7.40196 9.30852 7.35509 9.355C7.30837 9.40134 7.25296 9.438 7.19205 9.46289C7.13113 9.48777 7.0659 9.50038 7.00009 9.5ZM16.0001 18.5C15.9343 18.5004 15.8691 18.4878 15.8081 18.4629C15.7472 18.438 15.6918 18.4013 15.6451 18.355L13.6451 16.355C13.5509 16.2608 13.498 16.1332 13.498 16C13.498 15.8669 13.5509 15.7392 13.6451 15.645C13.7392 15.5508 13.8669 15.498 14.0001 15.498C14.1332 15.498 14.2609 15.5508 14.3551 15.645L16.3551 17.645C16.402 17.6915 16.4392 17.7468 16.4645 17.8077C16.4899 17.8686 16.503 17.934 16.503 18C16.503 18.066 16.4899 18.1314 16.4645 18.1923C16.4392 18.2532 16.402 18.3085 16.3551 18.355C16.3084 18.4013 16.253 18.438 16.192 18.4629C16.1311 18.4878 16.0659 18.5004 16.0001 18.5ZM20.5001 6H18.0001V3.5C18.0001 3.36739 17.9474 3.24021 17.8536 3.14645C17.7599 3.05268 17.6327 3 17.5001 3H14.5001C14.3675 3 14.2403 3.05268 14.1465 3.14645C14.0528 3.24021 14.0001 3.36739 14.0001 3.5V6H11.5001C11.3675 6 11.2403 6.05268 11.1465 6.14645C11.0528 6.24022 11.0001 6.36739 11.0001 6.5V9.5C11.0001 9.63261 11.0528 9.75979 11.1465 9.85355C11.2403 9.94732 11.3675 10 11.5001 10H14.0001V12.5C14.0001 12.6326 14.0528 12.7598 14.1465 12.8536C14.2403 12.9473 14.3675 13 14.5001 13H17.5001C17.6327 13 17.7599 12.9473 17.8536 12.8536C17.9474 12.7598 18.0001 12.6326 18.0001 12.5V10H20.5001C20.6327 10 20.7599 9.94732 20.8536 9.85355C20.9474 9.75979 21.0001 9.63261 21.0001 9.5V6.5C21.0001 6.36739 20.9474 6.24022 20.8536 6.14645C20.7599 6.05268 20.6327 6 20.5001 6ZM20.0001 9H17.5001C17.3675 9 17.2403 9.05268 17.1465 9.14645C17.0528 9.24022 17.0001 9.36739 17.0001 9.5V12H15.0001V9.5C15.0001 9.36739 14.9474 9.24022 14.8536 9.14645C14.7599 9.05268 14.6327 9 14.5001 9H12.0001V7H14.5001C14.6327 7 14.7599 6.94732 14.8536 6.85355C14.9474 6.75979 15.0001 6.63261 15.0001 6.5V4H17.0001V6.5C17.0001 6.63261 17.0528 6.75979 17.1465 6.85355C17.2403 6.94732 17.3675 7 17.5001 7H20.0001V9Z" fill="#8E0606"/>
<path opacity="0.5" d="M20 7V9H17.5C17.3674 9 17.2402 9.05268 17.1464 9.14645C17.0527 9.24021 17 9.36739 17 9.5V12H15V9.5C15 9.36739 14.9473 9.24021 14.8536 9.14645C14.7598 9.05268 14.6326 9 14.5 9H17V6.5C17 6.63261 17.0527 6.75979 17.1464 6.85355C17.2402 6.94732 17.3674 7 17.5 7H20Z" fill="#8E0606"/>
<path opacity="0.5" d="M17 6V9H14C14.7956 9 15.5587 8.68393 16.1213 8.12132C16.6839 7.55871 17 6.79565 17 6Z" fill="#8E0606"/>
</svg>
