<svg width="220" height="220" viewBox="0 0 220 220" fill="none" xmlns="http://www.w3.org/2000/svg">
<g clip-path="url(#clip0_716_3780)">
<path d="M154.609 183.406C171.761 169.317 182.704 147.945 182.704 124.016C182.704 81.5886 148.31 47.1943 105.883 47.1943C63.4557 47.1943 29.062 81.5886 29.062 124.016C29.062 148.022 40.0758 169.453 57.3238 183.54C72.8178 183.255 90.8089 183.091 110 183.091C125.946 183.091 141.063 183.205 154.609 183.406Z" fill="#FFCAEC"/>
<path opacity="0.3" d="M215.287 186.446C215.287 184.593 168.148 183.091 110 183.091C51.8517 183.091 4.71289 184.593 4.71289 186.446C4.71289 187.517 20.4649 188.471 44.9899 189.086C50.282 190.287 70.8003 191.183 95.3056 191.183C115.826 191.183 133.551 190.555 141.88 189.645C184.443 189.214 215.287 187.945 215.287 186.446Z" fill="#650000"/>
<path d="M14.905 183.865C14.905 183.865 15.6513 183.748 17.05 183.61C18.4486 183.473 20.5023 183.313 23.1148 183.222C25.7273 183.139 28.8997 183.088 32.5385 183.094C36.1773 183.1 40.2825 183.173 44.7606 183.175H176.128H188.35C190.169 183.171 191.87 183.135 193.447 183.113C195.023 183.092 196.467 183.096 197.773 183.128C199.08 183.16 200.246 183.206 201.26 183.279C202.275 183.353 203.138 183.439 203.838 183.525C205.237 183.698 205.983 183.866 205.983 183.866C206.061 183.883 206.131 183.927 206.181 183.989C206.231 184.052 206.259 184.13 206.259 184.21C206.259 184.29 206.231 184.368 206.181 184.431C206.131 184.494 206.061 184.537 205.983 184.555C205.983 184.555 205.236 184.72 203.838 184.896C203.138 184.982 202.275 185.07 201.26 185.142C200.246 185.213 199.08 185.26 197.773 185.293C196.467 185.326 195.023 185.33 193.447 185.308C191.87 185.285 190.169 185.253 188.35 185.245H176.128H44.7584C40.2803 185.245 36.1746 185.318 32.5363 185.326C28.8981 185.335 25.7251 185.281 23.1126 185.199C20.5001 185.107 18.4475 184.949 17.0478 184.811C15.648 184.672 14.9028 184.555 14.9028 184.555C14.8205 184.543 14.7456 184.501 14.6914 184.438C14.6373 184.374 14.6075 184.294 14.6075 184.211C14.6075 184.128 14.6373 184.047 14.6914 183.984C14.7456 183.921 14.8205 183.879 14.9028 183.866L14.905 183.865Z" fill="#650000"/>
<path d="M133.23 48.7416C132.465 47.8705 131.458 46.9382 130.282 45.9729C115.905 34.1848 95.0736 34.1848 80.6972 45.9729C79.5202 46.9382 78.5131 47.8705 77.7481 48.7416C67.226 60.7316 69.3452 78.0061 69.4431 78.7359C69.5078 79.2319 69.767 79.6818 70.1634 79.9867C70.5599 80.2916 71.0613 80.4265 71.5573 80.3617C72.0532 80.2969 72.5031 80.0378 72.808 79.6413C73.1129 79.2448 73.2478 78.7435 73.1831 78.2475C73.1622 78.0858 71.1778 64.0729 80.5861 53.3545C86.0894 47.0801 94.4692 43.8488 105.49 43.7449C116.499 43.8488 124.873 47.0724 130.381 53.3347C139.752 63.9882 137.833 77.9923 137.801 78.2497C137.769 78.4953 137.786 78.7448 137.85 78.9839C137.915 79.2231 138.026 79.4472 138.176 79.6435C138.327 79.8398 138.516 80.0045 138.73 80.1281C138.945 80.2517 139.182 80.3318 139.427 80.3639C139.673 80.396 139.922 80.3794 140.161 80.315C140.401 80.2507 140.625 80.1398 140.821 79.9889C141.017 79.8379 141.182 79.6497 141.306 79.4351C141.429 79.2205 141.509 78.9837 141.541 78.7381C141.633 78.006 143.753 60.7289 133.23 48.7416Z" fill="#FFA42C"/>
<path d="M139.672 81.4098C139.257 81.4099 138.846 81.3214 138.468 81.1503C138.089 80.9791 137.752 80.7292 137.478 80.4172C137.204 80.1053 136.999 79.7385 136.878 79.3412C136.757 78.944 136.722 78.5255 136.776 78.1137V78.1032C136.825 77.7243 137.236 74.2692 136.572 69.6987C135.676 63.5321 133.332 58.2587 129.603 54.0171C124.3 47.9896 116.189 44.8799 105.49 44.7787C94.7793 44.8816 86.6602 47.9957 81.3582 54.0363C72.435 64.1981 74.1251 77.5389 74.201 78.0999V78.1109C74.3005 78.8782 74.0915 79.6535 73.62 80.2669C73.1485 80.8803 72.4529 81.2816 71.6859 81.3829C71.5597 81.3993 71.4325 81.4076 71.3053 81.4076C70.5975 81.4056 69.9145 81.1471 69.3829 80.68C68.8512 80.2128 68.5069 79.5688 68.4139 78.8672C68.3485 78.3689 67.8001 73.8259 68.5861 67.8237C69.0431 64.3323 69.8659 61.0301 71.0314 58.0084C72.4867 54.2371 74.4843 50.8887 76.9714 48.0578C77.7381 47.1839 78.771 46.2131 80.0415 45.1714C87.2203 39.2947 96.2117 36.0837 105.489 36.0837C114.767 36.0837 123.758 39.2947 130.937 45.1714C132.207 46.2131 133.24 47.1839 134.007 48.0578C136.492 50.8887 138.491 54.2371 139.947 58.0084C141.112 61.0301 141.935 64.3334 142.392 67.8237C143.178 73.8259 142.63 78.3689 142.565 78.8672C142.472 79.5694 142.128 80.2141 141.596 80.6818C141.064 81.1494 140.38 81.4081 139.672 81.4098ZM105.49 42.7113H105.5C116.817 42.818 125.449 46.1625 131.157 52.6514C133.354 55.1495 135.126 58.0304 136.423 61.2149C137.463 63.7675 138.202 66.5219 138.623 69.4017C139.312 74.1449 138.917 77.7067 138.83 78.3667V78.3744C138.815 78.4854 138.823 78.5983 138.851 78.7067C138.88 78.815 138.93 78.9165 138.998 79.0056C139.066 79.0946 139.151 79.1694 139.248 79.2255C139.345 79.2817 139.452 79.3183 139.563 79.333C139.6 79.3377 139.636 79.3401 139.673 79.3402C139.879 79.3394 140.078 79.2639 140.233 79.1277C140.388 78.9914 140.488 78.8037 140.515 78.5993C140.607 77.8887 142.671 61.0604 132.455 49.4213C131.762 48.6326 130.811 47.7405 129.627 46.7697C122.857 41.2219 114.286 38.1655 105.49 38.1655C96.6944 38.1655 88.121 41.2219 81.3521 46.7719C80.1691 47.7427 79.2176 48.6348 78.5251 49.4235C68.31 61.0626 70.3725 77.8909 70.4654 78.6015C70.4794 78.7127 70.5152 78.8201 70.5708 78.9174C70.6263 79.0147 70.7006 79.1001 70.7892 79.1686C70.8779 79.2372 70.9792 79.2875 71.0874 79.3168C71.1956 79.3461 71.3085 79.3537 71.4196 79.3392C71.5308 79.3247 71.638 79.2884 71.735 79.2324C71.8321 79.1763 71.9171 79.1017 71.9852 79.0127C72.0534 78.9237 72.1032 78.8222 72.132 78.7138C72.1608 78.6055 72.1678 78.4926 72.1528 78.3815C72.0978 77.9811 71.6452 74.3451 72.336 69.4974C72.7287 66.6823 73.4625 63.9254 74.5211 61.2875C75.818 58.0865 77.5956 55.1886 79.8011 52.6729C85.5096 46.1697 94.1479 42.8185 105.477 42.7118L105.49 42.7113Z" fill="#650000"/>
<g opacity="0.5">
<path d="M139.02 75.3852C139.009 76.3825 138.945 77.3785 138.828 78.369C138.806 78.5338 138.832 78.7014 138.903 78.8519C139.003 77.6992 139.042 76.542 139.02 75.3852ZM78.5252 50.605C79.2176 49.8168 80.1686 48.9242 81.3522 47.9534C95.3387 36.4859 115.64 36.4859 129.626 47.9534C130.81 48.9242 131.761 49.8163 132.453 50.605C139.39 58.5068 140.664 68.8045 140.74 74.8226C140.813 69.0547 139.868 57.8705 132.453 49.4236C131.761 48.6349 130.81 47.7428 129.626 46.772C115.64 35.3045 95.3387 35.3045 81.3522 46.772C80.1686 47.7428 79.2176 48.6354 78.5252 49.4236C71.1112 57.8699 70.1652 69.0432 70.2378 74.8127C70.3131 68.7946 71.5891 58.5063 78.5252 50.605ZM71.9703 75.5018C71.9498 76.62 71.9865 77.7385 72.0803 78.853C72.1503 78.7064 72.1764 78.5427 72.1556 78.3816C72.132 78.2265 71.995 77.1694 71.9703 75.5018Z" fill="white"/>
</g>
<path d="M77.308 97.3082C76.9637 97.834 72.9762 104.299 69.877 109.348C69.877 109.348 53.2873 133.965 71.8817 145.22L101.929 133.387C101.929 133.387 105.2 93.1007 101.929 93.1007C98.6574 93.1007 101.929 84.4756 101.929 84.4756L77.308 97.3082Z" fill="#ED1B24"/>
<path d="M71.8816 146.254C71.693 146.254 71.5079 146.202 71.3465 146.104C66.5786 143.218 63.6042 139.229 62.5069 134.246C61.9019 131.496 61.8739 128.437 62.4239 125.152C62.8589 122.555 63.6548 119.81 64.7889 116.993C66.6589 112.349 68.8006 109.098 69.0063 108.79C72.0582 103.818 76.0853 97.2879 76.4428 96.7445C76.539 96.5967 76.6716 96.4761 76.8278 96.3942L101.449 83.561C101.634 83.4644 101.845 83.4264 102.053 83.4522C102.261 83.478 102.456 83.5662 102.612 83.7053C102.769 83.8444 102.88 84.0278 102.93 84.2312C102.98 84.4345 102.967 84.6483 102.893 84.8442C102.505 85.9046 102.176 86.986 101.909 88.0831C101.202 91.0487 101.62 91.8561 101.711 91.9881C101.742 92.0332 101.766 92.0695 101.927 92.0695C102.137 92.0723 102.345 92.1193 102.537 92.2073C102.728 92.2953 102.899 92.4224 103.039 92.5805C103.623 93.2141 104.24 94.6798 104.383 100.745C104.465 104.215 104.383 108.83 104.136 114.466C103.718 124.04 102.964 133.38 102.957 133.473C102.941 133.666 102.872 133.851 102.757 134.006C102.642 134.162 102.485 134.282 102.305 134.353L72.2584 146.186C72.1382 146.232 72.0104 146.255 71.8816 146.254ZM78.0318 98.097C77.2502 99.3411 73.783 104.961 70.758 109.889L70.7344 109.926C70.7124 109.958 68.5344 113.22 66.6897 117.808C65.0138 121.982 63.2797 128.148 64.5276 133.808C65.4665 138.063 67.9745 141.512 71.9862 144.068L100.949 132.66C101.124 130.408 101.712 122.569 102.066 114.531C102.31 108.976 102.396 104.42 102.323 100.986C102.28 98.9693 102.18 97.3308 102.027 96.117C101.872 94.8872 101.691 94.3366 101.591 94.1111C101.275 94.0749 100.97 93.971 100.697 93.8066C100.425 93.6421 100.191 93.4209 100.011 93.158C99.2915 92.113 99.2563 90.2892 99.9047 87.5788C99.9894 87.2246 100.08 86.8808 100.171 86.5552L78.0318 98.097Z" fill="#650000"/>
<path opacity="0.2" d="M101.929 133.387C101.929 133.387 103.42 115.011 103.381 103.082L91.3485 91.6218C91.3485 91.6218 90.8045 124.959 63.7324 123.828C62.127 131.223 62.8953 139.783 71.8818 145.223L101.929 133.387Z" fill="#650000"/>
<g opacity="0.5">
<path d="M101.599 94.1142C101.576 94.1115 101.554 94.106 101.532 94.1027C101.573 94.1577 101.615 94.2127 101.66 94.2638C101.64 94.2039 101.618 94.1544 101.599 94.1142ZM66.0044 134.695C63.5971 123.784 72.1243 110.941 72.2112 110.812L72.2343 110.776C75.2593 105.845 78.7276 100.226 79.5086 98.9839L99.6985 88.4602C99.8239 87.8074 99.9829 87.1633 100.151 86.5693L78.0319 98.0979C77.2509 99.3403 73.7847 104.959 70.7576 109.89C70.7504 109.902 70.7421 109.915 70.7344 109.926C70.6475 110.055 62.1203 122.898 64.5277 133.809C65.4665 138.064 67.9745 141.513 71.9862 144.069L72.1155 144.018C68.8864 141.577 66.8333 138.45 66.0044 134.695Z" fill="white"/>
</g>
<path d="M133.67 97.3082C134.015 97.834 138.003 104.299 141.101 109.348C141.101 109.348 157.691 133.965 139.097 145.22L109.05 133.387C109.05 133.387 105.779 93.1007 109.05 93.1007C112.322 93.1007 109.05 84.4756 109.05 84.4756L133.67 97.3082Z" fill="#ED1B24"/>
<path d="M139.095 146.254C138.965 146.254 138.837 146.229 138.716 146.182L108.669 134.349C108.489 134.278 108.333 134.158 108.218 134.002C108.102 133.847 108.033 133.662 108.018 133.469C108.011 133.376 107.256 124.036 106.839 114.462C106.593 108.827 106.509 104.211 106.591 100.741C106.735 94.6759 107.351 93.2102 107.936 92.5766C108.075 92.4185 108.246 92.2914 108.438 92.2034C108.63 92.1154 108.838 92.0685 109.048 92.0656C109.207 92.0656 109.232 92.0293 109.264 91.9842C109.355 91.8522 109.773 91.0448 109.066 88.0792C108.799 86.9819 108.47 85.9005 108.082 84.8403C108.007 84.6444 107.995 84.4306 108.045 84.2273C108.095 84.0239 108.205 83.8405 108.362 83.7014C108.518 83.5623 108.714 83.4741 108.921 83.4483C109.129 83.4225 109.34 83.4605 109.526 83.5571L134.147 96.3903C134.303 96.4724 134.435 96.593 134.532 96.7406C134.889 97.2862 138.916 103.815 141.968 108.786C142.172 109.091 144.314 112.344 146.185 116.989C147.32 119.807 148.115 122.552 148.55 125.148C149.1 128.433 149.072 131.493 148.467 134.242C147.37 139.225 144.397 143.215 139.627 146.1C139.467 146.199 139.283 146.252 139.095 146.254ZM110.03 132.66L138.993 144.066C143.004 141.51 145.512 138.061 146.451 133.806C147.7 128.143 145.964 121.981 144.289 117.806C142.446 113.218 140.266 109.955 140.244 109.923C140.236 109.911 140.228 109.899 140.221 109.887C137.196 104.958 133.731 99.3383 132.947 98.0947L110.807 86.5552C110.899 86.8808 110.989 87.2245 111.074 87.5787C111.722 90.2891 111.687 92.114 110.967 93.1579C110.787 93.4209 110.553 93.6422 110.281 93.8067C110.008 93.9712 109.704 94.075 109.387 94.1111C109.288 94.3366 109.106 94.8871 108.951 96.1175C108.798 97.3319 108.699 98.9703 108.655 100.988C108.581 104.423 108.668 108.981 108.913 114.536C109.267 122.576 109.855 130.411 110.03 132.66Z" fill="#650000"/>
<path opacity="0.2" d="M138.148 109.348C135.049 104.299 131.062 97.834 130.717 97.3082L109.67 86.3368C110.426 88.8717 111.344 93.1018 109.053 93.1018C105.781 93.1018 109.053 133.388 109.053 133.388L137.26 144.498C154.047 132.945 138.148 109.348 138.148 109.348ZM109.065 84.5218C109.065 84.5174 109.062 84.5124 109.06 84.5091C109.058 84.5058 109.065 84.5179 109.065 84.5218Z" fill="#650000"/>
<path d="M62.7164 82.6248H61.5949C59.5513 82.6248 57.8945 84.2815 57.8945 86.3252V99.5329C57.8945 101.577 59.5513 103.233 61.5949 103.233H62.7164C64.7601 103.233 66.4168 101.577 66.4168 99.5329V86.3252C66.4168 84.2815 64.7601 82.6248 62.7164 82.6248Z" fill="#EEEEEE"/>
<path d="M62.1556 104.259C60.7538 104.258 59.4099 103.7 58.4187 102.709C57.4276 101.718 56.87 100.374 56.8684 98.972V86.8858C56.8684 85.4835 57.4254 84.1387 58.417 83.1472C59.4085 82.1557 60.7533 81.5986 62.1556 81.5986C63.5578 81.5986 64.9026 82.1557 65.8941 83.1472C66.8857 84.1387 67.4427 85.4835 67.4427 86.8858V98.972C67.4413 100.374 66.8837 101.718 65.8925 102.709C64.9013 103.7 63.5574 104.258 62.1556 104.259ZM62.1556 83.6507C61.2979 83.6517 60.4756 83.9929 59.8691 84.5993C59.2626 85.2058 58.9215 86.0281 58.9205 86.8858V98.972C58.9213 99.8298 59.2624 100.652 59.8689 101.259C60.4754 101.865 61.2978 102.207 62.1556 102.208C63.0134 102.207 63.8358 101.865 64.4424 101.259C65.049 100.652 65.3902 99.8299 65.3912 98.972V86.8858C65.3902 86.028 65.0489 85.2056 64.4423 84.5992C63.8358 83.9927 63.0133 83.6516 62.1556 83.6507Z" fill="#650000"/>
<path d="M73.172 76.8196H65.9901C64.084 76.8196 62.5388 78.3648 62.5388 80.2708V104.612C62.5388 106.518 64.084 108.063 65.9901 108.063H73.172C75.078 108.063 76.6232 106.518 76.6232 104.612V80.2708C76.6232 78.3648 75.078 76.8196 73.172 76.8196Z" fill="#FFA42C"/>
<path d="M72.6495 109.096H66.5126C65.1858 109.094 63.9141 108.566 62.9759 107.628C62.0378 106.69 61.5097 105.418 61.5076 104.091V80.795C61.5097 79.4683 62.0378 78.1965 62.9759 77.2584C63.9141 76.3202 65.1858 75.7922 66.5126 75.79H72.6495C73.9763 75.7921 75.2481 76.32 76.1863 77.2582C77.1245 78.1964 77.6524 79.4683 77.6545 80.795V104.09C77.6527 105.417 77.1249 106.689 76.1867 107.628C75.2485 108.566 73.9764 109.094 72.6495 109.096ZM66.5126 77.8531C65.733 77.854 64.9857 78.164 64.4344 78.7153C63.8832 79.2665 63.5731 80.0138 63.5723 80.7934V104.089C63.5731 104.868 63.8832 105.616 64.4344 106.167C64.9857 106.718 65.733 107.028 66.5126 107.029H72.6495C73.4289 107.028 74.1762 106.718 74.7273 106.167C75.2784 105.615 75.5883 104.868 75.5892 104.089V80.795C75.5883 80.0156 75.2784 79.2683 74.7273 78.7171C74.1762 78.1659 73.4289 77.8558 72.6495 77.8547L66.5126 77.8531Z" fill="#650000"/>
<path opacity="0.5" d="M64.7537 104.975V81.6788C64.7547 80.8994 65.0648 80.1521 65.616 79.601C66.1672 79.0499 66.9145 78.7399 67.694 78.7391H73.8309C74.2125 78.7392 74.5905 78.8139 74.9435 78.9591C74.6688 78.6142 74.3199 78.3357 73.9227 78.1442C73.5256 77.9527 73.0904 77.8532 72.6495 77.853H66.5126C65.733 77.8539 64.9857 78.164 64.4344 78.7152C63.8832 79.2664 63.5731 80.0138 63.5723 80.7933V104.089C63.5731 104.672 63.7472 105.242 64.0725 105.726C64.3978 106.211 64.8596 106.587 65.3994 106.809C64.9813 106.289 64.7535 105.642 64.7537 104.975Z" fill="white"/>
<path d="M148.262 103.233H149.384C151.428 103.233 153.084 101.577 153.084 99.533V86.3253C153.084 84.2816 151.428 82.6249 149.384 82.6249H148.262C146.219 82.6249 144.562 84.2816 144.562 86.3253V99.533C144.562 101.577 146.219 103.233 148.262 103.233Z" fill="#EEEEEE"/>
<path d="M148.823 104.259C147.421 104.258 146.077 103.7 145.086 102.709C144.095 101.718 143.537 100.374 143.536 98.972V86.8858C143.536 85.4835 144.093 84.1387 145.084 83.1472C146.076 82.1557 147.421 81.5986 148.823 81.5986C150.225 81.5986 151.57 82.1557 152.561 83.1472C153.553 84.1387 154.11 85.4835 154.11 86.8858V98.972C154.108 100.374 153.551 101.718 152.56 102.709C151.569 103.7 150.225 104.258 148.823 104.259ZM148.823 83.6507C147.965 83.6517 147.143 83.9929 146.536 84.5993C145.93 85.2058 145.589 86.0281 145.588 86.8858V98.972C145.589 99.8298 145.93 100.652 146.536 101.259C147.143 101.865 147.965 102.207 148.823 102.208C149.681 102.207 150.503 101.865 151.109 101.259C151.716 100.652 152.057 99.8298 152.058 98.972V86.8858C152.057 86.0281 151.716 85.2058 151.109 84.5993C150.503 83.9929 149.68 83.6517 148.823 83.6507Z" fill="#650000"/>
<path d="M137.806 108.062H144.988C146.894 108.062 148.439 106.517 148.439 104.611V80.2702C148.439 78.3641 146.894 76.8189 144.988 76.8189H137.806C135.9 76.8189 134.355 78.3641 134.355 80.2702V104.611C134.355 106.517 135.9 108.062 137.806 108.062Z" fill="#FFA42C"/>
<path d="M144.466 109.096H138.329C137.003 109.094 135.731 108.566 134.793 107.628C133.855 106.69 133.327 105.418 133.324 104.091V80.795C133.327 79.4683 133.855 78.1965 134.793 77.2584C135.731 76.3202 137.003 75.7922 138.329 75.79H144.466C145.793 75.7921 147.065 76.32 148.003 77.2582C148.941 78.1964 149.469 79.4683 149.471 80.795V104.09C149.47 105.417 148.942 106.689 148.004 107.628C147.065 108.566 145.793 109.094 144.466 109.096ZM138.329 77.8531C137.55 77.854 136.803 78.164 136.251 78.7153C135.7 79.2665 135.39 80.0138 135.389 80.7934V104.089C135.39 104.868 135.7 105.616 136.251 106.167C136.803 106.718 137.55 107.028 138.329 107.029H144.466C145.246 107.028 145.993 106.718 146.544 106.167C147.095 105.615 147.405 104.868 147.406 104.089V80.795C147.405 80.0156 147.095 79.2683 146.544 78.7171C145.993 78.1659 145.246 77.8558 144.466 77.8547L138.329 77.8531Z" fill="#650000"/>
<path opacity="0.5" d="M144.466 77.853H138.329C137.549 77.854 136.802 78.1642 136.251 78.7154C135.7 79.2666 135.39 80.0139 135.389 80.7933V81.6788C135.39 80.8994 135.7 80.1522 136.251 79.6011C136.802 79.05 137.55 78.74 138.329 78.7391H144.466C145.245 78.7399 145.993 79.0499 146.544 79.601C147.095 80.1521 147.405 80.8994 147.406 81.6788V80.795C147.406 80.0151 147.096 79.2674 146.545 78.7158C145.993 78.1642 145.246 77.8539 144.466 77.853Z" fill="white"/>
<path d="M148.573 182.239H62.446C62.2928 182.239 62.1414 182.205 62.0029 182.139C61.8645 182.073 61.7423 181.978 61.6453 181.859C61.5484 181.74 61.479 181.602 61.4423 181.453C61.4055 181.304 61.4023 181.149 61.4329 180.999L68.5213 146.087C68.5251 146.067 68.5301 146.046 68.5356 146.027C69.8079 141.256 72.2343 136.872 75.6009 133.26C78.9707 129.654 83.1943 126.954 87.8824 125.409C94.8008 123.143 101.704 122.804 105.204 122.804H105.775C109.274 122.804 116.178 123.143 123.096 125.409C127.784 126.954 132.008 129.654 135.378 133.26C138.744 136.871 141.171 141.255 142.443 146.025C142.448 146.045 142.453 146.064 142.457 146.084L149.585 180.996C149.616 181.146 149.613 181.301 149.576 181.45C149.54 181.599 149.47 181.738 149.373 181.857C149.277 181.976 149.154 182.071 149.016 182.137C148.877 182.203 148.726 182.237 148.573 182.237V182.239ZM63.7077 180.171H147.307L140.438 146.53C138.003 137.425 131.281 130.266 122.453 127.374C115.808 125.197 109.151 124.872 105.776 124.872H105.204C101.828 124.872 95.1721 125.197 88.5264 127.374C79.6984 130.266 72.9774 137.426 70.5414 146.529L63.7077 180.171Z" fill="#650000"/>
<path d="M145.292 176.234L143.152 159.821L142.341 155.847L78.2513 153.789L68.4596 156.781L64.5095 176.234H145.292Z" fill="#FFE0B2"/>
<path opacity="0.2" d="M141.42 158.571L126.244 162.206L117.678 171.952L124.686 176.234H143.816L141.675 159.821L141.42 158.571Z" fill="#650000"/>
<path opacity="0.2" d="M74.415 159.696C74.415 159.696 72.9382 170.328 63.7829 172.1L63.3396 176.678L80.174 177.268L78.5207 174.664L76.6298 159.843L74.415 159.696Z" fill="#650000"/>
<path opacity="0.4" d="M70.2312 157.372L80.0234 154.38L142.45 156.384L142.341 155.847L78.2513 153.789L68.4596 156.781L64.5095 176.234H66.4015L70.2312 157.372Z" fill="white"/>
<path d="M116.202 163.387L142.828 158.234L140.438 146.529C138.002 137.426 131.28 130.266 122.453 127.374C115.678 125.154 108.926 124.852 105.495 124.873C102.067 124.851 95.3022 125.154 88.5262 127.374C79.6982 130.266 72.9772 137.425 70.5412 146.529L68.2483 157.824L95.2335 163.387H116.202Z" fill="#03C9D8"/>
<path opacity="0.2" d="M101.731 159.843L126.244 159.253L136.876 158.957L141.459 157.316L139.259 146.529C136.823 137.426 130.101 130.266 121.274 127.374C118.959 126.626 116.592 126.053 114.191 125.662C113.546 131.172 108.478 151.175 68.9573 154.343L68.2874 157.643L72.8848 158.78L80.9407 160.441L80.8032 160.413L101.731 159.843Z" fill="#650000"/>
<path opacity="0.5" d="M72.0176 147.565C74.4535 138.461 81.1745 131.302 90.0026 128.41C96.778 126.19 103.542 125.887 106.971 125.909C110.402 125.888 117.153 126.19 123.929 128.41C126.184 129.149 128.332 130.179 130.319 131.474C127.939 129.687 125.282 128.303 122.454 127.376C115.679 125.156 108.927 124.854 105.497 124.875C102.068 124.853 95.3035 125.156 88.5275 127.376C79.6994 130.268 72.9784 137.427 70.5425 146.531L68.2495 157.826L69.8682 158.16L72.0176 147.565Z" fill="white"/>
<path d="M121.577 147.004C121.303 147.004 121.04 146.895 120.846 146.701C120.652 146.507 120.543 146.244 120.543 145.97V137.879C120.543 131.909 125.4 127.052 131.37 127.052C136.037 127.052 139.834 123.257 139.834 118.588V107.992C139.83 107.854 139.855 107.717 139.905 107.589C139.956 107.461 140.032 107.344 140.128 107.245C140.224 107.147 140.339 107.069 140.466 107.015C140.593 106.962 140.73 106.934 140.867 106.934C141.005 106.934 141.142 106.962 141.269 107.015C141.396 107.069 141.511 107.147 141.607 107.245C141.703 107.344 141.779 107.461 141.829 107.589C141.88 107.717 141.904 107.854 141.901 107.992V118.588C141.901 124.396 137.177 129.12 131.37 129.12C126.54 129.12 122.61 133.049 122.61 137.879V145.97C122.61 146.244 122.501 146.507 122.308 146.701C122.114 146.895 121.851 147.004 121.577 147.004Z" fill="#650000"/>
<path d="M83.368 165.524C83.3015 165.707 75.613 162.839 72.9081 166.608C72.4064 167.314 72.1667 168.173 72.2305 169.036C72.3152 170.338 72.1496 173.044 69.3105 173.044H85.0879L83.368 165.524Z" fill="#FFE0B2"/>
<path d="M85.0877 173.93H69.3104C69.0754 173.93 68.85 173.836 68.6838 173.67C68.5177 173.504 68.4243 173.279 68.4243 173.044C68.4243 172.809 68.5177 172.583 68.6838 172.417C68.85 172.251 69.0754 172.158 69.3104 172.158C69.9511 172.158 70.4192 171.993 70.7404 171.646C71.3905 170.952 71.3795 169.63 71.3454 169.094C71.2662 168.025 71.5642 166.963 72.1874 166.092C73.2957 164.548 75.1717 163.765 77.7633 163.765C79.85 163.765 81.9191 164.283 82.913 164.532C83.0725 164.571 83.2479 164.615 83.3486 164.637C83.3728 164.637 83.397 164.637 83.4212 164.637C83.6122 164.649 83.7944 164.722 83.9403 164.846C84.0863 164.97 84.1882 165.138 84.2308 165.324L85.9506 172.845C85.9802 172.974 85.9801 173.109 85.9505 173.239C85.9209 173.369 85.8624 173.49 85.7795 173.594C85.6966 173.698 85.5913 173.782 85.4714 173.84C85.3515 173.898 85.2202 173.928 85.0871 173.928L85.0877 173.93ZM72.5449 172.158H83.9789L82.6363 166.288L82.4862 166.251C81.4896 166.001 79.635 165.536 77.7666 165.536C75.7784 165.536 74.3869 166.07 73.6306 167.124C73.2477 167.663 73.0659 168.319 73.1169 168.977C73.1752 169.914 73.1059 171.141 72.5449 172.158ZM82.7749 164.866C82.6842 164.948 82.6114 165.048 82.561 165.159C82.6112 165.048 82.6841 164.948 82.7749 164.866Z" fill="#650000"/>
<path opacity="0.4" d="M74.0684 172.158C74.3132 171.35 74.3434 170.498 74.2956 169.807C74.2447 169.148 74.4265 168.492 74.8093 167.953C76.4296 165.695 80.5518 166.358 82.765 166.862L82.6336 166.288L82.4834 166.251C80.7581 165.819 75.5078 164.505 73.6284 167.125C73.2455 167.664 73.0638 168.32 73.1153 168.979C73.1758 169.914 73.1065 171.141 72.5427 172.158H74.0684Z" fill="white"/>
<path d="M127.651 165.524C127.717 165.707 135.406 162.839 138.11 166.608C138.612 167.314 138.852 168.173 138.788 169.036C138.703 170.338 138.869 173.044 141.708 173.044H125.931L127.651 165.524Z" fill="#FFE0B2"/>
<path d="M141.709 173.93H125.931C125.798 173.93 125.666 173.9 125.546 173.842C125.426 173.784 125.321 173.7 125.238 173.596C125.155 173.492 125.097 173.37 125.067 173.241C125.037 173.111 125.038 172.976 125.067 172.846L126.787 165.326C126.83 165.139 126.932 164.972 127.078 164.848C127.224 164.724 127.406 164.651 127.597 164.639C127.621 164.639 127.645 164.639 127.669 164.639C127.769 164.617 127.944 164.573 128.104 164.534C129.098 164.284 131.167 163.767 133.255 163.767C135.846 163.767 137.722 164.549 138.831 166.093C139.454 166.965 139.752 168.027 139.672 169.095C139.637 169.631 139.626 170.954 140.277 171.648C140.6 171.992 141.068 172.159 141.707 172.159C141.942 172.159 142.167 172.253 142.334 172.419C142.5 172.585 142.593 172.81 142.593 173.045C142.593 173.28 142.5 173.506 142.334 173.672C142.167 173.838 141.942 173.931 141.707 173.931L141.709 173.93ZM127.042 172.158H138.476C137.913 171.141 137.843 169.913 137.904 168.979C137.955 168.32 137.773 167.664 137.391 167.125C136.634 166.071 135.243 165.537 133.255 165.537C131.385 165.537 129.531 166.001 128.534 166.252L128.385 166.289L127.042 172.158Z" fill="#650000"/>
<path opacity="0.2" d="M127.651 165.524C127.717 165.707 135.406 162.839 138.11 166.608C138.612 167.314 138.852 168.173 138.788 169.036C138.703 170.338 138.869 173.044 141.708 173.044H125.931L127.651 165.524Z" fill="#650000"/>
<path d="M96.739 119.047H114.24V130.249C114.24 132.265 113.439 134.198 112.014 135.623C110.589 137.048 108.656 137.849 106.641 137.849H104.338C102.323 137.849 100.39 137.048 98.9648 135.623C97.5397 134.198 96.739 132.265 96.739 130.249V119.047Z" fill="#FFE0B2"/>
<path d="M105.49 138.882C100.095 138.882 95.7056 134.493 95.7056 129.098V119.047C95.7056 118.773 95.8145 118.51 96.0084 118.316C96.2023 118.122 96.4653 118.013 96.7396 118.013H114.241C114.515 118.013 114.778 118.122 114.971 118.316C115.165 118.51 115.274 118.773 115.274 119.047V129.098C115.273 134.493 110.884 138.882 105.49 138.882ZM97.773 120.08V129.098C97.773 133.353 101.235 136.815 105.49 136.815C109.745 136.815 113.207 133.353 113.207 129.098V120.08H97.773Z" fill="#650000"/>
<path opacity="0.4" d="M99.5446 129.098V120.08H97.7725V129.098C97.7725 133.353 101.234 136.815 105.49 136.815C105.785 136.814 106.081 136.796 106.375 136.762C102.537 136.321 99.5446 133.053 99.5446 129.098Z" fill="white"/>
<path d="M80.5317 160.57C80.3719 160.57 80.2144 160.533 80.0714 160.461C79.9284 160.39 79.8038 160.287 79.7074 160.16C79.611 160.032 79.5453 159.884 79.5156 159.728C79.4859 159.571 79.4929 159.409 79.5362 159.255L82.3698 149.209C82.4489 148.951 82.6261 148.734 82.8633 148.605C83.1005 148.475 83.3789 148.444 83.6389 148.517C83.8989 148.591 84.12 148.763 84.2547 148.997C84.3894 149.231 84.4271 149.509 84.3597 149.77L81.5261 159.816C81.4649 160.033 81.3347 160.224 81.1552 160.36C80.9758 160.496 80.7568 160.569 80.5317 160.57ZM132.291 160.57C132.065 160.569 131.846 160.496 131.667 160.36C131.487 160.224 131.357 160.033 131.296 159.816L128.463 149.77C128.395 149.509 128.433 149.231 128.567 148.997C128.702 148.763 128.923 148.591 129.183 148.517C129.443 148.444 129.722 148.475 129.959 148.605C130.196 148.734 130.373 148.951 130.452 149.209L133.286 159.255C133.329 159.409 133.336 159.571 133.307 159.728C133.277 159.884 133.211 160.032 133.115 160.16C133.018 160.287 132.894 160.39 132.751 160.461C132.608 160.533 132.45 160.57 132.291 160.57Z" fill="#650000"/>
<path opacity="0.2" d="M141.471 76.8196H138.329C137.808 76.8195 137.291 76.9222 136.809 77.1219C136.327 77.3216 135.888 77.6143 135.519 77.9833C135.15 78.3523 134.858 78.7904 134.658 79.2726C134.458 79.7547 134.356 80.2715 134.356 80.7933V104.089C134.355 104.697 134.496 105.298 134.765 105.844C135.035 106.39 135.427 106.866 135.911 107.236C136.345 106.48 136.744 105.729 137.108 104.991C139.962 99.2123 141.471 92.6425 141.471 85.9914V76.8196Z" fill="#650000"/>
<path d="M105.578 42.5701H105.4C102.855 42.6097 73.2 43.6921 73.2 72.6721V85.9937C73.2 92.4039 74.6019 98.7581 77.4548 104.535C81.6106 112.95 89.6818 122.113 105.129 122.392V122.405C105.251 122.405 105.368 122.399 105.489 122.398C105.61 122.397 105.728 122.405 105.85 122.405V122.392C121.297 122.113 129.368 112.951 133.523 104.535C136.376 98.7603 137.778 92.4039 137.778 85.9937V72.6699C137.778 43.6899 108.124 42.6075 105.578 42.5701Z" fill="#FFE0B2"/>
<path d="M105.85 123.436C105.773 123.436 105.697 123.436 105.622 123.433L105.489 123.43L105.356 123.433C105.219 123.442 105.08 123.438 104.944 123.419C97.7938 123.261 91.5645 121.215 86.4341 117.337C82.4015 114.288 79.0685 110.132 76.528 104.991C75.0759 102.042 73.9755 98.9338 73.2495 95.7286C72.5274 92.534 72.1641 89.2688 72.1665 85.9936V72.6699C72.1665 65.824 73.7984 59.9357 77.0164 55.1678C79.6289 51.2974 83.2864 48.1602 87.88 45.8431C95.6482 41.9271 103.644 41.5668 105.325 41.5355C105.349 41.5355 105.372 41.5327 105.396 41.5327H105.582C105.606 41.5327 105.63 41.5327 105.653 41.5355C107.334 41.5668 115.33 41.9271 123.098 45.8431C127.695 48.1602 131.348 51.2974 133.962 55.1678C137.18 59.9357 138.812 65.824 138.812 72.6699V85.9914C138.814 89.2666 138.451 92.5318 137.729 95.7264C137.003 98.9317 135.903 102.04 134.45 104.988C131.91 110.133 128.577 114.283 124.544 117.335C119.414 121.213 113.187 123.259 106.035 123.417C105.974 123.429 105.912 123.435 105.85 123.436ZM105.455 43.6002H105.416C103.952 43.6233 96.2714 43.9269 88.8112 47.6883C79.1383 52.5646 74.2362 60.9692 74.2362 72.6688V85.9903C74.2362 92.3258 75.6706 98.5787 78.3848 104.074C82.2029 111.806 89.9458 121.08 105.151 121.355C105.194 121.355 105.238 121.359 105.281 121.365H105.306C105.365 121.365 105.423 121.362 105.482 121.362H105.501C105.561 121.362 105.62 121.363 105.678 121.365H105.702C105.746 121.359 105.79 121.355 105.834 121.355C121.038 121.08 128.781 111.806 132.599 104.074C135.313 98.5793 136.748 92.3258 136.748 85.9903V72.6699C136.748 60.9703 131.843 52.5657 122.173 47.6894C114.712 43.928 107.031 43.6244 105.567 43.6013H105.528H105.46L105.455 43.6002Z" fill="#650000"/>
<path opacity="0.2" d="M133.523 104.533C136.376 98.7581 137.778 92.4017 137.778 85.9915V72.6699C137.778 67.9454 136.987 63.9667 135.656 60.6084C129.373 62.3299 124.288 63.7478 124.176 63.8595C123.881 64.1548 102.912 65.3362 102.912 65.3362C102.912 65.3362 88.1451 54.1135 87.5544 54.4088C87.1837 54.5942 80.7619 57.689 75.3741 60.4786C74.0123 63.8639 73.2 67.8844 73.2 72.6699V85.9915C73.2 86.239 73.206 86.4865 73.2098 86.7323C73.7697 87.2983 74.1168 87.6343 74.1168 87.6343C74.1168 87.6343 85.4506 80.8875 92.3834 81.8401C92.6341 81.8748 92.8884 81.8097 93.0916 81.6588C93.2947 81.5079 93.4305 81.2832 93.4696 81.0332L93.5428 80.5707C93.5583 80.4796 93.602 80.3958 93.6678 80.331C93.7336 80.2662 93.8181 80.2237 93.9093 80.2096C94.0006 80.1955 94.094 80.2104 94.1762 80.2523C94.2585 80.2942 94.3255 80.361 94.3678 80.4431L94.7473 81.2015C94.8936 81.4943 95.1166 81.742 95.3926 81.918C95.6685 82.0941 95.9871 82.192 96.3143 82.2014L104.269 82.4286C104.668 82.4399 105.065 82.353 105.423 82.1754C105.781 81.9978 106.09 81.735 106.323 81.41C106.404 81.2962 106.512 81.2036 106.636 81.1402C106.761 81.0767 106.899 81.0441 107.039 81.0452C107.179 81.0463 107.316 81.081 107.44 81.1464C107.564 81.2118 107.67 81.3059 107.749 81.421C107.942 81.6993 108.198 81.9278 108.497 82.0874C108.796 82.247 109.128 82.3333 109.466 82.3389L116.258 82.4489C116.6 82.4544 116.938 82.3712 117.239 82.2073C117.54 82.0435 117.794 81.8046 117.975 81.5139L118.364 80.8908C118.405 80.8251 118.465 80.773 118.535 80.7409C118.606 80.7088 118.684 80.6981 118.761 80.7102C118.837 80.7223 118.908 80.7566 118.966 80.8088C119.023 80.8611 119.063 80.929 119.082 81.0041C119.191 81.44 119.418 81.8375 119.738 82.1526C120.058 82.4677 120.459 82.6883 120.897 82.7899C122.741 83.2189 126.025 84.0384 128.859 85.0356C130.365 85.563 131.61 86.6491 132.337 88.0691C133.064 89.4891 133.217 91.1343 132.764 92.6641C129.86 102.494 120.475 123.43 93.7551 119.678L95.4496 120.851C98.3025 121.767 101.511 122.324 105.13 122.391V122.404C105.251 122.404 105.369 122.399 105.49 122.398C105.611 122.396 105.728 122.404 105.85 122.404V122.391C121.297 122.111 129.368 112.949 133.523 104.533Z" fill="#650000"/>
<path opacity="0.4" d="M107.602 120.765C107.559 120.766 107.516 120.769 107.473 120.775H107.45C107.39 120.775 107.33 120.775 107.253 120.772C107.192 120.772 107.132 120.772 107.072 120.775H107.051C107.007 120.77 106.964 120.766 106.92 120.765C91.7146 120.49 83.9717 111.216 80.1541 103.485C77.4399 97.989 76.0055 91.736 76.0055 85.4006V72.079C76.0055 60.3794 80.9099 51.9749 90.5805 47.0986C91.8524 46.4601 93.1617 45.8994 94.5014 45.4194C92.5432 46.0143 90.6388 46.7736 88.8084 47.6893C79.1355 52.5656 74.2334 60.9701 74.2334 72.6697V85.9913C74.2334 92.3267 75.6678 98.5797 78.3821 104.075C82.1996 111.807 89.9425 121.081 105.148 121.356C105.192 121.357 105.235 121.36 105.279 121.366H105.301C105.36 121.366 105.42 121.365 105.481 121.363C105.558 121.363 105.619 121.363 105.679 121.366H105.701C105.744 121.36 105.787 121.357 105.83 121.356C109.813 121.284 113.28 120.59 116.302 119.473C113.715 120.24 110.828 120.707 107.602 120.765Z" fill="white"/>
<path d="M105.578 42.5701H105.4C102.855 42.6097 73.2 43.6921 73.2 72.6721L73.3611 84.2084C73.3611 84.2084 83.4899 77.0881 91.0249 78.3905C91.0249 78.3905 90.7257 68.606 93.7457 65.5958L95.9193 78.4152L104.313 78.6578L106.59 72.3361L109.206 78.7711L116.145 79.1946C116.145 79.1946 118.87 73.8777 118.375 70.0838C118.375 70.0838 120.85 74.6642 121.404 79.9613C121.404 79.9613 130.097 80.7126 137.779 84.9954V72.6699C137.778 43.6899 108.124 42.6075 105.578 42.5701Z" fill="#ED1B24"/>
<path opacity="0.5" d="M118.122 69.0278L118.796 69.2808C119.938 69.7076 120.878 70.5475 121.429 71.6343C122.116 72.9873 122.959 74.9018 123.166 76.4875C123.218 76.8953 123.396 77.2766 123.676 77.5775C123.956 77.8784 124.324 78.0837 124.727 78.1644C127.629 78.7348 133.781 80.2577 136.876 83.3515L126.536 80.6939L121.22 79.5125L118.122 69.0278ZM106.604 71.3901L107.109 71.4621C107.588 71.5306 108.043 71.7179 108.432 72.0069C108.821 72.2959 109.132 72.6775 109.336 73.1171L110.476 75.5717C110.557 75.8302 110.7 76.0649 110.892 76.2553C111.085 76.4456 111.321 76.5858 111.581 76.6635L116.645 78.1826L108.966 78.4779L106.604 71.3901ZM93.3135 64.5981H93.5384C94.2202 64.5988 94.8801 64.8389 95.4029 65.2766C95.9256 65.7143 96.278 66.3218 96.3984 66.9928L97.7349 74.4151C97.8259 74.9202 98.0621 75.3878 98.4146 75.7607C98.7671 76.1337 99.2207 76.3958 99.7199 76.515L104.242 77.5913L96.2901 78.4163L93.3135 64.5981Z" fill="white"/>
<path opacity="0.5" d="M122.168 47.6895C114.707 43.928 107.026 43.6244 105.562 43.6013H105.523H105.456H105.416C104.156 43.6211 98.291 43.851 91.9258 46.3117C90.8946 46.7099 89.8507 47.1648 88.8112 47.6895C86.184 49.0139 83.9107 50.5979 81.9912 52.4415C76.8399 57.3766 74.2362 64.1482 74.2362 72.6699L74.3462 80.7065C74.1999 80.7912 74.1168 80.8413 74.1168 80.8413L73.5261 83.7948L75.8911 82.0227L76.0083 73.556C76.0083 65.0095 78.6285 58.2242 83.8095 53.2852C85.0882 53.4045 86.7877 53.0294 88.4702 52.1593C90.8533 50.9268 92.4511 49.0925 92.5275 47.6741C99.331 44.7651 105.853 44.5083 107.191 44.4874H107.231H107.297H107.336C108.735 44.5094 115.816 44.7904 122.956 48.0998C122.693 47.9601 122.433 47.8231 122.168 47.6895Z" fill="white"/>
<path d="M137.778 86.0277C137.602 86.0278 137.429 85.9827 137.275 85.8968C129.873 81.7718 121.399 80.9974 121.315 80.9897C121.075 80.9692 120.85 80.8659 120.679 80.6975C120.508 80.5292 120.4 80.3063 120.376 80.0674C120.156 77.9427 119.602 75.9231 119.039 74.2973C118.369 77.0941 117.142 79.5135 117.064 79.6648C116.972 79.8435 116.831 79.9916 116.656 80.0912C116.482 80.1907 116.282 80.2373 116.081 80.2252L109.143 79.8017C108.948 79.7899 108.761 79.7233 108.603 79.6096C108.445 79.4959 108.322 79.3398 108.248 79.1593L106.645 75.223L105.28 79.0086C105.206 79.2133 105.07 79.3894 104.89 79.512C104.71 79.6345 104.496 79.6972 104.278 79.6912L95.8847 79.4486C95.6456 79.4418 95.4162 79.3523 95.2357 79.1953C95.0552 79.0384 94.9347 78.8237 94.8947 78.5879L93.2024 68.6059C92.1409 71.692 91.9924 76.3752 92.0529 78.3585C92.0577 78.5119 92.0283 78.6644 91.9668 78.8049C91.9053 78.9455 91.8133 79.0706 91.6974 79.1712C91.5816 79.2718 91.4448 79.3453 91.297 79.3865C91.1491 79.4276 90.994 79.4353 90.8429 79.409C90.2597 79.3109 89.6693 79.2626 89.0779 79.2649C82.2772 79.2649 74.0343 84.9943 73.9529 85.052C73.799 85.1599 73.6187 85.2238 73.4312 85.2368C73.2437 85.2499 73.0562 85.2116 72.8889 85.1261C72.7215 85.0406 72.5806 84.9111 72.4814 84.7515C72.3821 84.5919 72.3282 84.4083 72.3255 84.2204L72.1643 72.6842V72.6699C72.1643 65.824 73.7962 59.9357 77.0142 55.1678C79.6267 51.2974 83.2842 48.1602 87.8778 45.8431C95.6466 41.9265 103.643 41.5668 105.323 41.5355C105.346 41.5355 105.37 41.5327 105.394 41.5327H105.58C105.604 41.5327 105.627 41.5327 105.651 41.5355C107.332 41.5668 115.328 41.9271 123.096 45.8431C127.692 48.1602 131.346 51.2974 133.96 55.1678C137.178 59.9357 138.81 65.824 138.81 72.6699V84.9943C138.81 85.2684 138.701 85.5313 138.507 85.7251C138.313 85.9188 138.05 86.0277 137.776 86.0277H137.778ZM122.33 79.0246C123.259 79.1434 124.897 79.392 126.943 79.8639C129.501 80.4546 133.144 81.5089 136.745 83.2854V72.6704C136.745 60.9708 131.84 52.5663 122.17 47.69C114.71 43.9285 107.028 43.6249 105.564 43.6018H105.526H105.457H105.418C103.954 43.6249 96.2736 43.9285 88.8134 47.69C79.1427 52.5652 74.2384 60.9681 74.2384 72.6633L74.3737 82.3257C75.2966 81.7608 76.5693 81.0288 78.062 80.2907C82.2238 78.2375 85.9325 77.1964 89.0862 77.1964C89.3909 77.1964 89.6912 77.2063 89.9871 77.2266C89.997 76.2229 90.0476 74.6878 90.2274 73.0103C90.6548 69.0234 91.5942 66.2822 93.0187 64.8626C93.1529 64.7288 93.3213 64.6346 93.5055 64.5901C93.6897 64.5456 93.8826 64.5526 94.0631 64.6103C94.2436 64.668 94.4047 64.7743 94.5289 64.9174C94.653 65.0606 94.7355 65.2351 94.7671 65.422L96.8021 77.4054L103.6 77.6017L105.625 71.9846C105.695 71.7877 105.824 71.617 105.994 71.495C106.164 71.373 106.367 71.3054 106.576 71.3011C106.785 71.2969 106.991 71.3562 107.166 71.4713C107.34 71.5863 107.476 71.7517 107.555 71.9455L109.926 77.7755L115.519 78.116C116.179 76.6728 117.713 72.9366 117.358 70.2136C117.326 69.974 117.38 69.731 117.509 69.5267C117.638 69.3225 117.835 69.17 118.065 69.0958C118.295 69.0215 118.543 69.0301 118.768 69.1202C118.992 69.2103 119.177 69.3761 119.292 69.5888C119.384 69.7758 121.618 73.9519 122.33 79.0246ZM103.326 92.1619C103.326 92.1619 103.185 93.6601 102.508 94.6116C102.051 95.2534 101.809 96.0311 101.886 96.8154C101.954 97.5134 102.246 98.2493 103.066 98.6728C103.066 98.6728 106.091 100.403 108.429 98.356C108.756 98.0765 108.979 97.6949 109.062 97.273C109.15 96.7912 109.147 96.112 108.698 95.4828C108.698 95.4828 108.698 97.3709 106.777 97.5337C106.777 97.5337 105.145 97.7537 104.151 97.1487C103.686 96.8649 103.452 96.3182 103.523 95.7781C103.639 94.8915 103.821 92.9533 103.326 92.1619Z" fill="#650000"/>
<path d="M96.0211 102.08C96.0211 102.08 103.982 104.86 114.867 102.318C114.867 102.318 117.029 109.523 108.339 112.519C106.605 113.116 104.646 113.225 102.859 112.767C99.5862 111.925 94.9849 110.071 96.0211 102.08Z" fill="#8D6E63"/>
<path d="M105.148 113.934C104.302 113.936 103.459 113.832 102.639 113.623C100.934 113.187 98.774 112.46 97.1702 110.701C95.3348 108.689 94.6528 105.751 95.1423 101.964C95.1593 101.833 95.2052 101.708 95.2767 101.597C95.3482 101.486 95.4435 101.393 95.5557 101.324C95.6679 101.254 95.7941 101.211 95.9252 101.197C96.0562 101.183 96.1888 101.198 96.3133 101.241C96.3485 101.253 100.013 102.501 105.641 102.501C108.68 102.498 111.707 102.146 114.666 101.453C114.885 101.402 115.116 101.436 115.311 101.549C115.506 101.662 115.651 101.845 115.716 102.061C115.741 102.144 116.321 104.124 115.721 106.509C115.171 108.709 113.492 111.679 108.626 113.354C107.507 113.736 106.332 113.932 105.148 113.934ZM96.7951 103.227C96.3661 109.318 99.7035 111.042 103.079 111.907C103.755 112.078 104.451 112.164 105.148 112.162C106.136 112.161 107.116 111.998 108.05 111.679C111.32 110.55 113.318 108.691 113.984 106.15C114.215 105.246 114.277 104.306 114.166 103.38C111.363 103.971 108.506 104.271 105.641 104.273C101.457 104.273 98.3356 103.629 96.7951 103.227Z" fill="#650000"/>
<path d="M97.3875 109.568C98.8312 111.523 101.048 112.301 102.859 112.765C104.646 113.223 106.605 113.114 108.339 112.516C109.805 112.011 110.961 111.386 111.872 110.696C106.543 106.019 99.8064 108.446 97.3875 109.568Z" fill="#ED1B24"/>
<path d="M105.149 113.934C104.302 113.936 103.459 113.832 102.639 113.623C100.711 113.128 98.29 112.281 96.6747 110.094C96.5965 109.988 96.5429 109.867 96.5177 109.738C96.4925 109.609 96.4963 109.476 96.5288 109.348C96.5613 109.221 96.6218 109.103 96.7058 109.002C96.7899 108.9 96.8953 108.819 97.0146 108.764C98.3989 108.122 101.195 107.045 104.378 107.045C107.482 107.045 110.2 108.05 112.456 110.03C112.556 110.117 112.634 110.225 112.687 110.346C112.739 110.467 112.764 110.598 112.759 110.73C112.754 110.861 112.72 110.99 112.659 111.107C112.598 111.224 112.512 111.326 112.407 111.405C111.362 112.196 110.091 112.852 108.628 113.357C107.508 113.738 106.332 113.934 105.149 113.934ZM98.8785 109.9C100.124 111.03 101.739 111.563 103.078 111.907C103.755 112.078 104.45 112.164 105.148 112.162C106.135 112.161 107.116 111.998 108.05 111.679C108.852 111.406 109.626 111.056 110.36 110.634C108.631 109.424 106.623 108.814 104.375 108.814C102.224 108.817 100.252 109.377 98.8791 109.9H98.8785Z" fill="#650000"/>
<path opacity="0.4" d="M100.059 110.49C102.346 109.613 106.105 108.704 109.684 110.201C105.779 107.912 101.421 108.925 98.8801 109.899C99.5528 110.509 100.333 110.944 101.119 111.268C100.741 111.044 100.386 110.783 100.059 110.49Z" fill="white"/>
<path opacity="0.2" d="M107.49 108.603C107.49 108.603 107.785 112.737 99.5149 110.67L102.026 112.885H108.227C108.523 112.885 111.772 110.818 111.772 110.818L110.295 109.046L107.49 108.603Z" fill="#650000"/>
<path d="M84.425 92.5183C84.425 92.5183 89.8744 84.8733 97.2812 92.6618C97.2812 92.6618 97.13 87.4275 91.9209 85.5707C90.4403 85.0432 88.8893 85.1901 87.5913 86.0074C86.02 86.9985 84.205 88.929 84.425 92.5183ZM126.555 92.5183C126.555 92.5183 121.106 84.8733 113.699 92.6618C113.699 92.6618 113.851 87.4275 119.059 85.5707C120.54 85.0432 122.091 85.1901 123.389 86.0074C124.96 86.9985 126.775 88.929 126.555 92.5183Z" fill="#650000"/>
<path d="M67.6467 172.247H143.371V173.199C143.371 174.206 142.971 175.171 142.26 175.883C141.548 176.595 140.583 176.994 139.576 176.994H71.445C70.4385 176.994 69.4733 176.595 68.7616 175.883C68.0499 175.171 67.65 174.206 67.65 173.199V172.247H67.6467Z" fill="#F5F5F5"/>
<path d="M139 177.882H72.0182C70.6243 177.881 69.288 177.326 68.3024 176.34C67.3168 175.355 66.7623 174.019 66.7607 172.625V172.247C66.7609 172.012 66.8543 171.787 67.0204 171.621C67.1866 171.455 67.4118 171.361 67.6468 171.361H143.371C143.606 171.361 143.832 171.455 143.998 171.621C144.164 171.787 144.257 172.012 144.257 172.247V172.625C144.256 174.019 143.701 175.355 142.716 176.34C141.73 177.326 140.394 177.881 139 177.882ZM68.5702 173.133C68.6933 173.96 69.109 174.715 69.7417 175.262C70.3745 175.808 71.1823 176.109 72.0182 176.11H139C139.836 176.109 140.644 175.808 141.277 175.262C141.91 174.716 142.325 173.96 142.448 173.133H68.5702Z" fill="#650000"/>
<path opacity="0.5" d="M70.0463 173.724H142.307C142.371 173.532 142.419 173.334 142.448 173.133H68.5696C68.6801 173.871 69.024 174.554 69.551 175.082C70.0779 175.61 70.7602 175.956 71.4978 176.068C71.1094 175.796 70.7804 175.448 70.5308 175.045C70.2813 174.642 70.1164 174.193 70.0463 173.724Z" fill="white"/>
<path opacity="0.2" d="M78.8149 172.247L78.9568 173.41C79.135 174.87 79.9331 176.133 81.087 176.996H134.061C135.216 176.133 136.013 174.87 136.191 173.41L136.333 172.247H78.8149Z" fill="#650000"/>
<path d="M128.346 177.161H82.6726C80.235 177.161 78.1874 175.492 77.9179 173.285L74.0514 141.613C73.7362 139.032 75.9549 136.773 78.8061 136.773H132.211C135.063 136.773 137.281 139.031 136.966 141.613L133.1 173.285C132.831 175.492 130.783 177.161 128.346 177.161Z" fill="#F5F5F5"/>
<path d="M128.346 178.194H82.6727C79.7098 178.194 77.2249 176.137 76.8916 173.409L73.0257 141.738C72.8469 140.277 73.3007 138.847 74.3072 137.712C75.4165 136.459 77.0572 135.74 78.8062 135.74H132.211C133.961 135.74 135.601 136.459 136.711 137.712C137.716 138.847 138.17 140.277 137.992 141.738L134.126 173.409C133.794 176.137 131.308 178.194 128.346 178.194ZM78.8062 137.808C77.6479 137.808 76.5726 138.273 75.8549 139.083C75.2499 139.769 74.9749 140.623 75.0777 141.489L78.9437 173.16C79.1505 174.852 80.7532 176.127 82.6727 176.127H128.346C130.265 176.127 131.866 174.852 132.074 173.16L135.941 141.489C136.046 140.623 135.77 139.769 135.164 139.083C134.446 138.273 133.37 137.808 132.212 137.808H78.8062Z" fill="#650000"/>
<path opacity="0.5" d="M81.0112 174.636L77.1452 142.965C77.0391 142.1 77.3152 141.245 77.9224 140.56C78.6374 139.749 79.7154 139.285 80.8737 139.285H134.279C134.672 139.285 135.063 139.34 135.441 139.45C135.357 139.321 135.264 139.198 135.163 139.082C134.448 138.272 133.37 137.807 132.211 137.807H78.8062C77.6479 137.807 76.5721 138.272 75.8549 139.082C75.2499 139.768 74.9749 140.622 75.0778 141.487L78.9437 173.158C79.1087 174.492 80.1383 175.564 81.5067 175.959C81.2409 175.563 81.0713 175.11 81.0112 174.636Z" fill="white"/>
<path d="M196.326 177.053H26.3312C24.6675 177.053 23.3188 178.402 23.3188 180.066V181.068C23.3188 182.731 24.6675 184.08 26.3312 184.08H196.326C197.99 184.08 199.339 182.731 199.339 181.068V180.066C199.339 178.402 197.99 177.053 196.326 177.053Z" fill="#F49E73"/>
<path d="M195.87 185.113H26.7877C25.5943 185.111 24.4504 184.637 23.6065 183.793C22.7626 182.949 22.2876 181.805 22.2854 180.612V180.522C22.2876 179.328 22.7626 178.184 23.6065 177.341C24.4504 176.497 25.5943 176.022 26.7877 176.02H195.87C197.064 176.022 198.208 176.497 199.052 177.341C199.895 178.184 200.37 179.328 200.373 180.522V180.612C200.37 181.805 199.895 182.949 199.052 183.793C198.208 184.637 197.064 185.111 195.87 185.113ZM26.7877 178.09C26.1422 178.091 25.5233 178.347 25.0668 178.804C24.6104 179.26 24.3536 179.879 24.3529 180.524V180.614C24.3536 181.26 24.6103 181.879 25.0668 182.335C25.5233 182.792 26.1422 183.049 26.7877 183.049H195.87C196.516 183.049 197.135 182.792 197.591 182.335C198.048 181.879 198.304 181.26 198.305 180.614V180.524C198.304 179.879 198.048 179.26 197.591 178.804C197.135 178.347 196.516 178.091 195.87 178.09H26.7877Z" fill="#650000"/>
<path opacity="0.2" d="M180.881 177.268C180.881 177.268 105.127 183.027 23.6143 181.255L25.4931 183.942H196.533C196.533 183.942 202.44 180.812 196.238 176.677L180.881 177.268Z" fill="#650000"/>
<path opacity="0.5" d="M25.8295 181.793V181.703C25.8303 181.057 26.087 180.438 26.5435 179.982C27 179.525 27.6188 179.269 28.2644 179.268H197.347C197.572 179.269 197.795 179.3 198.011 179.363C197.802 178.977 197.493 178.655 197.116 178.431C196.739 178.206 196.309 178.087 195.87 178.087H26.7876C26.1421 178.088 25.5233 178.344 25.0668 178.801C24.6103 179.257 24.3535 179.876 24.3528 180.521V180.612C24.3538 181.141 24.5273 181.656 24.8471 182.078C25.1668 182.501 25.6154 182.807 26.1249 182.952C25.9309 182.596 25.8294 182.198 25.8295 181.793Z" fill="white"/>
<path d="M42.1223 132.85C41.8873 132.85 41.6619 132.756 41.4957 132.59C41.3296 132.424 41.2362 132.199 41.2362 131.964V129.575C41.2362 129.34 41.3296 129.114 41.4957 128.948C41.6619 128.782 41.8873 128.688 42.1223 128.688C42.3573 128.688 42.5826 128.782 42.7488 128.948C42.915 129.114 43.0083 129.34 43.0083 129.575V131.964C43.0083 132.199 42.915 132.424 42.7488 132.59C42.5826 132.756 42.3573 132.85 42.1223 132.85ZM45.54 134.19C45.3647 134.19 45.1935 134.138 45.0478 134.04C44.9021 133.943 44.7886 133.804 44.7215 133.643C44.6545 133.481 44.6369 133.303 44.6711 133.131C44.7053 132.959 44.7896 132.801 44.9135 132.677L46.6026 130.987C46.6843 130.903 46.7821 130.836 46.8902 130.789C46.9982 130.743 47.1144 130.719 47.232 130.718C47.3495 130.717 47.4661 130.739 47.5749 130.784C47.6837 130.828 47.7826 130.894 47.8657 130.977C47.9488 131.06 48.0146 131.159 48.0591 131.268C48.1037 131.377 48.1261 131.493 48.1252 131.611C48.1242 131.729 48.0999 131.845 48.0536 131.953C48.0073 132.061 47.9399 132.159 47.8555 132.24L46.1664 133.93C46.0842 134.012 45.9865 134.078 45.879 134.122C45.7715 134.167 45.6563 134.19 45.54 134.19ZM49.61 137.055H47.2202C47.102 137.057 46.9845 137.037 46.8744 136.994C46.7644 136.95 46.6641 136.886 46.5795 136.803C46.4948 136.72 46.4276 136.622 46.3817 136.513C46.3357 136.404 46.3121 136.287 46.3121 136.169C46.3121 136.051 46.3357 135.934 46.3817 135.825C46.4276 135.716 46.4948 135.617 46.5795 135.534C46.6641 135.452 46.7644 135.387 46.8744 135.344C46.9845 135.301 47.102 135.28 47.2202 135.283H49.61C49.7281 135.28 49.8457 135.301 49.9558 135.344C50.0658 135.387 50.1661 135.452 50.2507 135.534C50.3353 135.617 50.4026 135.716 50.4485 135.825C50.4944 135.934 50.5181 136.051 50.5181 136.169C50.5181 136.287 50.4944 136.404 50.4485 136.513C50.4026 136.622 50.3353 136.72 50.2507 136.803C50.1661 136.886 50.0658 136.95 49.9558 136.994C49.8457 137.037 49.7281 137.057 49.61 137.055ZM37.0249 137.055H34.6357C34.5175 137.057 34.3999 137.037 34.2899 136.994C34.1798 136.95 34.0795 136.886 33.9949 136.803C33.9103 136.72 33.843 136.622 33.7971 136.513C33.7512 136.404 33.7275 136.287 33.7275 136.169C33.7275 136.051 33.7512 135.934 33.7971 135.825C33.843 135.716 33.9103 135.617 33.9949 135.534C34.0795 135.452 34.1798 135.387 34.2899 135.344C34.3999 135.301 34.5175 135.28 34.6357 135.283H37.0249C37.256 135.289 37.4757 135.385 37.6371 135.55C37.7985 135.716 37.8888 135.938 37.8888 136.169C37.8888 136.4 37.7985 136.622 37.6371 136.787C37.4757 136.953 37.256 137.049 37.0249 137.055ZM49.61 141.897H47.2202C46.9852 141.897 46.7598 141.803 46.5937 141.637C46.4275 141.471 46.3342 141.246 46.3342 141.011C46.3342 140.776 46.4275 140.55 46.5937 140.384C46.7598 140.218 46.9852 140.125 47.2202 140.125H49.61C49.845 140.125 50.0703 140.218 50.2365 140.384C50.4027 140.55 50.496 140.776 50.496 141.011C50.496 141.246 50.4027 141.471 50.2365 141.637C50.0703 141.803 49.845 141.897 49.61 141.897ZM37.0249 141.897H34.6357C34.4007 141.897 34.1753 141.803 34.0091 141.637C33.843 141.471 33.7496 141.246 33.7496 141.011C33.7496 140.776 33.843 140.55 34.0091 140.384C34.1753 140.218 34.4007 140.125 34.6357 140.125H37.0249C37.2599 140.125 37.4852 140.218 37.6514 140.384C37.8176 140.55 37.9109 140.776 37.9109 141.011C37.9109 141.246 37.8176 141.471 37.6514 141.637C37.4852 141.803 37.2599 141.897 37.0249 141.897ZM49.61 146.484H47.2202C47.1039 146.484 46.9886 146.461 46.8811 146.416C46.7736 146.372 46.676 146.306 46.5937 146.224C46.5114 146.142 46.4461 146.044 46.4016 145.937C46.3571 145.829 46.3342 145.714 46.3342 145.598C46.3342 145.481 46.3571 145.366 46.4016 145.259C46.4461 145.151 46.5114 145.053 46.5937 144.971C46.676 144.889 46.7736 144.824 46.8811 144.779C46.9886 144.735 47.1039 144.712 47.2202 144.712H49.61C49.845 144.712 50.0703 144.805 50.2365 144.971C50.4027 145.137 50.496 145.363 50.496 145.598C50.496 145.833 50.4027 146.058 50.2365 146.224C50.0703 146.39 49.845 146.484 49.61 146.484ZM37.0249 146.484H34.6357C34.5193 146.484 34.4041 146.461 34.2966 146.416C34.1891 146.372 34.0914 146.306 34.0091 146.224C33.9269 146.142 33.8616 146.044 33.8171 145.937C33.7725 145.829 33.7496 145.714 33.7496 145.598C33.7496 145.481 33.7725 145.366 33.8171 145.259C33.8616 145.151 33.9269 145.053 34.0091 144.971C34.0914 144.889 34.1891 144.824 34.2966 144.779C34.4041 144.735 34.5193 144.712 34.6357 144.712H37.0249C37.2599 144.712 37.4852 144.805 37.6514 144.971C37.8176 145.137 37.9109 145.363 37.9109 145.598C37.9109 145.833 37.8176 146.058 37.6514 146.224C37.4852 146.39 37.2599 146.484 37.0249 146.484ZM49.61 151.135H47.2202C46.9852 151.135 46.7598 151.041 46.5937 150.875C46.4275 150.709 46.3342 150.483 46.3342 150.248C46.3342 150.013 46.4275 149.788 46.5937 149.622C46.7598 149.456 46.9852 149.362 47.2202 149.362H49.61C49.845 149.362 50.0703 149.456 50.2365 149.622C50.4027 149.788 50.496 150.013 50.496 150.248C50.496 150.483 50.4027 150.709 50.2365 150.875C50.0703 151.041 49.845 151.135 49.61 151.135ZM37.0249 151.135H34.6357C34.4007 151.135 34.1753 151.041 34.0091 150.875C33.843 150.709 33.7496 150.483 33.7496 150.248C33.7496 150.013 33.843 149.788 34.0091 149.622C34.1753 149.456 34.4007 149.362 34.6357 149.362H37.0249C37.2599 149.362 37.4852 149.456 37.6514 149.622C37.8176 149.788 37.9109 150.013 37.9109 150.248C37.9109 150.483 37.8176 150.709 37.6514 150.875C37.4852 151.041 37.2599 151.135 37.0249 151.135ZM38.7073 134.19C38.5909 134.19 38.4756 134.167 38.3681 134.123C38.2605 134.078 38.1629 134.013 38.0809 133.93L36.3913 132.24C36.2251 132.074 36.1318 131.849 36.1319 131.614C36.1319 131.379 36.2253 131.153 36.3915 130.987C36.5578 130.821 36.7832 130.728 37.0182 130.728C37.2532 130.728 37.4786 130.821 37.6447 130.987L39.3338 132.677C39.4576 132.801 39.542 132.959 39.5762 133.131C39.6104 133.303 39.5928 133.481 39.5258 133.643C39.4587 133.804 39.3452 133.943 39.1995 134.04C39.0538 134.138 38.8825 134.19 38.7073 134.19Z" fill="#650000"/>
<path d="M42.8159 132.08H41.4288C38.8989 132.08 36.8479 134.131 36.8479 136.661V160.7C36.8479 163.23 38.8989 165.281 41.4288 165.281H42.8159C45.3459 165.281 47.3969 163.23 47.3969 160.7V136.661C47.3969 134.131 45.3459 132.08 42.8159 132.08Z" fill="#56CE2E"/>
<path d="M42.1224 166.167C40.4893 166.165 38.9237 165.515 37.7689 164.36C36.6141 163.205 35.9644 161.64 35.9624 160.007V137.355C35.9624 135.721 36.6114 134.154 37.7666 132.999C38.9219 131.844 40.4887 131.195 42.1224 131.195C43.7561 131.195 45.323 131.844 46.4782 132.999C47.6334 134.154 48.2824 135.721 48.2824 137.355V160.006C48.2805 161.639 47.6309 163.205 46.4761 164.36C45.3213 165.515 43.7556 166.165 42.1224 166.167ZM42.1224 132.966C40.9589 132.968 39.8435 133.43 39.0207 134.253C38.198 135.076 37.7353 136.191 37.734 137.355V160.006C37.7351 161.17 38.1978 162.285 39.0206 163.108C39.8433 163.931 40.9588 164.394 42.1224 164.395C43.286 164.394 44.4016 163.931 45.2244 163.108C46.0472 162.286 46.5101 161.17 46.5114 160.007V137.355C46.5101 136.191 46.0472 135.076 45.2244 134.253C44.4016 133.43 43.286 132.968 42.1224 132.966Z" fill="#650000"/>
<path opacity="0.2" d="M44.5829 133.115C44.5829 133.115 44.8783 145.52 36.6079 149.655V154.084H47.8279V137.546C47.8279 137.546 46.355 133.411 44.5829 133.115Z" fill="#650000"/>
<path opacity="0.5" d="M43.0101 133.261C43.3206 133.262 43.6301 133.295 43.9336 133.361C43.2656 133.056 42.5318 132.924 41.7996 132.977C41.0674 133.03 40.3602 133.266 39.7431 133.664C39.126 134.062 38.6187 134.608 38.268 135.253C37.9172 135.898 37.7341 136.621 37.7356 137.355V160.006C37.7368 161.009 38.0811 161.982 38.7114 162.762C39.3418 163.543 40.2201 164.084 41.2006 164.296C40.4327 163.948 39.7811 163.387 39.3237 162.679C38.8662 161.97 38.6224 161.146 38.6211 160.303V141.54C39.0006 141.256 39.2685 140.567 39.2685 139.761C39.2685 138.954 39.0006 138.266 38.6211 137.981V137.651C38.6221 136.488 39.0848 135.372 39.9077 134.549C40.7305 133.726 41.8463 133.263 43.0101 133.261Z" fill="white"/>
<path d="M54.2986 142.904C54.1234 142.904 53.9521 142.852 53.8065 142.755C53.6608 142.658 53.5472 142.519 53.4802 142.357C53.4131 142.195 53.3956 142.017 53.4298 141.845C53.4639 141.674 53.5483 141.516 53.6722 141.392L55.4437 139.621C55.5255 139.536 55.6233 139.469 55.7313 139.423C55.8394 139.376 55.9556 139.352 56.0732 139.351C56.1907 139.35 56.3073 139.373 56.4161 139.417C56.5249 139.462 56.6237 139.527 56.7069 139.611C56.79 139.694 56.8557 139.793 56.9003 139.901C56.9448 140.01 56.9673 140.127 56.9663 140.244C56.9654 140.362 56.9411 140.478 56.8947 140.586C56.8484 140.694 56.7811 140.792 56.6966 140.874L54.9251 142.645C54.843 142.728 54.7453 142.793 54.6378 142.838C54.5303 142.882 54.415 142.905 54.2986 142.904ZM58.8642 145.91H56.0636C55.8286 145.91 55.6032 145.816 55.4371 145.65C55.2709 145.484 55.1775 145.258 55.1775 145.023C55.1775 144.788 55.2709 144.563 55.4371 144.397C55.6032 144.231 55.8286 144.137 56.0636 144.137H58.8642C59.0992 144.137 59.3246 144.231 59.4907 144.397C59.6569 144.563 59.7502 144.788 59.7502 145.023C59.7502 145.258 59.6569 145.484 59.4907 145.65C59.3246 145.816 59.0992 145.91 58.8642 145.91ZM45.3716 145.91H42.5699C42.3349 145.91 42.1095 145.816 41.9434 145.65C41.7772 145.484 41.6838 145.258 41.6838 145.023C41.6838 144.788 41.7772 144.563 41.9434 144.397C42.1095 144.231 42.3349 144.137 42.5699 144.137H45.3705C45.6055 144.137 45.8309 144.231 45.997 144.397C46.1632 144.563 46.2565 144.788 46.2565 145.023C46.2565 145.258 46.1632 145.484 45.997 145.65C45.8309 145.816 45.6055 145.91 45.3705 145.91H45.3716ZM58.8642 150.987H56.0636C55.8286 150.987 55.6032 150.894 55.4371 150.728C55.2709 150.561 55.1775 150.336 55.1775 150.101C55.1775 149.866 55.2709 149.641 55.4371 149.475C55.6032 149.308 55.8286 149.215 56.0636 149.215H58.8642C59.0992 149.215 59.3246 149.308 59.4907 149.475C59.6569 149.641 59.7502 149.866 59.7502 150.101C59.7502 150.336 59.6569 150.561 59.4907 150.728C59.3246 150.894 59.0992 150.987 58.8642 150.987ZM45.3716 150.987H42.5699C42.3349 150.987 42.1095 150.894 41.9434 150.728C41.7772 150.561 41.6838 150.336 41.6838 150.101C41.6838 149.866 41.7772 149.641 41.9434 149.475C42.1095 149.308 42.3349 149.215 42.5699 149.215H45.3705C45.6055 149.215 45.8309 149.308 45.997 149.475C46.1632 149.641 46.2565 149.866 46.2565 150.101C46.2565 150.336 46.1632 150.561 45.997 150.728C45.8309 150.894 45.6055 150.987 45.3705 150.987H45.3716ZM47.1349 142.904C47.0186 142.904 46.9034 142.882 46.7959 142.837C46.6884 142.793 46.5907 142.728 46.5084 142.645L44.7369 140.874C44.6524 140.792 44.5851 140.694 44.5388 140.586C44.4925 140.478 44.4681 140.362 44.4672 140.244C44.4662 140.127 44.4887 140.01 44.5332 139.901C44.5778 139.793 44.6435 139.694 44.7267 139.611C44.8098 139.527 44.9086 139.462 45.0174 139.417C45.1262 139.373 45.2428 139.35 45.3604 139.351C45.4779 139.352 45.5941 139.376 45.7022 139.423C45.8102 139.469 45.908 139.536 45.9898 139.621L47.7613 141.392C47.8852 141.516 47.9696 141.674 48.0038 141.845C48.0379 142.017 48.0204 142.195 47.9533 142.357C47.8863 142.519 47.7727 142.658 47.6271 142.755C47.4814 142.852 47.3101 142.904 47.1349 142.904Z" fill="#650000"/>
<path d="M51.5431 140.331H49.892C46.8812 140.331 44.4404 142.772 44.4404 145.783V159.381C44.4404 162.392 46.8812 164.833 49.892 164.833H51.5431C54.554 164.833 56.9947 162.392 56.9947 159.381V145.783C56.9947 142.772 54.554 140.331 51.5431 140.331Z" fill="#56CE2E"/>
<path d="M50.7176 165.719C48.8185 165.717 46.9978 164.961 45.6549 163.618C44.312 162.275 43.5566 160.455 43.5544 158.556V146.609C43.5566 144.709 44.312 142.889 45.6549 141.546C46.9978 140.203 48.8185 139.447 50.7176 139.445C54.6672 139.445 57.8808 142.659 57.8808 146.609V158.556C57.8808 162.505 54.6699 165.719 50.7176 165.719ZM50.7176 141.217C49.2887 141.219 47.9188 141.788 46.9084 142.798C45.898 143.809 45.3295 145.178 45.3276 146.607V158.555C45.3295 159.983 45.898 161.353 46.9084 162.364C47.9188 163.374 49.2887 163.943 50.7176 163.945C52.1466 163.943 53.5164 163.374 54.5269 162.364C55.5373 161.353 56.1058 159.983 56.1076 158.555V146.609C56.106 145.179 55.5377 143.809 54.5272 142.799C53.5168 141.788 52.1468 141.219 50.7176 141.217Z" fill="#650000"/>
<path opacity="0.5" d="M50.7177 141.218C50.077 141.219 49.4418 141.335 48.8422 141.561C47.6576 142.003 46.6652 142.847 46.0372 143.944C45.5721 144.755 45.3273 145.674 45.3271 146.609V158.556C45.3291 159.667 45.6738 160.75 46.3142 161.657C46.9546 162.565 47.8596 163.253 48.9054 163.627C48.1684 163.135 47.564 162.468 47.1459 161.687C46.7278 160.905 46.5089 160.033 46.5085 159.146V147.199C46.5094 146.417 46.6817 145.644 47.0134 144.936C47.4958 144.863 48.0661 144.521 48.532 143.975C48.9368 143.501 49.1716 142.975 49.225 142.525C49.8985 142.135 50.6493 141.897 51.4245 141.829C52.1997 141.76 52.9805 141.863 53.7119 142.128C52.8266 141.534 51.7841 141.217 50.7177 141.218Z" fill="white"/>
<path d="M43.988 176.92C36.8457 176.92 31.0349 171.109 31.0349 163.967V157.252C31.0358 156.444 31.3572 155.669 31.9286 155.098C32.5001 154.526 33.2749 154.205 34.083 154.204H59.4628C60.2709 154.205 61.0457 154.526 61.6171 155.098C62.1886 155.669 62.51 156.444 62.5109 157.252V163.967C62.5109 171.109 56.7007 176.92 49.5584 176.92H43.988Z" fill="#A1887F"/>
<path d="M59.4628 155.238C59.997 155.238 60.5093 155.45 60.8872 155.828C61.265 156.206 61.4773 156.718 61.4774 157.252V163.967C61.4774 170.55 56.1424 175.887 49.5584 175.887H43.988C37.405 175.887 32.0689 170.552 32.0689 163.967V157.252C32.0691 156.718 32.2813 156.206 32.659 155.828C33.0367 155.451 33.5489 155.238 34.083 155.238H59.4628ZM59.4628 153.171H34.083C33.0009 153.172 31.9634 153.602 31.1982 154.367C30.433 155.133 30.0026 156.17 30.0015 157.252V163.967C30.0002 165.804 30.3611 167.624 31.0635 169.321C31.7659 171.019 32.7961 172.561 34.0951 173.86C35.3941 175.159 36.9365 176.189 38.634 176.892C40.3315 177.594 42.1509 177.955 43.988 177.954H49.5584C51.3955 177.955 53.2148 177.594 54.9123 176.892C56.6098 176.189 58.1522 175.159 59.4512 173.86C60.7503 172.561 61.7804 171.019 62.4829 169.321C63.1853 167.624 63.5462 165.804 63.5449 163.967V157.252C63.5436 156.17 63.1131 155.133 62.3478 154.367C61.5825 153.602 60.545 153.172 59.4628 153.171Z" fill="#650000"/>
<path opacity="0.5" d="M33.5456 164.853V158.138C33.5455 157.874 33.5976 157.612 33.6988 157.367C33.8 157.123 33.9483 156.901 34.1354 156.714C34.3224 156.527 34.5445 156.378 34.7889 156.277C35.0332 156.176 35.2952 156.124 35.5597 156.124H60.94C61.0063 156.124 61.0726 156.127 61.1385 156.134C60.9547 155.858 60.7056 155.632 60.4133 155.476C60.121 155.32 59.7947 155.238 59.4632 155.238H34.0829C33.5488 155.238 33.0365 155.45 32.6588 155.828C32.281 156.206 32.0688 156.718 32.0688 157.252V163.967C32.0686 166.173 32.6809 168.336 33.8374 170.215C34.994 172.094 36.6494 173.615 38.6193 174.608C37.0515 173.51 35.7717 172.05 34.8884 170.352C34.0052 168.654 33.5445 166.767 33.5456 164.853Z" fill="white"/>
<path d="M50.7855 141.09C50.5505 141.09 50.3251 140.996 50.1589 140.83C49.9928 140.664 49.8994 140.439 49.8994 140.204V138.136C49.8994 137.901 49.9928 137.676 50.1589 137.51C50.3251 137.344 50.5505 137.25 50.7855 137.25C51.0205 137.25 51.2458 137.344 51.412 137.51C51.5782 137.676 51.6715 137.901 51.6715 138.136V140.204C51.6715 140.439 51.5782 140.664 51.412 140.83C51.2458 140.996 51.0205 141.09 50.7855 141.09Z" fill="#650000"/>
<path opacity="0.2" d="M54.0342 141.68C54.0342 141.68 54.0342 149.063 44.583 152.017V154.231H56.8398C56.8398 154.231 58.3165 141.828 54.0342 141.68ZM59.4627 155.238H56.2788C55.5885 158.199 51.4938 171.848 34.7793 171.535C35.8963 172.897 37.3018 173.994 38.8943 174.746C40.4868 175.499 42.2266 175.888 43.9879 175.887H49.5583C56.1407 175.887 61.4774 170.552 61.4774 163.967V157.252C61.4774 156.988 61.4253 156.726 61.324 156.481C61.2228 156.237 61.0744 156.015 60.8873 155.828C60.7002 155.641 60.4781 155.492 60.2337 155.391C59.9893 155.29 59.7273 155.238 59.4627 155.238Z" fill="#650000"/>
<path d="M109.216 154.093C109.548 152.047 108.159 150.119 106.114 149.787C104.068 149.455 102.14 150.844 101.808 152.89C101.476 154.936 102.865 156.863 104.911 157.196C106.957 157.528 108.884 156.138 109.216 154.093Z" fill="#650000"/>
<path d="M76.0567 160.915C75.9844 160.915 75.9124 160.908 75.8417 160.893L67.0714 159.032C66.8032 158.975 66.5686 158.814 66.4192 158.584C66.2698 158.354 66.2178 158.074 66.2747 157.806C66.3316 157.538 66.4927 157.303 66.7225 157.154C66.9524 157.005 67.2322 156.953 67.5004 157.01L76.2707 158.87C76.52 158.924 76.7407 159.068 76.8904 159.274C77.0402 159.481 77.1083 159.735 77.0817 159.989C77.0552 160.242 76.9359 160.477 76.7467 160.648C76.5575 160.819 76.3117 160.914 76.0567 160.915Z" fill="#650000"/>
<path d="M134.787 160.915C134.532 160.915 134.285 160.821 134.095 160.65C133.905 160.479 133.785 160.243 133.758 159.989C133.732 159.735 133.8 159.479 133.951 159.273C134.102 159.066 134.324 158.923 134.574 158.87L143.344 157.01C143.612 156.953 143.892 157.005 144.122 157.154C144.351 157.303 144.513 157.538 144.569 157.806C144.626 158.074 144.574 158.354 144.425 158.584C144.276 158.814 144.041 158.975 143.773 159.032L135.003 160.893C134.932 160.908 134.86 160.915 134.787 160.915Z" fill="#650000"/>
<path d="M167.428 168.603C165.864 168.603 164.595 169.936 164.595 171.58C164.595 173.223 165.864 174.556 167.428 174.556H185.398V168.603H167.428Z" fill="#F9EBE5"/>
<path d="M186.431 175.59H167.428C165.296 175.59 163.561 173.791 163.561 171.58C163.561 169.369 165.296 167.569 167.428 167.569H186.431V175.59ZM167.428 169.637C166.435 169.637 165.628 170.508 165.628 171.58C165.628 172.651 166.435 173.522 167.428 173.522H184.364V169.637H167.428Z" fill="#650000"/>
<path opacity="0.2" d="M168.84 173.957C168.84 172.313 170.108 170.98 171.674 170.98H185.398V168.603H167.428C165.864 168.603 164.595 169.936 164.595 171.58C164.595 173.223 165.864 174.556 167.428 174.556H168.897C168.859 174.358 168.839 174.158 168.84 173.957Z" fill="#650000"/>
<path d="M145.459 176.816C144.08 176.801 142.761 176.244 141.791 175.263C140.82 174.283 140.276 172.959 140.276 171.579C140.276 170.2 140.82 168.876 141.791 167.896C142.761 166.915 144.08 166.357 145.459 166.343H185.757C185.967 166.339 186.174 166.377 186.368 166.454C186.563 166.531 186.74 166.647 186.889 166.793C187.038 166.94 187.156 167.114 187.237 167.307C187.318 167.5 187.36 167.707 187.36 167.916C187.36 168.125 187.318 168.332 187.237 168.525C187.156 168.717 187.038 168.892 186.889 169.038C186.74 169.185 186.563 169.3 186.368 169.377C186.174 169.455 185.967 169.492 185.757 169.489H167.571C167.017 169.489 166.485 169.709 166.093 170.101C165.701 170.493 165.481 171.024 165.481 171.579C165.481 172.133 165.701 172.664 166.093 173.056C166.485 173.448 167.017 173.669 167.571 173.669H185.757C185.967 173.665 186.174 173.702 186.368 173.78C186.563 173.857 186.74 173.972 186.889 174.119C187.038 174.265 187.156 174.44 187.237 174.632C187.318 174.825 187.36 175.032 187.36 175.241C187.36 175.45 187.318 175.657 187.237 175.85C187.156 176.043 187.038 176.217 186.889 176.364C186.74 176.51 186.563 176.626 186.368 176.703C186.174 176.78 185.967 176.818 185.757 176.814L145.459 176.816Z" fill="#29B6F6"/>
<path d="M185.758 167.229C185.94 167.229 186.115 167.302 186.244 167.43C186.373 167.559 186.445 167.734 186.445 167.917C186.445 168.099 186.373 168.274 186.244 168.403C186.115 168.532 185.94 168.604 185.758 168.604H167.571C166.782 168.604 166.025 168.918 165.467 169.476C164.908 170.034 164.595 170.791 164.595 171.581C164.595 172.37 164.908 173.127 165.467 173.685C166.025 174.244 166.782 174.557 167.571 174.557H185.758C185.94 174.557 186.115 174.63 186.244 174.759C186.373 174.888 186.445 175.062 186.445 175.245C186.445 175.427 186.373 175.602 186.244 175.731C186.115 175.86 185.94 175.932 185.758 175.932H145.459C144.314 175.919 143.22 175.455 142.415 174.641C141.609 173.827 141.158 172.727 141.158 171.582C141.158 170.437 141.609 169.338 142.415 168.523C143.22 167.709 144.314 167.245 145.459 167.232H185.758M185.758 165.46H145.459C143.845 165.475 142.303 166.127 141.167 167.273C140.032 168.42 139.395 169.968 139.395 171.582C139.395 173.196 140.032 174.744 141.167 175.891C142.303 177.037 143.845 177.689 145.459 177.704H185.758C186.084 177.709 186.407 177.649 186.71 177.528C187.012 177.407 187.288 177.226 187.52 176.997C187.752 176.769 187.937 176.496 188.063 176.195C188.189 175.894 188.253 175.572 188.253 175.246C188.253 174.92 188.189 174.597 188.063 174.296C187.937 173.995 187.752 173.723 187.52 173.494C187.288 173.265 187.012 173.085 186.71 172.963C186.407 172.842 186.084 172.782 185.758 172.787H167.571C167.411 172.79 167.251 172.762 167.102 172.703C166.953 172.644 166.817 172.555 166.703 172.443C166.588 172.331 166.497 172.197 166.435 172.049C166.373 171.901 166.341 171.742 166.341 171.582C166.341 171.422 166.373 171.263 166.435 171.115C166.497 170.967 166.588 170.833 166.703 170.721C166.817 170.609 166.953 170.521 167.102 170.461C167.251 170.402 167.411 170.374 167.571 170.377H185.758C186.084 170.382 186.407 170.322 186.71 170.201C187.012 170.079 187.288 169.899 187.52 169.67C187.752 169.441 187.937 169.169 188.063 168.868C188.189 168.567 188.253 168.245 188.253 167.919C188.253 167.592 188.189 167.27 188.063 166.969C187.937 166.668 187.752 166.396 187.52 166.167C187.288 165.938 187.012 165.758 186.71 165.636C186.407 165.515 186.084 165.455 185.758 165.46Z" fill="#650000"/>
<path opacity="0.4" d="M167.571 168.603H166.353C165.564 168.603 164.807 168.917 164.248 169.475C163.69 170.033 163.376 170.79 163.376 171.58C163.377 172.369 163.69 173.126 164.248 173.684C164.807 174.242 165.564 174.556 166.353 174.556H167.571C166.782 174.556 166.025 174.242 165.467 173.684C164.909 173.126 164.595 172.369 164.595 171.58C164.595 170.79 164.908 170.033 165.467 169.475C166.025 168.917 166.782 168.603 167.571 168.603Z" fill="#FBFCFC"/>
<path d="M147.33 171.58C147.33 169.177 148.801 167.229 150.615 167.229H147.281C145.466 167.229 143.996 169.177 143.996 171.58C143.996 173.982 145.467 175.93 147.281 175.93H150.615C148.801 175.93 147.33 173.982 147.33 171.58ZM160.406 171.58C160.406 169.177 161.953 167.229 163.861 167.229H160.355C158.447 167.229 156.901 169.177 156.901 171.58C156.901 173.982 158.447 175.93 160.355 175.93H163.861C161.953 175.93 160.406 173.982 160.406 171.58Z" fill="#2196F3"/>
<path d="M160.406 171.58C160.406 169.177 161.952 167.229 163.86 167.229H160.355C158.447 167.229 156.901 169.177 156.901 171.58C156.901 173.982 158.447 175.93 160.355 175.93H163.86C161.952 175.93 160.406 173.982 160.406 171.58Z" fill="#2196F3"/>
<path d="M153.702 172.86C154.498 172.064 154.498 170.774 153.702 169.978C152.906 169.182 151.616 169.182 150.82 169.978C150.025 170.774 150.025 172.064 150.82 172.86C151.616 173.656 152.906 173.656 153.702 172.86Z" fill="#2196F3"/>
<g opacity="0.4">
<path d="M185.758 174.556H167.571C166.923 174.556 166.292 174.344 165.776 173.951C166.053 174.318 166.411 174.615 166.822 174.82C167.233 175.025 167.687 175.132 168.146 175.132H186.333C186.367 175.133 186.401 175.137 186.434 175.143C186.411 174.98 186.329 174.831 186.205 174.723C186.081 174.615 185.922 174.556 185.758 174.556ZM141.684 172.155C141.684 171.001 142.142 169.894 142.958 169.078C143.774 168.263 144.881 167.804 146.034 167.804H186.333C186.367 167.805 186.401 167.808 186.434 167.814C186.41 167.652 186.329 167.503 186.205 167.396C186.081 167.289 185.922 167.229 185.758 167.229H145.459C144.888 167.229 144.322 167.342 143.794 167.56C143.266 167.779 142.787 168.1 142.383 168.504C141.979 168.908 141.659 169.387 141.44 169.915C141.222 170.443 141.109 171.008 141.109 171.58C141.108 172.22 141.249 172.852 141.522 173.431C141.794 174.01 142.191 174.522 142.684 174.93C142.036 174.15 141.682 173.168 141.684 172.155Z" fill="#FBFCFC"/>
</g>
<path opacity="0.2" d="M167.061 166.98C167.061 166.98 156.431 175.678 140.646 174.067L144.189 176.967L186.712 176.645L187.356 174.39L166.578 173.584L166.256 170.362L167.544 169.396L187.195 169.074L186.873 166.175L167.061 166.98Z" fill="#650000"/>
<path d="M179.995 171.655L185.368 170.94C185.466 170.925 185.566 170.93 185.662 170.954C185.758 170.979 185.848 171.022 185.927 171.081C186.006 171.141 186.072 171.215 186.122 171.301C186.172 171.386 186.204 171.481 186.217 171.579C186.23 171.677 186.224 171.776 186.198 171.872C186.172 171.967 186.127 172.057 186.067 172.135C186.006 172.213 185.93 172.278 185.844 172.326C185.758 172.375 185.663 172.406 185.564 172.417C185.497 172.426 185.429 172.426 185.362 172.417L179.995 171.655ZM165.457 173.03L165.488 173.014C165.508 173.005 165.537 172.988 165.576 172.97C165.654 172.933 165.768 172.881 165.914 172.824C166.059 172.766 166.235 172.7 166.437 172.633C166.639 172.566 166.868 172.498 167.117 172.433C167.676 172.29 168.244 172.184 168.818 172.114C169.465 172.036 170.116 171.997 170.768 171.996C171.42 171.995 172.071 172.034 172.718 172.112C173.291 172.181 173.859 172.287 174.419 172.43C174.828 172.535 175.23 172.666 175.622 172.823C175.767 172.88 175.881 172.933 175.959 172.97C175.998 172.988 176.028 173.004 176.048 173.014L176.079 173.03L176.048 173.046C176.028 173.056 175.998 173.072 175.959 173.09C175.881 173.127 175.767 173.179 175.622 173.238C175.23 173.394 174.828 173.525 174.419 173.629C173.859 173.773 173.291 173.88 172.718 173.948C172.071 174.027 171.419 174.065 170.768 174.063C170.116 174.063 169.465 174.024 168.818 173.946C168.244 173.876 167.676 173.77 167.117 173.627C166.868 173.562 166.64 173.495 166.437 173.428C166.235 173.36 166.059 173.296 165.914 173.237C165.768 173.178 165.654 173.127 165.576 173.09C165.537 173.072 165.508 173.056 165.488 173.046L165.457 173.03Z" fill="#650000"/>
<path d="M184.8 180.963H179.79C178.95 180.962 178.123 180.761 177.377 180.376C176.631 179.991 175.987 179.434 175.5 178.751C174.721 177.656 174.871 176.15 175.782 175.162C177.386 173.416 178.362 171.185 178.557 168.822C178.615 168.133 178.93 167.491 179.44 167.024C179.949 166.557 180.616 166.298 181.307 166.299H185.26C185.26 158.425 181.967 154.209 178.671 151.962C175.223 149.611 170.906 149.016 166.862 150.043C160.433 151.677 158.497 156.033 158.497 156.033C158.244 154.265 156.423 151.275 155.316 149.59C155.244 149.48 155.142 149.394 155.021 149.342C154.901 149.29 154.768 149.274 154.639 149.296C154.51 149.318 154.39 149.377 154.294 149.466C154.198 149.556 154.13 149.671 154.098 149.798L153.593 151.819C153.527 152.08 153.376 152.312 153.164 152.478C152.952 152.643 152.69 152.734 152.421 152.734H151.811C151.612 152.734 151.416 152.685 151.241 152.591C151.066 152.497 150.916 152.361 150.806 152.196L149.06 149.578C148.988 149.47 148.887 149.385 148.768 149.333C148.648 149.281 148.517 149.265 148.389 149.286C148.261 149.308 148.141 149.365 148.045 149.453C147.949 149.54 147.88 149.653 147.847 149.779L146.769 153.835C142.002 160.801 145.302 166.3 145.302 166.3H169.84C171.606 166.3 172.936 167.94 172.535 169.66C172.37 170.371 172.116 171.035 171.727 171.451C170.409 172.874 169.626 174.711 169.514 176.648C169.402 178.585 169.966 180.5 171.111 182.066C172.112 183.427 173.419 184.535 174.927 185.299C176.434 186.063 178.1 186.463 179.79 186.466H184.895C185.271 186.466 185.644 186.389 185.989 186.239C186.334 186.089 186.645 185.87 186.902 185.595C187.16 185.32 187.358 184.995 187.484 184.641C187.611 184.286 187.664 183.91 187.639 183.534C187.546 182.069 186.267 180.963 184.8 180.963Z" fill="#8C8C8C"/>
<path d="M184.896 187.348H179.792C177.963 187.345 176.16 186.913 174.528 186.086C172.897 185.259 171.482 184.06 170.398 182.587C169.132 180.855 168.508 178.736 168.632 176.595C168.756 174.453 169.622 172.421 171.08 170.847C171.215 170.701 171.472 170.327 171.674 169.458C171.736 169.189 171.737 168.908 171.676 168.638C171.614 168.368 171.492 168.115 171.319 167.899C171.143 167.676 170.918 167.495 170.662 167.372C170.406 167.248 170.125 167.184 169.841 167.184H145.302C145.149 167.184 144.999 167.144 144.866 167.069C144.732 166.994 144.621 166.885 144.542 166.754C144.504 166.691 143.613 165.182 143.367 162.768C143.147 160.596 143.418 157.228 145.952 153.46L146.997 149.549C147.075 149.26 147.234 148.999 147.457 148.798C147.679 148.596 147.954 148.463 148.25 148.414C148.546 148.366 148.849 148.403 149.125 148.522C149.4 148.641 149.635 148.837 149.802 149.086L151.547 151.704C151.576 151.748 151.616 151.784 151.663 151.809C151.71 151.834 151.762 151.847 151.815 151.847H152.425C152.497 151.847 152.567 151.823 152.623 151.779C152.68 151.735 152.72 151.673 152.737 151.603L153.243 149.582C153.316 149.288 153.473 149.022 153.696 148.815C153.918 148.609 154.196 148.472 154.495 148.421C154.794 148.37 155.101 148.408 155.379 148.529C155.658 148.65 155.894 148.849 156.061 149.103C157.011 150.549 158.113 152.376 158.787 153.977C160.022 152.437 162.428 150.256 166.648 149.184C167.973 148.846 169.336 148.674 170.703 148.673C173.792 148.673 176.72 149.557 179.173 151.229C181.193 152.6 182.846 154.445 183.987 156.603C185.417 159.286 186.143 162.531 186.149 166.25C186.149 166.266 186.149 166.282 186.149 166.298C186.149 166.533 186.056 166.758 185.89 166.925C185.723 167.091 185.498 167.184 185.263 167.184H181.309C180.841 167.186 180.39 167.362 180.045 167.679C179.7 167.995 179.485 168.429 179.443 168.895C179.23 171.453 178.173 173.869 176.44 175.762C175.795 176.462 175.706 177.503 176.228 178.237C176.633 178.806 177.168 179.27 177.788 179.59C178.408 179.91 179.096 180.077 179.794 180.077H184.8C186.764 180.077 188.399 181.569 188.522 183.473C188.557 183.97 188.488 184.469 188.32 184.938C188.152 185.408 187.889 185.837 187.547 186.199C187.206 186.561 186.796 186.85 186.34 187.047C185.884 187.245 185.393 187.347 184.896 187.348ZM145.85 165.413H169.84C170.391 165.411 170.936 165.535 171.432 165.775C171.929 166.015 172.364 166.365 172.706 166.797C173.046 167.222 173.285 167.718 173.405 168.249C173.525 168.779 173.523 169.33 173.399 169.859C173.171 170.84 172.837 171.558 172.378 172.053C171.2 173.325 170.5 174.967 170.4 176.697C170.3 178.428 170.804 180.14 171.828 181.54C172.747 182.789 173.946 183.805 175.329 184.506C176.712 185.207 178.241 185.574 179.792 185.577H184.896C185.152 185.577 185.404 185.524 185.638 185.422C185.873 185.321 186.083 185.172 186.258 184.986C186.432 184.799 186.566 184.579 186.652 184.338C186.738 184.098 186.773 183.842 186.756 183.587C186.693 182.613 185.835 181.849 184.802 181.849H179.792C178.811 181.849 177.845 181.614 176.973 181.164C176.102 180.714 175.351 180.063 174.782 179.264C173.777 177.851 173.926 175.874 175.134 174.562C176.602 172.96 177.497 170.915 177.679 168.749C177.755 167.839 178.171 166.991 178.843 166.373C179.516 165.756 180.396 165.413 181.309 165.413H184.36C184.169 159.641 182.09 155.365 178.172 152.694C176.015 151.224 173.431 150.446 170.701 150.446C169.48 150.448 168.264 150.601 167.081 150.902C161.138 152.413 159.326 156.354 159.307 156.394C159.229 156.569 159.096 156.715 158.928 156.808C158.76 156.902 158.566 156.938 158.376 156.912C158.185 156.885 158.009 156.797 157.872 156.662C157.736 156.526 157.648 156.35 157.621 156.159C157.462 155.044 156.454 152.99 154.841 150.483L154.454 152.034C154.341 152.488 154.08 152.89 153.712 153.178C153.343 153.465 152.889 153.621 152.422 153.621H151.812C151.467 153.621 151.127 153.535 150.823 153.372C150.519 153.209 150.26 152.973 150.07 152.686L148.585 150.456L147.623 154.061C147.597 154.158 147.555 154.249 147.498 154.332C143.844 159.678 145.255 164.062 145.85 165.413Z" fill="#650000"/>
<path opacity="0.5" d="M158.213 157.045C158.241 157.235 158.329 157.412 158.465 157.547C158.602 157.683 158.778 157.771 158.969 157.797C159.159 157.823 159.353 157.787 159.521 157.694C159.689 157.6 159.822 157.455 159.9 157.279C159.918 157.24 161.731 153.298 167.674 151.788C171.592 150.792 175.635 151.445 178.765 153.58C180.023 154.432 181.124 155.496 182.019 156.723C181.04 155.121 179.729 153.747 178.175 152.694C175.045 150.559 171.001 149.906 167.083 150.902C161.14 152.412 159.328 156.354 159.31 156.393C159.232 156.569 159.099 156.715 158.931 156.808C158.762 156.902 158.568 156.938 158.378 156.911C158.31 156.9 158.243 156.882 158.179 156.856C158.193 156.922 158.205 156.985 158.213 157.045ZM179.792 181.849C178.89 181.848 178 181.649 177.185 181.266C176.369 180.884 175.647 180.326 175.07 179.634C175.156 179.814 175.257 179.987 175.372 180.15C175.941 180.949 176.693 181.6 177.564 182.05C178.435 182.499 179.402 182.734 180.382 182.735H185.393C185.865 182.734 186.322 182.898 186.685 183.199C186.453 182.417 185.695 181.849 184.802 181.849L179.792 181.849ZM152.405 154.506H153.015C153.482 154.507 153.936 154.351 154.305 154.063C154.673 153.776 154.934 153.373 155.047 152.919L155.424 151.408C155.241 151.107 155.048 150.799 154.844 150.483L154.456 152.034C154.343 152.487 154.082 152.89 153.714 153.177C153.345 153.465 152.891 153.621 152.424 153.62H151.814C151.469 153.62 151.129 153.535 150.825 153.372C150.521 153.208 150.263 152.973 150.072 152.685L150.663 153.571C150.853 153.859 151.112 154.095 151.416 154.258C151.72 154.421 152.06 154.506 152.405 154.506ZM148.586 150.458L147.624 154.062C147.598 154.159 147.556 154.251 147.499 154.334C147.134 154.867 146.801 155.423 146.502 155.997C145.6 157.732 145.207 159.325 145.098 160.703C144.919 162.974 145.507 164.658 145.846 165.413H146.103C145.769 164.351 145.467 162.704 145.8 160.674C146.345 160.431 146.903 159.735 147.22 158.815C147.525 157.93 147.528 157.069 147.278 156.536C147.516 156.105 147.785 155.666 148.09 155.22C148.147 155.137 148.189 155.045 148.215 154.948L149.176 151.344L148.586 150.458ZM172.969 172.939C173.428 172.444 173.763 171.729 173.99 170.745C174.114 170.216 174.116 169.665 173.996 169.135C173.876 168.604 173.637 168.108 173.297 167.684C173.252 167.629 173.202 167.576 173.154 167.523C173.497 168.252 173.583 169.075 173.4 169.859C173.172 170.841 172.837 171.558 172.379 172.053C171.201 173.325 170.502 174.967 170.401 176.697C170.301 178.428 170.806 180.14 171.829 181.54C171.872 181.599 171.918 181.654 171.963 181.712C171.176 180.332 170.85 178.738 171.031 177.161C171.212 175.583 171.891 174.104 172.969 172.939Z" fill="white"/>
<path opacity="0.2" d="M180.591 154.741C180.591 154.741 169.638 164.728 145.156 164.405L146.021 166.54L171.571 166.338C171.571 166.338 178.336 167.627 176.887 172.942L179.786 166.499L185.584 166.177C185.584 166.177 183.491 156.352 180.591 154.741Z" fill="#650000"/>
<mask id="mask0_716_3780" style="mask-type:luminance" maskUnits="userSpaceOnUse" x="145" y="150" width="42" height="36">
<path d="M179.792 185.577H184.896C185.152 185.577 185.404 185.524 185.639 185.422C185.873 185.321 186.084 185.172 186.258 184.985C186.432 184.799 186.566 184.579 186.652 184.338C186.738 184.098 186.773 183.842 186.756 183.587C186.693 182.613 185.835 181.849 184.802 181.849H179.792C178.811 181.849 177.845 181.614 176.974 181.164C176.102 180.714 175.351 180.063 174.782 179.264C173.778 177.851 173.926 175.874 175.135 174.562C176.603 172.959 177.497 170.915 177.679 168.749C177.834 166.879 179.43 165.413 181.309 165.413H184.36C184.169 159.642 182.09 155.365 178.173 152.694C175.043 150.56 170.999 149.907 167.081 150.902C161.138 152.413 159.326 156.354 159.308 156.394C159.23 156.569 159.096 156.715 158.928 156.808C158.76 156.902 158.566 156.938 158.376 156.911C158.186 156.885 158.009 156.797 157.873 156.662C157.736 156.526 157.648 156.35 157.621 156.159C157.462 155.045 156.454 152.991 154.842 150.483L154.454 152.034C154.341 152.488 154.08 152.89 153.712 153.178C153.343 153.465 152.889 153.621 152.422 153.62H151.812C151.467 153.621 151.127 153.535 150.823 153.372C150.519 153.209 150.261 152.973 150.07 152.685L148.585 150.456L147.623 154.06C147.598 154.157 147.555 154.249 147.499 154.332C143.82 159.709 145.237 164.056 145.845 165.411H169.84C170.392 165.41 170.936 165.534 171.432 165.774C171.929 166.013 172.364 166.363 172.706 166.796C173.046 167.22 173.285 167.717 173.405 168.247C173.525 168.777 173.523 169.328 173.399 169.858C173.171 170.839 172.837 171.556 172.378 172.051C171.2 173.323 170.501 174.965 170.401 176.696C170.301 178.427 170.805 180.138 171.828 181.538C172.747 182.787 173.946 183.804 175.329 184.505C176.712 185.207 178.241 185.574 179.792 185.577Z" fill="white"/>
</mask>
<g mask="url(#mask0_716_3780)">
<path d="M167.607 148.437C167.607 148.437 165.322 151.818 164.947 154.309C164.939 154.363 164.913 154.413 164.874 154.452C164.835 154.49 164.784 154.515 164.729 154.521C164.675 154.528 164.619 154.516 164.572 154.488C164.525 154.461 164.488 154.418 164.467 154.367C164.011 153.227 163.477 151.281 164.302 149.708L167.607 148.437ZM172.937 148.051C172.937 148.051 171.299 151.688 170.913 154.271C170.905 154.321 170.88 154.367 170.842 154.401C170.804 154.435 170.755 154.455 170.704 154.457C170.654 154.459 170.604 154.443 170.563 154.413C170.522 154.382 170.493 154.338 170.481 154.289C170.028 152.333 169.453 149.076 170.266 147.771L172.937 148.051ZM180.325 152.106C179.641 152.577 177.343 154.219 176.09 155.89C176.046 155.949 175.983 155.99 175.912 156.009C175.841 156.028 175.765 156.022 175.698 155.993C175.631 155.964 175.575 155.913 175.539 155.849C175.504 155.785 175.491 155.71 175.502 155.638C175.777 154.035 176.346 151.843 177.519 150.424C177.54 150.398 177.571 150.379 177.604 150.372C177.637 150.365 177.672 150.37 177.703 150.385C178.143 150.605 179.742 151.522 180.317 151.853C180.339 151.866 180.357 151.884 180.37 151.905C180.383 151.927 180.391 151.952 180.391 151.977C180.392 152.003 180.387 152.028 180.375 152.05C180.363 152.073 180.346 152.092 180.325 152.106ZM186.077 157.543C186.077 157.543 182.81 158.321 180.727 159.617C180.397 159.823 180.009 159.444 180.205 159.107C181.03 157.687 182.307 155.886 183.876 155.005C183.975 155.045 186.077 157.543 186.077 157.543ZM173.544 169.651L174.263 171.032C174.303 171.11 174.323 171.197 174.321 171.284C174.318 171.372 174.293 171.458 174.248 171.533C174.203 171.608 174.14 171.671 174.064 171.715C173.988 171.759 173.902 171.783 173.814 171.784L172.075 171.813C171.979 171.815 171.885 171.79 171.803 171.741C171.721 171.692 171.654 171.621 171.61 171.536C171.566 171.451 171.546 171.356 171.553 171.261C171.56 171.165 171.593 171.074 171.65 170.997L172.67 169.587C172.722 169.516 172.791 169.46 172.87 169.423C172.95 169.386 173.037 169.37 173.125 169.376C173.212 169.383 173.297 169.411 173.37 169.459C173.443 169.508 173.503 169.574 173.544 169.651Z" fill="#606060"/>
<path d="M173.544 169.651L174.263 171.032C174.303 171.11 174.323 171.197 174.321 171.284C174.318 171.372 174.293 171.458 174.248 171.533C174.203 171.608 174.14 171.671 174.064 171.715C173.988 171.759 173.902 171.783 173.814 171.784L172.075 171.813C171.979 171.814 171.885 171.789 171.803 171.741C171.721 171.692 171.654 171.621 171.61 171.536C171.566 171.451 171.546 171.356 171.553 171.261C171.56 171.165 171.593 171.074 171.65 170.997L172.67 169.587C172.722 169.516 172.791 169.459 172.87 169.423C172.95 169.386 173.037 169.37 173.125 169.376C173.212 169.383 173.297 169.411 173.37 169.459C173.443 169.508 173.503 169.574 173.544 169.651ZM170.606 174.354L171.658 175.501C171.717 175.566 171.759 175.644 171.779 175.73C171.799 175.815 171.797 175.904 171.774 175.989C171.75 176.073 171.705 176.15 171.643 176.212C171.581 176.274 171.504 176.319 171.42 176.344L169.747 176.822C169.655 176.849 169.558 176.849 169.466 176.823C169.374 176.797 169.291 176.746 169.226 176.675C169.162 176.605 169.118 176.518 169.1 176.424C169.082 176.33 169.091 176.233 169.125 176.144L169.746 174.518C169.777 174.436 169.829 174.364 169.896 174.307C169.963 174.251 170.044 174.213 170.13 174.196C170.216 174.18 170.305 174.186 170.388 174.213C170.472 174.241 170.546 174.289 170.606 174.354ZM170.733 179.96L172.288 180.012C172.376 180.014 172.461 180.04 172.536 180.085C172.612 180.13 172.674 180.194 172.718 180.27C172.761 180.346 172.785 180.432 172.786 180.519C172.787 180.607 172.765 180.694 172.724 180.771L171.894 182.301C171.849 182.385 171.781 182.454 171.698 182.502C171.615 182.55 171.521 182.573 171.425 182.57C171.33 182.567 171.237 182.537 171.157 182.484C171.078 182.431 171.015 182.357 170.975 182.27L170.248 180.689C170.212 180.61 170.196 180.522 170.203 180.434C170.21 180.347 170.239 180.263 170.287 180.19C170.336 180.117 170.402 180.057 170.48 180.017C170.558 179.977 170.645 179.957 170.733 179.96ZM175.182 185.013L176.348 183.982C176.414 183.923 176.493 183.883 176.579 183.864C176.665 183.846 176.754 183.849 176.838 183.874C176.922 183.9 176.998 183.946 177.059 184.009C177.119 184.072 177.163 184.15 177.186 184.235L177.635 185.916C177.66 186.008 177.658 186.105 177.63 186.197C177.603 186.288 177.55 186.37 177.479 186.434C177.407 186.497 177.32 186.539 177.226 186.555C177.131 186.572 177.035 186.561 176.946 186.526L175.331 185.876C175.25 185.843 175.178 185.79 175.123 185.722C175.068 185.654 175.032 185.572 175.017 185.486C175.002 185.4 175.009 185.311 175.038 185.228C175.067 185.145 175.117 185.072 175.182 185.013ZM181.885 185.89L182.58 184.497C182.619 184.419 182.678 184.352 182.75 184.302C182.823 184.253 182.907 184.223 182.994 184.215C183.081 184.207 183.169 184.221 183.25 184.257C183.33 184.292 183.399 184.348 183.452 184.418L184.497 185.81C184.555 185.886 184.59 185.977 184.599 186.073C184.608 186.168 184.59 186.264 184.548 186.35C184.505 186.436 184.439 186.508 184.357 186.558C184.276 186.608 184.182 186.635 184.086 186.635H182.345C182.258 186.635 182.171 186.612 182.095 186.57C182.018 186.527 181.953 186.466 181.907 186.391C181.861 186.316 181.835 186.231 181.831 186.143C181.827 186.056 181.846 185.968 181.885 185.89Z" fill="#606060"/>
</g>
<path opacity="0.2" d="M61.8601 88.3723C61.8601 88.3723 61.5648 93.9823 57.4304 92.8026L58.0211 99.0044L60.3174 102.986L62.7462 103.435L62.4508 88.3723H61.8601ZM148.984 88.5197C148.984 88.5197 149.279 94.1297 153.414 92.95L152.824 99.1518L150.527 103.134L148.098 103.582L148.393 88.5197H148.984Z" fill="#650000"/>
<path opacity="0.2" d="M73.1627 78.7737C73.2424 78.1764 71.1634 97.6756 62.3035 92.6546V104.911L63.9936 107.266L74.723 107.462L76.0364 102.549C76.0364 102.549 71.7657 89.2501 73.1627 78.7737Z" fill="#650000"/>
<path opacity="0.2" d="M93.3136 64.598C93.3136 64.598 89.7694 74.6393 73.2309 78.183L72.3448 84.3853C72.0407 84.3523 83.9416 76.0924 90.9508 78.4783L93.3136 64.598ZM118.424 45.1296V45.1368C118.425 45.1329 118.424 45.1324 118.424 45.1296ZM135.842 83.997V73.5558C135.842 73.0608 135.831 72.5735 135.814 72.0934C135.809 71.9366 135.799 71.7843 135.792 71.6297C135.776 71.308 135.759 70.9879 135.737 70.6738C135.724 70.4973 135.709 70.324 135.693 70.1497C135.668 69.8609 135.638 69.5749 135.609 69.2922C135.59 69.1179 135.57 68.9441 135.548 68.7719C135.512 68.4903 135.473 68.2126 135.431 67.9376C135.407 67.7775 135.383 67.6164 135.357 67.4585C135.307 67.156 135.251 66.8585 135.192 66.5637C135.167 66.4421 135.147 66.3184 135.121 66.1979C135.036 65.7873 134.944 65.3839 134.846 64.9879C134.83 64.9214 134.811 64.857 134.791 64.7905C134.707 64.4605 134.618 64.1376 134.523 63.8192C134.484 63.6872 134.442 63.5579 134.401 63.4276C134.324 63.1784 134.245 62.9326 134.162 62.6884C134.113 62.5476 134.063 62.4084 134.013 62.2698C133.93 62.041 133.845 61.8148 133.758 61.5911C133.703 61.4553 133.651 61.3194 133.596 61.1858C133.503 60.9581 133.406 60.7342 133.307 60.5126C133.252 60.3932 133.202 60.2728 133.148 60.1551C133.028 59.8949 132.903 59.6403 132.777 59.3851C132.74 59.313 132.706 59.2382 132.667 59.1651C132.5 58.8417 132.328 58.5249 132.151 58.2147C132.112 58.1465 132.072 58.0816 132.032 58.0145C131.892 57.7741 131.75 57.5371 131.605 57.305C131.542 57.2054 131.477 57.1081 131.413 57.0096C131.286 56.8133 131.157 56.6186 131.025 56.4283C130.955 56.326 130.884 56.2248 130.811 56.1236C130.68 55.9403 130.546 55.7582 130.411 55.5774C130.34 55.4828 130.269 55.3882 130.196 55.2953C130.049 55.105 129.899 54.918 129.746 54.7343C129.685 54.6595 129.624 54.5836 129.562 54.5099C129.353 54.2624 129.14 54.0202 128.924 53.7833L128.907 53.7635C128.677 53.5127 128.444 53.2678 128.207 53.0287C128.164 52.9858 128.12 52.9446 128.077 52.9017C127.887 52.7125 127.695 52.5268 127.501 52.3445C127.434 52.2824 127.367 52.2213 127.3 52.1603C127.124 51.9997 126.947 51.8418 126.77 51.6867C126.698 51.6246 126.627 51.5635 126.554 51.5025C126.371 51.3474 126.188 51.1954 126.004 51.0465C125.94 50.9943 125.876 50.942 125.811 50.8909C125.597 50.7219 125.382 50.5569 125.164 50.3959C125.129 50.37 125.094 50.3409 125.059 50.3167C124.532 49.9291 123.998 49.5625 123.455 49.2167L123.391 49.1771C123.147 49.022 122.902 48.8713 122.655 48.725L122.519 48.6447C122.291 48.5112 122.062 48.3807 121.833 48.2531L121.695 48.1766C121.453 48.0439 121.21 47.9156 120.967 47.7916L120.887 47.7498C120.161 47.3786 119.433 47.042 118.707 46.7318C119.193 51.2418 118.302 63.7719 94.1996 66.6638L94.6072 70.6892L95.2947 74.7433L95.9167 78.414L101.565 78.579L104.31 78.6582L105.132 76.379L106.589 72.3365L109.206 78.7715L115.767 79.1719L116.145 79.195C116.145 79.195 116.315 78.8622 116.563 78.3045C116.593 78.2352 116.625 78.1621 116.659 78.0845C116.726 77.9316 116.796 77.7666 116.869 77.5895C116.979 77.3228 117.094 77.0296 117.212 76.7161C117.329 76.4026 117.446 76.0693 117.56 75.7206C118.131 73.9771 118.605 71.8646 118.375 70.0859C118.375 70.0859 120.85 74.6663 121.404 79.9633C121.404 79.9633 126.294 80.3857 131.979 82.4042C133.294 82.8684 134.584 83.4008 135.844 83.9992L135.842 83.997ZM147.95 80.2504C147.95 80.2504 145.585 98.2662 136.727 93.8354L134.831 102.171L135.02 106.033L137.318 107.421L146.137 107.73L148.304 105.657L147.95 80.2504ZM96.712 123.412C96.712 123.412 100.031 125.738 105.395 125.333C107.006 125.211 108.09 126.96 107.219 128.319C105.899 130.374 103.067 132.594 97.0052 132.673C97.0052 132.673 104.161 141.659 112.397 134.507L114.109 131.427L113.84 121.747C113.84 121.747 99.192 123.947 96.9172 121.222L96.712 123.412ZM77.66 172.395C77.66 172.395 75.4655 175.97 68.4409 175.07L70.1294 176.382L79.5801 176.678L78.1033 174.905L77.66 172.395ZM130.893 173.159L134.759 141.489C134.866 140.623 134.589 139.769 133.982 139.083C133.294 138.307 132.277 137.852 131.174 137.815C131.174 137.813 131.174 137.81 131.174 137.808C129.593 143.067 120.779 172.395 79.0075 173.51C79.3771 175.024 80.8863 176.127 82.6705 176.127H127.162C129.085 176.127 130.687 174.852 130.893 173.159ZM139.681 172.1C139.681 172.1 138.795 175.348 131.412 175.348L130.697 176.701L141.156 177.12L142.042 175.644L139.681 172.1Z" fill="#650000"/>
<path d="M169.32 29.7039C159.904 29.7039 152.27 37.3362 152.27 46.7539C152.267 49.2673 152.822 51.7499 153.895 54.0227C153.476 57.7929 151.007 66.3273 151.007 66.3273L162.346 62.3123C164.539 63.2961 166.916 63.8032 169.32 63.8C178.735 63.8 186.37 56.1677 186.37 46.75C186.37 37.3324 178.735 29.7039 169.32 29.7039Z" fill="white"/>
<path d="M151.009 67.2101C150.872 67.2104 150.736 67.1786 150.613 67.1173C150.49 67.056 150.383 66.967 150.3 66.8571C150.218 66.7473 150.162 66.6197 150.137 66.4845C150.112 66.3493 150.119 66.2102 150.158 66.0782C150.181 65.9952 152.507 57.9316 152.988 54.1641C151.258 50.3553 150.913 46.0617 152.013 42.0255C153.113 37.9894 155.589 34.4646 159.013 32.0606C162.436 29.6566 166.592 28.5247 170.762 28.8604C174.932 29.1961 178.854 30.9785 181.849 33.8992C184.844 36.82 186.724 40.6955 187.164 44.8557C187.604 49.0158 186.577 53.199 184.259 56.6819C181.942 60.1648 178.48 62.7283 174.473 63.9293C170.466 65.1303 166.165 64.8931 162.314 63.2589L151.305 67.1606C151.21 67.1938 151.11 67.2106 151.009 67.2101ZM169.32 30.5889C160.41 30.5889 153.157 37.839 153.157 46.7507C153.152 49.1334 153.678 51.4874 154.697 53.6411C154.768 53.7893 154.795 53.9543 154.777 54.1174C154.463 56.9361 153.067 62.2266 152.324 64.9183L162.051 61.472C162.266 61.3956 162.503 61.4053 162.711 61.4989C164.788 62.4343 167.041 62.9162 169.32 62.9124C178.23 62.9124 185.481 55.6623 185.481 46.7507C185.481 37.839 178.231 30.59 169.32 30.59V30.5889Z" fill="#650000"/>
<path d="M161.829 62.8937L159.469 59.5771L163.015 61.5764C163.219 61.6972 163.369 61.8934 163.43 62.1231C163.492 62.3527 163.461 62.5973 163.344 62.8044C163.228 63.0115 163.034 63.1646 162.806 63.2308C162.578 63.2969 162.332 63.2709 162.123 63.1582C162.007 63.0922 161.907 63.0019 161.829 62.8937Z" fill="#650000"/>
<path opacity="0.2" d="M181.028 34.7688C181.028 34.7688 190.774 59.5771 161.241 61.3492C161.241 61.3492 172.759 69.3242 183.218 56.4366C183.218 56.4366 190.479 42.7432 181.028 34.7688Z" fill="#650000"/>
<path opacity="0.2" d="M159.961 60.1694L151.27 65.736L162.006 62.1005L159.961 60.1694Z" fill="#650000"/>
<path d="M176.495 40.4552C174.61 38.5703 171.554 38.908 169.669 40.7929L169.378 41.0849L169.084 40.7918C167.199 38.9069 164.143 38.5692 162.258 40.4541C161.353 41.3593 160.844 42.587 160.844 43.8671C160.844 45.1472 161.353 46.3749 162.258 47.2801L162.551 47.5738L168.478 53.5001C168.717 53.7385 169.041 53.8725 169.378 53.8725C169.715 53.8725 170.039 53.7385 170.278 53.5001L176.204 47.5749L176.497 47.2812C176.945 46.8329 177.301 46.3008 177.543 45.7151C177.786 45.1294 177.91 44.5016 177.91 43.8677C177.91 43.2338 177.785 42.6062 177.542 42.0207C177.299 41.4351 176.943 40.9032 176.495 40.4552Z" fill="#ED1B24"/>
<path opacity="0.7" d="M165.309 43.1886C165.999 42.2272 166.117 41.132 165.574 40.7423C165.031 40.3526 164.031 40.8161 163.342 41.7775C162.652 42.7389 162.533 43.8342 163.077 44.2239C163.62 44.6135 164.619 44.15 165.309 43.1886Z" fill="white"/>
<path opacity="0.7" d="M165.185 47.0059C165.622 47.0059 165.975 46.6523 165.975 46.2161C165.975 45.7799 165.622 45.4263 165.185 45.4263C164.749 45.4263 164.396 45.7799 164.396 46.2161C164.396 46.6523 164.749 47.0059 165.185 47.0059Z" fill="white"/>
</g>
<defs>
<clipPath id="clip0_716_3780">
<rect width="220" height="220" fill="white"/>
</clipPath>
</defs>
</svg>
