<svg width="17" height="18" viewBox="0 0 17 18" fill="none" xmlns="http://www.w3.org/2000/svg">
<path d="M8.57309 3.35932L8.58271 3.34295C9.01884 2.5245 9.4742 1.88938 10.029 1.43759C10.6992 0.890867 11.4945 0.619141 12.5495 0.619141C13.7168 0.619141 14.775 1.10366 15.5415 1.8861C16.3111 2.66855 16.7825 3.7489 16.7825 4.94057C16.7825 7.03581 15.7692 9.11468 14.2459 11.187C12.7387 13.2364 10.7473 15.2694 8.75588 17.3057L8.57309 17.1191V3.35932ZM8.57309 17.1191V17.381C8.60692 17.3814 8.64048 17.375 8.67185 17.362C8.70322 17.3491 8.73178 17.33 8.75588 17.3057L8.57309 17.1191ZM8.57309 17.381C8.53926 17.3814 8.5057 17.375 8.47433 17.362C8.44296 17.3491 8.4144 17.33 8.3903 17.3057C6.39888 15.2694 4.40745 13.2364 2.90026 11.1837C1.38023 9.11795 0.363678 7.03581 0.363678 4.94057C0.363678 3.7489 0.838285 2.66855 1.60471 1.8861C2.37114 1.10039 3.42938 0.619141 4.59666 0.619141C6.55601 0.619141 7.60143 1.53581 8.57309 3.35932V17.381Z" fill="#E53935"/>
</svg>
