<svg width="18" height="24" viewBox="0 0 18 24" fill="none" xmlns="http://www.w3.org/2000/svg">
<path fill-rule="evenodd" clip-rule="evenodd" d="M8.8 0C3.9432 0 0 3.9432 0 8.8C0 11.3352 1.3176 14.2808 2.936 16.8888C5.2848 20.6752 8.2208 23.752 8.2208 23.752C8.372 23.9104 8.5816 24 8.8 24C9.0184 24 9.228 23.9104 9.3792 23.752C9.3792 23.752 12.3152 20.6752 14.664 16.8888C16.2824 14.2808 17.6 11.3352 17.6 8.8C17.6 3.9432 13.6568 0 8.8 0ZM8.8 4.8C6.592 4.8 4.8 6.592 4.8 8.8C4.8 11.008 6.592 12.8 8.8 12.8C11.008 12.8 12.8 11.008 12.8 8.8C12.8 6.592 11.008 4.8 8.8 4.8Z" fill="#12B3EF"/>
</svg>
