<svg width="24" height="24" viewBox="0 0 24 24" fill="none" xmlns="http://www.w3.org/2000/svg">
<g clip-path="url(#clip0_933_914)">
<path d="M18.4461 2.32194C18.7631 2.32694 19.0791 2.34594 19.3881 2.41094C21.5031 2.85594 22.3641 4.90194 22.6191 6.84894C22.9881 9.66994 22.3081 12.5379 21.2271 15.1319C21.0141 15.6429 20.7971 16.1629 20.5351 16.6519C20.0181 17.6169 19.4381 18.5389 18.7481 19.3919C17.4961 20.9379 15.9281 22.2529 14.0901 23.0409C12.6191 23.6709 10.8891 24.0329 9.2861 23.8039C8.50769 23.6893 7.74926 23.4658 7.0331 23.1399C5.98356 22.6653 5.03993 21.9849 4.2581 21.1389C3.1961 19.9889 2.4671 18.5729 2.0101 17.0829C1.5681 15.6439 1.3671 14.1389 1.3121 12.6379C1.3121 12.6379 0.488099 1.36394 7.1621 0.219943C7.9331 0.139943 8.7311 -0.0990568 11.0181 0.751943C12.3111 1.23294 13.6141 1.69394 14.9641 1.98594C15.6941 2.14294 16.4341 2.25094 17.1781 2.30494C17.5951 2.33394 18.0221 2.31494 18.4461 2.32194Z" fill="#E6E6E6"/>
<path d="M18.26 13.8899V16.2099L17.39 17.7499C14.214 21.8709 8.29897 22.6369 4.17897 19.4609C0.0589709 16.2849 -0.709029 10.3709 2.46697 6.24994C5.64297 2.12894 11.558 1.36294 15.678 4.53894C16.3194 5.0334 16.8945 5.60847 17.389 6.24994L18.259 7.78994V10.1099H9.19997V13.8899H18.26Z" fill="#2FDF84"/>
<path d="M3.43586 11.9999C3.43786 9.75874 4.23909 7.59178 5.69555 5.88842C7.15202 4.18506 9.16823 3.05697 11.3819 2.70689C8.93418 2.33611 6.43891 2.94366 4.43566 4.39818C2.4324 5.85269 1.08216 8.03726 0.67692 10.4795C0.27168 12.9217 0.84401 15.4253 2.27014 17.4488C3.69628 19.4724 5.8616 20.8533 8.29786 21.2929C9.31858 21.4619 10.3601 21.4619 11.3809 21.2929C9.16741 20.9426 7.15143 19.8144 5.69517 18.1111C4.23891 16.4077 3.43782 14.2409 3.43586 11.9999Z" fill="#00B871"/>
<path d="M18.2602 7.79004V10.11H9.2002V13.89H18.2602V16.21L23.5002 12L18.2602 7.79004Z" stroke="black" stroke-linecap="round" stroke-linejoin="round"/>
<path d="M17.39 17.7499C14.214 21.8709 8.29897 22.6369 4.17897 19.4609C0.0589709 16.2849 -0.709029 10.3709 2.46697 6.24994C5.64297 2.12894 11.558 1.36294 15.678 4.53894C16.3194 5.0334 16.8945 5.60847 17.389 6.24994" stroke="black" stroke-linecap="round" stroke-linejoin="round"/>
</g>
<defs>
<clipPath id="clip0_933_914">
<rect width="24" height="24" fill="white"/>
</clipPath>
</defs>
</svg>
