<svg width="24" height="24" viewBox="0 0 24 24" fill="none" xmlns="http://www.w3.org/2000/svg">
<g clip-path="url(#clip0_938_2763)">
<g clip-path="url(#clip1_938_2763)">
<path d="M21.9825 13.9875C21.8962 14.4262 22.0594 14.8819 22.215 15.3244C22.3481 15.6994 22.4869 16.0875 22.3969 16.3069C22.3012 16.5338 21.9244 16.7137 21.5588 16.8862C21.1406 17.085 20.7075 17.2894 20.4637 17.6531C20.2162 18.0225 20.1919 18.5025 20.1675 18.9675C20.1469 19.3688 20.1262 19.7831 19.9556 19.9556C19.7831 20.1262 19.3688 20.1469 18.9675 20.1675C18.5025 20.1919 18.0225 20.2162 17.6531 20.4637C17.2894 20.7075 17.0831 21.1406 16.8863 21.5588C16.7138 21.9244 16.5338 22.3012 16.3069 22.3969C16.0875 22.4869 15.6994 22.3481 15.3244 22.215C14.8819 22.0594 14.4263 21.8962 13.9875 21.9825C13.5619 22.0669 13.2094 22.3856 12.87 22.6931C12.5663 22.9669 12.2531 23.25 12 23.25C11.7469 23.25 11.4338 22.9669 11.13 22.6931C10.7906 22.3856 10.4381 22.0669 10.0125 21.9825C9.92789 21.9659 9.84184 21.9578 9.75562 21.9581C9.3839 21.9835 9.01896 22.0703 8.67562 22.215C8.30062 22.3481 7.9125 22.4869 7.69312 22.3969C7.46625 22.3012 7.28625 21.9244 7.11375 21.5588C6.915 21.1406 6.71062 20.7075 6.34687 20.4637C5.9775 20.2162 5.4975 20.1919 5.03251 20.1675C4.63126 20.1469 4.21688 20.1262 4.04438 19.9556C3.87376 19.7831 3.85313 19.3688 3.83251 18.9675C3.80813 18.5025 3.78376 18.0225 3.53626 17.6531C3.29251 17.2894 2.85938 17.0831 2.44126 16.8862C2.07563 16.7119 1.69876 16.5338 1.60313 16.3069C1.51313 16.0875 1.65188 15.6994 1.78501 15.3225C1.94063 14.8819 2.10376 14.4262 2.01751 13.9875C1.93313 13.5619 1.61438 13.2094 1.30688 12.87C1.03312 12.5662 0.75 12.2531 0.75 12C0.75 11.7469 1.03312 11.4338 1.30687 11.13C1.61437 10.7906 1.93313 10.4381 2.0175 10.0125C2.10375 9.57375 1.94063 9.11812 1.785 8.67562C1.65188 8.30062 1.51313 7.91251 1.60313 7.69312C1.69875 7.46625 2.07563 7.28625 2.44125 7.11375C2.85938 6.915 3.2925 6.71062 3.53625 6.34687C3.78375 5.9775 3.80813 5.4975 3.8325 5.0325C3.85313 4.63125 3.87375 4.21687 4.04437 4.04437C4.21687 3.87375 4.63125 3.85313 5.0325 3.8325C5.4975 3.80813 5.9775 3.78375 6.34687 3.53625C6.71062 3.2925 6.91687 2.85938 7.11374 2.44125C7.28624 2.07563 7.46624 1.69875 7.69312 1.60313C7.91249 1.51313 8.30062 1.65188 8.67562 1.785C9.11812 1.94063 9.57374 2.10375 10.0125 2.01751C10.4381 1.93313 10.7906 1.61438 11.13 1.30688C11.4338 1.03312 11.7469 0.75 12 0.75C12.2531 0.75 12.5662 1.03312 12.87 1.30687C13.2094 1.61437 13.5619 1.93313 13.9875 2.0175C14.4262 2.10375 14.8819 1.94062 15.3244 1.78499C15.6994 1.65187 16.0875 1.51312 16.3069 1.60312C16.5338 1.69874 16.7137 2.07562 16.8862 2.44124C17.085 2.85937 17.2894 3.29249 17.6531 3.53624C18.0225 3.78374 18.5025 3.80812 18.9675 3.83249C19.3687 3.85312 19.7831 3.87374 19.9556 4.04437C20.1262 4.21687 20.1469 4.63124 20.1675 5.03249C20.1919 5.49749 20.2162 5.97749 20.4637 6.34687C20.7075 6.71062 21.1406 6.91687 21.5587 7.11374C21.9244 7.28812 22.3012 7.46624 22.3969 7.69312C22.4869 7.91249 22.3481 8.30062 22.215 8.67749C22.0594 9.11812 21.8962 9.57374 21.9825 10.0125C22.0669 10.4381 22.3856 10.7906 22.6931 11.13C22.9669 11.4338 23.25 11.7469 23.25 12C23.25 12.2531 22.9669 12.5662 22.6931 12.87C22.3856 13.2094 22.0669 13.5619 21.9825 13.9875Z" fill="#81D9E3"/>
<path d="M16.8468 16.3911L16.3443 17.218L7.81304 17.1711C7.81304 17.1711 7.27304 17.2274 7.26554 16.453C7.25804 15.6786 7.26554 12.898 7.26554 12.898L10.1474 10.9143L12.0787 12.7499L13.843 10.843L14.758 11.4899L14.653 11.7149L14.5124 11.7355L14.0812 11.8011C14.0493 11.8068 14.0174 11.8124 13.9855 11.8199C13.818 11.8599 13.6621 11.9382 13.5299 12.0486L13.5262 12.0524C13.4317 12.1315 13.3512 12.226 13.288 12.3318C13.2444 12.4024 13.2092 12.478 13.183 12.5568C13.1169 12.7531 13.1064 12.9638 13.1527 13.1657C13.199 13.3676 13.3004 13.5527 13.4455 13.7005L13.8918 14.158L13.7849 14.8199C13.7509 15.0282 13.7763 15.2418 13.858 15.4363C13.9398 15.6309 14.0746 15.7985 14.2472 15.9199C14.4197 16.0414 14.623 16.1119 14.8337 16.1233C15.0444 16.1346 15.254 16.0865 15.4387 15.9843L15.9374 15.7086L16.4362 15.9843C16.5511 16.0468 16.6761 16.0887 16.8055 16.108L16.8468 16.3911Z" fill="#FC785E"/>
<path d="M7.76221 5.07779C7.88493 5.04473 8.00306 4.9965 8.11386 4.93424C8.15695 4.91039 8.19492 4.87828 8.2256 4.83975C8.25629 4.80123 8.27908 4.75703 8.29268 4.7097C8.30628 4.66236 8.31043 4.61281 8.30488 4.56387C8.29933 4.51493 8.2842 4.46757 8.26035 4.42448C8.23649 4.38139 8.20439 4.34342 8.16586 4.31273C8.12733 4.28205 8.08314 4.25926 8.0358 4.24566C7.98847 4.23205 7.93891 4.22791 7.88998 4.23346C7.84104 4.23901 7.79367 4.25414 7.75058 4.27799C7.69107 4.31095 7.63202 4.34446 7.57343 4.37852C7.50211 4.41997 7.44645 4.48378 7.41507 4.56007C7.38369 4.63636 7.37833 4.72086 7.39983 4.8005C7.42133 4.88014 7.46849 4.95047 7.534 5.0006C7.59951 5.05073 7.67972 5.07786 7.76221 5.07779ZM6.33902 6.11857C6.43216 6.11871 6.522 6.08403 6.59088 6.02134C6.63693 5.97959 6.68353 5.93821 6.73059 5.89774C6.76791 5.86561 6.79853 5.82643 6.82071 5.78246C6.84289 5.73849 6.8562 5.69058 6.85986 5.64147C6.86352 5.59235 6.85748 5.543 6.84207 5.49622C6.82666 5.44945 6.80219 5.40616 6.77005 5.36884C6.73791 5.33152 6.69874 5.3009 6.65477 5.27872C6.6108 5.25654 6.56289 5.24324 6.51377 5.23957C6.46466 5.23591 6.41531 5.24196 6.36853 5.25737C6.32175 5.27278 6.27847 5.29725 6.24115 5.32938C6.18915 5.37425 6.13776 5.41972 6.08698 5.4658C6.0309 5.51669 5.99154 5.58336 5.97408 5.65704C5.95662 5.73073 5.96187 5.80797 5.98915 5.87862C6.01642 5.94926 6.06444 6.00999 6.12689 6.05282C6.18934 6.09565 6.2633 6.11857 6.33902 6.11857ZM3.66431 10.6305C3.71251 10.6406 3.76223 10.6412 3.81064 10.6321C3.85906 10.623 3.9052 10.6045 3.94645 10.5776C3.9877 10.5507 4.02324 10.5159 4.05103 10.4752C4.07882 10.4346 4.09833 10.3888 4.10843 10.3406C4.12125 10.2791 4.1348 10.2178 4.14908 10.1568C4.16032 10.1088 4.16199 10.0591 4.15399 10.0104C4.14599 9.96179 4.12848 9.91521 4.10246 9.87336C4.07644 9.8315 4.04243 9.79518 4.00236 9.76648C3.9623 9.73777 3.91697 9.71725 3.86896 9.70609C3.82096 9.69492 3.77123 9.69332 3.72261 9.70139C3.67399 9.70946 3.62743 9.72704 3.58561 9.75312C3.54379 9.77919 3.50752 9.81326 3.47888 9.85337C3.45023 9.89347 3.42977 9.93883 3.41868 9.98685C3.4032 10.0531 3.38843 10.1197 3.37436 10.1864C3.36425 10.2346 3.36372 10.2843 3.37282 10.3327C3.38191 10.3811 3.40045 10.4273 3.42738 10.4685C3.4543 10.5097 3.48908 10.5453 3.52974 10.5731C3.57039 10.6008 3.61612 10.6204 3.66431 10.6305ZM3.9375 12.0001C3.9375 11.9428 3.93808 11.8855 3.93924 11.8283C3.94121 11.7289 3.90362 11.6328 3.83473 11.561C3.76583 11.4893 3.67127 11.4479 3.57184 11.4458C3.47283 11.4454 3.37753 11.4835 3.30614 11.5521C3.23475 11.6207 3.19289 11.7144 3.18942 11.8133C3.18814 11.8756 3.1875 11.9377 3.1875 12.0001V12.0173C3.18767 12.0661 3.19755 12.1144 3.21657 12.1593C3.23558 12.2043 3.26335 12.245 3.29825 12.2791C3.33315 12.3132 3.37449 12.34 3.41986 12.3579C3.46523 12.3759 3.51371 12.3847 3.5625 12.3837C3.66283 12.3817 3.75838 12.3404 3.82853 12.2687C3.89868 12.1969 3.93782 12.1005 3.9375 12.0001ZM4.56372 15.1209C4.54475 15.0754 4.51699 15.0341 4.48202 14.9993C4.44705 14.9645 4.40556 14.937 4.35993 14.9182C4.3143 14.8995 4.26543 14.8899 4.2161 14.8901C4.16678 14.8903 4.11797 14.9002 4.07249 14.9193C4.027 14.9384 3.98572 14.9662 3.95101 15.0013C3.9163 15.0363 3.88885 15.0779 3.87022 15.1235C3.8516 15.1692 3.84216 15.2181 3.84246 15.2674C3.84275 15.3168 3.85277 15.3655 3.87195 15.411C3.89832 15.4738 3.92548 15.5364 3.95343 15.5987C3.97356 15.6436 4.00234 15.6842 4.03813 15.718C4.07392 15.7518 4.11603 15.7782 4.16204 15.7958C4.20805 15.8133 4.25706 15.8216 4.30628 15.8202C4.35551 15.8188 4.40397 15.8078 4.44891 15.7876C4.49386 15.7675 4.53439 15.7387 4.56821 15.7029C4.60203 15.6671 4.62847 15.625 4.64601 15.579C4.66356 15.533 4.67187 15.484 4.67048 15.4348C4.66908 15.3856 4.658 15.3371 4.63788 15.2922C4.61252 15.2354 4.5878 15.1783 4.56372 15.1209ZM4.1152 13.6918C4.10211 13.6308 4.08975 13.5696 4.07812 13.5082C4.06896 13.4598 4.05036 13.4137 4.02338 13.3725C3.99641 13.3313 3.96158 13.2958 3.92089 13.2681C3.8802 13.2404 3.83445 13.2209 3.78625 13.2109C3.73804 13.2008 3.68833 13.2004 3.63995 13.2095C3.59157 13.2187 3.54547 13.2373 3.50428 13.2643C3.46309 13.2912 3.42761 13.3261 3.39988 13.3668C3.37215 13.4074 3.3527 13.4532 3.34265 13.5014C3.3326 13.5496 3.33215 13.5993 3.34131 13.6477C3.35394 13.7149 3.3674 13.7818 3.38168 13.8486C3.39197 13.8967 3.41165 13.9424 3.43959 13.9829C3.46753 14.0235 3.50319 14.0582 3.54452 14.0849C3.58585 14.1117 3.63206 14.1301 3.68049 14.139C3.72893 14.1479 3.77865 14.1472 3.82681 14.1369C3.87498 14.1267 3.92064 14.107 3.9612 14.079C4.00176 14.0511 4.03642 14.0154 4.0632 13.9741C4.08998 13.9328 4.10835 13.8866 4.11728 13.8381C4.1262 13.7897 4.12549 13.74 4.1152 13.6918ZM9.36923 4.35581C9.46947 4.33675 9.56844 4.31156 9.66559 4.28037C9.71286 4.26619 9.75687 4.2428 9.79509 4.21157C9.83331 4.18034 9.86498 4.14186 9.88829 4.09836C9.91161 4.05485 9.9261 4.00718 9.93095 3.95806C9.93579 3.90894 9.93089 3.85935 9.91652 3.81213C9.90216 3.76491 9.87861 3.72099 9.84723 3.68289C9.81585 3.64479 9.77726 3.61326 9.73366 3.59011C9.69007 3.56697 9.64234 3.55265 9.5932 3.54799C9.54406 3.54334 9.49449 3.54843 9.44733 3.56297C9.38223 3.58275 9.31732 3.60319 9.25259 3.62431C9.16783 3.6521 9.09574 3.70919 9.04926 3.78534C9.00279 3.86149 8.98498 3.9517 8.99903 4.0398C9.01307 4.12789 9.05806 4.2081 9.12591 4.26601C9.19376 4.32393 9.28003 4.35576 9.36923 4.35581ZM4.13049 8.92814C4.17552 8.94814 4.22405 8.95905 4.2733 8.96025C4.32255 8.96146 4.37156 8.95292 4.41751 8.93515C4.46345 8.91737 4.50544 8.8907 4.54106 8.85666C4.57667 8.82262 4.60522 8.78189 4.62506 8.73679C4.65042 8.67967 4.67639 8.62284 4.70297 8.56632C4.72418 8.52176 4.73638 8.47346 4.73888 8.42418C4.74138 8.3749 4.73412 8.32561 4.71753 8.27913C4.70095 8.23266 4.67535 8.18992 4.64221 8.15336C4.60907 8.1168 4.56904 8.08714 4.52441 8.06608C4.47979 8.04502 4.43144 8.03297 4.38216 8.03064C4.33287 8.0283 4.2836 8.03571 4.23718 8.05245C4.19076 8.06919 4.1481 8.09492 4.11165 8.12818C4.0752 8.16144 4.04567 8.20156 4.02475 8.24626C3.99555 8.30815 3.96701 8.37059 3.93915 8.43357C3.91924 8.47861 3.90839 8.52713 3.90723 8.57636C3.90606 8.62559 3.91461 8.67456 3.93238 8.72049C3.95015 8.76641 3.97679 8.80839 4.01078 8.84402C4.04478 8.87965 4.08545 8.90823 4.13049 8.92814ZM19.4299 8.86405C19.4489 8.90951 19.4768 8.95077 19.5118 8.98546C19.5468 9.02015 19.5883 9.0476 19.634 9.06623C19.6796 9.08486 19.7285 9.09431 19.7778 9.09404C19.8271 9.09376 19.8759 9.08377 19.9213 9.06464C19.9667 9.0455 20.0079 9.0176 20.0426 8.98252C20.0772 8.94744 20.1046 8.90588 20.1231 8.8602C20.1417 8.81453 20.1511 8.76565 20.1507 8.71636C20.1504 8.66706 20.1403 8.61831 20.1211 8.57291C20.0945 8.50992 20.0672 8.44736 20.0392 8.38523C20.0189 8.34033 19.9901 8.29986 19.9542 8.26612C19.9183 8.23239 19.8762 8.20604 19.8301 8.1886C19.7841 8.17115 19.7351 8.16295 19.6859 8.16445C19.6366 8.16596 19.5882 8.17714 19.5433 8.19736C19.4984 8.21758 19.4579 8.24645 19.4242 8.28231C19.3905 8.31818 19.3641 8.36033 19.3467 8.40638C19.3292 8.45242 19.321 8.50145 19.3225 8.55066C19.324 8.59988 19.3352 8.64832 19.3554 8.69321C19.3809 8.74978 19.4057 8.80655 19.4299 8.86405ZM18.6155 7.39023C18.6436 7.43065 18.6795 7.46513 18.7209 7.4917C18.7624 7.51827 18.8087 7.53642 18.8571 7.5451C18.9056 7.55379 18.9553 7.55284 19.0034 7.54231C19.0515 7.53179 19.0971 7.51189 19.1375 7.48375C19.1779 7.45562 19.2124 7.4198 19.239 7.37834C19.2655 7.33689 19.2837 7.2906 19.2924 7.24213C19.301 7.19366 19.3001 7.14395 19.2896 7.09585C19.279 7.04774 19.2591 7.00218 19.231 6.96177C19.1919 6.90555 19.1522 6.84995 19.1117 6.79496C19.0827 6.75513 19.046 6.72142 19.0039 6.69577C18.9619 6.67011 18.9151 6.653 18.8664 6.64543C18.8177 6.63786 18.7679 6.63997 18.72 6.65164C18.6722 6.66331 18.627 6.68431 18.5873 6.71345C18.5475 6.74258 18.5138 6.77926 18.4883 6.82141C18.4627 6.86356 18.4457 6.91033 18.4382 6.95906C18.4307 7.00779 18.4329 7.05752 18.4447 7.10539C18.4564 7.15327 18.4775 7.19836 18.5067 7.23807C18.5435 7.28843 18.5798 7.33915 18.6155 7.39023ZM19.8812 10.2919C19.8944 10.3532 19.9069 10.4147 19.9188 10.4763C19.9352 10.5618 19.9809 10.6389 20.0481 10.6944C20.1152 10.7499 20.1995 10.7803 20.2866 10.7804C20.3105 10.7804 20.3344 10.7782 20.3578 10.7737C20.4062 10.7644 20.4523 10.7456 20.4934 10.7185C20.5345 10.6914 20.5699 10.6565 20.5975 10.6157C20.6251 10.575 20.6444 10.5291 20.6543 10.4809C20.6642 10.4326 20.6645 10.3829 20.6552 10.3346C20.6424 10.2677 20.6288 10.201 20.6146 10.1344C20.5937 10.0372 20.535 9.95222 20.4515 9.89822C20.368 9.84423 20.2664 9.82562 20.1692 9.8465C20.0719 9.86739 19.9869 9.92604 19.9329 10.0096C19.8789 10.0931 19.8603 10.1947 19.8812 10.2919ZM16.0086 5.00309C16.0627 5.03403 16.1162 5.06565 16.1694 5.09794C16.2115 5.12365 16.2582 5.14082 16.3069 5.14846C16.3556 5.1561 16.4053 5.15406 16.4532 5.14246C16.5011 5.13086 16.5463 5.10993 16.5861 5.08086C16.6259 5.05179 16.6596 5.01515 16.6852 4.97305C16.7109 4.93094 16.728 4.88419 16.7355 4.83548C16.7431 4.78677 16.7409 4.73704 16.7292 4.68915C16.7176 4.64126 16.6965 4.59614 16.6674 4.55638C16.6383 4.51662 16.6016 4.483 16.5594 4.45744C16.5006 4.42155 16.4414 4.38651 16.3816 4.35233C16.2953 4.30287 16.1929 4.28972 16.0969 4.31577C16.0009 4.34181 15.9192 4.40492 15.8698 4.49122C15.8203 4.57752 15.8071 4.67992 15.8332 4.77592C15.8592 4.87191 15.9223 4.95363 16.0086 5.00309ZM11.0924 3.98576C11.1058 3.98576 11.2571 3.97092 11.3197 3.9658C11.4188 3.95747 11.5105 3.9101 11.5747 3.83413C11.6389 3.75815 11.6703 3.65979 11.662 3.56067C11.6537 3.46156 11.6063 3.36981 11.5303 3.30561C11.4543 3.24142 11.356 3.21003 11.2569 3.21836C11.1887 3.22422 11.1207 3.23075 11.0529 3.23795C10.9575 3.24817 10.8696 3.29458 10.8074 3.36762C10.7452 3.44066 10.7133 3.53477 10.7184 3.63059C10.7234 3.72641 10.7651 3.81664 10.8346 3.8827C10.9042 3.94877 10.9965 3.98566 11.0924 3.98576ZM12.8181 3.97861C12.8805 3.98484 12.9426 3.9918 13.0046 3.99949C13.0201 4.00146 13.0357 4.00244 13.0513 4.00242C13.1467 4.00231 13.2385 3.96585 13.3079 3.90044C13.3774 3.83504 13.4193 3.74562 13.4251 3.65039C13.431 3.55516 13.4003 3.46129 13.3393 3.3879C13.2784 3.3145 13.1918 3.2671 13.0971 3.25535C13.0294 3.24693 12.9616 3.23924 12.8936 3.23229C12.7947 3.22249 12.696 3.25232 12.6191 3.31522C12.5422 3.37812 12.4934 3.46897 12.4834 3.56781C12.4734 3.66665 12.503 3.76542 12.5658 3.84244C12.6285 3.91946 12.7193 3.96843 12.8181 3.97861ZM14.4669 4.32194C14.5656 4.35534 14.6664 4.38225 14.7686 4.4025C14.8573 4.40245 14.9431 4.37098 15.0108 4.31368C15.0784 4.25637 15.1236 4.17693 15.1383 4.08946C15.153 4.00199 15.1362 3.91215 15.091 3.83587C15.0457 3.7596 14.9749 3.70184 14.8911 3.67283C14.8265 3.65067 14.7617 3.629 14.6965 3.60783C14.6019 3.57765 14.4992 3.58624 14.4109 3.63171C14.3226 3.67717 14.2559 3.7558 14.2255 3.85035C14.1951 3.9449 14.2034 4.04764 14.2487 4.13605C14.2939 4.22446 14.3724 4.29131 14.4669 4.32194ZM9.517 19.6731C9.45758 19.6539 9.39844 19.634 9.33957 19.6134C9.2931 19.597 9.24385 19.59 9.19464 19.5926C9.14543 19.5953 9.09722 19.6076 9.05278 19.6289C9.00834 19.6502 8.96853 19.68 8.93563 19.7167C8.90273 19.7534 8.87739 19.7962 8.86105 19.8427C8.84471 19.8892 8.83769 19.9385 8.8404 19.9877C8.84312 20.0369 8.8555 20.0851 8.87685 20.1295C8.8982 20.1739 8.92809 20.2137 8.96482 20.2465C9.00155 20.2794 9.0444 20.3047 9.09091 20.321C9.156 20.3438 9.22137 20.3658 9.28702 20.3869C9.32418 20.399 9.36301 20.4052 9.4021 20.4052C9.49147 20.4051 9.57788 20.3732 9.64578 20.3151C9.71369 20.257 9.75861 20.1766 9.77247 20.0883C9.78632 20 9.7682 19.9097 9.72137 19.8335C9.67453 19.7574 9.60206 19.7006 9.517 19.6731ZM17.8743 5.43082C17.8001 5.36458 17.7026 5.33054 17.6033 5.33617C17.504 5.3418 17.411 5.38665 17.3448 5.46085C17.2785 5.53506 17.2445 5.63254 17.2501 5.73184C17.2557 5.83115 17.3006 5.92416 17.3748 5.99039C17.4211 6.03178 17.467 6.07377 17.5124 6.11637C17.5848 6.18451 17.6814 6.22107 17.7808 6.21801C17.8802 6.21495 17.9743 6.17253 18.0425 6.10008C18.1106 6.02762 18.1472 5.93107 18.1441 5.83166C18.1411 5.73224 18.0986 5.63812 18.0262 5.56999C17.9762 5.52293 17.9256 5.47654 17.8743 5.43082ZM19.049 16.6545C19.0092 16.6254 18.9641 16.6046 18.9162 16.593C18.8683 16.5814 18.8187 16.5794 18.77 16.587C18.7213 16.5947 18.6747 16.6118 18.6326 16.6375C18.5906 16.6632 18.5541 16.6969 18.5251 16.7367C18.4883 16.7874 18.4508 16.8376 18.4128 16.8874C18.3829 16.9265 18.3609 16.9711 18.3483 17.0188C18.3356 17.0664 18.3324 17.116 18.339 17.1648C18.3455 17.2137 18.3616 17.2607 18.3863 17.3034C18.411 17.346 18.4439 17.3833 18.483 17.4132C18.5222 17.4431 18.5669 17.465 18.6145 17.4776C18.6621 17.4903 18.7117 17.4934 18.7606 17.4868C18.8094 17.4803 18.8565 17.4642 18.8991 17.4394C18.9416 17.4146 18.9789 17.3817 19.0088 17.3426C19.0503 17.2884 19.091 17.2334 19.1313 17.1783C19.1603 17.1385 19.1812 17.0934 19.1927 17.0455C19.2043 16.9977 19.2063 16.948 19.1987 16.8993C19.191 16.8507 19.1739 16.804 19.1482 16.762C19.1225 16.72 19.0888 16.6834 19.049 16.6545ZM17.3973 17.9895C17.351 18.0312 17.3041 18.0725 17.2568 18.1133C17.2193 18.1453 17.1885 18.1845 17.1662 18.2284C17.1438 18.2724 17.1304 18.3204 17.1266 18.3695C17.1229 18.4187 17.1288 18.4682 17.1442 18.515C17.1595 18.5619 17.184 18.6053 17.2162 18.6427C17.2483 18.6801 17.2875 18.7108 17.3315 18.733C17.3756 18.7552 17.4236 18.7685 17.4728 18.7722C17.5219 18.7758 17.5714 18.7698 17.6182 18.7543C17.665 18.7388 17.7083 18.7142 17.7457 18.682C17.7976 18.6373 17.8489 18.5921 17.8996 18.5465C17.9361 18.5135 17.9659 18.4736 17.987 18.4292C18.0082 18.3847 18.0204 18.3365 18.0229 18.2873C18.0255 18.2382 18.0183 18.189 18.0018 18.1425C17.9854 18.0961 17.9599 18.0534 17.9269 18.0169C17.894 17.9803 17.8541 17.9506 17.8096 17.9294C17.7652 17.9082 17.717 17.896 17.6678 17.8935C17.6186 17.8909 17.5694 17.8981 17.523 17.9146C17.4766 17.931 17.4339 17.9565 17.3973 17.9895ZM16.035 18.9819C15.9812 19.0132 15.9269 19.0439 15.8722 19.0738C15.7993 19.1139 15.7417 19.1772 15.7087 19.2536C15.6756 19.33 15.6689 19.4153 15.6897 19.4959C15.7104 19.5765 15.7574 19.648 15.8232 19.699C15.889 19.7499 15.97 19.7776 16.0532 19.7775C16.1784 19.7437 16.2989 19.6943 16.4118 19.6305C16.4978 19.5805 16.5605 19.4984 16.5859 19.4023C16.6114 19.3061 16.5977 19.2038 16.5477 19.1178C16.4977 19.0318 16.4156 18.9691 16.3195 18.9437C16.2233 18.9182 16.121 18.9319 16.035 18.9819ZM5.37488 16.5962C5.31815 16.5145 5.23131 16.4587 5.13344 16.4411C5.03558 16.4234 4.93471 16.4454 4.85302 16.5021C4.77134 16.5588 4.71554 16.6457 4.69789 16.7435C4.68024 16.8414 4.70219 16.9423 4.75891 17.024C4.79791 17.0802 4.83755 17.1358 4.87783 17.191C4.90689 17.2307 4.9435 17.2644 4.98556 17.29C5.02763 17.3156 5.07432 17.3327 5.12298 17.3402C5.17165 17.3478 5.22132 17.3457 5.26918 17.3341C5.31703 17.3224 5.36212 17.3015 5.40188 17.2724C5.44164 17.2434 5.47529 17.2068 5.5009 17.1647C5.52651 17.1226 5.54359 17.076 5.55116 17.0273C5.55872 16.9786 5.55663 16.929 5.545 16.8811C5.53337 16.8332 5.51242 16.7881 5.48336 16.7484C5.44656 16.6982 5.4104 16.6473 5.37488 16.5962ZM20.3327 13.3864C20.2354 13.3661 20.1341 13.3852 20.0508 13.4394C19.9675 13.4936 19.9091 13.5785 19.8883 13.6757C19.8753 13.737 19.8616 13.798 19.8474 13.8586C19.836 13.9065 19.8342 13.9562 19.8421 14.0048C19.85 14.0535 19.8674 14.1 19.8932 14.1419C19.9191 14.1838 19.953 14.2202 19.9929 14.249C20.0329 14.2778 20.0781 14.2985 20.126 14.3098C20.1544 14.3165 20.1834 14.3199 20.2126 14.3199C20.297 14.3198 20.3789 14.2912 20.445 14.2388C20.5112 14.1864 20.5578 14.1133 20.5772 14.0311C20.593 13.9646 20.6079 13.8979 20.622 13.831C20.6322 13.7828 20.6328 13.7331 20.6238 13.6846C20.6148 13.6362 20.5963 13.59 20.5694 13.5488C20.5426 13.5075 20.5078 13.4719 20.4672 13.444C20.4266 13.4162 20.3809 13.3966 20.3327 13.3864ZM19.8638 15.0882C19.773 15.0476 19.6698 15.0448 19.5769 15.0804C19.4841 15.1159 19.4091 15.1869 19.3685 15.2777C19.3429 15.3352 19.3166 15.3923 19.2897 15.4491C19.2472 15.539 19.2422 15.6421 19.2757 15.7358C19.3093 15.8294 19.3787 15.9059 19.4686 15.9484C19.5585 15.9909 19.6617 15.9959 19.7553 15.9624C19.849 15.9288 19.9254 15.8594 19.9679 15.7695C19.997 15.7076 20.0255 15.6456 20.0533 15.5835C20.0734 15.5385 20.0845 15.49 20.0858 15.4408C20.0871 15.3916 20.0788 15.3426 20.0612 15.2966C20.0436 15.2506 20.0171 15.2085 19.9832 15.1727C19.9494 15.137 19.9088 15.1082 19.8638 15.0882ZM20.4375 11.5909C20.338 11.5909 20.2427 11.6304 20.1723 11.7007C20.102 11.771 20.0625 11.8664 20.0625 11.9659V12.0001C20.0625 12.0627 20.0618 12.125 20.0603 12.1874C20.0591 12.2366 20.0677 12.2856 20.0854 12.3316C20.1032 12.3775 20.1298 12.4195 20.1638 12.4551C20.1978 12.4908 20.2385 12.5194 20.2835 12.5393C20.3286 12.5592 20.3771 12.57 20.4263 12.5712C20.4294 12.5714 20.4324 12.5714 20.4354 12.5714C20.5333 12.5714 20.6273 12.533 20.6973 12.4647C20.7673 12.3963 20.8078 12.3032 20.8101 12.2054C20.8118 12.1371 20.8125 11.9659 20.8125 11.9659C20.8125 11.8664 20.773 11.771 20.7027 11.7007C20.6323 11.6304 20.537 11.5909 20.4375 11.5909ZM6.47543 17.8721C6.43958 17.8383 6.39743 17.812 6.35138 17.7945C6.30533 17.777 6.25629 17.7688 6.20706 17.7702C6.15783 17.7717 6.10937 17.7828 6.06445 17.803C6.01953 17.8232 5.97902 17.8521 5.94525 17.8879C5.91148 17.9238 5.8851 17.966 5.86762 18.012C5.85014 18.058 5.8419 18.1071 5.84337 18.1563C5.84484 18.2055 5.85599 18.254 5.87619 18.2989C5.89639 18.3439 5.92524 18.3844 5.96109 18.4181C6.0109 18.465 6.06122 18.5113 6.11206 18.5569C6.14868 18.5898 6.19143 18.6152 6.23786 18.6316C6.28429 18.648 6.3335 18.6551 6.38267 18.6525C6.43184 18.6499 6.48002 18.6376 6.52445 18.6164C6.56887 18.5951 6.60868 18.5653 6.6416 18.5287C6.67452 18.4921 6.6999 18.4494 6.7163 18.4029C6.7327 18.3565 6.73979 18.3073 6.73717 18.2581C6.73456 18.2089 6.72228 18.1608 6.70104 18.1163C6.67981 18.0719 6.65003 18.0321 6.6134 17.9992C6.56689 17.9573 6.5209 17.9149 6.47543 17.8721ZM11.1659 20.0199C11.1032 20.0133 11.0407 20.0062 10.9784 19.9985C10.9295 19.9923 10.8798 19.9959 10.8323 20.0089C10.7847 20.0219 10.7402 20.0442 10.7013 20.0745C10.6624 20.1047 10.6298 20.1424 10.6055 20.1852C10.5811 20.2281 10.5654 20.2753 10.5594 20.3243C10.5533 20.3732 10.5569 20.4228 10.57 20.4703C10.5832 20.5179 10.6055 20.5623 10.6359 20.6012C10.6662 20.64 10.7039 20.6725 10.7468 20.6968C10.7897 20.7211 10.837 20.7367 10.8859 20.7427C10.9532 20.7511 11.1146 20.7679 11.1276 20.7679C11.2236 20.7678 11.316 20.7308 11.3856 20.6646C11.4551 20.5984 11.4967 20.508 11.5016 20.4121C11.5065 20.3162 11.4744 20.222 11.4119 20.1491C11.3495 20.0761 11.2614 20.0299 11.1659 20.0199ZM5.50616 6.6005C5.42707 6.54025 5.32728 6.51387 5.22874 6.52716C5.1302 6.54045 5.04097 6.59231 4.98065 6.67136C4.93909 6.72593 4.89819 6.78098 4.85797 6.83652C4.79984 6.9171 4.77605 7.01745 4.79184 7.11554C4.80763 7.21364 4.8617 7.30146 4.94219 7.35972C5.02267 7.41798 5.12298 7.44193 5.2211 7.42629C5.31922 7.41066 5.40712 7.35673 5.46551 7.27634C5.50214 7.22581 5.53931 7.17576 5.57703 7.1262C5.63734 7.04709 5.66375 6.94726 5.65047 6.84867C5.63718 6.75009 5.58527 6.66082 5.50616 6.6005ZM7.97754 18.989C7.92352 18.9579 7.8699 18.9261 7.81668 18.8937C7.73184 18.8417 7.62986 18.8257 7.53316 18.8489C7.43646 18.8722 7.35297 18.933 7.30106 19.0178C7.24914 19.1026 7.23306 19.2046 7.25634 19.3013C7.27962 19.398 7.34036 19.4815 7.4252 19.5334C7.5393 19.6011 7.66185 19.6534 7.78967 19.6889C7.87226 19.689 7.95256 19.6618 8.01811 19.6115C8.08367 19.5613 8.13081 19.4908 8.15222 19.4111C8.17363 19.3313 8.16812 19.2467 8.13654 19.1704C8.10495 19.0941 8.04906 19.0303 7.97754 18.989ZM14.4987 19.668C14.4391 19.6872 14.3792 19.706 14.319 19.7242C14.2329 19.7502 14.1589 19.8062 14.1107 19.8822C14.0624 19.9581 14.043 20.0489 14.0561 20.1379C14.0692 20.2269 14.1138 20.3083 14.1819 20.3671C14.25 20.426 14.3369 20.4584 14.4269 20.4585C14.5295 20.4393 14.6307 20.4135 14.73 20.3814C14.7769 20.3662 14.8203 20.342 14.8579 20.3101C14.8954 20.2781 14.9262 20.2391 14.9487 20.1952C14.9711 20.1513 14.9846 20.1035 14.9885 20.0543C14.9925 20.0052 14.9866 19.9558 14.9715 19.9089C14.9563 19.8621 14.932 19.8186 14.9 19.7812C14.868 19.7437 14.8289 19.7129 14.785 19.6905C14.7411 19.6681 14.6933 19.6546 14.6441 19.6508C14.595 19.6469 14.5456 19.6528 14.4987 19.668ZM12.8511 20.0183C12.7886 20.0249 12.7261 20.0306 12.6632 20.0359C12.5668 20.044 12.4773 20.089 12.4134 20.1615C12.3494 20.234 12.3159 20.3284 12.3199 20.425C12.3239 20.5217 12.365 20.613 12.4348 20.68C12.5045 20.747 12.5974 20.7845 12.6941 20.7846C12.7047 20.7846 12.8615 20.7712 12.9289 20.7643C12.9779 20.7591 13.0254 20.7444 13.0687 20.721C13.112 20.6975 13.1502 20.6657 13.1812 20.6275C13.2123 20.5893 13.2354 20.5453 13.2495 20.4981C13.2635 20.4509 13.2681 20.4013 13.263 20.3524C13.2579 20.3034 13.2431 20.2559 13.2197 20.2126C13.1962 20.1693 13.1645 20.131 13.1262 20.1C13.088 20.069 13.044 20.0458 12.9968 20.0318C12.9496 20.0178 12.9001 20.0132 12.8511 20.0183Z" fill="#2D4356"/>
<path d="M23.25 13.3725C23.6006 12.9844 24 12.5419 24 12C24 11.4581 23.6006 11.0156 23.25 10.6275C23.01 10.3631 22.7625 10.0894 22.7194 9.86812C22.6725 9.63 22.8 9.27375 22.9219 8.92875C23.1038 8.41875 23.2913 7.89187 23.0887 7.40625C22.8844 6.91125 22.35 6.66 21.8794 6.43688C21.5531 6.28125 21.2156 6.12188 21.0863 5.92875C20.955 5.73187 20.9362 5.35687 20.9175 4.99312C20.8894 4.45125 20.8612 3.89062 20.4862 3.51562C20.1094 3.14062 19.5487 3.11063 19.0069 3.0825C18.6431 3.06375 18.2681 3.045 18.0712 2.91375C17.8781 2.78437 17.7188 2.44688 17.5631 2.12063C17.34 1.65 17.0888 1.11563 16.5938 0.91125C16.1081 0.710625 15.5812 0.89625 15.0712 1.07812C14.7262 1.20187 14.37 1.3275 14.1319 1.28062C13.9106 1.2375 13.6369 0.99 13.3725 0.75C12.9844 0.399375 12.5419 0 12 0C11.4581 0 11.0156 0.399375 10.6275 0.75C10.3631 0.99 10.0894 1.2375 9.86812 1.28062C9.63 1.3275 9.27375 1.2 8.92875 1.07812C8.41875 0.89625 7.89187 0.70875 7.40625 0.91125C6.91125 1.11563 6.66 1.65 6.43688 2.12063C6.28125 2.44688 6.12188 2.78437 5.92875 2.91375C5.73187 3.045 5.35687 3.06375 4.99312 3.0825C4.45125 3.11063 3.89062 3.13875 3.51562 3.51562C3.14062 3.89062 3.11063 4.45125 3.0825 4.99312C3.06375 5.35687 3.045 5.73187 2.91375 5.92875C2.78437 6.12188 2.44688 6.28125 2.12063 6.43688C1.65 6.65813 1.11563 6.91125 0.91125 7.40625C0.70875 7.89187 0.89625 8.41875 1.07812 8.92875C1.2 9.27375 1.3275 9.63 1.28062 9.86812C1.2375 10.0894 0.99 10.3631 0.75 10.6275C0.399375 11.0156 0 11.4581 0 12C0 12.5419 0.399375 12.9844 0.75 13.3725C0.99 13.6369 1.2375 13.9106 1.28062 14.1319C1.3275 14.37 1.2 14.7262 1.07812 15.0712C0.89625 15.5812 0.70875 16.1081 0.91125 16.5938C1.11563 17.0888 1.65 17.34 2.12063 17.5631C2.44688 17.7188 2.78437 17.8781 2.91375 18.0712C3.045 18.2681 3.06375 18.6431 3.0825 19.0069C3.11063 19.5487 3.13875 20.1094 3.51375 20.4844C3.89062 20.8594 4.45125 20.8894 4.99312 20.9175C5.35687 20.9362 5.73187 20.955 5.92875 21.0863C6.12188 21.2156 6.28125 21.5531 6.43688 21.8794C6.66 22.35 6.91125 22.8844 7.40625 23.0887C7.89187 23.2894 8.41875 23.1038 8.92875 22.9219C9.27375 22.7981 9.63188 22.6725 9.86812 22.7194C10.0894 22.7625 10.3631 23.01 10.6275 23.25C11.0156 23.6006 11.4581 24 12 24C12.5419 24 12.9844 23.6006 13.3725 23.25C13.6369 23.01 13.9106 22.7625 14.1319 22.7194C14.37 22.6725 14.7262 22.8 15.0712 22.9219C15.5812 23.1038 16.1081 23.2894 16.5938 23.0887C17.0888 22.8844 17.34 22.35 17.5631 21.8794C17.7188 21.5531 17.8781 21.2156 18.0712 21.0863C18.2681 20.955 18.6431 20.9362 19.0069 20.9175C19.5487 20.8894 20.1094 20.8612 20.4844 20.4844C20.8594 20.1094 20.8894 19.5487 20.9175 19.0069C20.9362 18.6431 20.955 18.2681 21.0863 18.0712C21.2156 17.8781 21.5531 17.7188 21.8794 17.5631C22.35 17.3419 22.8844 17.0888 23.0887 16.5938C23.2913 16.1081 23.1038 15.5812 22.9219 15.0712C22.8 14.7262 22.6725 14.37 22.7194 14.1319C22.7625 13.9106 23.01 13.6369 23.25 13.3725ZM22.6931 12.87C22.3856 13.2094 22.0669 13.5619 21.9825 13.9875C21.8962 14.4262 22.0594 14.8819 22.215 15.3244C22.3481 15.6994 22.4869 16.0875 22.3969 16.3069C22.3012 16.5338 21.9244 16.7137 21.5588 16.8862C21.1406 17.085 20.7075 17.2894 20.4637 17.6531C20.2162 18.0225 20.1919 18.5025 20.1675 18.9675C20.1469 19.3688 20.1262 19.7831 19.9556 19.9556C19.7831 20.1262 19.3688 20.1469 18.9675 20.1675C18.5025 20.1919 18.0225 20.2162 17.6531 20.4637C17.2894 20.7075 17.0831 21.1406 16.8863 21.5588C16.7138 21.9244 16.5338 22.3012 16.3069 22.3969C16.0875 22.4869 15.6994 22.3481 15.3244 22.215C14.8819 22.0594 14.4263 21.8962 13.9875 21.9825C13.5619 22.0669 13.2094 22.3856 12.87 22.6931C12.5663 22.9669 12.2531 23.25 12 23.25C11.7469 23.25 11.4338 22.9669 11.13 22.6931C10.7906 22.3856 10.4381 22.0669 10.0125 21.9825C9.92789 21.9659 9.84184 21.9578 9.75562 21.9581C9.3839 21.9835 9.01896 22.0703 8.67562 22.215C8.30062 22.3481 7.9125 22.4869 7.69312 22.3969C7.46625 22.3012 7.28625 21.9244 7.11375 21.5588C6.915 21.1406 6.71062 20.7075 6.34687 20.4637C5.9775 20.2162 5.4975 20.1919 5.03251 20.1675C4.63126 20.1469 4.21688 20.1262 4.04438 19.9556C3.87376 19.7831 3.85313 19.3688 3.83251 18.9675C3.80813 18.5025 3.78376 18.0225 3.53626 17.6531C3.29251 17.2894 2.85938 17.0831 2.44126 16.8862C2.07563 16.7119 1.69876 16.5338 1.60313 16.3069C1.51313 16.0875 1.65188 15.6994 1.78501 15.3225C1.94063 14.8819 2.10376 14.4262 2.01751 13.9875C1.93313 13.5619 1.61438 13.2094 1.30688 12.87C1.03312 12.5662 0.75 12.2531 0.75 12C0.75 11.7469 1.03312 11.4338 1.30687 11.13C1.61437 10.7906 1.93313 10.4381 2.0175 10.0125C2.10375 9.57375 1.94063 9.11812 1.785 8.67562C1.65188 8.30062 1.51313 7.91251 1.60313 7.69312C1.69875 7.46625 2.07563 7.28625 2.44125 7.11375C2.85938 6.915 3.2925 6.71062 3.53625 6.34687C3.78375 5.9775 3.80813 5.4975 3.8325 5.0325C3.85313 4.63125 3.87375 4.21688 4.04437 4.04437C4.21688 3.87375 4.63125 3.85313 5.0325 3.8325C5.4975 3.80813 5.9775 3.78375 6.34687 3.53625C6.71062 3.2925 6.91687 2.85938 7.11374 2.44125C7.28624 2.07563 7.46624 1.69875 7.69312 1.60313C7.91249 1.51313 8.30062 1.65188 8.67562 1.785C9.11812 1.94063 9.57374 2.10375 10.0125 2.01751C10.4381 1.93313 10.7906 1.61438 11.13 1.30688C11.4338 1.03312 11.7469 0.75 12 0.75C12.2531 0.75 12.5662 1.03312 12.87 1.30687C13.2094 1.61437 13.5619 1.93313 13.9875 2.0175C14.4262 2.10375 14.8819 1.94062 15.3244 1.78499C15.6994 1.65187 16.0875 1.51312 16.3069 1.60312C16.5338 1.69874 16.7137 2.07562 16.8862 2.44124C17.085 2.85937 17.2894 3.29249 17.6531 3.53624C18.0225 3.78374 18.5025 3.80812 18.9675 3.83249C19.3687 3.85312 19.7831 3.87374 19.9556 4.04437C20.1262 4.21687 20.1469 4.63124 20.1675 5.03249C20.1919 5.49749 20.2162 5.97749 20.4637 6.34687C20.7075 6.71062 21.1406 6.91687 21.5587 7.11374C21.9244 7.28812 22.3012 7.46624 22.3969 7.69312C22.4869 7.91249 22.3481 8.30062 22.215 8.67749C22.0594 9.11812 21.8962 9.57374 21.9825 10.0125C22.0669 10.4381 22.3856 10.7906 22.6931 11.13C22.9669 11.4338 23.25 11.7469 23.25 12C23.25 12.2531 22.9669 12.5662 22.6931 12.87Z" fill="#2D4356"/>
<path d="M16.9799 16.125C16.8137 16.1245 16.6496 16.0867 16.4999 16.0144V16.5112C16.4982 16.6091 16.4578 16.7024 16.3875 16.7706C16.3173 16.8387 16.2228 16.8763 16.1249 16.875H7.87494C7.77704 16.8763 7.68262 16.8387 7.61234 16.7706C7.54206 16.7024 7.50164 16.6091 7.49994 16.5112V13.6481C7.49548 13.4334 7.51944 13.2191 7.57119 13.0106C7.65205 12.811 7.80356 12.6482 7.99682 12.5531C8.00432 12.5494 8.01181 12.5456 8.02119 12.5419L10.1906 11.3513L11.6962 13.11C11.7325 13.1517 11.7775 13.1851 11.828 13.2077C11.8785 13.2304 11.9333 13.2418 11.9887 13.2413H12.0206C12.0734 13.2401 12.1255 13.2278 12.1733 13.2052C12.2211 13.1826 12.2636 13.1501 12.2981 13.11L13.8093 11.3494L14.5124 11.7356L14.6531 11.715L14.9193 11.1469C14.9249 11.1356 14.9324 11.1244 14.9381 11.1131L13.9031 10.5469C13.8652 10.5256 13.824 10.5111 13.7812 10.5037V9.7575C14.0264 9.39286 14.157 8.9632 14.1562 8.52375V7.22625C14.1656 6.66311 13.9515 6.11919 13.5607 5.71362C13.1699 5.30805 12.6343 5.07392 12.0712 5.0625H11.9287C11.3656 5.07392 10.83 5.30805 10.4392 5.71362C10.0484 6.11919 9.83423 6.66311 9.84369 7.22625V8.52375C9.84284 8.9632 9.97344 9.39286 10.2187 9.7575V10.5037C10.1759 10.5111 10.1347 10.5256 10.0968 10.5469L7.66869 11.8781C7.28663 12.0634 6.99341 12.3924 6.85306 12.7931C6.77989 13.0746 6.7452 13.3648 6.74994 13.6556V16.5112C6.75189 16.808 6.87141 17.0918 7.08228 17.3006C7.29316 17.5094 7.5782 17.626 7.87494 17.625H16.1249C16.4217 17.626 16.7067 17.5094 16.9176 17.3006C17.1285 17.0918 17.248 16.808 17.2499 16.5112V16.0894C17.1616 16.1116 17.071 16.1235 16.9799 16.125ZM13.0312 11.1056L11.9981 12.3094L10.9687 11.1056V10.4419C11.2631 10.6027 11.5932 10.6872 11.9287 10.6875H12.0712C12.4067 10.6872 12.7368 10.6027 13.0312 10.4419V11.1056ZM10.5937 7.22625C10.5838 6.86188 10.7187 6.50845 10.969 6.24343C11.2192 5.97841 11.5644 5.82344 11.9287 5.8125H12.0712C12.4355 5.82344 12.7807 5.97841 13.0309 6.24343C13.2812 6.50845 13.4161 6.86188 13.4062 7.22625V8.52375C13.4161 8.88812 13.2812 9.24155 13.0309 9.50657C12.7807 9.77159 12.4355 9.92656 12.0712 9.9375H11.9287C11.5644 9.92656 11.2192 9.77159 10.969 9.50657C10.7187 9.24155 10.5838 8.88812 10.5937 8.52375V7.22625Z" fill="#2D4356"/>
<path d="M13.0313 10.4419V11.1056L11.9981 12.3094L10.9688 11.1056V10.4419C11.2632 10.6027 11.5933 10.6872 11.9288 10.6875H12.0713C12.4068 10.6872 12.7368 10.6027 13.0313 10.4419ZM13.4063 7.22625V8.52375C13.4162 8.88812 13.2813 9.24155 13.031 9.50657C12.7807 9.77159 12.4356 9.92656 12.0713 9.9375H11.9288C11.5644 9.92656 11.2193 9.77159 10.9691 9.50657C10.7188 9.24155 10.5838 8.88812 10.5938 8.52375V7.22625C10.5838 6.86188 10.7188 6.50845 10.969 6.24343C11.2193 5.97841 11.5644 5.82344 11.9288 5.8125H12.0713C12.4356 5.82344 12.7807 5.97841 13.031 6.24343C13.2813 6.50845 13.4162 6.86188 13.4063 7.22625Z" fill="#E1EBF4"/>
<path d="M17.9813 12.795C17.9592 12.7296 17.9195 12.6716 17.8665 12.6273C17.8136 12.583 17.7495 12.5541 17.6813 12.5437L16.7138 12.3956L16.2769 11.4656C16.2467 11.4012 16.1987 11.3466 16.1386 11.3085C16.0785 11.2703 16.0087 11.25 15.9375 11.25C15.8663 11.25 15.7966 11.2703 15.7365 11.3085C15.6764 11.3466 15.6284 11.4012 15.5982 11.4656L15.1613 12.3956L14.1938 12.5437C14.1255 12.5538 14.0613 12.5826 14.0084 12.6268C13.9555 12.6711 13.9158 12.7292 13.8939 12.7946C13.872 12.8601 13.8686 12.9303 13.8841 12.9976C13.8996 13.0648 13.9335 13.1264 13.9819 13.1756L14.6925 13.905L14.5238 14.94C14.5131 15.0095 14.522 15.0805 14.5496 15.1452C14.5771 15.2099 14.6222 15.2655 14.6798 15.3059C14.7373 15.3463 14.805 15.3697 14.8752 15.3737C14.9453 15.3776 15.0152 15.3618 15.0769 15.3281L15.9375 14.8519L16.7982 15.3281C16.86 15.3615 16.9299 15.3771 17.0001 15.3731C17.0703 15.3692 17.138 15.3458 17.1957 15.3056C17.2533 15.2654 17.2985 15.2098 17.326 15.1452C17.3535 15.0805 17.3623 15.0094 17.3513 14.94L17.1825 13.905L17.8932 13.1756C17.9414 13.1264 17.9752 13.0648 17.9907 12.9977C18.0063 12.9305 18.003 12.8604 17.9813 12.795ZM16.5132 13.5169C16.4716 13.5585 16.4407 13.6096 16.4231 13.6657C16.4054 13.7219 16.4016 13.7814 16.4119 13.8394L16.4869 14.2987L16.1194 14.0944C16.0637 14.0636 16.0012 14.0475 15.9375 14.0475C15.8739 14.0475 15.8114 14.0636 15.7557 14.0944L15.3882 14.2987L15.4632 13.8394C15.4735 13.7814 15.4696 13.7219 15.452 13.6657C15.4344 13.6096 15.4035 13.5585 15.3619 13.5169L15.0282 13.1737L15.4725 13.1062C15.5336 13.0972 15.5915 13.0731 15.6409 13.0361C15.6903 12.9991 15.7298 12.9504 15.7557 12.8944L15.9375 12.5081L16.1194 12.8944C16.1453 12.9504 16.1848 12.9991 16.2342 13.0361C16.2836 13.0731 16.3415 13.0972 16.4025 13.1062L16.8469 13.1737L16.5132 13.5169Z" fill="#2D4356"/>
<path d="M16.5133 13.5168C16.4717 13.5585 16.4408 13.6095 16.4232 13.6657C16.4056 13.7218 16.4018 13.7814 16.4121 13.8393L16.4871 14.2987L16.1196 14.0943C16.0639 14.0636 16.0013 14.0474 15.9377 14.0474C15.8741 14.0474 15.8115 14.0636 15.7558 14.0943L15.3883 14.2987L15.4633 13.8393C15.4736 13.7814 15.4698 13.7218 15.4522 13.6657C15.4345 13.6095 15.4036 13.5585 15.3621 13.5168L15.0283 13.1737L15.4727 13.1062C15.5338 13.0971 15.5916 13.073 15.6411 13.036C15.6905 12.9991 15.7299 12.9503 15.7558 12.8943L15.9377 12.5081L16.1196 12.8943C16.1455 12.9503 16.1849 12.9991 16.2343 13.036C16.2838 13.073 16.3416 13.0971 16.4027 13.1062L16.8471 13.1737L16.5133 13.5168Z" fill="#FFDB80"/>
<path opacity="0.5" d="M16.5 16.1362V16.5112C16.4983 16.6091 16.4579 16.7024 16.3876 16.7705C16.3173 16.8387 16.2229 16.8763 16.125 16.875H7.875C7.7771 16.8763 7.68268 16.8387 7.6124 16.7705C7.54212 16.7024 7.5017 16.6091 7.5 16.5112V16.1362C7.5017 16.2341 7.54212 16.3274 7.6124 16.3955C7.68268 16.4637 7.7771 16.5013 7.875 16.5H16.125C16.2229 16.5013 16.3173 16.4637 16.3876 16.3955C16.4579 16.3274 16.4983 16.2341 16.5 16.1362Z" fill="#A54B3F"/>
<path opacity="0.5" d="M13.4063 7.22625V7.60125C13.4162 7.23688 13.2813 6.88345 13.031 6.61843C12.7807 6.35341 12.4356 6.19844 12.0713 6.1875H11.9288C11.5644 6.19844 11.2193 6.35341 10.969 6.61843C10.7188 6.88345 10.5838 7.23688 10.5938 7.60125V7.22625C10.5838 6.86188 10.7188 6.50845 10.969 6.24343C11.2193 5.97841 11.5644 5.82344 11.9288 5.8125H12.0713C12.4356 5.82344 12.7807 5.97841 13.031 6.24343C13.2813 6.50845 13.4162 6.86188 13.4063 7.22625Z" fill="white"/>
<path opacity="0.5" d="M13.4063 8.14868V8.52368C13.4162 8.88805 13.2813 9.24148 13.031 9.5065C12.7807 9.77152 12.4356 9.92649 12.0713 9.93743H11.9288C11.5644 9.92649 11.2193 9.77152 10.9691 9.5065C10.7188 9.24148 10.5838 8.88805 10.5938 8.52368V8.14868C10.5838 8.51305 10.7188 8.86648 10.9691 9.1315C11.2193 9.39652 11.5644 9.55149 11.9288 9.56243H12.0713C12.4356 9.55149 12.7807 9.39652 13.031 9.1315C13.2813 8.86648 13.4162 8.51305 13.4063 8.14868Z" fill="#9FA5AA"/>
<path opacity="0.3" d="M14.5125 11.7356L14.0813 11.8012C14.0494 11.8069 14.0175 11.8125 13.9857 11.82L13.8094 11.7244L13.53 12.0487L13.5263 12.0525C13.4318 12.1316 13.3514 12.2261 13.2882 12.3319L12.2982 13.485C12.2637 13.5251 12.2212 13.5576 12.1734 13.5802C12.1256 13.6028 12.0735 13.6151 12.0207 13.6162H11.9888C11.9334 13.6168 11.8786 13.6054 11.8281 13.5827C11.7776 13.5601 11.7326 13.5267 11.6963 13.485L10.1907 11.7262L8.02129 12.9169C8.01191 12.9206 8.00441 12.9244 7.99691 12.9281C7.80366 13.0232 7.65215 13.186 7.57129 13.3856C7.52154 13.5842 7.49759 13.7884 7.50004 13.9931V13.6481C7.49558 13.4334 7.51954 13.219 7.57129 13.0106C7.65215 12.811 7.80366 12.6482 7.99691 12.5531C8.00441 12.5494 8.01191 12.5456 8.02129 12.5419L10.1907 11.3512L11.6963 13.11C11.7326 13.1517 11.7776 13.1851 11.8281 13.2077C11.8786 13.2304 11.9334 13.2418 11.9888 13.2412H12.0207C12.0735 13.2401 12.1256 13.2278 12.1734 13.2052C12.2212 13.1826 12.2637 13.1501 12.2982 13.11L13.8094 11.3494L14.5125 11.7356Z" fill="#F9DBD7"/>
<path opacity="0.25" d="M22.3969 16.3068C22.3013 16.5337 21.9244 16.7137 21.5588 16.8862C21.1407 17.0849 20.7076 17.2893 20.4638 17.6531C20.2163 18.0224 20.1919 18.5024 20.1676 18.9674C20.1469 19.3687 20.1263 19.783 19.9557 19.9555C19.7832 20.1262 19.3688 20.1468 18.9676 20.1674C18.5026 20.1918 18.0226 20.2162 17.6532 20.4637C17.2894 20.7074 17.0832 21.1405 16.8863 21.5587C16.7138 21.9243 16.5338 22.3012 16.3069 22.3968C16.0876 22.4868 15.6994 22.348 15.3244 22.2149C14.8819 22.0593 14.4263 21.8962 13.9876 21.9824C13.5619 22.0668 13.2094 22.3855 12.8701 22.693C12.5663 22.9668 12.2532 23.2499 12.0001 23.2499C11.7469 23.2499 11.4338 22.9668 11.1301 22.6931C10.7907 22.3856 10.4382 22.0668 10.0126 21.9824C9.92794 21.9659 9.8419 21.9577 9.75568 21.9581C9.38396 21.9834 9.01901 22.0702 8.67568 22.2149C8.30068 22.3481 7.91255 22.4868 7.69318 22.3968C7.4663 22.3012 7.2863 21.9243 7.1138 21.5587C6.91505 21.1406 6.71068 20.7074 6.34693 20.4637C5.97755 20.2162 5.49755 20.1918 5.03256 20.1674C4.63131 20.1468 4.21694 20.1262 4.04444 19.9556C3.87381 19.7831 3.85319 19.3687 3.83256 18.9674C3.80819 18.5024 3.78381 18.0224 3.53631 17.6531C3.29256 17.2893 2.85944 17.0831 2.44131 16.8862C2.07569 16.7118 1.69881 16.5337 1.60319 16.3068C1.56456 16.1823 1.56391 16.0492 1.60131 15.9243C1.60103 15.927 1.60169 15.9296 1.60319 15.9318C1.69881 16.1587 2.07569 16.3368 2.44131 16.5112C2.85944 16.7081 3.29256 16.9143 3.53631 17.2781C3.78381 17.6474 3.80819 18.1274 3.83256 18.5924C3.85319 18.9937 3.87381 19.4081 4.04444 19.5806C4.21694 19.7512 4.63131 19.7718 5.03256 19.7924C5.49756 19.8168 5.97756 19.8412 6.34693 20.0887C6.71068 20.3324 6.91505 20.7656 7.1138 21.1837C7.2863 21.5493 7.4663 21.9262 7.69318 22.0218C7.91255 22.1118 8.30068 21.9731 8.67568 21.8399C9.01901 21.6952 9.38396 21.6084 9.75568 21.5831C9.8419 21.5827 9.92794 21.5909 10.0126 21.6074C10.4382 21.6918 10.7907 22.0106 11.1301 22.3181C11.4338 22.5918 11.7469 22.8749 12.0001 22.8749C12.2532 22.8749 12.5663 22.5918 12.8701 22.3181C13.2094 22.0106 13.5619 21.6918 13.9876 21.6074C14.4263 21.5212 14.8819 21.6843 15.3244 21.8399C15.6994 21.9731 16.0876 22.1118 16.3069 22.0218C16.5338 21.9262 16.7138 21.5493 16.8863 21.1837C17.0832 20.7656 17.2894 20.3324 17.6532 20.0887C18.0226 19.8412 18.5026 19.8168 18.9675 19.7924C19.3688 19.7718 19.7832 19.7512 19.9557 19.5806C20.1263 19.4081 20.1469 18.9937 20.1675 18.5924C20.1919 18.1274 20.2163 17.6474 20.4638 17.2781C20.7075 16.9143 21.1407 16.7099 21.5588 16.5112C21.9244 16.3387 22.3013 16.1587 22.3969 15.9318C22.3984 15.9296 22.3991 15.927 22.3988 15.9243C22.4352 16.0493 22.4346 16.1822 22.3969 16.3068Z" fill="#0F423C"/>
<path opacity="0.3" d="M22.3986 8.07562C22.3988 8.07298 22.3982 8.07032 22.3967 8.06812C22.3011 7.84125 21.9242 7.66312 21.5586 7.48875C21.1404 7.29187 20.7073 7.08562 20.4636 6.72187C20.2161 6.3525 20.1917 5.8725 20.1673 5.40751C20.1467 5.00626 20.1261 4.59188 19.9554 4.41938C19.7829 4.24876 19.3686 4.22813 18.9673 4.20751C18.5023 4.18313 18.0223 4.15876 17.6529 3.91126C17.2892 3.66751 17.0848 3.23438 16.8861 2.81626C16.7136 2.45063 16.5336 2.07376 16.3067 1.97813C16.0873 1.88813 15.6992 2.02688 15.3242 2.16001C14.8817 2.31563 14.4261 2.47876 13.9873 2.39251C13.5617 2.30813 13.2092 1.98938 12.8698 1.68188C12.5661 1.40812 12.2529 1.125 11.9998 1.125C11.7467 1.125 11.4336 1.40813 11.1298 1.68188C10.7904 1.98937 10.4379 2.30813 10.0123 2.3925C9.57356 2.47875 9.11793 2.31563 8.67543 2.16C8.30043 2.02688 7.91231 1.88813 7.69293 1.97813C7.46606 2.07375 7.28606 2.45063 7.11356 2.81625C6.91668 3.23438 6.71043 3.6675 6.34668 3.91125C5.97731 4.15875 5.49731 4.18313 5.03232 4.2075C4.63107 4.22813 4.21669 4.24875 4.04419 4.41937C3.87357 4.59187 3.85294 5.00625 3.83232 5.4075C3.80794 5.8725 3.78357 6.3525 3.53607 6.72187C3.29232 7.08562 2.85919 7.28999 2.44107 7.48874C2.07544 7.66124 1.69857 7.84124 1.60294 8.06812C1.60145 8.07031 1.60078 8.07297 1.60107 8.07562C1.56464 7.95062 1.56529 7.81774 1.60294 7.69312C1.69857 7.46624 2.07544 7.28624 2.44107 7.11374C2.85919 6.91499 3.29232 6.71062 3.53607 6.34687C3.78357 5.97749 3.80794 5.49749 3.83232 5.0325C3.85294 4.63125 3.87357 4.21687 4.04419 4.04437C4.21669 3.87375 4.63107 3.85313 5.03232 3.8325C5.49732 3.80813 5.97731 3.78375 6.34668 3.53625C6.71043 3.2925 6.91668 2.85938 7.11356 2.44125C7.28606 2.07563 7.46606 1.69875 7.69293 1.60313C7.91231 1.51313 8.30043 1.65188 8.67543 1.785C9.11793 1.94063 9.57356 2.10375 10.0123 2.0175C10.4379 1.93313 10.7904 1.61437 11.1298 1.30687C11.4336 1.03312 11.7467 0.75 11.9998 0.75C12.2529 0.75 12.5661 1.03312 12.8698 1.30687C13.2092 1.61437 13.5617 1.93313 13.9873 2.0175C14.4261 2.10375 14.8817 1.94063 15.3242 1.785C15.6992 1.65188 16.0873 1.51313 16.3067 1.60313C16.5336 1.69875 16.7136 2.07563 16.8861 2.44125C17.0848 2.85938 17.2892 3.2925 17.6529 3.53625C18.0223 3.78375 18.5023 3.80813 18.9673 3.8325C19.3685 3.85313 19.7829 3.87375 19.9554 4.04437C20.126 4.21687 20.1467 4.63125 20.1673 5.0325C20.1917 5.4975 20.216 5.9775 20.4635 6.34687C20.7073 6.71062 21.1404 6.91687 21.5585 7.11374C21.9242 7.28812 22.301 7.46624 22.3967 7.69312C22.4353 7.8176 22.436 7.95077 22.3986 8.07562Z" fill="#E8FBFC"/>
</g>
</g>
<defs>
<clipPath id="clip0_938_2763">
<rect width="24" height="24" fill="white"/>
</clipPath>
<clipPath id="clip1_938_2763">
<rect width="24" height="24" fill="white"/>
</clipPath>
</defs>
</svg>
