<svg width="23" height="22" viewBox="0 0 23 22" fill="none" xmlns="http://www.w3.org/2000/svg">
<path fill-rule="evenodd" clip-rule="evenodd" d="M22.1242 0.792921C22.4047 1.06456 22.4997 1.46779 22.3686 1.83038L15.5024 20.8304C15.3626 21.2174 14.9929 21.4825 14.5699 21.4992C14.1469 21.5159 13.7563 21.2808 13.5843 20.9062L9.82206 12.7076L1.35695 9.06384C0.970087 8.89731 0.727381 8.51894 0.744638 8.10926C0.761895 7.69959 1.03562 7.34162 1.4352 7.20617L21.053 0.55617C21.4274 0.429264 21.8437 0.521283 22.1242 0.792921ZM11.8358 12.1715L14.4137 17.789L18.9249 5.30571L11.8358 12.1715ZM17.4647 3.8915L4.57552 8.26063L10.3756 10.7573L17.4647 3.8915Z" fill="white"/>
</svg>
