<svg width="24" height="24" viewBox="0 0 24 24" fill="none" xmlns="http://www.w3.org/2000/svg">
<g clip-path="url(#clip0_933_794)">
<path d="M22.5001 9.2625C22.1251 8.8875 21.8626 8.475 21.6751 7.9875C21.4876 7.5375 21.3751 7.0125 21.3751 6.525C21.3751 6.375 21.3751 6.1875 21.3376 6.0375C21.1876 6 21.0376 6 20.8501 6C20.3251 6 19.8376 5.8875 19.3501 5.7C18.9001 5.5125 18.4501 5.2125 18.1126 4.875C17.3626 4.125 16.3501 3.75 15.3751 3.75C14.4001 3.75 13.3876 4.125 12.6376 4.875C12.2626 5.25 11.8501 5.5125 11.4001 5.7C10.9501 5.8875 10.4251 6 9.9001 6C8.8126 6 7.8751 6.45 7.1626 7.125C6.4501 7.8375 6.0376 8.8125 6.0376 9.8625C6.0376 10.3875 5.9251 10.875 5.7376 11.325C5.5501 11.775 5.2501 12.225 4.9126 12.6C4.1626 13.35 3.7876 14.3625 3.7876 15.3375C3.7876 16.3125 4.1626 17.325 4.9126 18.075C5.1001 18.2625 5.2501 18.45 5.3626 18.6375C4.8751 19.2375 4.8001 20.1375 5.2876 20.7375C5.5126 21 5.7751 21.15 6.0376 21.225V21.2625C6.1876 21.2625 6.3376 21.3 6.5251 21.3C7.0501 21.3 7.5376 21.4125 8.0251 21.6C8.4751 21.7875 8.9251 22.0875 9.2626 22.425C10.0126 23.175 11.0251 23.55 12.0001 23.55C12.9751 23.55 13.9876 23.175 14.7376 22.425C15.1126 22.05 15.5251 21.7875 15.9751 21.6C16.4251 21.4125 16.9501 21.3 17.4751 21.3C18.5626 21.3 19.5001 20.85 20.2126 20.175C20.9251 19.5 21.3376 18.4875 21.3376 17.4375C21.3376 16.9125 21.4501 16.425 21.6376 15.9375C21.8251 15.4875 22.1251 15.0375 22.4626 14.7C24.0001 13.2375 24.0001 10.7625 22.5001 9.2625ZM12.5626 8.55C12.0001 9.375 11.2501 11.3625 10.9501 12.3C10.5001 13.6875 9.6001 17.85 9.6001 17.85C8.6626 18.375 7.5001 17.5125 7.7626 16.425L8.0251 15.375C8.2876 14.325 7.9501 13.2375 7.1626 12.525L6.4126 11.85C5.5876 11.1 6.0751 9.7125 7.1626 9.6375L9.0001 9.525C9.4876 9.4875 9.9001 9.1875 10.0876 8.7375L10.8001 6.9C11.2126 5.8125 12.7126 5.8125 13.1251 6.9L13.5001 7.8375C13.1251 7.8375 12.8626 8.1375 12.5626 8.55Z" fill="#3EBDA7"/>
<path d="M12 24C10.9125 24 9.825 23.5875 9 22.7625C8.325 22.0875 7.425 21.7125 6.6 21.7125C6 21.75 5.4 21.4875 4.9875 21C4.35 20.25 4.4625 19.0125 5.175 18.3L7.0125 16.4625C7.35 16.125 7.575 15.7125 7.6875 15.2625C7.9125 14.3625 7.6125 13.3875 6.9375 12.75L6.1875 12.075C5.7 11.625 5.5125 10.95 5.7375 10.3125C5.9625 9.675 6.4875 9.2625 7.1625 9.225L9 9.1125C9.3375 9.075 9.6375 8.85 9.75 8.55L10.4625 6.7125C10.725 6.075 11.2875 5.6625 12 5.6625C12.675 5.6625 13.275 6.075 13.5375 6.7125L14.25 8.55C14.3625 8.8875 14.6625 9.075 15 9.1125L16.8375 9.225C17.5125 9.2625 18.0375 9.675 18.2625 10.3125C18.4875 10.95 18.3 11.625 17.8125 12.075L16.3125 13.425C16.05 13.65 15.975 13.9875 16.05 14.325L16.5375 16.35C16.6875 17.025 16.4625 17.7 15.8625 18.1125C15.3 18.4875 14.625 18.525 14.0625 18.1125C13.5375 17.775 12.7125 17.2125 12.7125 17.2125C12.075 16.7625 11.2125 16.6875 10.5 16.9875C10.3125 17.0625 10.0875 16.9875 10.0125 16.8C9.9375 16.6125 10.0125 16.3875 10.2 16.3125C11.1375 15.9 12.2625 16.0125 13.125 16.6125C13.125 16.6125 13.95 17.1375 14.475 17.5125C14.775 17.7 15.15 17.7 15.45 17.5125C15.7125 17.325 15.9375 16.9875 15.825 16.5375L15.3375 14.5125C15.1875 13.9125 15.375 13.3125 15.825 12.9L17.325 11.55C17.6625 11.25 17.6625 10.875 17.5875 10.575C17.475 10.2375 17.175 10.0125 16.8 9.975L14.9625 9.8625C14.325 9.825 13.8 9.4125 13.5375 8.8125L12.825 6.975C12.675 6.525 12.3 6.375 12 6.375C11.7 6.375 11.325 6.525 11.175 6.9375L10.4625 8.775C10.2375 9.375 9.675 9.7875 9.0375 9.825L7.2 9.9375C6.825 9.975 6.5625 10.2 6.4125 10.5375C6.3 10.8 6.3375 11.2125 6.675 11.5125L7.425 12.1875C8.325 13.0125 8.7 14.25 8.4 15.4125C8.25 15.975 7.95 16.5375 7.5375 16.95L5.7 18.7875C5.25 19.2375 5.175 20.025 5.5875 20.475C5.85 20.775 6.225 20.925 6.6 20.925C7.65 20.8875 8.7375 21.3375 9.5625 22.1625C10.2 22.875 11.0625 23.25 12 23.25C12.9375 23.25 13.8 22.875 14.475 22.2375C15.3 21.4125 16.35 21 17.475 21C19.3875 21 20.9625 19.425 20.9625 17.5125C20.9625 16.3875 21.4125 15.3 22.2 14.5125C23.55 13.1625 23.55 10.9125 22.2 9.5625C21.4125 8.775 20.9625 7.6875 20.9625 6.5625C20.9625 4.65 19.3875 3.075 17.475 3.075C16.35 3.075 15.2625 2.625 14.475 1.8375C13.8 1.125 12.9375 0.75 12 0.75C11.0625 0.75 10.2 1.125 9.525 1.7625C8.7375 2.55 7.65 3 6.525 3C4.6125 3 3.0375 4.575 3.0375 6.4875C3.0375 7.6125 2.5875 8.7 1.8 9.4875C0.4125 10.875 0.4125 13.125 1.7625 14.475C2.55 15.2625 3 16.35 3 17.475C3 17.7 2.85 17.85 2.625 17.85C2.4 17.85 2.25 17.7 2.25 17.475C2.25 16.5375 1.875 15.675 1.2375 15C-0.4125 13.35 -0.4125 10.65 1.2375 9C1.9125 8.325 2.25 7.4625 2.25 6.525C2.25 4.2 4.1625 2.2875 6.4875 2.2875C7.425 2.2875 8.2875 1.9125 8.9625 1.275C9.7875 0.45 10.875 0 12 0C13.125 0 14.2125 0.45 15 1.2375C15.675 1.9125 16.5375 2.25 17.475 2.25C19.8375 2.25 21.7125 4.1625 21.7125 6.4875C21.7125 7.425 22.0875 8.2875 22.725 8.9625C24.375 10.6125 24.375 13.3125 22.725 14.9625C22.05 15.6375 21.7125 16.5 21.7125 17.4375C21.7125 19.7625 19.8 21.675 17.475 21.675C16.5375 21.675 15.675 22.05 15 22.6875C14.175 23.5875 13.0875 24 12 24Z" fill="#5E52C4"/>
</g>
<defs>
<clipPath id="clip0_933_794">
<rect width="24" height="24" fill="white"/>
</clipPath>
</defs>
</svg>
