<svg width="24" height="24" viewBox="0 0 24 24" fill="none" xmlns="http://www.w3.org/2000/svg">
<g clip-path="url(#clip0_933_767)">
<path d="M17.2998 9.9999V4.0999C17.2998 3.2499 16.5998 2.5999 15.7998 2.5999C14.9998 2.5999 14.2998 3.2999 14.2998 4.0999V1.8999C14.2998 1.0499 13.5998 0.399902 12.7998 0.399902C11.9498 0.399902 11.2998 1.0999 11.2998 1.8999V3.6499C11.2998 2.7999 10.5998 2.1499 9.79981 2.1499C8.94981 2.1499 8.29981 2.8499 8.29981 3.6499V7.0999C8.29981 6.2499 7.5998 5.5999 6.7998 5.5999C5.9998 5.5999 5.2998 6.2999 5.2998 7.0999V16.7999C5.2998 20.5499 8.34981 23.5999 12.0998 23.5999C15.8498 23.5999 18.8998 20.5499 18.8998 16.7999V11.4999C18.7998 10.6499 18.1498 9.9999 17.2998 9.9999Z" fill="#FFCF0E"/>
<path d="M11.6001 22.45C11.4001 22.45 11.2001 22.4 11.0001 22.35C10.8001 22.3 10.6501 22.1 10.7001 21.9C10.7501 21.7 10.9501 21.55 11.1501 21.6C11.3001 21.65 11.5001 21.65 11.6501 21.65C11.8501 21.65 12.0001 21.85 12.0001 22.05C11.9501 22.3 11.8001 22.45 11.6001 22.45ZM9.60012 21.9C7.95012 21.1 6.75012 19.6 6.45012 17.8C6.40012 17.6 6.55012 17.4 6.75012 17.35C6.95012 17.3 7.15012 17.45 7.20012 17.65C7.50012 19.2 8.50012 20.55 9.95012 21.25C10.1501 21.35 10.2001 21.55 10.1501 21.75C10.0001 21.95 9.75012 22 9.60012 21.9Z" fill="white"/>
<path d="M11.9998 23.95C8.0498 23.95 4.7998 20.75 4.7998 16.75V7.1C4.7998 6.05 5.6498 5.2 6.6998 5.2C7.1498 5.2 7.4998 5.35 7.8498 5.6V3.65C7.8498 2.6 8.6998 1.75 9.7498 1.75C10.1998 1.75 10.5498 1.9 10.8998 2.15V1.9C10.8998 0.85 11.7498 0 12.7998 0C13.8498 0 14.6998 0.85 14.6998 1.9V2.6C14.9998 2.35 15.3998 2.2 15.8498 2.2C16.8998 2.2 17.7498 3.05 17.7498 4.1V9.65C18.5998 9.8 19.2498 10.6 19.2498 11.5V16.8C19.1998 20.75 15.9498 23.95 11.9998 23.95ZM6.6998 5.95C6.0498 5.95 5.5498 6.45 5.5498 7.1V16.8C5.5498 20.35 8.4498 23.25 11.9998 23.25C15.5498 23.25 18.4498 20.35 18.4498 16.8V11.5C18.4498 10.85 17.9498 10.35 17.2998 10.35C17.0998 10.35 16.8998 10.2 16.8998 9.95V4.1C16.8998 3.45 16.3998 2.95 15.7498 2.95C15.0998 2.95 14.5998 3.45 14.5998 4.1C14.6498 4.3 14.4998 4.5 14.2498 4.5C13.9998 4.5 13.8498 4.35 13.8498 4.1V1.9C13.8498 1.25 13.3498 0.75 12.6998 0.75C12.0498 0.75 11.5498 1.25 11.5498 1.9V3.65C11.5498 3.85 11.3998 4.05 11.1498 4.05C10.8998 4.05 10.7498 3.9 10.7498 3.65C10.7498 3 10.2498 2.5 9.5998 2.5C8.9498 2.5 8.4498 3 8.4498 3.65V7.1C8.4498 7.3 8.2998 7.5 8.0498 7.5C7.7998 7.5 7.6498 7.35 7.6498 7.1C7.8498 6.5 7.3498 5.95 6.6998 5.95Z" fill="#333333"/>
<path d="M8.1998 11.85C7.9998 11.85 7.7998 11.7 7.7998 11.45V7.1C7.7998 6.9 7.9498 6.7 8.1998 6.7C8.4498 6.7 8.5998 6.85 8.5998 7.1V11.5C8.5998 11.7 8.3998 11.85 8.1998 11.85ZM11.2498 10.9C11.0498 10.9 10.8498 10.75 10.8498 10.5V3.65C10.8498 3.45 10.9998 3.25 11.2498 3.25C11.4998 3.25 11.6498 3.4 11.6498 3.65V10.55C11.5998 10.75 11.4498 10.9 11.2498 10.9ZM14.2498 10.7C14.0498 10.7 13.8498 10.55 13.8498 10.3V4.1C13.8498 3.9 13.9998 3.7 14.2498 3.7C14.4998 3.7 14.6498 3.85 14.6498 4.1V10.3C14.6498 10.5 14.4998 10.7 14.2498 10.7Z" fill="#333333"/>
<path d="M20.3002 16.1H3.7002C3.1502 16.1 2.7002 15.65 2.7002 15.1V6.19995C2.7002 5.64995 3.1502 5.19995 3.7002 5.19995H20.3002C20.8502 5.19995 21.3002 5.64995 21.3002 6.19995V15.05C21.3002 15.65 20.8502 16.1 20.3002 16.1Z" fill="white"/>
<path d="M20.2498 16.5001H3.7498C2.9498 16.5001 2.2998 15.8501 2.2998 15.0501V6.3001C2.2998 5.5001 2.9498 4.8501 3.7498 4.8501H20.2498C21.0498 4.8501 21.6998 5.5001 21.6998 6.3001V15.0001C21.6998 15.8501 21.0498 16.5001 20.2498 16.5001ZM3.7498 5.6001C3.3998 5.6001 3.0998 5.9001 3.0998 6.2501V15.0001C3.0998 15.3501 3.3998 15.6501 3.7498 15.6501H20.2498C20.5998 15.6501 20.8998 15.3501 20.8998 15.0001V6.3001C20.8998 5.9501 20.5998 5.6501 20.2498 5.6501H3.7498V5.6001Z" fill="#333333"/>
<path d="M4.5 12.25V9C5.6 9 6.5 8.1 6.5 7H17.5C17.5 8.1 18.4 9 19.5 9V12.25C18.4 12.25 17.5 13.15 17.5 14.25H6.5C6.5 13.15 5.6 12.25 4.5 12.25Z" fill="#D2D2D2"/>
<path d="M17.3501 14.65H6.6501C6.4501 14.65 6.2501 14.45 6.2501 14.25C6.2501 13.3 5.5001 12.5 4.5001 12.5C4.3001 12.5 4.1001 12.3 4.1001 12.1V9.10005C4.1001 8.90005 4.3001 8.70005 4.5001 8.70005C5.4501 8.70005 6.2501 7.95005 6.2501 6.95005C6.2501 6.75005 6.4501 6.55005 6.6501 6.55005H17.4001C17.6001 6.55005 17.8001 6.75005 17.8001 6.95005C17.8001 7.90005 18.5501 8.70005 19.5501 8.70005C19.7501 8.70005 19.9501 8.90005 19.9501 9.10005V12.1C19.9501 12.3 19.7501 12.5 19.5501 12.5C18.6001 12.5 17.8001 13.25 17.8001 14.25C17.7501 14.5 17.6001 14.65 17.3501 14.65ZM7.0001 13.85H17.0001C17.1501 12.8 18.0001 11.95 19.1001 11.75V9.50005C18.0501 9.35005 17.2001 8.50005 17.0001 7.40005H7.0001C6.8501 8.45005 6.0001 9.30005 4.9001 9.50005V11.75C6.0001 11.95 6.8501 12.8 7.0001 13.85Z" fill="#333333"/>
<path d="M12.0001 13.1499C13.0494 13.1499 13.9001 12.0306 13.9001 10.6499C13.9001 9.26919 13.0494 8.1499 12.0001 8.1499C10.9508 8.1499 10.1001 9.26919 10.1001 10.6499C10.1001 12.0306 10.9508 13.1499 12.0001 13.1499Z" fill="#E44B4B"/>
<path d="M12.0002 13.55C10.7002 13.55 9.7002 12.25 9.7002 10.65C9.7002 9.05 10.7502 7.75 12.0002 7.75C13.2502 7.75 14.3002 9.05 14.3002 10.65C14.3002 12.25 13.3002 13.55 12.0002 13.55ZM12.0002 8.55C11.1502 8.55 10.5002 9.5 10.5002 10.65C10.5002 11.8 11.2002 12.75 12.0002 12.75C12.8002 12.75 13.5002 11.8 13.5002 10.65C13.5002 9.5 12.8502 8.55 12.0002 8.55Z" fill="#333333"/>
<path d="M16.3002 11.7C16.7696 11.7 17.1502 11.3194 17.1502 10.85C17.1502 10.3806 16.7696 10 16.3002 10C15.8308 10 15.4502 10.3806 15.4502 10.85C15.4502 11.3194 15.8308 11.7 16.3002 11.7Z" fill="#FEB80F"/>
<path d="M16.2998 12.1001C15.5998 12.1001 15.0498 11.5501 15.0498 10.8501C15.0498 10.1501 15.5998 9.6001 16.2998 9.6001C16.9998 9.6001 17.5498 10.1501 17.5498 10.8501C17.5498 11.5501 16.9998 12.1001 16.2998 12.1001ZM16.2998 10.4001C16.0498 10.4001 15.8498 10.6001 15.8498 10.8501C15.8498 11.1001 16.0498 11.3001 16.2998 11.3001C16.5498 11.3001 16.7498 11.1001 16.7498 10.8501C16.7498 10.6001 16.5498 10.4001 16.2998 10.4001Z" fill="#333333"/>
<path d="M7.7001 11.7C8.16954 11.7 8.5501 11.3194 8.5501 10.85C8.5501 10.3806 8.16954 10 7.7001 10C7.23066 10 6.8501 10.3806 6.8501 10.85C6.8501 11.3194 7.23066 11.7 7.7001 11.7Z" fill="#FEB80F"/>
<path d="M7.7002 12.1001C7.0002 12.1001 6.4502 11.5501 6.4502 10.8501C6.4502 10.1501 7.0002 9.6001 7.7002 9.6001C8.4002 9.6001 8.9502 10.1501 8.9502 10.8501C8.9002 11.5501 8.3502 12.1001 7.7002 12.1001ZM7.7002 10.4001C7.4502 10.4001 7.2502 10.6001 7.2502 10.8501C7.2502 11.1001 7.4502 11.3001 7.7002 11.3001C7.9502 11.3001 8.1502 11.1001 8.1502 10.8501C8.1502 10.6001 7.9002 10.4001 7.7002 10.4001Z" fill="#333333"/>
<path d="M18.7998 16.45V11.5C18.7998 10.65 18.0998 10 17.2998 10C16.4498 10 15.7998 10.7 15.7998 11.5V14.3C15.7998 15.35 15.0498 16.25 14.0498 16.5C13.0498 16.75 12.2998 17.65 12.2998 18.7V19.25" fill="#FFCF0E"/>
<path d="M12.2999 19.5501C12.0999 19.5501 11.8999 19.4001 11.8999 19.1501V18.6001C11.8999 17.3501 12.7499 16.3001 13.9499 16.0501C14.7999 15.8501 15.3999 15.1001 15.3999 14.2501V11.5001C15.3999 10.4501 16.2499 9.6001 17.2999 9.6001C18.3499 9.6001 19.1999 10.4501 19.1999 11.5001V16.4501C19.1999 16.6501 19.0499 16.8501 18.7999 16.8501C18.5499 16.8501 18.3999 16.7001 18.3999 16.4501V11.5001C18.3999 10.8501 17.8999 10.3501 17.2499 10.3501C16.5999 10.3501 16.0999 10.8501 16.0999 11.5001V14.2501C16.0999 15.5001 15.2499 16.5501 14.0499 16.8001C13.1999 17.0001 12.5999 17.7501 12.5999 18.6001V19.1501C12.6499 19.4001 12.4999 19.5501 12.2999 19.5501Z" fill="#333333"/>
</g>
<defs>
<clipPath id="clip0_933_767">
<rect width="24" height="24" fill="white"/>
</clipPath>
</defs>
</svg>
