<svg width="45" height="45" viewBox="0 0 45 45" fill="none" xmlns="http://www.w3.org/2000/svg">
<g clip-path="url(#clip0_728_9658)">
<g clip-path="url(#clip1_728_9658)">
<path d="M42.3632 22.5C43.3564 21.5771 43.8749 20.1885 43.6201 18.7646C43.3652 17.332 42.4072 16.207 41.1679 15.6797C41.7831 14.4756 41.8007 12.9902 41.08 11.7334C40.3593 10.4766 39.0673 9.74707 37.7226 9.67676C37.8896 8.33203 37.4062 6.93457 36.29 6.00293C35.7655 5.56011 35.1375 5.25701 34.4645 5.12179C33.7915 4.98658 33.0952 5.02362 32.4404 5.22949C32.1415 3.91113 31.2011 2.75977 29.8476 2.26758C28.4853 1.7666 27.0351 2.03906 25.9628 2.86523C25.2158 1.72266 23.9501 0.966797 22.4999 0.966797C21.0498 0.966797 19.7841 1.72266 19.0546 2.85645C17.9824 2.03906 16.5322 1.7666 15.1699 2.25879C13.8076 2.75977 12.8671 3.90234 12.5771 5.2207C11.9222 5.01483 11.226 4.97779 10.553 5.11301C9.87995 5.24822 9.25202 5.55132 8.72749 5.99414C7.60249 6.94336 7.11909 8.34082 7.28608 9.67676C5.94135 9.73828 4.64936 10.4678 3.92866 11.7334C3.20796 12.9902 3.21675 14.4756 3.84077 15.6797C2.60151 16.207 1.63471 17.332 1.38862 18.7646C1.13374 20.1973 1.65229 21.5859 2.64546 22.5C1.65229 23.4229 1.13374 24.8115 1.38862 26.2354C1.6435 27.668 2.60151 28.793 3.84077 29.3203C3.22553 30.5244 3.20796 32.0098 3.92866 33.2666C4.64936 34.5234 5.94135 35.2529 7.28608 35.3232C7.11909 36.668 7.60249 38.0654 8.7187 38.9971C9.24323 39.4399 9.87116 39.743 10.5442 39.8782C11.2172 40.0134 11.9134 39.9764 12.5683 39.7705C12.8671 41.0889 13.8076 42.2402 15.1611 42.7324C16.5234 43.2334 17.9736 42.9609 19.0458 42.1348C19.7753 43.2773 21.0498 44.0244 22.4912 44.0244C23.9414 44.0244 25.207 43.2686 25.9365 42.1348C27.0087 42.9521 28.4589 43.2246 29.8212 42.7324C31.1835 42.2314 32.124 41.0889 32.414 39.7705C33.6972 40.1748 35.1562 39.9287 36.2636 38.9971C37.371 38.0654 37.8632 36.6592 37.6962 35.3232C39.041 35.2617 40.333 34.5322 41.0537 33.2666C41.7744 32.0098 41.7656 30.5244 41.1415 29.3203C42.3808 28.793 43.3476 27.668 43.5937 26.2354C43.8662 24.8115 43.3476 23.4229 42.3632 22.5Z" fill="white"/>
<path d="M22.5 44.6924C21.0937 44.6924 19.793 44.0859 18.8965 43.0312C17.6924 43.708 16.2598 43.8311 14.9414 43.3564C13.623 42.873 12.6035 41.8535 12.1201 40.5615C10.7578 40.79 9.36913 40.4121 8.29686 39.5068C7.2246 38.6016 6.61815 37.292 6.60057 35.9033C5.24706 35.6484 4.06932 34.8135 3.3662 33.6006C2.66307 32.3789 2.54003 30.9375 2.99706 29.6367C1.81053 28.9336 0.984362 27.7471 0.738269 26.3584C0.492175 24.9697 0.870104 23.5723 1.74022 22.5088C0.861315 21.4365 0.492175 20.0391 0.738269 18.6592C0.984362 17.2705 1.81053 16.084 2.99706 15.3809C2.54003 14.0713 2.66307 12.6299 3.3662 11.417C4.06932 10.1953 5.24706 9.36914 6.60057 9.11426C6.61815 7.73437 7.2246 6.41602 8.29686 5.51074C9.36913 4.60547 10.7666 4.22754 12.1201 4.45605C12.6035 3.16406 13.623 2.13574 14.9414 1.66113C16.2598 1.17773 17.6924 1.30078 18.8965 1.98633C19.793 0.914063 21.0937 0.307617 22.5 0.307617C23.9062 0.307617 25.207 0.914062 26.1035 1.96875C27.3076 1.29199 28.7402 1.16895 30.0586 1.64355C31.3769 2.12695 32.3965 3.14648 32.8799 4.43848C34.2422 4.20996 35.6308 4.58789 36.7031 5.49316C37.7754 6.39844 38.3818 7.70801 38.3994 9.09668C39.7529 9.35156 40.9307 10.1865 41.6338 11.3994C42.3369 12.6211 42.4599 14.0625 42.0029 15.3633C43.1894 16.0664 44.0156 17.2529 44.2617 18.6416C44.5078 20.0303 44.1299 21.4277 43.2598 22.4912C44.1387 23.5635 44.5078 24.9609 44.2617 26.3408C44.0156 27.7295 43.1894 28.916 42.0029 29.6191C42.4599 30.9287 42.3369 32.3701 41.6338 33.583C40.9307 34.8047 39.7529 35.6309 38.3994 35.8857C38.3818 37.2656 37.7754 38.584 36.7031 39.4893C35.6308 40.3945 34.2334 40.7725 32.8799 40.5439C32.3965 41.8359 31.3769 42.8643 30.0586 43.3389C28.7402 43.8223 27.3076 43.6992 26.1035 43.0137C25.207 44.0859 23.9062 44.6924 22.5 44.6924ZM19.0547 41.4844C19.0898 41.4844 19.1338 41.4844 19.1689 41.4932C19.3535 41.5283 19.5117 41.6338 19.6084 41.7832C20.25 42.7764 21.331 43.374 22.5 43.374C23.6777 43.374 24.7588 42.7764 25.3916 41.7832C25.4883 41.625 25.6465 41.5195 25.831 41.4932C26.0156 41.458 26.2002 41.5107 26.3496 41.6162C27.29 42.3281 28.5029 42.5215 29.6103 42.1172C30.7178 41.7129 31.5264 40.7812 31.79 39.6299C31.834 39.4541 31.9482 39.2959 32.1064 39.208C32.2646 39.1201 32.458 39.0938 32.6338 39.1465C33.7588 39.498 34.9629 39.252 35.8682 38.4961C36.7734 37.7402 37.2217 36.5801 37.0723 35.4111C37.0459 35.2266 37.1074 35.042 37.2217 34.9014C37.3359 34.7607 37.5117 34.6729 37.6963 34.6641C38.874 34.6113 39.9287 33.9609 40.5176 32.9414C41.1064 31.9219 41.1328 30.6826 40.5967 29.6279C40.5088 29.4609 40.5 29.2764 40.5615 29.1006C40.623 28.9248 40.7549 28.793 40.9219 28.7227C42.0117 28.2656 42.7764 27.2988 42.9873 26.1387C43.1894 24.9785 42.7939 23.8008 41.9326 23.001C41.8008 22.8779 41.7217 22.7022 41.7217 22.5176C41.7217 22.333 41.8008 22.1572 41.9326 22.0342C42.8027 21.2344 43.1982 20.0566 42.9873 18.8965C42.7851 17.7363 42.0117 16.7695 40.9219 16.3125C40.7549 16.2422 40.623 16.1016 40.5615 15.9346C40.5 15.7676 40.5088 15.5742 40.5967 15.4072C41.1328 14.3525 41.1064 13.1133 40.5176 12.0938C39.9287 11.0742 38.874 10.4238 37.6963 10.3711C37.5117 10.3623 37.3447 10.2744 37.2217 10.1338C37.1074 9.99316 37.0459 9.80859 37.0723 9.62402C37.2217 8.44629 36.7734 7.29492 35.8682 6.53906C34.9717 5.7832 33.7588 5.53711 32.6338 5.88867C32.458 5.94141 32.2646 5.92383 32.1064 5.82715C31.9482 5.73926 31.834 5.58105 31.79 5.40527C31.5264 4.25391 30.7178 3.32227 29.6103 2.91797C28.5029 2.51367 27.29 2.69824 26.3496 3.41895C26.2002 3.5332 26.0156 3.57715 25.831 3.54199C25.6465 3.50684 25.4883 3.40137 25.3916 3.25195C24.75 2.25879 23.6689 1.66113 22.5 1.66113C21.3223 1.66113 20.2412 2.25879 19.6084 3.25195C19.5117 3.41016 19.3535 3.51562 19.1689 3.54199C18.9844 3.57715 18.7998 3.52441 18.6504 3.41895C17.7099 2.70703 16.4971 2.51367 15.3896 2.91797C14.2822 3.32227 13.4736 4.25391 13.2099 5.40527C13.166 5.58105 13.0517 5.73926 12.8935 5.82715C12.7353 5.91504 12.542 5.94141 12.3662 5.88867C11.2412 5.53711 10.0371 5.7832 9.13182 6.53906C8.22655 7.29492 7.77831 8.45508 7.92772 9.62402C7.95409 9.80859 7.89257 9.99316 7.77831 10.1338C7.66405 10.2744 7.48827 10.3623 7.3037 10.3711C6.12596 10.4238 5.07128 11.0742 4.48241 12.0938C3.89354 13.1133 3.86717 14.3525 4.40331 15.4072C4.4912 15.5742 4.49999 15.7588 4.43846 15.9346C4.37694 16.1104 4.2451 16.2422 4.07811 16.3125C2.98827 16.7695 2.22362 17.7363 2.01268 18.8965C1.81053 20.0566 2.20604 21.2344 3.06737 22.0342C3.19921 22.1572 3.27831 22.333 3.27831 22.5176C3.27831 22.7022 3.19921 22.8779 3.06737 23.001C2.19725 23.8008 1.80175 24.9785 2.01268 26.1387C2.21483 27.2988 2.98827 28.2656 4.07811 28.7227C4.2451 28.793 4.37694 28.9336 4.43846 29.1006C4.49999 29.2764 4.4912 29.4609 4.40331 29.6279C3.86717 30.6826 3.89354 31.9219 4.48241 32.9414C5.07128 33.9609 6.12596 34.6113 7.3037 34.6641C7.48827 34.6729 7.65526 34.7607 7.77831 34.9014C7.89257 35.042 7.95409 35.2266 7.92772 35.4111C7.77831 36.5889 8.22655 37.7402 9.13182 38.4961C10.0283 39.252 11.2412 39.498 12.3662 39.1465C12.542 39.0938 12.7353 39.1113 12.8935 39.208C13.0517 39.2959 13.166 39.4541 13.2099 39.6299C13.4736 40.7812 14.2822 41.7129 15.3896 42.1172C16.4971 42.5215 17.7099 42.3369 18.6504 41.6162C18.7646 41.5283 18.9053 41.4844 19.0547 41.4844Z" fill="black"/>
<path d="M22.5 37.1602C30.5966 37.1602 37.1602 30.5966 37.1602 22.5C37.1602 14.4034 30.5966 7.83984 22.5 7.83984C14.4034 7.83984 7.83984 14.4034 7.83984 22.5C7.83984 30.5966 14.4034 37.1602 22.5 37.1602Z" fill="#FFCD16"/>
<path d="M22.5 37.8193C14.0537 37.8193 7.18066 30.9463 7.18066 22.5C7.18066 14.0537 14.0537 7.18066 22.5 7.18066C30.9463 7.18066 37.8193 14.0537 37.8193 22.5C37.8193 30.9463 30.9463 37.8193 22.5 37.8193ZM22.5 8.49902C14.7832 8.49902 8.49902 14.7832 8.49902 22.5C8.49902 30.2168 14.7832 36.501 22.5 36.501C30.2168 36.501 36.501 30.2168 36.501 22.5C36.501 14.7832 30.2168 8.49902 22.5 8.49902Z" fill="black"/>
<path d="M14.7744 22.5C14.7744 15.6006 19.5469 9.80859 25.9717 8.25293C24.8643 7.98047 23.6953 7.83984 22.5088 7.83984C14.4141 7.83984 7.84863 14.4053 7.84863 22.5C7.84863 30.5947 14.4053 37.1602 22.5 37.1602C23.6953 37.1602 24.8555 37.0195 25.9629 36.7471C19.5469 35.1914 14.7744 29.3994 14.7744 22.5Z" fill="#D29807"/>
<path d="M22.5 37.8193C14.0537 37.8193 7.18066 30.9463 7.18066 22.5C7.18066 14.0537 14.0537 7.18066 22.5 7.18066C30.9463 7.18066 37.8193 14.0537 37.8193 22.5C37.8193 30.9463 30.9463 37.8193 22.5 37.8193ZM22.5 8.49902C14.7832 8.49902 8.49902 14.7832 8.49902 22.5C8.49902 30.2168 14.7832 36.501 22.5 36.501C30.2168 36.501 36.501 30.2168 36.501 22.5C36.501 14.7832 30.2168 8.49902 22.5 8.49902Z" fill="black"/>
<path d="M22.8867 14.0625C22.1836 14.0625 21.6123 13.4912 21.6123 12.7881C21.6123 12.085 22.1836 11.5137 22.8867 11.5137C23.5898 11.5137 24.1611 12.085 24.1611 12.7881C24.1523 13.4912 23.5898 14.0625 22.8867 14.0625ZM22.8867 12.7441C22.8604 12.7441 22.8428 12.7617 22.8428 12.7881C22.8428 12.8145 22.8604 12.832 22.8867 12.832C22.9131 12.832 22.9307 12.8145 22.9307 12.7881C22.9307 12.7617 22.9043 12.7441 22.8867 12.7441ZM12.709 18.2725C12.0059 18.2725 11.4346 17.7012 11.4346 16.998C11.4346 16.2949 12.0059 15.7236 12.709 15.7236C13.4121 15.7236 13.9834 16.2949 13.9834 16.998C13.9834 17.7012 13.4121 18.2725 12.709 18.2725ZM12.709 16.9541C12.6826 16.9541 12.665 16.9717 12.665 16.998C12.665 17.0244 12.6826 17.042 12.709 17.042C12.7354 17.042 12.7529 17.0244 12.7529 16.998C12.7529 16.9717 12.7354 16.9541 12.709 16.9541ZM32.6514 18.4658C31.9482 18.4658 31.377 17.8945 31.377 17.1914C31.377 16.4883 31.9482 15.917 32.6514 15.917C33.3545 15.917 33.9258 16.4883 33.9258 17.1914C33.9258 17.8945 33.3545 18.4658 32.6514 18.4658ZM32.6514 17.1475C32.625 17.1475 32.6074 17.165 32.6074 17.1914C32.6074 17.2178 32.625 17.2354 32.6514 17.2354C32.6777 17.2354 32.6953 17.2178 32.6953 17.1914C32.6953 17.165 32.6777 17.1475 32.6514 17.1475Z" fill="black"/>
<path d="M29.8213 28.5732H16.0488L12.9727 17.5254L19.3799 23.4053L22.7637 13.4297L26.7539 23.4053L32.3438 17.6396L29.8213 28.5732Z" fill="white"/>
<path d="M29.8212 29.2324H16.0487C15.7499 29.2324 15.495 29.0391 15.4159 28.7491L12.3486 17.7012C12.2694 17.4199 12.3925 17.1123 12.6386 16.9629C12.8935 16.8135 13.2099 16.8399 13.4296 17.042L19.0898 22.2364L22.1484 13.2188C22.2362 12.9551 22.4823 12.7793 22.7548 12.7705C23.0273 12.7617 23.2821 12.9287 23.3876 13.1836L26.9911 22.21L31.8691 17.1739C32.0712 16.9629 32.3964 16.9102 32.6601 17.0508C32.9237 17.1914 33.0556 17.4903 32.9853 17.7803L30.4628 28.7139C30.3925 29.0215 30.1288 29.2324 29.8212 29.2324ZM16.5497 27.9141H29.3027L31.1747 19.8018L27.2372 23.8711C27.079 24.0293 26.8593 24.0996 26.6396 24.0557C26.4198 24.0117 26.2353 23.8623 26.1562 23.6514L22.8339 15.3369L20.0214 23.6162C19.9511 23.8272 19.7753 23.9854 19.5644 24.0469C19.3446 24.0996 19.1161 24.0469 18.9579 23.8975L14.247 19.5733L16.5497 27.9141Z" fill="black"/>
</g>
</g>
<defs>
<clipPath id="clip0_728_9658">
<rect width="45" height="45" fill="white"/>
</clipPath>
<clipPath id="clip1_728_9658">
<rect width="45" height="45" fill="white"/>
</clipPath>
</defs>
</svg>
