<svg width="24" height="24" viewBox="0 0 24 24" fill="none" xmlns="http://www.w3.org/2000/svg">
<g clip-path="url(#clip0_933_858)">
<path fill-rule="evenodd" clip-rule="evenodd" d="M15.9156 16.478C15.9156 16.1828 15.9859 15.8594 15.522 15.8594C15.0861 15.8594 15.1424 16.1547 15.1424 16.478H15.9156ZM15.536 24C12.935 24 10.6573 22.5518 9.46222 20.4429H4.21793C2.72759 20.4429 1.50439 19.2197 1.50439 17.7293V2.71353C1.50439 1.2232 2.72759 0 4.21793 0H12.949C13.1037 0 13.2443 0.0702988 13.3568 0.168717L17.6309 4.44288C17.7856 4.59754 17.8418 4.72408 17.8278 4.94903V10.4745C20.5413 11.4306 22.4815 14.0176 22.4815 17.0404C22.4815 20.8787 19.3603 24 15.536 24ZM8.95606 19.3181C8.84359 18.9666 8.74517 18.587 8.67487 18.2214H4.6819C3.95079 18.2214 3.95079 17.0967 4.6819 17.0967H8.57645C8.57645 16.5765 8.63269 16.0703 8.73111 15.5782H4.6819C3.95079 15.5782 3.95079 14.4534 4.6819 14.4534H9.0826C9.2935 13.9192 9.57469 13.413 9.91213 12.935H4.6819C3.95079 12.935 3.95079 11.8243 4.6819 11.8243H10.9525C11.0791 11.768 13.2162 9.58875 16.703 10.1933V5.44112H12.949C12.6397 5.44112 12.3866 5.18805 12.3866 4.87873V1.12478H4.21793C3.34622 1.12478 2.62917 1.84183 2.62917 2.71353V17.7293C2.62917 18.6011 3.34622 19.3181 4.21793 19.3181H8.95606ZM15.536 11.2056C12.3163 11.2056 9.70123 13.8207 9.70123 17.0404C9.70123 20.2601 12.3163 22.8752 15.536 22.8752C18.7417 22.8752 21.3568 20.2601 21.3568 17.0404C21.3568 13.8207 18.7417 11.2056 15.536 11.2056ZM15.536 22.2988C15.4798 22.2988 15.4376 22.2847 15.3954 22.2707C12.4007 21.4833 11.4868 18.8682 11.4868 17.6731V13.9754C11.4868 13.5395 11.9508 13.2724 12.3304 13.4833C13.3849 14.1019 14.7627 13.2865 15.1845 12.949C15.3814 12.7803 15.6766 12.7803 15.8875 12.949C16.2531 13.2443 17.645 14.116 18.7417 13.4833C19.1072 13.2724 19.5852 13.5395 19.5852 13.9754V17.6731C19.5852 18.8682 18.6573 21.4974 15.6766 22.2707C15.6344 22.2847 15.5782 22.2988 15.536 22.2988ZM12.6116 17.6591C12.6257 17.8418 12.8084 20.3445 15.536 21.1459C18.2496 20.3445 18.4464 17.8137 18.4605 17.6591V14.7768C17.3216 15.0018 16.2109 14.5097 15.536 14.0738C14.833 14.5237 13.7364 15.0018 12.6116 14.7768V17.6591ZM13.5114 4.31634H15.9156L13.5114 1.92619V4.31634ZM14.6503 7.66257H4.6819C3.95079 7.66257 3.95079 6.53779 4.6819 6.53779H14.6503C15.3954 6.53779 15.3954 7.66257 14.6503 7.66257ZM12.8084 10.3058H4.6819C3.95079 10.3058 3.95079 9.18102 4.6819 9.18102H12.8084C13.5536 9.18102 13.5536 10.3058 12.8084 10.3058ZM9.34974 5.27241H5.68014C5.37083 5.27241 5.11775 5.01933 5.11775 4.71002V2.10896C5.11775 1.79965 5.37083 1.54657 5.68014 1.54657H9.34974C9.65905 1.54657 9.91213 1.79965 9.91213 2.10896V4.71002C9.91213 5.01933 9.65905 5.27241 9.34974 5.27241ZM6.24253 4.14763H8.78735V2.67135H6.24253V4.14763ZM14.0176 16.478V16.1828C14.0176 14.2707 17.0404 14.2707 17.0404 16.1828V16.478C17.3357 16.4921 17.5606 16.7452 17.5606 17.0404V19.065C17.5606 19.3743 17.3076 19.6274 16.9982 19.6274H14.0457C13.7364 19.6274 13.4833 19.3743 13.4833 19.065V17.0404C13.4833 16.7452 13.7223 16.4921 14.0176 16.478ZM14.6081 18.5026H16.4359V17.6028H14.6081V18.5026Z" fill="#000002"/>
<path fill-rule="evenodd" clip-rule="evenodd" d="M6.24268 4.14766H8.78749V2.67139H6.24268V4.14766Z" fill="#FFE600"/>
<path fill-rule="evenodd" clip-rule="evenodd" d="M9.91235 2.10894V4.70999C9.91235 5.01931 9.65927 5.27238 9.34996 5.27238H5.68036C5.37105 5.27238 5.11797 5.01931 5.11797 4.70999V2.10894C5.11797 1.79962 5.37105 1.54655 5.68036 1.54655H9.34996C9.65927 1.54655 9.91235 1.79962 9.91235 2.10894ZM4.68212 6.53776H14.6505C15.3957 6.53776 15.3957 7.66254 14.6505 7.66254H4.68212C3.95101 7.66254 3.95101 6.53776 4.68212 6.53776ZM12.8087 9.18099C13.5538 9.18099 13.5538 10.3058 12.8087 10.3058H4.68212C3.95101 10.3058 3.95101 9.18099 4.68212 9.18099H12.8087ZM10.9528 11.8242C11.0793 11.768 13.2164 9.58873 16.7032 10.1933V5.4411H12.9493C12.6399 5.4411 12.3869 5.18802 12.3869 4.87871V1.12476H4.21815C3.34644 1.12476 2.62939 1.8418 2.62939 2.71351V17.7293C2.62939 18.601 3.34644 19.3181 4.21815 19.3181H8.95628C8.84381 18.9666 8.74539 18.587 8.67509 18.2214H4.68212C3.95101 18.2214 3.95101 17.0966 4.68212 17.0966H8.57667C8.57667 16.5764 8.63291 16.0703 8.73133 15.5782H4.68212C3.95101 15.5782 3.95101 14.4534 4.68212 14.4534H9.08282C9.29372 13.9191 9.57491 13.413 9.91235 12.9349H4.68212C3.95101 12.9349 3.95101 11.8242 4.68212 11.8242H10.9528Z" fill="#E1E5E8"/>
<path fill-rule="evenodd" clip-rule="evenodd" d="M13.5112 1.92627V4.31643H15.9154L13.5112 1.92627Z" fill="#99A4AC"/>
<path fill-rule="evenodd" clip-rule="evenodd" d="M15.5221 15.8594C15.0863 15.8594 15.1425 16.1546 15.1425 16.478H15.9158C15.9158 16.1827 15.9861 15.8594 15.5221 15.8594Z" fill="#00CCFF"/>
<path fill-rule="evenodd" clip-rule="evenodd" d="M16.4357 17.6028H14.6079V18.5026H16.4357V17.6028Z" fill="#FF6600"/>
<path fill-rule="evenodd" clip-rule="evenodd" d="M17.0406 16.4779C17.3359 16.492 17.5608 16.7451 17.5608 17.0403V19.0649C17.5608 19.3743 17.3078 19.6273 16.9985 19.6273H14.0459C13.7366 19.6273 13.4835 19.3743 13.4835 19.0649V17.0403C13.4835 16.7451 13.7225 16.492 14.0178 16.4779V16.1827C14.0178 14.2706 17.0406 14.2706 17.0406 16.1827V16.4779ZM18.4607 14.7767C17.3218 15.0017 16.2111 14.5096 15.5362 14.0737C14.8333 14.5236 13.7366 15.0017 12.6118 14.7767V17.659C12.6259 17.8417 12.8087 20.3444 15.5362 21.1458C18.2498 20.3444 18.4466 17.8136 18.4607 17.659V14.7767Z" fill="#00CCFF"/>
<path fill-rule="evenodd" clip-rule="evenodd" d="M19.5852 13.9753V17.6731C19.5852 18.8681 18.6572 21.4973 15.6766 22.2706C15.6344 22.2847 15.5781 22.2987 15.536 22.2987C15.4797 22.2987 15.4376 22.2847 15.3954 22.2706C12.4006 21.4832 11.4868 18.8681 11.4868 17.6731V13.9753C11.4868 13.5395 11.9507 13.2724 12.3303 13.4832C13.3848 14.1019 14.7627 13.2864 15.1845 12.949C15.3813 12.7803 15.6766 12.7803 15.8875 12.949C16.253 13.2442 17.6449 14.1159 18.7416 13.4832C19.1071 13.2724 19.5852 13.5395 19.5852 13.9753ZM9.70117 17.0404C9.70117 20.26 12.3163 22.8752 15.536 22.8752C18.7416 22.8752 21.3567 20.26 21.3567 17.0404C21.3567 13.8207 18.7416 11.2056 15.536 11.2056C12.3163 11.2056 9.70117 13.8207 9.70117 17.0404Z" fill="#DF5A49"/>
</g>
<defs>
<clipPath id="clip0_933_858">
<rect width="24" height="24" fill="white"/>
</clipPath>
</defs>
</svg>
