<svg width="24" height="24" viewBox="0 0 24 24" fill="none" xmlns="http://www.w3.org/2000/svg">
<g clip-path="url(#clip0_943_2810)">
<g clip-path="url(#clip1_943_2810)">
<path d="M20.9998 13C20.9966 10.7874 20.1795 8.65339 18.7042 7.00451C17.2288 5.35563 15.1984 4.3072 12.9998 4.059V3H14.9998C15.265 3 15.5194 2.89464 15.7069 2.70711C15.8944 2.51957 15.9998 2.26522 15.9998 2C15.9998 1.73478 15.8944 1.48043 15.7069 1.29289C15.5194 1.10536 15.265 1 14.9998 1H8.9998C8.73458 1 8.48023 1.10536 8.29269 1.29289C8.10516 1.48043 7.9998 1.73478 7.9998 2C7.9998 2.26522 8.10516 2.51957 8.29269 2.70711C8.48023 2.89464 8.73458 3 8.9998 3H10.9998V4.059C9.25055 4.25285 7.59668 4.95588 6.24326 6.0809C4.88984 7.20593 3.8964 8.70347 3.38614 10.3878C2.87588 12.0722 2.87123 13.8693 3.37278 15.5563C3.87433 17.2432 4.86001 18.7459 6.2076 19.8779L5.1668 21.4457C5.09336 21.5551 5.04225 21.6779 5.01642 21.8071C4.99059 21.9363 4.99054 22.0693 5.01627 22.1985C5.04201 22.3277 5.09302 22.4506 5.16638 22.56C5.23974 22.6694 5.33401 22.7633 5.44375 22.8362C5.5535 22.9091 5.67657 22.9595 5.80588 22.9847C5.9352 23.0099 6.06822 23.0093 6.1973 22.9829C6.32637 22.9565 6.44896 22.9049 6.55802 22.831C6.66708 22.757 6.76046 22.6623 6.8328 22.5522L7.8711 20.9882C9.14578 21.6529 10.5621 21.9999 11.9996 21.9999C13.4372 21.9999 14.8535 21.6529 16.1282 20.9882L17.1668 22.553C17.2391 22.6631 17.3325 22.7578 17.4416 22.8318C17.5506 22.9057 17.6732 22.9573 17.8023 22.9837C17.9314 23.0101 18.0644 23.0107 18.1937 22.9855C18.323 22.9603 18.4461 22.9099 18.5558 22.837C18.6656 22.7641 18.7599 22.6702 18.8332 22.5608C18.9066 22.4514 18.9576 22.3285 18.9833 22.1993C19.0091 22.0701 19.009 21.9371 18.9832 21.8079C18.9573 21.6787 18.9062 21.5559 18.8328 21.4465L17.7917 19.8782C18.7961 19.0354 19.6038 17.9829 20.1581 16.7946C20.7123 15.6064 20.9996 14.3112 20.9998 13ZM8.1178 18.8206L8.1131 18.8159L8.0998 18.81C6.85341 17.9738 5.90878 16.7592 5.40528 15.3453C4.90178 13.9313 4.86606 12.393 5.3034 10.9573C5.74073 9.52151 6.62797 8.26434 7.8342 7.37121C9.04044 6.47809 10.5018 5.99632 12.0027 5.99697C13.5036 5.99763 14.9645 6.48068 16.17 7.37485C17.3754 8.26903 18.2616 9.52698 18.6977 10.9631C19.1337 12.3993 19.0967 13.9375 18.5919 15.351C18.0872 16.7645 17.1415 17.9783 15.8944 18.8134L15.8866 18.8171L15.8839 18.8198C14.7351 19.5893 13.3837 20.0002 12.0011 20.0004C10.6184 20.0006 9.26679 19.5897 8.1178 18.8206Z" fill="#212529"/>
<path d="M20.7271 4.7636C20.6372 4.66712 20.5291 4.58937 20.409 4.53483C20.289 4.48029 20.1593 4.45004 20.0275 4.44582C19.8957 4.4416 19.7643 4.4635 19.641 4.51024C19.5177 4.55699 19.4049 4.62766 19.309 4.7182C19.2131 4.80873 19.1361 4.91734 19.0823 5.03777C19.0286 5.15819 18.9992 5.28806 18.9958 5.41989C18.9925 5.55173 19.0152 5.68292 19.0628 5.80592C19.1103 5.92893 19.1818 6.04131 19.2729 6.1366C21.0278 7.9904 22.004 10.4472 22 12.9999C22 13.2651 22.1054 13.5195 22.2929 13.707C22.4804 13.8945 22.7348 13.9999 23 13.9999C23.2652 13.9999 23.5196 13.8945 23.7071 13.707C23.8947 13.5195 24 13.2651 24 12.9999C24.005 9.93647 22.8334 6.9881 20.7271 4.7636ZM4.68652 4.723C4.49367 4.54093 4.23641 4.44293 3.97131 4.45054C3.70621 4.45816 3.45499 4.57077 3.27292 4.7636C1.16668 6.9881 -0.00492954 9.93647 1.55908e-05 12.9999C1.55908e-05 13.2651 0.105372 13.5195 0.292909 13.707C0.480445 13.8945 0.734799 13.9999 1.00002 13.9999C1.26523 13.9999 1.51959 13.8945 1.70712 13.707C1.89466 13.5195 2.00002 13.2651 2.00002 12.9999C1.99605 10.4472 2.97225 7.99042 4.72712 6.1366C4.90918 5.94376 5.00719 5.68649 4.99957 5.42139C4.99196 5.15629 4.87935 4.90507 4.68652 4.723Z" fill="#212529"/>
<path d="M15.707 15.293L13 12.5859V9C13 8.73478 12.8946 8.48043 12.7071 8.29289C12.5196 8.10536 12.2652 8 12 8C11.7348 8 11.4804 8.10536 11.2929 8.29289C11.1054 8.48043 11 8.73478 11 9V13C11.0001 13.2652 11.1055 13.5195 11.293 13.707L14.293 16.707C14.4816 16.8892 14.7342 16.99 14.9964 16.9877C15.2586 16.9854 15.5094 16.8802 15.6948 16.6948C15.8802 16.5094 15.9854 16.2586 15.9877 15.9964C15.99 15.7342 15.8892 15.4816 15.707 15.293Z" fill="#F8B84E"/>
</g>
</g>
<defs>
<clipPath id="clip0_943_2810">
<rect width="24" height="24" fill="white"/>
</clipPath>
<clipPath id="clip1_943_2810">
<rect width="24" height="24" fill="white"/>
</clipPath>
</defs>
</svg>
