<svg width="38" height="38" viewBox="0 0 38 38" fill="none" xmlns="http://www.w3.org/2000/svg">
<rect x="0.5" y="0.5" width="37" height="37" rx="18.5" fill="white"/>
<g clip-path="url(#clip0_398_28896)">
<path d="M22.5 21H21.71L21.43 20.73C22.41 19.59 23 18.11 23 16.5C23 12.91 20.09 10 16.5 10C12.91 10 10 12.91 10 16.5C10 20.09 12.91 23 16.5 23C18.11 23 19.59 22.41 20.73 21.43L21 21.71V22.5L26 27.49L27.49 26L22.5 21ZM16.5 21C14.01 21 12 18.99 12 16.5C12 14.01 14.01 12 16.5 12C18.99 12 21 14.01 21 16.5C21 18.99 18.99 21 16.5 21Z" fill="#222222"/>
</g>
<rect x="0.5" y="0.5" width="37" height="37" rx="18.5" stroke="#F0F0F0"/>
<defs>
<clipPath id="clip0_398_28896">
<rect width="24" height="24" fill="white" transform="translate(7 7)"/>
</clipPath>
</defs>
</svg>
