<svg width="25" height="23" viewBox="0 0 25 23" fill="none" xmlns="http://www.w3.org/2000/svg">
<path d="M19.5415 7.80566H1.76367V20.2501C1.76367 21.2279 2.56367 22.0279 3.54145 22.0279H17.7637C18.7415 22.0279 19.5415 21.2279 19.5415 20.2501V7.80566Z" fill="#FFDB41"/>
<path d="M17.3195 14.4722C21.0014 14.4722 23.9862 11.4875 23.9862 7.80558C23.9862 4.12368 21.0014 1.13892 17.3195 1.13892C13.6376 1.13892 10.6528 4.12368 10.6528 7.80558C10.6528 11.4875 13.6376 14.4722 17.3195 14.4722Z" fill="#1C94F9"/>
<path d="M24.875 7.80556C24.875 3.62778 21.4972 0.25 17.3194 0.25C15.4972 0.25 13.7639 0.916667 12.4306 2.07222V1.13889C12.4306 0.65 12.0306 0.25 11.5417 0.25C11.0528 0.25 10.6528 0.65 10.6528 1.13889V4.25C10.6528 4.73889 11.0528 5.13889 11.5417 5.13889H11.675H14.6528C15.1417 5.13889 15.5417 4.73889 15.5417 4.25C15.5417 3.76111 15.1417 3.36111 14.6528 3.36111H13.6306C14.6528 2.51667 15.9417 2.02778 17.3194 2.02778C20.5194 2.02778 23.0972 4.60556 23.0972 7.80556C23.0972 11.0056 20.5194 13.5833 17.3194 13.5833C14.1194 13.5833 11.5417 11.0056 11.5417 7.80556C11.5417 7.31667 11.1417 6.91667 10.6528 6.91667H2.65278V6.33889C2.65278 5.67222 3.18611 5.13889 3.85278 5.13889H7.98611C8.475 5.13889 8.875 4.73889 8.875 4.25C8.875 3.76111 8.475 3.36111 7.98611 3.36111H3.85278C2.20833 3.36111 0.875 4.69444 0.875 6.33889V19.9389C0.875 21.5833 2.20833 22.9167 3.85278 22.9167H17.4528C19.0972 22.9167 20.4306 21.5833 20.4306 19.9389V14.6944C23.0528 13.4944 24.875 10.8722 24.875 7.80556ZM18.6528 19.9389C18.6528 20.6056 18.1194 21.1389 17.4528 21.1389H3.85278C3.18611 21.1389 2.65278 20.6056 2.65278 19.9389V8.69444H9.80833C10.0306 10.65 11.0083 12.3833 12.4306 13.5833H12.3861C11.8972 13.5833 11.4972 13.9833 11.4972 14.4722V14.9167C11.4972 15.4056 11.8972 15.8056 12.3861 15.8056C12.875 15.8056 13.275 15.4056 13.275 14.9167V14.4722C13.275 14.3833 13.275 14.25 13.2306 14.1611C13.8083 14.5167 14.4306 14.8278 15.0972 15.0056C15.1417 15.45 15.5417 15.7611 15.9861 15.7611C16.3417 15.7611 16.6083 15.5833 16.7861 15.2722C16.9639 15.2722 17.1417 15.3167 17.3194 15.3167C17.7639 15.3167 18.2083 15.2722 18.6528 15.1833V19.9389Z" fill="url(#paint0_linear_933_836)"/>
<path d="M5.31955 10.0278C4.83066 10.0278 4.43066 10.4278 4.43066 10.9167V11.3612C4.43066 11.8501 4.83066 12.2501 5.31955 12.2501C5.80844 12.2501 6.20844 11.8501 6.20844 11.3612V10.9167C6.20844 10.4278 5.80844 10.0278 5.31955 10.0278Z" fill="url(#paint1_linear_933_836)"/>
<path d="M8.87522 10.0278C8.38633 10.0278 7.98633 10.4278 7.98633 10.9167V11.3612C7.98633 11.8501 8.38633 12.2501 8.87522 12.2501C9.36411 12.2501 9.76411 11.8501 9.76411 11.3612V10.9167C9.76411 10.4278 9.36411 10.0278 8.87522 10.0278Z" fill="url(#paint2_linear_933_836)"/>
<path d="M5.31955 13.5833C4.83066 13.5833 4.43066 13.9833 4.43066 14.4721V14.9166C4.43066 15.4055 4.83066 15.8055 5.31955 15.8055C5.80844 15.8055 6.20844 15.4055 6.20844 14.9166V14.4721C6.20844 13.9833 5.80844 13.5833 5.31955 13.5833Z" fill="url(#paint3_linear_933_836)"/>
<path d="M8.87522 13.5833C8.38633 13.5833 7.98633 13.9833 7.98633 14.4721V14.9166C7.98633 15.4055 8.38633 15.8055 8.87522 15.8055C9.36411 15.8055 9.76411 15.4055 9.76411 14.9166V14.4721C9.76411 13.9833 9.36411 13.5833 8.87522 13.5833Z" fill="url(#paint4_linear_933_836)"/>
<path d="M5.31955 17.1389C4.83066 17.1389 4.43066 17.5389 4.43066 18.0278V18.4722C4.43066 18.9611 4.83066 19.3611 5.31955 19.3611C5.80844 19.3611 6.20844 18.9611 6.20844 18.4722V18.0278C6.20844 17.5389 5.80844 17.1389 5.31955 17.1389Z" fill="url(#paint5_linear_933_836)"/>
<path d="M8.87522 17.1389C8.38633 17.1389 7.98633 17.5389 7.98633 18.0278V18.4722C7.98633 18.9611 8.38633 19.3611 8.87522 19.3611C9.36411 19.3611 9.76411 18.9611 9.76411 18.4722V18.0278C9.76411 17.5389 9.36411 17.1389 8.87522 17.1389Z" fill="url(#paint6_linear_933_836)"/>
<path d="M12.4304 17.1389C11.9415 17.1389 11.5415 17.5389 11.5415 18.0278V18.4722C11.5415 18.9611 11.9415 19.3611 12.4304 19.3611C12.9193 19.3611 13.3193 18.9611 13.3193 18.4722V18.0278C13.3193 17.5389 12.9193 17.1389 12.4304 17.1389Z" fill="url(#paint7_linear_933_836)"/>
<path d="M15.9861 17.1389C15.4972 17.1389 15.0972 17.5389 15.0972 18.0278V18.4722C15.0972 18.9611 15.4972 19.3611 15.9861 19.3611C16.4749 19.3611 16.8749 18.9611 16.8749 18.4722V18.0278C16.8749 17.5389 16.4749 17.1389 15.9861 17.1389Z" fill="url(#paint8_linear_933_836)"/>
<path d="M17.3196 2.91675C16.8307 2.91675 16.4307 3.31675 16.4307 3.80564V7.80564C16.4307 8.29453 16.8307 8.69453 17.3196 8.69453H19.9862C20.4751 8.69453 20.8751 8.29453 20.8751 7.80564C20.8751 7.31675 20.4751 6.91675 19.9862 6.91675H18.2084V3.80564C18.2084 3.31675 17.8084 2.91675 17.3196 2.91675Z" fill="url(#paint9_linear_933_836)"/>
<defs>
<linearGradient id="paint0_linear_933_836" x1="0.875" y1="11.5833" x2="24.875" y2="11.5833" gradientUnits="userSpaceOnUse">
<stop offset="0.002" stop-color="#034A7A"/>
<stop offset="1" stop-color="#002F49"/>
</linearGradient>
<linearGradient id="paint1_linear_933_836" x1="4.43066" y1="11.1389" x2="6.20844" y2="11.1389" gradientUnits="userSpaceOnUse">
<stop offset="0.002" stop-color="#034A7A"/>
<stop offset="1" stop-color="#002F49"/>
</linearGradient>
<linearGradient id="paint2_linear_933_836" x1="7.98633" y1="11.1389" x2="9.76411" y2="11.1389" gradientUnits="userSpaceOnUse">
<stop offset="0.002" stop-color="#034A7A"/>
<stop offset="1" stop-color="#002F49"/>
</linearGradient>
<linearGradient id="paint3_linear_933_836" x1="4.43066" y1="14.6944" x2="6.20844" y2="14.6944" gradientUnits="userSpaceOnUse">
<stop offset="0.002" stop-color="#034A7A"/>
<stop offset="1" stop-color="#002F49"/>
</linearGradient>
<linearGradient id="paint4_linear_933_836" x1="7.98633" y1="14.6944" x2="9.76411" y2="14.6944" gradientUnits="userSpaceOnUse">
<stop offset="0.002" stop-color="#034A7A"/>
<stop offset="1" stop-color="#002F49"/>
</linearGradient>
<linearGradient id="paint5_linear_933_836" x1="4.43066" y1="18.25" x2="6.20844" y2="18.25" gradientUnits="userSpaceOnUse">
<stop offset="0.002" stop-color="#034A7A"/>
<stop offset="1" stop-color="#002F49"/>
</linearGradient>
<linearGradient id="paint6_linear_933_836" x1="7.98633" y1="18.25" x2="9.76411" y2="18.25" gradientUnits="userSpaceOnUse">
<stop offset="0.002" stop-color="#034A7A"/>
<stop offset="1" stop-color="#002F49"/>
</linearGradient>
<linearGradient id="paint7_linear_933_836" x1="11.5415" y1="18.25" x2="13.3193" y2="18.25" gradientUnits="userSpaceOnUse">
<stop offset="0.002" stop-color="#034A7A"/>
<stop offset="1" stop-color="#002F49"/>
</linearGradient>
<linearGradient id="paint8_linear_933_836" x1="15.0972" y1="18.25" x2="16.8749" y2="18.25" gradientUnits="userSpaceOnUse">
<stop offset="0.002" stop-color="#034A7A"/>
<stop offset="1" stop-color="#002F49"/>
</linearGradient>
<linearGradient id="paint9_linear_933_836" x1="16.4307" y1="5.80564" x2="20.8751" y2="5.80564" gradientUnits="userSpaceOnUse">
<stop offset="0.002" stop-color="#034A7A"/>
<stop offset="1" stop-color="#002F49"/>
</linearGradient>
</defs>
</svg>
