<svg width="22" height="22" viewBox="0 0 22 22" fill="none" xmlns="http://www.w3.org/2000/svg">
<path d="M11 5.3592L11.0098 5.34283C11.455 4.52438 11.9199 3.88926 12.4863 3.43747C13.1705 2.89074 13.9824 2.61902 15.0595 2.61902C16.2512 2.61902 17.3315 3.10354 18.114 3.88598C18.8997 4.66842 19.3809 5.74878 19.3809 6.94045C19.3809 9.03568 18.3464 11.1146 16.7913 13.1869C15.2526 15.2363 13.2196 17.2693 11.1866 19.3056L11 19.119V5.3592ZM11 19.119V19.3809C11.0345 19.3813 11.0688 19.3748 11.1008 19.3619C11.1328 19.349 11.162 19.3299 11.1866 19.3056L11 19.119ZM11 19.3809C10.9654 19.3813 10.9312 19.3748 10.8991 19.3619C10.8671 19.349 10.838 19.3299 10.8134 19.3056C8.78033 17.2693 6.74729 15.2363 5.2086 13.1836C3.65682 11.1178 2.61902 9.03568 2.61902 6.94045C2.61902 5.74878 3.10354 4.66842 3.88598 3.88598C4.66842 3.10027 5.74878 2.61902 6.94045 2.61902C8.94074 2.61902 10.008 3.53569 11 5.3592V19.3809Z" fill="#E53935"/>
<path d="M11 5.3592L11.0098 5.34283C11.4551 4.52438 11.9199 3.88926 12.4863 3.43747C13.1705 2.89074 13.9824 2.61902 15.0595 2.61902C16.2512 2.61902 17.3315 3.10354 18.114 3.88598C18.8997 4.66842 19.381 5.74878 19.381 6.94045C19.381 9.03568 18.3464 11.1146 16.7914 13.1869C15.2527 15.2363 13.2196 17.2693 11.1866 19.3056L11 19.119V5.3592ZM11 19.119V19.3809C11.0345 19.3813 11.0688 19.3748 11.1008 19.3619C11.1329 19.349 11.162 19.3299 11.1866 19.3056L11 19.119Z" fill="#CE3330"/>
</svg>
