<svg width="16" height="16" viewBox="0 0 16 16" fill="none" xmlns="http://www.w3.org/2000/svg">
<g clip-path="url(#clip0_2556_895)">
<path d="M14.5 3.5C14.5 3.23478 14.3946 2.98043 14.2071 2.79289C14.0196 2.60536 13.7652 2.5 13.5 2.5H2.5C2.23478 2.5 1.98043 2.60536 1.79289 2.79289C1.60536 2.98043 1.5 3.23478 1.5 3.5V5H14.5V3.5Z" fill="#E53935"/>
<path d="M1.5 5V13.5C1.5 13.7652 1.60536 14.0196 1.79289 14.2071C1.98043 14.3946 2.23478 14.5 2.5 14.5H13.5C13.7652 14.5 14.0196 14.3946 14.2071 14.2071C14.3946 14.0196 14.5 13.7652 14.5 13.5V5H1.5Z" fill="#F5F5F5"/>
<path d="M5.5 8H3.5C3.36739 8 3.24021 7.94732 3.14645 7.85355C3.05268 7.75979 3 7.63261 3 7.5C3 7.36739 3.05268 7.24021 3.14645 7.14645C3.24021 7.05268 3.36739 7 3.5 7H5.5C5.63261 7 5.75979 7.05268 5.85355 7.14645C5.94732 7.24021 6 7.36739 6 7.5C6 7.63261 5.94732 7.75979 5.85355 7.85355C5.75979 7.94732 5.63261 8 5.5 8ZM13 7.5C13 7.36739 12.9473 7.24021 12.8536 7.14645C12.7598 7.05268 12.6326 7 12.5 7H10.5C10.3674 7 10.2402 7.05268 10.1464 7.14645C10.0527 7.24021 10 7.36739 10 7.5C10 7.63261 10.0527 7.75979 10.1464 7.85355C10.2402 7.94732 10.3674 8 10.5 8H12.5C12.6326 8 12.7598 7.94732 12.8536 7.85355C12.9473 7.75979 13 7.63261 13 7.5ZM9.5 7.5C9.5 7.36739 9.44732 7.24021 9.35355 7.14645C9.25979 7.05268 9.13261 7 9 7H7C6.86739 7 6.74021 7.05268 6.64645 7.14645C6.55268 7.24021 6.5 7.36739 6.5 7.5C6.5 7.63261 6.55268 7.75979 6.64645 7.85355C6.74021 7.94732 6.86739 8 7 8H9C9.13261 8 9.25979 7.94732 9.35355 7.85355C9.44732 7.75979 9.5 7.63261 9.5 7.5ZM6 9C6 8.86739 5.94732 8.74021 5.85355 8.64645C5.75979 8.55268 5.63261 8.5 5.5 8.5H3.5C3.36739 8.5 3.24021 8.55268 3.14645 8.64645C3.05268 8.74021 3 8.86739 3 9C3 9.13261 3.05268 9.25979 3.14645 9.35355C3.24021 9.44732 3.36739 9.5 3.5 9.5H5.5C5.63261 9.5 5.75979 9.44732 5.85355 9.35355C5.94732 9.25979 6 9.13261 6 9ZM13 9C13 8.86739 12.9473 8.74021 12.8536 8.64645C12.7598 8.55268 12.6326 8.5 12.5 8.5H10.5C10.3674 8.5 10.2402 8.55268 10.1464 8.64645C10.0527 8.74021 10 8.86739 10 9C10 9.13261 10.0527 9.25979 10.1464 9.35355C10.2402 9.44732 10.3674 9.5 10.5 9.5H12.5C12.6326 9.5 12.7598 9.44732 12.8536 9.35355C12.9473 9.25979 13 9.13261 13 9ZM9.5 9C9.5 8.86739 9.44732 8.74021 9.35355 8.64645C9.25979 8.55268 9.13261 8.5 9 8.5H7C6.86739 8.5 6.74021 8.55268 6.64645 8.64645C6.55268 8.74021 6.5 8.86739 6.5 9C6.5 9.13261 6.55268 9.25979 6.64645 9.35355C6.74021 9.44732 6.86739 9.5 7 9.5H9C9.13261 9.5 9.25979 9.44732 9.35355 9.35355C9.44732 9.25979 9.5 9.13261 9.5 9ZM6 10.5C6 10.3674 5.94732 10.2402 5.85355 10.1464C5.75979 10.0527 5.63261 10 5.5 10H3.5C3.36739 10 3.24021 10.0527 3.14645 10.1464C3.05268 10.2402 3 10.3674 3 10.5C3 10.6326 3.05268 10.7598 3.14645 10.8536C3.24021 10.9473 3.36739 11 3.5 11H5.5C5.63261 11 5.75979 10.9473 5.85355 10.8536C5.94732 10.7598 6 10.6326 6 10.5ZM13 10.5C13 10.3674 12.9473 10.2402 12.8536 10.1464C12.7598 10.0527 12.6326 10 12.5 10H10.5C10.3674 10 10.2402 10.0527 10.1464 10.1464C10.0527 10.2402 10 10.3674 10 10.5C10 10.6326 10.0527 10.7598 10.1464 10.8536C10.2402 10.9473 10.3674 11 10.5 11H12.5C12.6326 11 12.7598 10.9473 12.8536 10.8536C12.9473 10.7598 13 10.6326 13 10.5ZM9.5 10.5C9.5 10.3674 9.44732 10.2402 9.35355 10.1464C9.25979 10.0527 9.13261 10 9 10H7C6.86739 10 6.74021 10.0527 6.64645 10.1464C6.55268 10.2402 6.5 10.3674 6.5 10.5C6.5 10.6326 6.55268 10.7598 6.64645 10.8536C6.74021 10.9473 6.86739 11 7 11H9C9.13261 11 9.25979 10.9473 9.35355 10.8536C9.44732 10.7598 9.5 10.6326 9.5 10.5ZM6 12C6 11.8674 5.94732 11.7402 5.85355 11.6464C5.75979 11.5527 5.63261 11.5 5.5 11.5H3.5C3.36739 11.5 3.24021 11.5527 3.14645 11.6464C3.05268 11.7402 3 11.8674 3 12C3 12.1326 3.05268 12.2598 3.14645 12.3536C3.24021 12.4473 3.36739 12.5 3.5 12.5H5.5C5.63261 12.5 5.75979 12.4473 5.85355 12.3536C5.94732 12.2598 6 12.1326 6 12ZM13 12C13 11.8674 12.9473 11.7402 12.8536 11.6464C12.7598 11.5527 12.6326 11.5 12.5 11.5H10.5C10.3674 11.5 10.2402 11.5527 10.1464 11.6464C10.0527 11.7402 10 11.8674 10 12C10 12.1326 10.0527 12.2598 10.1464 12.3536C10.2402 12.4473 10.3674 12.5 10.5 12.5H12.5C12.6326 12.5 12.7598 12.4473 12.8536 12.3536C12.9473 12.2598 13 12.1326 13 12ZM9.5 12C9.5 11.8674 9.44732 11.7402 9.35355 11.6464C9.25979 11.5527 9.13261 11.5 9 11.5H7C6.86739 11.5 6.74021 11.5527 6.64645 11.6464C6.55268 11.7402 6.5 11.8674 6.5 12C6.5 12.1326 6.55268 12.2598 6.64645 12.3536C6.74021 12.4473 6.86739 12.5 7 12.5H9C9.13261 12.5 9.25979 12.4473 9.35355 12.3536C9.44732 12.2598 9.5 12.1326 9.5 12ZM15 3.5V13.5C14.9996 13.8977 14.8414 14.279 14.5602 14.5602C14.279 14.8414 13.8977 14.9996 13.5 15H2.5C2.1023 14.9996 1.721 14.8414 1.43978 14.5602C1.15856 14.279 1.0004 13.8977 1 13.5V3.5C1.0004 3.1023 1.15856 2.721 1.43978 2.43978C1.721 2.15856 2.1023 2.0004 2.5 2H4V1.5C4 1.36739 4.05268 1.24021 4.14645 1.14645C4.24021 1.05268 4.36739 1 4.5 1C4.63261 1 4.75979 1.05268 4.85355 1.14645C4.94732 1.24021 5 1.36739 5 1.5V2H7.5V1.5C7.5 1.36739 7.55268 1.24021 7.64645 1.14645C7.74021 1.05268 7.86739 1 8 1C8.13261 1 8.25979 1.05268 8.35355 1.14645C8.44732 1.24021 8.5 1.36739 8.5 1.5V2H11V1.5C11 1.36739 11.0527 1.24021 11.1464 1.14645C11.2402 1.05268 11.3674 1 11.5 1C11.6326 1 11.7598 1.05268 11.8536 1.14645C11.9473 1.24021 12 1.36739 12 1.5V2H13.5C13.8977 2.0004 14.279 2.15856 14.5602 2.43978C14.8414 2.721 14.9996 3.1023 15 3.5ZM2 3.5V4.5H14V3.5C13.9999 3.36743 13.9471 3.24033 13.8534 3.14659C13.7597 3.05285 13.6326 3.00013 13.5 3H12V3.5C12 3.63261 11.9473 3.75979 11.8536 3.85355C11.7598 3.94732 11.6326 4 11.5 4C11.3674 4 11.2402 3.94732 11.1464 3.85355C11.0527 3.75979 11 3.63261 11 3.5V3H8.5V3.5C8.5 3.63261 8.44732 3.75979 8.35355 3.85355C8.25979 3.94732 8.13261 4 8 4C7.86739 4 7.74021 3.94732 7.64645 3.85355C7.55268 3.75979 7.5 3.63261 7.5 3.5V3H5V3.5C5 3.63261 4.94732 3.75979 4.85355 3.85355C4.75979 3.94732 4.63261 4 4.5 4C4.36739 4 4.24021 3.94732 4.14645 3.85355C4.05268 3.75979 4 3.63261 4 3.5V3H2.5C2.36743 3.00013 2.24033 3.05285 2.14659 3.14659C2.05285 3.24033 2.00013 3.36743 2 3.5ZM14 13.5V5.5H2V13.5C2.00013 13.6326 2.05285 13.7597 2.14659 13.8534C2.24033 13.9471 2.36743 13.9999 2.5 14H13.5C13.6326 13.9999 13.7597 13.9471 13.8534 13.8534C13.9471 13.7597 13.9999 13.6326 14 13.5Z" fill="#262525"/>
</g>
<defs>
<clipPath id="clip0_2556_895">
<rect width="16" height="16" fill="white"/>
</clipPath>
</defs>
</svg>
