<svg width="38" height="38" viewBox="0 0 38 38" fill="none" xmlns="http://www.w3.org/2000/svg">
<rect x="0.5" y="0.5" width="37" height="37" rx="18.5" fill="#EE1C25"/>
<path d="M11.4569 28.14C10.8835 28.14 10.3302 28.07 9.79688 27.93C9.27021 27.7833 8.84021 27.5967 8.50688 27.37L9.15688 25.91C9.47021 26.11 9.83021 26.2767 10.2369 26.41C10.6502 26.5367 11.0602 26.6 11.4669 26.6C11.7402 26.6 11.9602 26.5767 12.1269 26.53C12.2935 26.4767 12.4135 26.41 12.4869 26.33C12.5669 26.2433 12.6069 26.1433 12.6069 26.03C12.6069 25.87 12.5335 25.7433 12.3869 25.65C12.2402 25.5567 12.0502 25.48 11.8169 25.42C11.5835 25.36 11.3235 25.3 11.0369 25.24C10.7569 25.18 10.4735 25.1033 10.1869 25.01C9.90688 24.9167 9.65021 24.7967 9.41688 24.65C9.18354 24.4967 8.99354 24.3 8.84688 24.06C8.70021 23.8133 8.62687 23.5033 8.62687 23.13C8.62687 22.71 8.74021 22.33 8.96688 21.99C9.20021 21.65 9.54688 21.3767 10.0069 21.17C10.4669 20.9633 11.0402 20.86 11.7269 20.86C12.1869 20.86 12.6369 20.9133 13.0769 21.02C13.5235 21.12 13.9202 21.27 14.2669 21.47L13.6569 22.94C13.3235 22.76 12.9935 22.6267 12.6669 22.54C12.3402 22.4467 12.0235 22.4 11.7169 22.4C11.4435 22.4 11.2235 22.43 11.0569 22.49C10.8902 22.5433 10.7702 22.6167 10.6969 22.71C10.6235 22.8033 10.5869 22.91 10.5869 23.03C10.5869 23.1833 10.6569 23.3067 10.7969 23.4C10.9435 23.4867 11.1335 23.56 11.3669 23.62C11.6069 23.6733 11.8669 23.73 12.1469 23.79C12.4335 23.85 12.7169 23.9267 12.9969 24.02C13.2835 24.1067 13.5435 24.2267 13.7769 24.38C14.0102 24.5267 14.1969 24.7233 14.3369 24.97C14.4835 25.21 14.5569 25.5133 14.5569 25.88C14.5569 26.2867 14.4402 26.6633 14.2069 27.01C13.9802 27.35 13.6369 27.6233 13.1769 27.83C12.7235 28.0367 12.1502 28.14 11.4569 28.14ZM19.0015 28.14C18.4415 28.14 17.9248 28.05 17.4515 27.87C16.9782 27.69 16.5648 27.4367 16.2115 27.11C15.8648 26.7767 15.5948 26.39 15.4015 25.95C15.2082 25.51 15.1115 25.0267 15.1115 24.5C15.1115 23.9733 15.2082 23.49 15.4015 23.05C15.5948 22.61 15.8648 22.2267 16.2115 21.9C16.5648 21.5667 16.9782 21.31 17.4515 21.13C17.9248 20.95 18.4415 20.86 19.0015 20.86C19.5682 20.86 20.0848 20.95 20.5515 21.13C21.0248 21.31 21.4348 21.5667 21.7815 21.9C22.1282 22.2267 22.3982 22.61 22.5915 23.05C22.7915 23.49 22.8915 23.9733 22.8915 24.5C22.8915 25.0267 22.7915 25.5133 22.5915 25.96C22.3982 26.4 22.1282 26.7833 21.7815 27.11C21.4348 27.4367 21.0248 27.69 20.5515 27.87C20.0848 28.05 19.5682 28.14 19.0015 28.14ZM19.0015 26.5C19.2682 26.5 19.5148 26.4533 19.7415 26.36C19.9748 26.2667 20.1748 26.1333 20.3415 25.96C20.5148 25.78 20.6482 25.5667 20.7415 25.32C20.8415 25.0733 20.8915 24.8 20.8915 24.5C20.8915 24.1933 20.8415 23.92 20.7415 23.68C20.6482 23.4333 20.5148 23.2233 20.3415 23.05C20.1748 22.87 19.9748 22.7333 19.7415 22.64C19.5148 22.5467 19.2682 22.5 19.0015 22.5C18.7348 22.5 18.4848 22.5467 18.2515 22.64C18.0248 22.7333 17.8248 22.87 17.6515 23.05C17.4848 23.2233 17.3515 23.4333 17.2515 23.68C17.1582 23.92 17.1115 24.1933 17.1115 24.5C17.1115 24.8 17.1582 25.0733 17.2515 25.32C17.3515 25.5667 17.4848 25.78 17.6515 25.96C17.8248 26.1333 18.0248 26.2667 18.2515 26.36C18.4848 26.4533 18.7348 26.5 19.0015 26.5ZM26.3885 28.14C25.8152 28.14 25.2618 28.07 24.7285 27.93C24.2018 27.7833 23.7718 27.5967 23.4385 27.37L24.0885 25.91C24.4018 26.11 24.7618 26.2767 25.1685 26.41C25.5818 26.5367 25.9918 26.6 26.3985 26.6C26.6718 26.6 26.8918 26.5767 27.0585 26.53C27.2252 26.4767 27.3452 26.41 27.4185 26.33C27.4985 26.2433 27.5385 26.1433 27.5385 26.03C27.5385 25.87 27.4652 25.7433 27.3185 25.65C27.1718 25.5567 26.9818 25.48 26.7485 25.42C26.5152 25.36 26.2552 25.3 25.9685 25.24C25.6885 25.18 25.4052 25.1033 25.1185 25.01C24.8385 24.9167 24.5818 24.7967 24.3485 24.65C24.1152 24.4967 23.9252 24.3 23.7785 24.06C23.6318 23.8133 23.5585 23.5033 23.5585 23.13C23.5585 22.71 23.6718 22.33 23.8985 21.99C24.1318 21.65 24.4785 21.3767 24.9385 21.17C25.3985 20.9633 25.9718 20.86 26.6585 20.86C27.1185 20.86 27.5685 20.9133 28.0085 21.02C28.4552 21.12 28.8518 21.27 29.1985 21.47L28.5885 22.94C28.2552 22.76 27.9252 22.6267 27.5985 22.54C27.2718 22.4467 26.9552 22.4 26.6485 22.4C26.3752 22.4 26.1552 22.43 25.9885 22.49C25.8218 22.5433 25.7018 22.6167 25.6285 22.71C25.5552 22.8033 25.5185 22.91 25.5185 23.03C25.5185 23.1833 25.5885 23.3067 25.7285 23.4C25.8752 23.4867 26.0652 23.56 26.2985 23.62C26.5385 23.6733 26.7985 23.73 27.0785 23.79C27.3652 23.85 27.6485 23.9267 27.9285 24.02C28.2152 24.1067 28.4752 24.2267 28.7085 24.38C28.9418 24.5267 29.1285 24.7233 29.2685 24.97C29.4152 25.21 29.4885 25.5133 29.4885 25.88C29.4885 26.2867 29.3718 26.6633 29.1385 27.01C28.9118 27.35 28.5685 27.6233 28.1085 27.83C27.6552 28.0367 27.0818 28.14 26.3885 28.14Z" fill="white"/>
<path d="M19 7.28101C18.3866 7.27966 17.7923 7.49446 17.3214 7.88769C16.8506 8.28092 16.5333 8.82745 16.4254 9.43132C16.4143 9.48754 16.4258 9.54585 16.4573 9.59371C16.4888 9.64157 16.5378 9.67516 16.5938 9.68726H16.6332C16.685 9.68811 16.7354 9.67054 16.7754 9.63769C16.8155 9.60485 16.8426 9.55885 16.8519 9.50789C16.942 9.00447 17.2069 8.549 17.5998 8.22168C17.9928 7.89436 18.4886 7.71617 19 7.71851C19.0581 7.71851 19.1137 7.69547 19.1547 7.65444C19.1958 7.61342 19.2188 7.55778 19.2188 7.49976C19.2188 7.44175 19.1958 7.38611 19.1547 7.34508C19.1137 7.30406 19.0581 7.28101 19 7.28101Z" fill="white"/>
<path d="M23.6222 14.0624C23.0148 13.003 22.695 11.8032 22.6947 10.5821V9.91926C22.6923 9.13299 22.4408 8.36771 21.9762 7.73335C21.5117 7.09899 20.858 6.62821 20.1091 6.38863V6.18738C20.1091 5.89034 19.9911 5.60546 19.7811 5.39542C19.571 5.18538 19.2861 5.06738 18.9891 5.06738C18.692 5.06738 18.4072 5.18538 18.1971 5.39542C17.9871 5.60546 17.8691 5.89034 17.8691 6.18738V6.40613C17.1226 6.64441 16.4705 7.11238 16.0058 7.74327C15.5411 8.37415 15.2875 9.13571 15.2813 9.91926V10.5886C15.2812 11.8072 14.963 13.0045 14.3582 14.0624L13.7675 15.0905C13.7483 15.1238 13.7382 15.1616 13.7382 15.2001C13.7383 15.2386 13.7484 15.2764 13.7677 15.3096C13.787 15.3429 13.8148 15.3705 13.8482 15.3897C13.8815 15.4088 13.9194 15.4188 13.9578 15.4186H17.2085C17.2781 15.8406 17.4953 16.2242 17.8214 16.501C18.1476 16.7777 18.5614 16.9296 18.9891 16.9296C19.4168 16.9296 19.8306 16.7777 20.1567 16.501C20.4829 16.2242 20.7001 15.8406 20.7697 15.4186H24.0313C24.0697 15.4188 24.1076 15.4088 24.141 15.3897C24.1743 15.3705 24.2021 15.3429 24.2214 15.3096C24.2407 15.2764 24.2509 15.2386 24.2509 15.2001C24.2509 15.1616 24.2408 15.1238 24.2216 15.0905L23.6222 14.0624ZM18.3066 6.21582V6.18738C18.3066 6.00637 18.3785 5.83278 18.5065 5.70478C18.6345 5.57679 18.8081 5.50488 18.9891 5.50488C19.1701 5.50488 19.3437 5.57679 19.4717 5.70478C19.5997 5.83278 19.6716 6.00637 19.6716 6.18738V6.22457L18.3066 6.21582ZM18.9891 16.4971C18.6768 16.4976 18.3738 16.3911 18.1305 16.1952C17.8873 15.9994 17.7186 15.726 17.6525 15.4208H20.3257C20.2613 15.7254 20.0948 15.9989 19.8536 16.1958C19.6125 16.3928 19.3113 16.5014 19 16.5036L18.9891 16.4971ZM14.3341 14.9877L14.7366 14.2811C15.3796 13.1575 15.7181 11.8854 15.7188 10.5908V9.91926C15.7188 9.05279 16.063 8.22181 16.6757 7.60912C17.2884 6.99643 18.1193 6.65223 18.9858 6.65223C19.8523 6.65223 20.6833 6.99643 21.2959 7.60912C21.9086 8.22181 22.2528 9.05279 22.2528 9.91926V10.5886C22.2558 11.8848 22.5974 13.1577 23.2438 14.2811L23.6463 14.9811L14.3341 14.9877Z" fill="white"/>
<path d="M14.4325 9.96091C14.3852 9.92769 14.3266 9.91457 14.2697 9.92441C14.2127 9.93425 14.1619 9.96625 14.1285 10.0134C13.8754 10.3759 13.7397 10.8073 13.7397 11.2493C13.7397 11.6914 13.8754 12.1228 14.1285 12.4853C14.1618 12.5329 14.2127 12.5652 14.2699 12.5753C14.3272 12.5853 14.386 12.5722 14.4336 12.5389C14.4812 12.5055 14.5136 12.4546 14.5236 12.3974C14.5337 12.3402 14.5206 12.2813 14.4872 12.2337C14.2859 11.9449 14.178 11.6014 14.178 11.2493C14.178 10.8973 14.2859 10.5538 14.4872 10.265C14.5202 10.2174 14.533 10.1586 14.5227 10.1016C14.5125 10.0446 14.48 9.99403 14.4325 9.96091ZM12.875 11.2493C12.8742 10.6303 13.0644 10.026 13.4197 9.51903C13.4379 9.49557 13.4511 9.46865 13.4586 9.43992C13.466 9.41119 13.4675 9.38124 13.463 9.3519C13.4586 9.32255 13.4481 9.29443 13.4324 9.26925C13.4167 9.24406 13.396 9.22233 13.3717 9.20539C13.3473 9.18845 13.3197 9.17664 13.2907 9.1707C13.2616 9.16475 13.2316 9.16478 13.2025 9.17079C13.1734 9.17681 13.1459 9.18867 13.1216 9.20567C13.0972 9.22266 13.0766 9.24443 13.061 9.26966C12.6556 9.85025 12.4383 10.5413 12.4383 11.2493C12.4383 11.9574 12.6556 12.6484 13.061 13.229C13.078 13.2526 13.0996 13.2725 13.1244 13.2878C13.1492 13.303 13.1768 13.3132 13.2055 13.3177C13.2343 13.3223 13.2636 13.3212 13.2919 13.3144C13.3202 13.3076 13.3469 13.2953 13.3705 13.2782C13.394 13.2612 13.414 13.2396 13.4292 13.2148C13.4444 13.19 13.4546 13.1624 13.4592 13.1337C13.4638 13.1049 13.4626 13.0756 13.4559 13.0473C13.4491 13.019 13.4368 12.9923 13.4197 12.9687C13.066 12.4651 12.8759 11.8648 12.875 11.2493ZM23.5675 9.96091C23.5204 9.99436 23.4884 10.0451 23.4785 10.1021C23.4687 10.1591 23.4818 10.2176 23.515 10.265C23.7163 10.5538 23.8242 10.8973 23.8242 11.2493C23.8242 11.6014 23.7163 11.9449 23.515 12.2337C23.4817 12.2813 23.4686 12.3402 23.4786 12.3974C23.4887 12.4546 23.521 12.5055 23.5686 12.5389C23.6162 12.5722 23.6751 12.5853 23.7323 12.5753C23.7895 12.5652 23.8404 12.5329 23.8738 12.4853C24.1268 12.1228 24.2625 11.6914 24.2625 11.2493C24.2625 10.8073 24.1268 10.3759 23.8738 10.0134C23.8572 9.98975 23.8361 9.96961 23.8117 9.95415C23.7873 9.93869 23.7601 9.92822 23.7316 9.92333C23.7031 9.91845 23.674 9.91926 23.6458 9.92571C23.6176 9.93216 23.591 9.94412 23.5675 9.96091ZM24.635 9.21497C24.5875 9.24809 24.5551 9.2987 24.5448 9.35569C24.5346 9.41269 24.5473 9.47143 24.5803 9.51903C24.9347 10.0261 25.1247 10.6297 25.1247 11.2482C25.1247 11.8668 24.9347 12.4704 24.5803 12.9775C24.547 13.025 24.5339 13.0839 24.5439 13.1411C24.554 13.1984 24.5864 13.2493 24.6339 13.2826C24.6815 13.316 24.7404 13.3291 24.7976 13.319C24.8548 13.309 24.9057 13.2766 24.9391 13.229C25.3444 12.6484 25.5617 11.9574 25.5617 11.2493C25.5617 10.5413 25.3444 9.85025 24.9391 9.26966C24.906 9.22215 24.8554 9.18971 24.7984 9.17946C24.7414 9.16921 24.6826 9.18198 24.635 9.21497Z" fill="white"/>
<rect x="0.5" y="0.5" width="37" height="37" rx="18.5" stroke="#EE1C25"/>
</svg>
