<svg width="18" height="17" viewBox="0 0 18 17" fill="none" xmlns="http://www.w3.org/2000/svg">
<path d="M14.3143 16.8253C13.7145 17.2525 9.86597 14.5444 9.12889 14.5384C8.39182 14.5325 4.49999 17.1784 3.9072 16.7415C3.31441 16.3047 4.70803 11.8181 4.48594 11.1173C4.26385 10.4165 0.537667 7.54324 0.771078 6.84608C1.00454 6.14891 5.71434 6.08416 6.31413 5.65694C6.91391 5.22978 8.50287 0.808192 9.23999 0.814093C9.97702 0.820045 11.4942 5.26662 12.087 5.70343C12.6798 6.14019 17.388 6.28078 17.6101 6.98159C17.8322 7.6824 14.0601 10.4953 13.8266 11.1925C13.5932 11.8897 14.914 16.3981 14.3143 16.8253Z" fill="#F8B84E"/>
</svg>
