<svg width="45" height="45" viewBox="0 0 45 45" fill="none" xmlns="http://www.w3.org/2000/svg">
<g clip-path="url(#clip0_805_4286)">
<g clip-path="url(#clip1_805_4286)">
<path d="M42.3632 22.5C43.3564 21.5771 43.8749 20.1885 43.6201 18.7646C43.3652 17.332 42.4072 16.207 41.1679 15.6797C41.7831 14.4756 41.8007 12.9902 41.08 11.7334C40.3593 10.4766 39.0673 9.74707 37.7226 9.67676C37.8896 8.33203 37.4062 6.93457 36.29 6.00293C35.7655 5.56011 35.1375 5.25701 34.4645 5.12179C33.7915 4.98658 33.0952 5.02362 32.4404 5.22949C32.1415 3.91113 31.2011 2.75977 29.8476 2.26758C28.4853 1.7666 27.0351 2.03906 25.9628 2.86523C25.2158 1.72266 23.9501 0.966797 22.4999 0.966797C21.0498 0.966797 19.7841 1.72266 19.0546 2.85645C17.9824 2.03906 16.5322 1.7666 15.1699 2.25879C13.8076 2.75977 12.8671 3.90234 12.5771 5.2207C11.9222 5.01483 11.226 4.97779 10.553 5.11301C9.87995 5.24822 9.25202 5.55132 8.72749 5.99414C7.60249 6.94336 7.11909 8.34082 7.28608 9.67676C5.94135 9.73828 4.64936 10.4678 3.92866 11.7334C3.20796 12.9902 3.21675 14.4756 3.84077 15.6797C2.60151 16.207 1.63471 17.332 1.38862 18.7646C1.13374 20.1973 1.65229 21.5859 2.64546 22.5C1.65229 23.4229 1.13374 24.8115 1.38862 26.2354C1.6435 27.668 2.60151 28.793 3.84077 29.3203C3.22553 30.5244 3.20796 32.0098 3.92866 33.2666C4.64936 34.5234 5.94135 35.2529 7.28608 35.3232C7.11909 36.668 7.60249 38.0654 8.7187 38.9971C9.24323 39.4399 9.87116 39.743 10.5442 39.8782C11.2172 40.0134 11.9134 39.9764 12.5683 39.7705C12.8671 41.0889 13.8076 42.2402 15.1611 42.7324C16.5234 43.2334 17.9736 42.9609 19.0458 42.1348C19.7753 43.2773 21.0498 44.0244 22.4912 44.0244C23.9414 44.0244 25.207 43.2686 25.9365 42.1348C27.0087 42.9521 28.4589 43.2246 29.8212 42.7324C31.1835 42.2314 32.124 41.0889 32.414 39.7705C33.6972 40.1748 35.1562 39.9287 36.2636 38.9971C37.371 38.0654 37.8632 36.6592 37.6962 35.3232C39.041 35.2617 40.333 34.5322 41.0537 33.2666C41.7744 32.0098 41.7656 30.5244 41.1415 29.3203C42.3808 28.793 43.3476 27.668 43.5937 26.2354C43.8662 24.8115 43.3476 23.4229 42.3632 22.5Z" fill="white"/>
<path d="M22.5 44.6924C21.0937 44.6924 19.793 44.0859 18.8965 43.0312C17.6924 43.708 16.2598 43.8311 14.9414 43.3564C13.623 42.873 12.6035 41.8535 12.1201 40.5615C10.7578 40.79 9.36913 40.4121 8.29686 39.5068C7.2246 38.6016 6.61815 37.292 6.60057 35.9033C5.24706 35.6484 4.06932 34.8135 3.3662 33.6006C2.66307 32.3789 2.54003 30.9375 2.99706 29.6367C1.81053 28.9336 0.984362 27.7471 0.738269 26.3584C0.492175 24.9697 0.870104 23.5723 1.74022 22.5088C0.861315 21.4365 0.492175 20.0391 0.738269 18.6592C0.984362 17.2705 1.81053 16.084 2.99706 15.3809C2.54003 14.0713 2.66307 12.6299 3.3662 11.417C4.06932 10.1953 5.24706 9.36914 6.60057 9.11426C6.61815 7.73437 7.2246 6.41602 8.29686 5.51074C9.36913 4.60547 10.7666 4.22754 12.1201 4.45605C12.6035 3.16406 13.623 2.13574 14.9414 1.66113C16.2598 1.17773 17.6924 1.30078 18.8965 1.98633C19.793 0.914063 21.0937 0.307617 22.5 0.307617C23.9062 0.307617 25.207 0.914062 26.1035 1.96875C27.3076 1.29199 28.7402 1.16895 30.0586 1.64355C31.3769 2.12695 32.3965 3.14648 32.8799 4.43848C34.2422 4.20996 35.6308 4.58789 36.7031 5.49316C37.7754 6.39844 38.3818 7.70801 38.3994 9.09668C39.7529 9.35156 40.9307 10.1865 41.6338 11.3994C42.3369 12.6211 42.4599 14.0625 42.0029 15.3633C43.1894 16.0664 44.0156 17.2529 44.2617 18.6416C44.5078 20.0303 44.1299 21.4277 43.2598 22.4912C44.1387 23.5635 44.5078 24.9609 44.2617 26.3408C44.0156 27.7295 43.1894 28.916 42.0029 29.6191C42.4599 30.9287 42.3369 32.3701 41.6338 33.583C40.9307 34.8047 39.7529 35.6309 38.3994 35.8857C38.3818 37.2656 37.7754 38.584 36.7031 39.4893C35.6308 40.3945 34.2334 40.7725 32.8799 40.5439C32.3965 41.8359 31.3769 42.8643 30.0586 43.3389C28.7402 43.8223 27.3076 43.6992 26.1035 43.0137C25.207 44.0859 23.9062 44.6924 22.5 44.6924ZM19.0547 41.4844C19.0898 41.4844 19.1338 41.4844 19.1689 41.4932C19.3535 41.5283 19.5117 41.6338 19.6084 41.7832C20.25 42.7764 21.331 43.374 22.5 43.374C23.6777 43.374 24.7588 42.7764 25.3916 41.7832C25.4883 41.625 25.6465 41.5195 25.831 41.4932C26.0156 41.458 26.2002 41.5107 26.3496 41.6162C27.29 42.3281 28.5029 42.5215 29.6103 42.1172C30.7178 41.7129 31.5264 40.7812 31.79 39.6299C31.834 39.4541 31.9482 39.2959 32.1064 39.208C32.2646 39.1201 32.458 39.0938 32.6338 39.1465C33.7588 39.498 34.9629 39.252 35.8682 38.4961C36.7734 37.7402 37.2217 36.5801 37.0723 35.4111C37.0459 35.2266 37.1074 35.042 37.2217 34.9014C37.3359 34.7607 37.5117 34.6729 37.6963 34.6641C38.874 34.6113 39.9287 33.9609 40.5176 32.9414C41.1064 31.9219 41.1328 30.6826 40.5967 29.6279C40.5088 29.4609 40.5 29.2764 40.5615 29.1006C40.623 28.9248 40.7549 28.793 40.9219 28.7227C42.0117 28.2656 42.7764 27.2988 42.9873 26.1387C43.1894 24.9785 42.7939 23.8008 41.9326 23.001C41.8008 22.8779 41.7217 22.7022 41.7217 22.5176C41.7217 22.333 41.8008 22.1572 41.9326 22.0342C42.8027 21.2344 43.1982 20.0566 42.9873 18.8965C42.7851 17.7363 42.0117 16.7695 40.9219 16.3125C40.7549 16.2422 40.623 16.1016 40.5615 15.9346C40.5 15.7676 40.5088 15.5742 40.5967 15.4072C41.1328 14.3525 41.1064 13.1133 40.5176 12.0938C39.9287 11.0742 38.874 10.4238 37.6963 10.3711C37.5117 10.3623 37.3447 10.2744 37.2217 10.1338C37.1074 9.99316 37.0459 9.80859 37.0723 9.62402C37.2217 8.44629 36.7734 7.29492 35.8682 6.53906C34.9717 5.7832 33.7588 5.53711 32.6338 5.88867C32.458 5.94141 32.2646 5.92383 32.1064 5.82715C31.9482 5.73926 31.834 5.58105 31.79 5.40527C31.5264 4.25391 30.7178 3.32227 29.6103 2.91797C28.5029 2.51367 27.29 2.69824 26.3496 3.41895C26.2002 3.5332 26.0156 3.57715 25.831 3.54199C25.6465 3.50684 25.4883 3.40137 25.3916 3.25195C24.75 2.25879 23.6689 1.66113 22.5 1.66113C21.3223 1.66113 20.2412 2.25879 19.6084 3.25195C19.5117 3.41016 19.3535 3.51562 19.1689 3.54199C18.9844 3.57715 18.7998 3.52441 18.6504 3.41895C17.7099 2.70703 16.4971 2.51367 15.3896 2.91797C14.2822 3.32227 13.4736 4.25391 13.2099 5.40527C13.166 5.58105 13.0517 5.73926 12.8935 5.82715C12.7353 5.91504 12.542 5.94141 12.3662 5.88867C11.2412 5.53711 10.0371 5.7832 9.13182 6.53906C8.22655 7.29492 7.77831 8.45508 7.92772 9.62402C7.95409 9.80859 7.89257 9.99316 7.77831 10.1338C7.66405 10.2744 7.48827 10.3623 7.3037 10.3711C6.12596 10.4238 5.07128 11.0742 4.48241 12.0938C3.89354 13.1133 3.86717 14.3525 4.40331 15.4072C4.4912 15.5742 4.49999 15.7588 4.43846 15.9346C4.37694 16.1104 4.2451 16.2422 4.07811 16.3125C2.98827 16.7695 2.22362 17.7363 2.01268 18.8965C1.81053 20.0566 2.20604 21.2344 3.06737 22.0342C3.19921 22.1572 3.27831 22.333 3.27831 22.5176C3.27831 22.7022 3.19921 22.8779 3.06737 23.001C2.19725 23.8008 1.80175 24.9785 2.01268 26.1387C2.21483 27.2988 2.98827 28.2656 4.07811 28.7227C4.2451 28.793 4.37694 28.9336 4.43846 29.1006C4.49999 29.2764 4.4912 29.4609 4.40331 29.6279C3.86717 30.6826 3.89354 31.9219 4.48241 32.9414C5.07128 33.9609 6.12596 34.6113 7.3037 34.6641C7.48827 34.6729 7.65526 34.7607 7.77831 34.9014C7.89257 35.042 7.95409 35.2266 7.92772 35.4111C7.77831 36.5889 8.22655 37.7402 9.13182 38.4961C10.0283 39.252 11.2412 39.498 12.3662 39.1465C12.542 39.0938 12.7353 39.1113 12.8935 39.208C13.0517 39.2959 13.166 39.4541 13.2099 39.6299C13.4736 40.7812 14.2822 41.7129 15.3896 42.1172C16.4971 42.5215 17.7099 42.3369 18.6504 41.6162C18.7646 41.5283 18.9053 41.4844 19.0547 41.4844Z" fill="black"/>
<path d="M22.5 37.1602C30.5966 37.1602 37.1602 30.5966 37.1602 22.5C37.1602 14.4034 30.5966 7.83984 22.5 7.83984C14.4034 7.83984 7.83984 14.4034 7.83984 22.5C7.83984 30.5966 14.4034 37.1602 22.5 37.1602Z" fill="#1D951B"/>
<path d="M22.5 37.8193C14.0537 37.8193 7.18066 30.9463 7.18066 22.5C7.18066 14.0537 14.0537 7.18066 22.5 7.18066C30.9463 7.18066 37.8193 14.0537 37.8193 22.5C37.8193 30.9463 30.9463 37.8193 22.5 37.8193ZM22.5 8.49902C14.7832 8.49902 8.49902 14.7832 8.49902 22.5C8.49902 30.2168 14.7832 36.501 22.5 36.501C30.2168 36.501 36.501 30.2168 36.501 22.5C36.501 14.7832 30.2168 8.49902 22.5 8.49902Z" fill="black"/>
<path d="M14.7744 22.5C14.7744 15.6006 19.5469 9.80859 25.9717 8.25293C24.8643 7.98047 23.6953 7.83984 22.5088 7.83984C14.4141 7.83984 7.84863 14.4053 7.84863 22.5C7.84863 30.5947 14.4053 37.1602 22.5 37.1602C23.6953 37.1602 24.8555 37.0195 25.9629 36.7471C19.5469 35.1914 14.7744 29.3994 14.7744 22.5Z" fill="#086507"/>
<path d="M22.5 37.8193C14.0537 37.8193 7.18066 30.9463 7.18066 22.5C7.18066 14.0537 14.0537 7.18066 22.5 7.18066C30.9463 7.18066 37.8193 14.0537 37.8193 22.5C37.8193 30.9463 30.9463 37.8193 22.5 37.8193ZM22.5 8.49902C14.7832 8.49902 8.49902 14.7832 8.49902 22.5C8.49902 30.2168 14.7832 36.501 22.5 36.501C30.2168 36.501 36.501 30.2168 36.501 22.5C36.501 14.7832 30.2168 8.49902 22.5 8.49902Z" fill="black"/>
<g clip-path="url(#clip2_805_4286)">
<g clip-path="url(#clip3_805_4286)">
<path d="M26.7712 21.6842L22.9988 33.0164L19.2257 21.6842H26.7712ZM11.668 21.6842L16.3924 16.9653L19.2257 21.6842H11.668ZM34.3319 21.6842L29.6041 16.9653L26.7712 21.6842H34.3319Z" fill="white"/>
<path d="M22.9989 33.6845L11 21.6845L16.1972 16.4937H29.7997L35 21.6843L22.9989 33.6845ZM12.3361 21.6849L22.9989 32.3493L33.6639 21.6851L29.4088 17.4381H16.5878L12.3361 21.6849Z" fill="#242D3C"/>
<path d="M19.2256 21.2124H26.7709V22.1567H19.2256V21.2124Z" fill="black"/>
<path d="M22.5508 33.1658L18.8852 22.1567H11.668V21.2124H19.5662L23.4469 32.8675L22.5508 33.1658Z" fill="black"/>
<path d="M23.4469 33.1659L22.5508 32.8676L26.4307 21.2125H34.3319V22.1567H27.1117L23.4469 33.1659ZM20.0599 22.1567H11.668V21.2125H18.3916L15.9875 17.2088L16.7972 16.7227L20.0599 22.1567Z" fill="black"/>
<path d="M22.6307 16.6709L23.3681 17.2607L19.5943 21.979L18.8569 21.3892L22.6307 16.6709Z" fill="black"/>
<path d="M26.8263 22.5099L22.6299 17.2606L23.3675 16.6709L26.716 20.8591L29.1992 16.7226L30.0089 17.2087L26.8263 22.5099Z" fill="black"/>
<path d="M22.5279 10.3159H23.4721V13.1489H22.5279V10.3159ZM26.0116 10.821L26.884 11.1824L25.7994 13.7998L24.927 13.4383L26.0116 10.821ZM29.0374 12.6199L29.7049 13.2876L27.7016 15.291L27.0341 14.6233L29.0374 12.6199ZM19.9883 10.8212L21.0724 13.4386L20.2 13.8L19.1159 11.1826L19.9883 10.8212ZM16.9632 12.6206L18.966 14.6242L18.2983 15.2917L16.2954 13.2882L16.9632 12.6206Z" fill="white"/>
</g>
</g>
</g>
</g>
<defs>
<clipPath id="clip0_805_4286">
<rect width="45" height="45" fill="white"/>
</clipPath>
<clipPath id="clip1_805_4286">
<rect width="45" height="45" fill="white"/>
</clipPath>
<clipPath id="clip2_805_4286">
<rect width="24" height="24" fill="white" transform="translate(11 10)"/>
</clipPath>
<clipPath id="clip3_805_4286">
<rect width="24" height="24" fill="white" transform="translate(11 10)"/>
</clipPath>
</defs>
</svg>
