<svg width="61" height="62" viewBox="0 0 61 62" fill="none" xmlns="http://www.w3.org/2000/svg">
<g filter="url(#filter0_i_905_201)">
<path d="M0.499817 9.4993C0.499817 4.5287 4.52932 0.499298 9.49992 0.499298L59.4998 0.499998L0.499817 61.4997V9.4993Z" fill="#F8B84E"/>
</g>
<path d="M11.8178 43.5325L6.75879 38.6945L8.85289 36.5047C9.28599 36.0518 9.73389 35.7329 10.1966 35.5481C10.6544 35.3587 11.1059 35.3062 11.551 35.3905C11.9962 35.4749 12.409 35.6991 12.7897 36.0631C13.1655 36.4225 13.4055 36.8226 13.5096 37.2635C13.6138 37.7044 13.5839 38.1601 13.4199 38.6306C13.2512 39.0964 12.9502 39.5558 12.5171 40.0087L11.045 41.5481L11.015 40.5232L12.9375 42.3617L11.8178 43.5325ZM11.1451 40.6476L10.091 40.6358L11.5009 39.1615C11.8465 38.8001 12.0274 38.4566 12.0437 38.1308C12.06 37.8051 11.9308 37.511 11.6562 37.2483C11.3768 36.9811 11.0747 36.8629 10.75 36.8937C10.4254 36.9245 10.0903 37.1206 9.74469 37.482L8.33479 38.9564L8.27589 37.9038L11.1451 40.6476ZM16.7296 38.3962L12.8413 34.6779L13.8711 33.601L14.9697 34.6516L14.5065 34.4992C14.3425 34.121 14.3127 33.7373 14.4172 33.3484C14.5168 32.9548 14.7417 32.5749 15.0919 32.2087L16.1326 33.2039C16.0817 33.2475 16.0379 33.2886 16.001 33.3271C15.9593 33.3611 15.9177 33.3997 15.8763 33.4431C15.5814 33.7514 15.4309 34.0872 15.4249 34.4504C15.4187 34.8042 15.601 35.1585 15.972 35.5133L17.8078 37.2687L16.7296 38.3962ZM21.5552 33.4658C21.1313 33.909 20.6714 34.2164 20.1754 34.3878C19.684 34.5543 19.2014 34.5863 18.7276 34.4838C18.249 34.3766 17.8169 34.1387 17.4315 33.7701C17.0412 33.3969 16.782 32.9783 16.6537 32.5143C16.5252 32.041 16.5264 31.5671 16.6573 31.0926C16.7833 30.6136 17.0353 30.1765 17.4131 29.7814C17.7771 29.4008 18.1861 29.137 18.6402 28.9901C19.0941 28.8338 19.5581 28.8117 20.0321 28.9237C20.5013 29.0311 20.9455 29.2852 21.3647 29.686C21.408 29.7275 21.4563 29.7783 21.5095 29.8384C21.5579 29.8939 21.6039 29.9471 21.6475 29.998L18.6272 33.1563L17.9695 32.5274L20.4231 29.9617L20.2035 30.582C20.0012 30.3884 19.7861 30.2612 19.5584 30.2003C19.3308 30.1394 19.1068 30.142 18.8867 30.2082C18.6617 30.2698 18.4571 30.397 18.2728 30.5897C18.0885 30.7825 17.9683 30.995 17.9122 31.2273C17.8559 31.4501 17.8657 31.6763 17.9415 31.9056C18.0125 32.1303 18.1516 32.3418 18.3588 32.5399L18.5323 32.7058C18.7443 32.9085 18.976 33.0424 19.2273 33.1075C19.4785 33.1632 19.728 33.1482 19.976 33.0625C20.2238 32.9674 20.4583 32.8042 20.6795 32.5729C20.8776 32.3657 21.019 32.1551 21.1039 31.941C21.1933 31.7221 21.2375 31.4877 21.2367 31.2379L22.4608 31.26C22.4927 31.6318 22.435 32.0056 22.2878 32.3814C22.1358 32.7526 21.8916 33.114 21.5552 33.4658ZM24.828 22.0276C25.1229 21.7192 25.4458 21.5069 25.7969 21.3906C26.1477 21.2649 26.5153 21.2567 26.8997 21.366C27.2839 21.4658 27.6735 21.7047 28.0686 22.0825L30.2946 24.2112L29.2164 25.3386L27.1639 23.3758C26.8507 23.0763 26.5572 22.9202 26.2834 22.9075C26.0097 22.8947 25.7599 23.0064 25.5341 23.2425C25.3775 23.4063 25.2755 23.5901 25.2282 23.7939C25.176 23.9931 25.1901 24.2003 25.2704 24.4154C25.3506 24.6305 25.5064 24.8486 25.7376 25.0698L27.689 26.9359L26.6108 28.0633L24.5583 26.1005C24.2451 25.801 23.9516 25.6449 23.6779 25.6321C23.4087 25.6146 23.1612 25.7238 22.9355 25.9599C22.7788 26.1237 22.6768 26.3076 22.6295 26.5114C22.5774 26.7106 22.5914 26.9177 22.6717 27.1328C22.7519 27.3479 22.9077 27.5661 23.139 27.7872L25.0903 29.6533L24.0122 30.7808L20.1239 27.0625L21.1537 25.9856L22.2161 27.0016L21.7118 26.9067C21.5758 26.5184 21.5579 26.1369 21.6579 25.7621C21.7578 25.378 21.9598 25.0269 22.2639 24.7089C22.6048 24.3523 22.9936 24.1291 23.4301 24.0392C23.8664 23.9399 24.3115 24.0242 24.7654 24.2923L24.2769 24.5861C24.0978 24.1657 24.055 23.7282 24.1485 23.2734C24.2467 22.8139 24.4732 22.3986 24.828 22.0276ZM31.261 23.2006L27.3727 19.4823L28.4509 18.3548L32.3391 22.0732L31.261 23.2006ZM27.3698 18.4002C27.1716 18.6074 26.9501 18.7184 26.7053 18.7333C26.4604 18.7482 26.2489 18.6705 26.0706 18.5C25.8923 18.3295 25.8051 18.1216 25.8091 17.8763C25.813 17.6311 25.9141 17.4048 26.1122 17.1976C26.3103 16.9905 26.5294 16.8771 26.7695 16.8576C27.0047 16.8335 27.2114 16.9067 27.3897 17.0772C27.5776 17.2569 27.672 17.4716 27.6729 17.7215C27.6735 17.962 27.5725 18.1882 27.3698 18.4002ZM34.9665 19.4415C34.6578 19.7643 34.3187 19.9935 33.9492 20.1291C33.5843 20.2598 33.2074 20.2729 32.8184 20.1685C32.4246 20.0594 32.0278 19.8136 31.6279 19.4312L29.4308 17.3302L30.5089 16.2027L32.5398 18.1448C32.8626 18.4535 33.1656 18.6141 33.4488 18.6267C33.7318 18.6298 33.9931 18.506 34.2327 18.2555C34.3986 18.082 34.5099 17.8933 34.5666 17.6893C34.6185 17.4807 34.6043 17.2641 34.5238 17.0395C34.4385 16.8104 34.2778 16.5829 34.0417 16.3572L32.1193 14.5188L33.1975 13.3913L37.0857 17.1096L36.0629 18.1792L34.9932 17.1564L35.4906 17.2584C35.636 17.6465 35.6565 18.0351 35.552 18.4241C35.4473 18.8036 35.2521 19.1428 34.9665 19.4415ZM38.9004 7.31191C39.1953 7.00361 39.5183 6.79121 39.8693 6.67491C40.2201 6.54921 40.5877 6.541 40.9721 6.6503C41.3563 6.7502 41.7459 6.989 42.141 7.3668L44.367 9.4955L43.2888 10.623L41.2363 8.6601C40.9231 8.3607 40.6296 8.2045 40.3559 8.1918C40.0821 8.1791 39.8323 8.2907 39.6066 8.5268C39.4499 8.6906 39.3479 8.87441 39.3006 9.07831C39.2485 9.27751 39.2625 9.4846 39.3428 9.6997C39.423 9.9148 39.5788 10.133 39.8101 10.3541L41.7614 12.2202L40.6832 13.3476L38.6307 11.3848C38.3175 11.0853 38.0241 10.9292 37.7503 10.9165C37.4811 10.8989 37.2337 11.0082 37.0079 11.2443C36.8512 11.4081 36.7492 11.5919 36.7019 11.7957C36.6498 11.9949 36.6639 12.2021 36.7441 12.4172C36.8244 12.6323 36.9801 12.8504 37.2114 13.0716L39.1628 14.9376L38.0846 16.0651L34.1963 12.3468L35.2261 11.2699L36.2885 12.2859L35.7842 12.1911C35.6482 11.8027 35.6303 11.4212 35.7304 11.0465C35.8302 10.6623 36.0322 10.3112 36.3363 9.9932C36.6773 9.6367 37.066 9.41351 37.5025 9.32351C37.9388 9.22421 38.3839 9.3086 38.8379 9.5766L38.3493 9.8705C38.1702 9.4501 38.1274 9.01251 38.221 8.55781C38.3192 8.09821 38.5456 7.68291 38.9004 7.31191Z" fill="white"/>
<mask id="mask0_905_201" style="mask-type:luminance" maskUnits="userSpaceOnUse" x="1" y="15" width="15" height="15">
<path d="M8.57088 15.8131L1.49982 22.8842L8.57088 29.9553L15.642 22.8842L8.57088 15.8131Z" fill="white"/>
</mask>
<g mask="url(#mask0_905_201)">
<path d="M9.69793 27.6496L8.10693 25.1011L5.10913 25.3147L7.04633 23.0092L5.91933 20.2323L8.69623 21.3593L11.0016 19.4221L10.788 22.42L13.3366 24.0109L10.4197 24.7328L9.69793 27.6496Z" fill="white"/>
</g>
<mask id="mask1_905_201" style="mask-type:luminance" maskUnits="userSpaceOnUse" x="8" y="8" width="15" height="15">
<path d="M15.8131 8.57103L8.742 15.6421L15.8131 22.7132L22.8841 15.6421L15.8131 8.57103Z" fill="white"/>
</mask>
<g mask="url(#mask1_905_201)">
<path d="M16.9401 20.4074L15.3491 17.8589L12.3512 18.0725L14.2884 15.7671L13.1615 12.9902L15.9383 14.1171L18.2438 12.18L18.0302 15.1778L20.5787 16.7688L17.6619 17.4906L16.9401 20.4074Z" fill="white"/>
</g>
<mask id="mask2_905_201" style="mask-type:luminance" maskUnits="userSpaceOnUse" x="15" y="1" width="15" height="15">
<path d="M22.8841 1.49995L15.813 8.57101L22.8841 15.6421L29.9551 8.57101L22.8841 1.49995Z" fill="white"/>
</mask>
<g mask="url(#mask2_905_201)">
<path d="M24.0111 13.3364L22.4201 10.7878L19.4223 11.0015L21.3595 8.696L20.2325 5.91911L23.0094 7.0461L25.3148 5.1089L25.1012 8.1067L27.6498 9.6977L24.7329 10.4196L24.0111 13.3364Z" fill="white"/>
</g>
<defs>
<filter id="filter0_i_905_201" x="0.499817" y="0.499298" width="59" height="61.0004" filterUnits="userSpaceOnUse" color-interpolation-filters="sRGB">
<feFlood flood-opacity="0" result="BackgroundImageFix"/>
<feBlend mode="normal" in="SourceGraphic" in2="BackgroundImageFix" result="shape"/>
<feColorMatrix in="SourceAlpha" type="matrix" values="0 0 0 0 0 0 0 0 0 0 0 0 0 0 0 0 0 0 127 0" result="hardAlpha"/>
<feOffset/>
<feGaussianBlur stdDeviation="3.5"/>
<feComposite in2="hardAlpha" operator="arithmetic" k2="-1" k3="1"/>
<feColorMatrix type="matrix" values="0 0 0 0 0 0 0 0 0 0 0 0 0 0 0 0 0 0 0.25 0"/>
<feBlend mode="normal" in2="shape" result="effect1_innerShadow_905_201"/>
</filter>
</defs>
</svg>
