<svg width="61" height="62" viewBox="0 0 61 62" fill="none" xmlns="http://www.w3.org/2000/svg">
<g filter="url(#filter0_i_905_201)">
<path d="M60.5002 9.4993C60.5002 4.5287 56.4707 0.499298 51.5001 0.499298L1.50018 0.499998L60.5002 61.4997V9.4993Z" fill="#F8B84E"/>
</g>
<path d="M16.9579 11.3082L21.7959 6.24918L23.9857 8.34328C24.4386 8.77638 24.7575 9.22428 24.9423 9.68698C25.1317 10.1448 25.1842 10.5963 25.0999 11.0414C25.0155 11.4866 24.7913 11.8994 24.4273 12.2801C24.0679 12.6559 23.6678 12.8959 23.2269 13C22.786 13.1042 22.3303 13.0743 21.8598 12.9103C21.394 12.7416 20.9346 12.4406 20.4817 12.0075L18.9423 10.5354L19.9672 10.5054L18.1287 12.4279L16.9579 11.3082ZM19.8428 10.6355L19.8546 9.58138L21.3289 10.9913C21.6903 11.3369 22.0338 11.5178 22.3596 11.5341C22.6853 11.5504 22.9794 11.4212 23.2421 11.1466C23.5093 10.8672 23.6275 10.5651 23.5967 10.2404C23.5659 9.91578 23.3698 9.58068 23.0084 9.23508L21.534 7.82518L22.5866 7.76628L19.8428 10.6355ZM22.0942 16.22L25.8125 12.3317L26.8894 13.3615L25.8388 14.4601L25.9912 13.9969C26.3694 13.8329 26.7531 13.8031 27.142 13.9076C27.5356 14.0072 27.9155 14.2321 28.2817 14.5823L27.2865 15.623C27.2429 15.5721 27.2018 15.5283 27.1633 15.4914C27.1293 15.4497 27.0907 15.4081 27.0473 15.3667C26.739 15.0718 26.4032 14.9213 26.04 14.9153C25.6862 14.9091 25.3319 15.0914 24.9771 15.4624L23.2217 17.2982L22.0942 16.22ZM27.0246 21.0456C26.5814 20.6217 26.274 20.1618 26.1026 19.6658C25.9361 19.1744 25.9041 18.6918 26.0066 18.218C26.1138 17.7394 26.3517 17.3073 26.7203 16.9219C27.0935 16.5316 27.5121 16.2724 27.9761 16.1441C28.4494 16.0156 28.9233 16.0168 29.3978 16.1477C29.8768 16.2737 30.3139 16.5257 30.709 16.9035C31.0896 17.2675 31.3534 17.6765 31.5003 18.1306C31.6566 18.5845 31.6787 19.0485 31.5667 19.5225C31.4593 19.9917 31.2052 20.4359 30.8044 20.8551C30.7629 20.8984 30.7121 20.9467 30.652 20.9999C30.5965 21.0483 30.5433 21.0943 30.4924 21.1379L27.3341 18.1176L27.963 17.4599L30.5287 19.9135L29.9084 19.6939C30.102 19.4916 30.2292 19.2765 30.2901 19.0488C30.351 18.8212 30.3484 18.5972 30.2822 18.3771C30.2206 18.1521 30.0934 17.9475 29.9007 17.7632C29.7079 17.5789 29.4954 17.4587 29.2631 17.4026C29.0403 17.3463 28.8141 17.3561 28.5848 17.4319C28.3601 17.5029 28.1486 17.642 27.9505 17.8492L27.7846 18.0227C27.5819 18.2347 27.448 18.4664 27.3829 18.7177C27.3272 18.9689 27.3422 19.2184 27.4279 19.4664C27.523 19.7142 27.6862 19.9487 27.9175 20.1699C28.1247 20.368 28.3353 20.5094 28.5494 20.5943C28.7683 20.6837 29.0027 20.7279 29.2525 20.7271L29.2304 21.9512C28.8586 21.9831 28.4848 21.9254 28.109 21.7782C27.7378 21.6262 27.3764 21.382 27.0246 21.0456ZM38.4628 24.3184C38.7712 24.6133 38.9835 24.9362 39.0998 25.2873C39.2255 25.6381 39.2337 26.0057 39.1244 26.3901C39.0246 26.7743 38.7857 27.1639 38.4079 27.559L36.2792 29.785L35.1518 28.7068L37.1146 26.6543C37.4141 26.3411 37.5702 26.0476 37.5829 25.7738C37.5957 25.5001 37.484 25.2503 37.2479 25.0245C37.0841 24.8679 36.9003 24.7659 36.6965 24.7186C36.4973 24.6664 36.2901 24.6805 36.075 24.7608C35.8599 24.841 35.6418 24.9968 35.4206 25.228L33.5545 27.1794L32.4271 26.1012L34.3899 24.0487C34.6894 23.7355 34.8455 23.442 34.8583 23.1683C34.8758 22.8991 34.7666 22.6516 34.5305 22.4259C34.3667 22.2692 34.1828 22.1672 33.979 22.1199C33.7798 22.0678 33.5727 22.0818 33.3576 22.1621C33.1425 22.2423 32.9243 22.3981 32.7032 22.6294L30.8371 24.5807L29.7096 23.5026L33.4279 19.6143L34.5048 20.6441L33.4888 21.7065L33.5837 21.2022C33.972 21.0662 34.3535 21.0483 34.7283 21.1483C35.1124 21.2482 35.4635 21.4502 35.7815 21.7543C36.1381 22.0952 36.3613 22.484 36.4512 22.9205C36.5505 23.3568 36.4662 23.8019 36.1981 24.2558L35.9043 23.7673C36.3247 23.5882 36.7622 23.5454 37.217 23.6389C37.6765 23.7371 38.0918 23.9636 38.4628 24.3184ZM37.2898 30.7514L41.0081 26.8631L42.1356 27.9413L38.4172 31.8295L37.2898 30.7514ZM42.0902 26.8602C41.883 26.662 41.772 26.4405 41.7571 26.1957C41.7422 25.9508 41.8199 25.7393 41.9904 25.561C42.1609 25.3827 42.3688 25.2955 42.6141 25.2995C42.8593 25.3034 43.0856 25.4045 43.2928 25.6026C43.4999 25.8007 43.6133 26.0198 43.6328 26.2599C43.6569 26.4951 43.5837 26.7018 43.4132 26.8801C43.2335 27.068 43.0188 27.1624 42.7689 27.1633C42.5284 27.1639 42.3022 27.0629 42.0902 26.8602ZM41.0489 34.4569C40.7261 34.1482 40.4969 33.8091 40.3613 33.4396C40.2306 33.0747 40.2175 32.6978 40.3219 32.3088C40.431 31.915 40.6768 31.5182 41.0592 31.1183L43.1602 28.9212L44.2877 29.9993L42.3456 32.0302C42.0369 32.353 41.8763 32.656 41.8637 32.9392C41.8606 33.2222 41.9844 33.4835 42.2349 33.7231C42.4084 33.889 42.5971 34.0003 42.8011 34.057C43.0097 34.1089 43.2263 34.0947 43.4509 34.0142C43.68 33.9289 43.9075 33.7682 44.1332 33.5321L45.9716 31.6097L47.0991 32.6879L43.3808 36.5761L42.3112 35.5533L43.334 34.4836L43.232 34.981C42.8439 35.1264 42.4553 35.1469 42.0663 35.0424C41.6868 34.9377 41.3476 34.7425 41.0489 34.4569ZM53.1785 38.3908C53.4868 38.6857 53.6992 39.0087 53.8155 39.3597C53.9412 39.7105 53.9494 40.0781 53.8401 40.4625C53.7402 40.8467 53.5014 41.2363 53.1236 41.6314L50.9949 43.8574L49.8674 42.7792L51.8303 40.7267C52.1297 40.4135 52.2859 40.12 52.2986 39.8463C52.3113 39.5725 52.1997 39.3227 51.9636 39.097C51.7998 38.9403 51.616 38.8383 51.4121 38.791C51.2129 38.7389 51.0058 38.7529 50.7907 38.8332C50.5756 38.9134 50.3574 39.0692 50.1363 39.3005L48.2702 41.2518L47.1428 40.1736L49.1056 38.1211C49.4051 37.8079 49.5612 37.5145 49.5739 37.2407C49.5915 36.9715 49.4822 36.7241 49.2461 36.4983C49.0823 36.3416 48.8985 36.2396 48.6947 36.1923C48.4955 36.1402 48.2883 36.1543 48.0732 36.2345C47.8581 36.3148 47.64 36.4705 47.4188 36.7018L45.5528 38.6532L44.4253 37.575L48.1436 33.6867L49.2205 34.7165L48.2045 35.7789L48.2993 35.2746C48.6877 35.1386 49.0692 35.1207 49.4439 35.2208C49.8281 35.3206 50.1792 35.5226 50.4972 35.8267C50.8537 36.1677 51.0769 36.5564 51.1669 36.9929C51.2662 37.4292 51.1818 37.8743 50.9138 38.3283L50.6199 37.8397C51.0403 37.6606 51.4779 37.6178 51.9326 37.7114C52.3922 37.8096 52.8075 38.036 53.1785 38.3908Z" fill="white"/>
<mask id="mask0_905_201" style="mask-type:luminance" maskUnits="userSpaceOnUse" x="45" y="15" width="15" height="15">
<path d="M52.4291 15.8131L59.5002 22.8842L52.4291 29.9553L45.358 22.8842L52.4291 15.8131Z" fill="white"/>
</mask>
<g mask="url(#mask0_905_201)">
<path d="M51.3021 27.6496L52.8931 25.1011L55.8909 25.3147L53.9537 23.0092L55.0807 20.2323L52.3038 21.3593L49.9984 19.4221L50.212 22.42L47.6634 24.0109L50.5803 24.7328L51.3021 27.6496Z" fill="white"/>
</g>
<mask id="mask1_905_201" style="mask-type:luminance" maskUnits="userSpaceOnUse" x="38" y="8" width="15" height="15">
<path d="M45.1869 8.57102L52.258 15.6421L45.1869 22.7132L38.1159 15.6421L45.1869 8.57102Z" fill="white"/>
</mask>
<g mask="url(#mask1_905_201)">
<path d="M44.0599 20.4074L45.6509 17.8589L48.6488 18.0725L46.7116 15.7671L47.8385 12.9902L45.0617 14.1171L42.7562 12.18L42.9698 15.1778L40.4213 16.7688L43.3381 17.4906L44.0599 20.4074Z" fill="white"/>
</g>
<mask id="mask2_905_201" style="mask-type:luminance" maskUnits="userSpaceOnUse" x="31" y="1" width="15" height="15">
<path d="M38.1159 1.49995L45.187 8.57101L38.1159 15.6421L31.0449 8.57101L38.1159 1.49995Z" fill="white"/>
</mask>
<g mask="url(#mask2_905_201)">
<path d="M36.9889 13.3364L38.5799 10.7878L41.5777 11.0015L39.6405 8.696L40.7675 5.91911L37.9906 7.0461L35.6852 5.1089L35.8988 8.1067L33.3502 9.6977L36.2671 10.4196L36.9889 13.3364Z" fill="white"/>
</g>
<defs>
<filter id="filter0_i_905_201" x="1.50018" y="0.499298" width="59" height="61.0004" filterUnits="userSpaceOnUse" color-interpolation-filters="sRGB">
<feFlood flood-opacity="0" result="BackgroundImageFix"/>
<feBlend mode="normal" in="SourceGraphic" in2="BackgroundImageFix" result="shape"/>
<feColorMatrix in="SourceAlpha" type="matrix" values="0 0 0 0 0 0 0 0 0 0 0 0 0 0 0 0 0 0 127 0" result="hardAlpha"/>
<feOffset/>
<feGaussianBlur stdDeviation="3.5"/>
<feComposite in2="hardAlpha" operator="arithmetic" k2="-1" k3="1"/>
<feColorMatrix type="matrix" values="0 0 0 0 0 0 0 0 0 0 0 0 0 0 0 0 0 0 0.25 0"/>
<feBlend mode="normal" in2="shape" result="effect1_innerShadow_905_201"/>
</filter>
</defs>
</svg>
