<svg width="62" height="62" viewBox="0 0 62 62" fill="none" xmlns="http://www.w3.org/2000/svg">
<g clip-path="url(#clip0_905_180)">
<g filter="url(#filter0_i_905_180)">
<path d="M0.616488 8.9847C0.603088 3.9842 4.66849 -0.068495 9.66899 -0.039395L60.7573 0.258504L0.757086 61.2587L0.616488 8.9847Z" fill="#12B3EF"/>
</g>
<path d="M20.5698 30.2825L15.5107 25.4445L17.6049 23.2547C18.038 22.8017 18.4859 22.4829 18.9486 22.2981C19.4064 22.1087 19.8579 22.0562 20.303 22.1405C20.7481 22.2249 21.161 22.449 21.5416 22.813C21.9175 23.1724 22.1574 23.5726 22.2616 24.0135C22.3658 24.4544 22.3359 24.9101 22.1719 25.3805C22.0031 25.8464 21.7022 26.3058 21.2691 26.7587L19.797 28.2981L19.767 27.2732L21.6894 29.1116L20.5698 30.2825ZM19.8971 27.3976L18.843 27.3858L20.2529 25.9115C20.5985 25.5501 20.7794 25.2065 20.7957 24.8808C20.812 24.5551 20.6828 24.2609 20.4082 23.9983C20.1287 23.7311 19.8267 23.6129 19.502 23.6437C19.1773 23.6745 18.8422 23.8706 18.4967 24.232L17.0867 25.7064L17.0279 24.6538L19.8971 27.3976ZM25.4816 25.1462L21.5933 21.4279L22.6231 20.351L23.7216 21.4015L23.2585 21.2492C23.0944 20.871 23.0647 20.4873 23.1691 20.0983C23.2688 19.7048 23.4937 19.3249 23.8439 18.9587L24.8846 19.9539C24.8337 19.9975 24.7898 20.0386 24.753 20.0771C24.7113 20.111 24.6697 20.1497 24.6282 20.1931C24.3334 20.5014 24.1829 20.8372 24.1769 21.2004C24.1706 21.5542 24.353 21.9085 24.724 22.2633L26.5597 24.0187L25.4816 25.1462ZM30.2312 20.2952C29.8349 20.7096 29.3957 20.9953 28.9135 21.1522C28.436 21.3043 27.958 21.3315 27.4796 21.2338C27.0009 21.1266 26.5689 20.8887 26.1835 20.5201C25.7932 20.1469 25.5362 19.7259 25.4126 19.2571C25.2887 18.7789 25.2945 18.3002 25.43 17.8209C25.5653 17.3322 25.831 16.8807 26.2273 16.4664C26.6189 16.0568 27.0558 15.7736 27.538 15.6166C28.0153 15.4551 28.4909 15.4256 28.9647 15.5282C29.4385 15.6307 29.873 15.8709 30.2681 16.2488C30.6535 16.6174 30.9105 17.0383 31.0389 17.5117C31.1626 17.9805 31.1568 18.4592 31.0215 18.9479C30.8863 19.4366 30.6228 19.8857 30.2312 20.2952ZM29.3061 19.4106C29.4858 19.2227 29.6037 19.0126 29.6598 18.7803C29.7159 18.548 29.7059 18.3124 29.6298 18.0737C29.549 17.8303 29.3977 17.6026 29.1761 17.3907C28.9496 17.1741 28.7154 17.0332 28.4735 16.9678C28.2315 16.9025 27.9958 16.9031 27.7662 16.9695C27.5367 17.0359 27.332 17.1631 27.1524 17.351C26.9727 17.5389 26.8548 17.749 26.7986 17.9813C26.7425 18.2136 26.7502 18.4516 26.8217 18.6952C26.8977 18.9339 27.049 19.1616 27.2754 19.3782C27.4971 19.5901 27.7313 19.731 27.978 19.801C28.2246 19.8615 28.4626 19.8585 28.6922 19.7921C28.9218 19.7257 29.1264 19.5985 29.3061 19.4106Z" fill="white"/>
<path d="M12.1846 17.4252L12.8617 14.4981L10.5909 12.5294L13.5909 12.269L14.7575 9.50848L15.9242 12.269L18.9242 12.5294L16.6534 14.4981L17.3304 17.4252L14.7575 15.8731L12.1846 17.4252Z" fill="white"/>
</g>
<defs>
<filter id="filter0_i_905_180" x="0.616455" y="-0.0395508" width="60.1408" height="61.2982" filterUnits="userSpaceOnUse" color-interpolation-filters="sRGB">
<feFlood flood-opacity="0" result="BackgroundImageFix"/>
<feBlend mode="normal" in="SourceGraphic" in2="BackgroundImageFix" result="shape"/>
<feColorMatrix in="SourceAlpha" type="matrix" values="0 0 0 0 0 0 0 0 0 0 0 0 0 0 0 0 0 0 127 0" result="hardAlpha"/>
<feOffset/>
<feGaussianBlur stdDeviation="3.5"/>
<feComposite in2="hardAlpha" operator="arithmetic" k2="-1" k3="1"/>
<feColorMatrix type="matrix" values="0 0 0 0 0 0 0 0 0 0 0 0 0 0 0 0 0 0 0.25 0"/>
<feBlend mode="normal" in2="shape" result="effect1_innerShadow_905_180"/>
</filter>
<clipPath id="clip0_905_180">
<rect width="62" height="62" fill="white"/>
</clipPath>
</defs>
</svg>
