<svg width="24" height="24" viewBox="0 0 24 24" fill="none" xmlns="http://www.w3.org/2000/svg">
<path fill-rule="evenodd" clip-rule="evenodd" d="M7.125 11.25C7.7463 11.25 8.25 10.7463 8.25 10.125C8.25 9.5037 7.7463 9 7.125 9C6.50368 9 6 9.5037 6 10.125C6 10.7463 6.50368 11.25 7.125 11.25ZM7.125 10.5C7.33211 10.5 7.5 10.3321 7.5 10.125C7.5 9.91793 7.33211 9.75 7.125 9.75C6.9179 9.75 6.75 9.91793 6.75 10.125C6.75 10.3321 6.9179 10.5 7.125 10.5ZM8.25 14.625C8.25 15.2463 7.7463 15.75 7.125 15.75C6.50368 15.75 6 15.2463 6 14.625C6 14.0037 6.50368 13.5 7.125 13.5C7.7463 13.5 8.25 14.0037 8.25 14.625ZM7.5 14.625C7.5 14.8321 7.33211 15 7.125 15C6.9179 15 6.75 14.8321 6.75 14.625C6.75 14.4179 6.9179 14.25 7.125 14.25C7.33211 14.25 7.5 14.4179 7.5 14.625ZM7.125 20.25C7.7463 20.25 8.25 19.7463 8.25 19.125C8.25 18.5037 7.7463 18 7.125 18C6.50368 18 6 18.5037 6 19.125C6 19.7463 6.50368 20.25 7.125 20.25ZM7.125 19.5C7.33211 19.5 7.5 19.3321 7.5 19.125C7.5 18.9179 7.33211 18.75 7.125 18.75C6.9179 18.75 6.75 18.9179 6.75 19.125C6.75 19.3321 6.9179 19.5 7.125 19.5Z" fill="black"/>
<path d="M10.5 9.75C10.2929 9.75 10.125 9.91793 10.125 10.125C10.125 10.3321 10.2929 10.5 10.5 10.5H19.5C19.7071 10.5 19.875 10.3321 19.875 10.125C19.875 9.91793 19.7071 9.75 19.5 9.75H10.5ZM10.5 18.75C10.2929 18.75 10.125 18.9179 10.125 19.125C10.125 19.3321 10.2929 19.5 10.5 19.5H19.5C19.7071 19.5 19.875 19.3321 19.875 19.125C19.875 18.9179 19.7071 18.75 19.5 18.75H10.5ZM10.125 14.625C10.125 14.4179 10.2929 14.25 10.5 14.25H19.5C19.7071 14.25 19.875 14.4179 19.875 14.625C19.875 14.8321 19.7071 15 19.5 15H10.5C10.2929 15 10.125 14.8321 10.125 14.625Z" fill="#1D951B"/>
<path fill-rule="evenodd" clip-rule="evenodd" d="M5.625 2.25L4.5 1.5V3.75H3.75C2.50736 3.75 1.5 4.75736 1.5 6V20.25C1.5 21.4927 2.50736 22.5 3.75 22.5H20.25C21.4927 22.5 22.5 21.4927 22.5 20.25V6C22.5 4.75736 21.4927 3.75 20.25 3.75H19.5V1.5L18.375 2.25L17.625 1.5L16.875 2.25L16.125 1.5L15.375 2.25L14.25 1.5V3.75H9.75V1.5L8.625 2.25L7.875 1.5L7.125 2.25L6.375 1.5L5.625 2.25ZM9 2.90139L8.52945 3.2151L7.875 2.56066L7.125 3.31066L6.375 2.56066L5.72056 3.2151L5.25 2.90139V6.09861L5.72056 5.7849L6.375 6.43934L7.125 5.68934L7.875 6.43934L8.52945 5.7849L9 6.09861V2.90139ZM4.5 4.5V7.5L5.625 6.75L6.375 7.5L7.125 6.75L7.875 7.5L8.625 6.75L9.75 7.5V4.5H14.25V7.5L15.375 6.75L16.125 7.5L16.875 6.75L17.625 7.5L18.375 6.75L19.5 7.5V4.5H20.25C21.0784 4.5 21.75 5.17157 21.75 6V20.25C21.75 21.0784 21.0784 21.75 20.25 21.75H3.75C2.92157 21.75 2.25 21.0784 2.25 20.25V6C2.25 5.17157 2.92157 4.5 3.75 4.5H4.5ZM18.75 2.90139L18.2794 3.2151L17.625 2.56066L16.875 3.31066L16.125 2.56066L15.4705 3.2151L15 2.90139V6.09861L15.4705 5.7849L16.125 6.43934L16.875 5.68934L17.625 6.43934L18.2794 5.7849L18.75 6.09861V2.90139Z" fill="#1D951B"/>
</svg>
