<svg width="24" height="24" viewBox="0 0 24 24" fill="none" xmlns="http://www.w3.org/2000/svg">
<g clip-path="url(#clip0_398_29181)">
<path d="M20.6081 14.1667C20.6081 19.263 16.571 23.3978 11.5869 23.3978C6.6066 23.3978 2.5658 19.263 2.5658 14.1667C2.5658 9.06669 6.6066 4.93561 11.5869 4.93561C16.571 4.93561 20.6081 9.06669 20.6081 14.1667Z" fill="#BDD7F0"/>
<path d="M11.9476 21.6408C7.72775 21.6408 4.29456 18.1277 4.29456 13.8096C4.29456 9.49148 7.72775 5.97839 11.9476 5.97839C16.1675 5.97839 19.6009 9.49148 19.6009 13.8096C19.6009 18.1277 16.1675 21.6408 11.9476 21.6408Z" fill="white"/>
<path d="M12.5781 3.1236H10.2605V5.2227H12.5781V3.1236Z" fill="#3EBDA7"/>
<path d="M14.8409 1.0592H8.33264V2.837H14.8409V1.0592Z" fill="#BDD7F0"/>
<path d="M23.0223 0.769582L22.7662 0.519104L18.4024 4.98044L18.6585 5.23092L23.0223 0.769582Z" fill="#48A0D9"/>
<path d="M20.0618 5.28646H18.3535V3.53876H18.7117V4.92825H20.0618V5.28646Z" fill="#48A0D9"/>
<path d="M23.4539 23.2767L20.1873 20.1116L19.938 20.3688L23.2046 23.534L23.4539 23.2767Z" fill="#3EBDA7"/>
<path d="M20.2409 21.7705H19.8827V20.0618H21.6308V20.42H20.2409V21.7705Z" fill="#3EBDA7"/>
<path d="M4.06106 20.3678L3.81165 20.1107L0.546823 23.2778L0.796236 23.5349L4.06106 20.3678Z" fill="#48A0D9"/>
<path d="M4.1172 21.7705H3.75899V20.42H2.36914V20.0618H4.1172V21.7705Z" fill="#48A0D9"/>
<path d="M5.49527 4.98152L1.13354 0.518127L0.877352 0.768485L5.23908 5.23188L5.49527 4.98152Z" fill="#3EBDA7"/>
<path d="M5.54509 5.28646H3.83679V4.92825H5.18688V3.53876H5.54509V5.28646Z" fill="#3EBDA7"/>
<path d="M16.4679 15.0242V13.0913H15.3702C15.3025 12.785 15.1991 12.4932 15.0565 12.2197L15.8014 11.4574L14.4685 10.0862L13.8448 10.7245L13.7628 10.8083C13.4848 10.6368 13.1854 10.5019 12.8646 10.4108V9.4115H10.9792V10.4108C10.6621 10.5019 10.3591 10.6368 10.0882 10.8083L9.38256 10.0862L8.04604 11.4574L8.79096 12.2197C8.64835 12.4932 8.54498 12.785 8.4738 13.0913H7.38318V15.0242H8.55925C8.64487 15.2941 8.75886 15.5457 8.8979 15.7828L8.48799 16.2058L8.04604 16.6617L9.38256 18.0257L10.2771 17.1067C10.4982 17.227 10.7333 17.3218 10.9792 17.3911V18.704H12.8646V17.3911C13.1141 17.3218 13.3494 17.227 13.5703 17.1067L14.4685 18.0257L15.8014 16.6617L14.9496 15.7828C15.0886 15.5457 15.2027 15.2941 15.2882 15.0242H16.4679Z" fill="white"/>
<path d="M14.8189 15.0591C14.7329 15.3277 14.6183 15.5785 14.4786 15.8185L15.3276 16.6925L13.995 18.0609L13.0959 17.1367C12.8738 17.2621 12.641 17.3552 12.3938 17.4233V18.7379H10.5061V17.4233C10.2625 17.3552 10.0261 17.2621 9.80757 17.1367L8.91205 18.0609L7.57235 16.6925L8.01294 16.2412L8.42847 15.8185C8.28876 15.5785 8.17413 15.3277 8.08817 15.0591H6.90967V13.1212H8.0022C8.07743 12.8203 8.17772 12.5301 8.31743 12.2543L7.57234 11.4913L8.91204 10.1194L9.61414 10.8394C9.88638 10.671 10.1909 10.535 10.5061 10.4418V9.44598H12.3938V10.4418C12.7126 10.535 13.0135 10.671 13.2894 10.8394L13.3753 10.7606L13.995 10.1194L15.3276 11.4913L14.5825 12.2543C14.7258 12.5301 14.8297 12.8203 14.8977 13.1212H15.9938V15.0591H14.8189Z" fill="#F6968A"/>
<path d="M14.5603 13.8924C14.5603 14.2706 14.4855 14.6278 14.3472 14.9526C13.9481 15.9178 13.0186 16.5905 11.9326 16.5905C10.4748 16.5905 9.30261 15.3865 9.30261 13.8924C9.30261 13.6024 9.34343 13.3147 9.43639 13.0502C9.781 11.9784 10.765 11.2059 11.9326 11.2059C12.2183 11.2059 12.4994 11.2523 12.7601 11.3427C13.4788 11.5817 14.0592 12.1339 14.3472 12.8391C14.4809 13.1593 14.5603 13.5166 14.5603 13.8924Z" fill="white"/>
<path d="M13.2878 4.49938V2.6009H15.3797V0.465942H8.51286V2.6009H10.6084V4.49938C6.17016 5.16569 2.74927 9.08806 2.74927 13.8092C2.74927 18.9997 6.87584 23.2194 11.9481 23.2194C17.0203 23.2194 21.1469 18.9997 21.1469 13.8092C21.1469 9.08806 17.726 5.16569 13.2878 4.49938ZM8.87107 2.24269V0.824151H15.0215V2.24269H13.2878H10.6084H8.87107ZM10.9666 2.6009H12.9296C12.9296 2.66487 12.9296 4.90425 12.9296 4.81106H12.9045H10.9917H10.9666C10.9666 4.74035 10.9666 2.56483 10.9666 2.6009ZM11.9481 22.8612C7.07285 22.8612 3.10747 18.8027 3.10747 13.8092C3.10747 9.28509 6.36717 5.5239 10.6084 4.86117V5.16927H13.2878V4.86117C17.529 5.5239 20.7887 9.28509 20.7887 13.8092C20.7887 18.8027 16.8233 22.8612 11.9481 22.8612Z" fill="#223059"/>
<path d="M11.948 5.79974C7.62804 5.79974 4.11401 9.39255 4.11401 13.8092C4.11401 18.226 7.62804 21.8188 11.948 21.8188C16.268 21.8188 19.7785 18.226 19.7785 13.8092C19.7785 9.39254 16.268 5.79974 11.948 5.79974ZM11.948 21.4606C7.82505 21.4606 4.47222 18.029 4.47222 13.8092C4.47222 9.58953 7.82505 6.15795 11.948 6.15795C16.0674 6.15795 19.4203 9.58953 19.4203 13.8092C19.4203 18.029 16.0674 21.4606 11.948 21.4606Z" fill="#223059"/>
<path d="M15.2723 12.2546L16.0532 11.4594L14.4699 9.82959L13.732 10.5818C13.5135 10.4565 13.2807 10.3561 13.0442 10.2774V9.23132H10.8019V10.2774C10.5583 10.3561 10.3326 10.46 10.1177 10.5818L9.38336 9.82959L7.7965 11.4594L8.5738 12.2546C8.47708 12.4588 8.3947 12.6809 8.33381 12.9137H7.20544V15.2027H8.43051C8.49857 15.3925 8.58095 15.5752 8.67768 15.7543L7.7965 16.6606L9.38336 18.2833L10.3147 17.3269C10.4687 17.4057 10.6335 17.4701 10.8019 17.5239V18.8815H13.0442V17.5239C13.2126 17.4701 13.3774 17.4057 13.535 17.3269L14.4699 18.2833L16.0532 16.6606L15.172 15.7543C15.2687 15.5752 15.3511 15.3925 15.4156 15.2027H16.6478V12.9137H15.5123C15.4514 12.6809 15.3726 12.4624 15.2723 12.2546ZM16.2896 14.8445H15.1577L15.1183 14.9698C15.0395 15.217 14.932 15.4606 14.7959 15.6934L14.7278 15.8081L15.5517 16.6606L14.4699 17.7711L13.6031 16.8863L13.4848 16.9507C13.2771 17.0618 13.0514 17.155 12.815 17.2194L12.686 17.2553V18.5233H11.1601V17.2553L11.0275 17.2194C10.7947 17.1514 10.569 17.0618 10.3613 16.9507L10.243 16.8863L9.38335 17.7711L8.29797 16.6606L9.12185 15.8081L9.05379 15.6934C8.91767 15.4606 8.81021 15.2206 8.73142 14.9698L8.69202 14.8445H7.56365V13.2719H8.61679L8.64902 13.1323C8.71708 12.8313 8.82097 12.5519 8.94992 12.3012L9.01081 12.1866L8.29798 11.4558L9.38336 10.3418L10.0604 11.0367L10.1857 10.9579C10.4401 10.7967 10.7266 10.6713 11.0275 10.5818L11.1601 10.546V9.58953H12.686V10.546L12.815 10.5818C13.1123 10.6677 13.3989 10.7932 13.6675 10.9615L13.7893 11.0367L14.4699 10.3418L15.5517 11.4558L14.8389 12.1866L14.8962 12.3012C15.0287 12.5555 15.129 12.8349 15.1971 13.1287L15.2258 13.2719H16.2896L16.2896 14.8445Z" fill="#223059"/>
<path d="M12.8185 11.1729C12.5392 11.0761 12.2418 11.0259 11.9338 11.0259C10.7159 11.0259 9.64482 11.8176 9.2687 12.9925C9.17198 13.2612 9.12183 13.5657 9.12183 13.8916C9.12183 15.4785 10.3827 16.768 11.9338 16.768C13.0621 16.768 14.0723 16.0839 14.5129 15.0236C14.6633 14.669 14.7385 14.2893 14.7385 13.8916C14.7385 13.5083 14.6633 13.1323 14.5129 12.7705C14.2012 12.011 13.5851 11.4272 12.8185 11.1729ZM14.1833 14.8839C13.7965 15.8117 12.9153 16.4098 11.9338 16.4098C10.5797 16.4098 9.48003 15.2815 9.48003 13.8916C9.48003 13.6051 9.52301 13.3436 9.60542 13.1036C9.93855 12.0755 10.8735 11.3841 11.9338 11.3841C12.1988 11.3841 12.4603 11.4272 12.7039 11.5131C13.3702 11.7352 13.9111 12.2439 14.1833 12.9065C14.3158 13.2254 14.3803 13.5549 14.3803 13.8916C14.3803 14.2391 14.3159 14.5723 14.1833 14.8839Z" fill="#223059"/>
<path d="M12.1268 6.68994H11.7686V8.06797H12.1268V6.68994Z" fill="#223059"/>
<path d="M12.1268 19.5514H11.7686V20.9294H12.1268V19.5514Z" fill="#223059"/>
<path d="M9.29816 8.74941L8.62488 7.55609L8.3129 7.73211L8.98618 8.92543L9.29816 8.74941Z" fill="#223059"/>
<path d="M14.5974 18.8702L15.2706 20.0636L15.5826 19.8876L14.9094 18.6942L14.5974 18.8702Z" fill="#223059"/>
<path d="M5.83075 10.404L6.99683 11.093L7.17903 10.7846L6.01296 10.0956L5.83075 10.404Z" fill="#223059"/>
<path d="M16.7156 16.8346L17.8817 17.5236L18.0639 17.2152L16.8978 16.5262L16.7156 16.8346Z" fill="#223059"/>
<path d="M6.33638 13.6306H4.98987V13.9888H6.33638V13.6306Z" fill="#223059"/>
<path d="M18.9052 13.6306H17.5587V13.9888H18.9052V13.6306Z" fill="#223059"/>
<path d="M5.83075 17.2153L6.01294 17.5237L7.17907 16.8348L6.99688 16.5264L5.83075 17.2153Z" fill="#223059"/>
<path d="M18.0644 10.4038L17.8822 10.0954L16.7161 10.7842L16.8983 11.0927L18.0644 10.4038Z" fill="#223059"/>
<path d="M8.31286 19.8876L8.62488 20.0636L9.29789 18.8701L8.98587 18.6942L8.31286 19.8876Z" fill="#223059"/>
<path d="M15.5823 7.73167L15.2703 7.55573L14.5973 8.7492L14.9093 8.92514L15.5823 7.73167Z" fill="#223059"/>
<path d="M12.1107 12.2239H11.7524V14.237H13.6595V13.8788H12.1107V12.2239Z" fill="#223059"/>
</g>
<defs>
<clipPath id="clip0_398_29181">
<rect width="24" height="24" fill="white"/>
</clipPath>
</defs>
</svg>
