<svg width="375" height="812" viewBox="0 0 375 812" fill="none" xmlns="http://www.w3.org/2000/svg">
<g opacity="0.17">
<ellipse cx="13.5949" cy="805.821" rx="3.4207" ry="3.81334" transform="rotate(42.7539 13.5949 805.821)" fill="#1D951B"/>
<ellipse cx="26.8334" cy="808" rx="3.17921" ry="3.75686" transform="rotate(42.7539 26.8334 808)" fill="#1D951B"/>
<ellipse cx="17.7519" cy="793.824" rx="3" ry="3.83051" transform="rotate(42.7539 17.7519 793.824)" fill="#1D951B"/>
<ellipse cx="22.2659" cy="782.277" rx="3.63024" ry="3.83051" transform="rotate(42.7539 22.2659 782.277)" fill="#1D951B"/>
<ellipse cx="6.26594" cy="791.277" rx="3.63024" ry="3.83051" transform="rotate(42.7539 6.26594 791.277)" fill="#1D951B"/>
<ellipse cx="9.26594" cy="779.277" rx="3.63024" ry="3.83051" transform="rotate(42.7539 9.26594 779.277)" fill="#1D951B"/>
<ellipse cx="14.2659" cy="767.277" rx="3.63024" ry="3.83051" transform="rotate(42.7539 14.2659 767.277)" fill="#1D951B"/>
<ellipse cx="26.2659" cy="771.277" rx="3.63024" ry="3.83051" transform="rotate(42.7539 26.2659 771.277)" fill="#1D951B"/>
<ellipse cx="38.2659" cy="774.277" rx="3.63024" ry="3.83051" transform="rotate(42.7539 38.2659 774.277)" fill="#1D951B"/>
<ellipse cx="50.2659" cy="778.277" rx="3.63024" ry="3.83051" transform="rotate(42.7539 50.2659 778.277)" fill="#1D951B"/>
<ellipse cx="53.0319" cy="767.464" rx="2.94066" ry="3.44812" transform="rotate(42.7539 53.0319 767.464)" fill="#1D951B"/>
<ellipse cx="61.2659" cy="781.277" rx="3.63024" ry="3.83051" transform="rotate(42.7539 61.2659 781.277)" fill="#1D951B"/>
<ellipse cx="41.9314" cy="763.777" rx="3.53637" ry="3.23636" transform="rotate(42.7539 41.9314 763.777)" fill="#1D951B"/>
<ellipse cx="44.9314" cy="752.777" rx="3.53637" ry="3.23636" transform="rotate(42.7539 44.9314 752.777)" fill="#1D951B"/>
<ellipse cx="31.2659" cy="759.277" rx="3.63024" ry="3.83051" transform="rotate(42.7539 31.2659 759.277)" fill="#1D951B"/>
<ellipse cx="19.2659" cy="756.277" rx="3.63024" ry="3.83051" transform="rotate(42.7539 19.2659 756.277)" fill="#1D951B"/>
<ellipse cx="7.26594" cy="753.277" rx="3.63024" ry="3.83051" transform="rotate(42.7539 7.26594 753.277)" fill="#1D951B"/>
<ellipse cx="12.2659" cy="741.277" rx="3.63024" ry="3.83051" transform="rotate(42.7539 12.2659 741.277)" fill="#1D951B"/>
<ellipse cx="23.2659" cy="745.277" rx="3.63024" ry="3.83051" transform="rotate(42.7539 23.2659 745.277)" fill="#1D951B"/>
<ellipse cx="27.2659" cy="733.277" rx="3.63024" ry="3.83051" transform="rotate(42.7539 27.2659 733.277)" fill="#1D951B"/>
<ellipse cx="30.2659" cy="723.277" rx="3.63024" ry="3.83051" transform="rotate(42.7539 30.2659 723.277)" fill="#1D951B"/>
<ellipse cx="37.2659" cy="738.277" rx="3.63024" ry="3.83051" transform="rotate(42.7539 37.2659 738.277)" fill="#1D951B"/>
<ellipse cx="16.2659" cy="730.277" rx="3.63024" ry="3.83051" transform="rotate(42.7539 16.2659 730.277)" fill="#1D951B"/>
<ellipse cx="19.2659" cy="718.277" rx="3.63024" ry="3.83051" transform="rotate(42.7539 19.2659 718.277)" fill="#1D951B"/>
<ellipse cx="21.2659" cy="708.277" rx="3.63024" ry="3.83051" transform="rotate(42.7539 21.2659 708.277)" fill="#1D951B"/>
<ellipse cx="9.26594" cy="705.277" rx="3.63024" ry="3.83051" transform="rotate(42.7539 9.26594 705.277)" fill="#1D951B"/>
<ellipse cx="10.2659" cy="694.277" rx="3.63024" ry="3.83051" transform="rotate(42.7539 10.2659 694.277)" fill="#1D951B"/>
<ellipse cx="22.2659" cy="698.277" rx="3.63024" ry="3.83051" transform="rotate(42.7539 22.2659 698.277)" fill="#1D951B"/>
<ellipse cx="5.26594" cy="727.277" rx="3.63024" ry="3.83051" transform="rotate(42.7539 5.26594 727.277)" fill="#1D951B"/>
<ellipse cx="7.26594" cy="716.277" rx="3.63024" ry="3.83051" transform="rotate(42.7539 7.26594 716.277)" fill="#1D951B"/>
<ellipse cx="34.2659" cy="748.277" rx="3.63024" ry="3.83051" transform="rotate(42.7539 34.2659 748.277)" fill="#1D951B"/>
<ellipse cx="35.2659" cy="785.277" rx="3.63024" ry="3.83051" transform="rotate(42.7539 35.2659 785.277)" fill="#1D951B"/>
<ellipse cx="46.2659" cy="789.277" rx="3.63024" ry="3.83051" transform="rotate(42.7539 46.2659 789.277)" fill="#1D951B"/>
<ellipse cx="44.2659" cy="800.277" rx="3.63024" ry="3.83051" transform="rotate(42.7539 44.2659 800.277)" fill="#1D951B"/>
<ellipse cx="40.2659" cy="810.277" rx="3.63024" ry="3.83051" transform="rotate(42.7539 40.2659 810.277)" fill="#1D951B"/>
<ellipse cx="51.2659" cy="815.277" rx="3.63024" ry="3.83051" transform="rotate(42.7539 51.2659 815.277)" fill="#1D951B"/>
<ellipse cx="54.2659" cy="804.277" rx="3.63024" ry="3.83051" transform="rotate(42.7539 54.2659 804.277)" fill="#1D951B"/>
<ellipse cx="58.2659" cy="793.277" rx="3.63024" ry="3.83051" transform="rotate(42.7539 58.2659 793.277)" fill="#1D951B"/>
<ellipse cx="69.2659" cy="797.277" rx="3.63024" ry="3.83051" transform="rotate(42.7539 69.2659 797.277)" fill="#1D951B"/>
<ellipse cx="67.2659" cy="807.277" rx="3.63024" ry="3.83051" transform="rotate(42.7539 67.2659 807.277)" fill="#1D951B"/>
<ellipse cx="30.7752" cy="796.799" rx="3" ry="3.86524" transform="rotate(42.7539 30.7752 796.799)" fill="#1D951B"/>
<ellipse cx="84.2007" cy="807.765" rx="1.5" ry="3.5" transform="rotate(-14.5484 84.2007 807.765)" fill="#1D951B"/>
<ellipse cx="91.2007" cy="813.765" rx="1.5" ry="3.5" transform="rotate(-14.5484 91.2007 813.765)" fill="#1D951B"/>
<ellipse cx="76.2007" cy="811.765" rx="1.5" ry="3.5" transform="rotate(-14.5484 76.2007 811.765)" fill="#1D951B"/>
<ellipse cx="77.2007" cy="801.765" rx="1.5" ry="3.5" transform="rotate(-14.5484 77.2007 801.765)" fill="#1D951B"/>
<ellipse cx="77.2007" cy="792.765" rx="1.5" ry="3.5" transform="rotate(-14.5484 77.2007 792.765)" fill="#1D951B"/>
<ellipse cx="69.2007" cy="786.765" rx="1.5" ry="3.5" transform="rotate(-14.5484 69.2007 786.765)" fill="#1D951B"/>
<ellipse cx="61.9107" cy="771.84" rx="1.79918" ry="3.5" transform="rotate(-14.5484 61.9107 771.84)" fill="#1D951B"/>
<ellipse cx="62.1771" cy="762.673" rx="1.5" ry="3.59456" transform="rotate(-14.5484 62.1771 762.673)" fill="#1D951B"/>
<ellipse cx="54.2007" cy="756.765" rx="1.5" ry="3.5" transform="rotate(-14.5484 54.2007 756.765)" fill="#1D951B"/>
<ellipse cx="54.2007" cy="746.765" rx="1.5" ry="3.5" transform="rotate(-14.5484 54.2007 746.765)" fill="#1D951B"/>
<ellipse cx="46.2005" cy="741.765" rx="2.40275" ry="3.5" transform="rotate(-14.5484 46.2005 741.765)" fill="#1D951B"/>
<ellipse cx="39.327" cy="726.991" rx="2.40275" ry="3.5" transform="rotate(-14.5484 39.327 726.991)" fill="#1D951B"/>
<ellipse cx="47.327" cy="731.991" rx="2.40275" ry="3.5" transform="rotate(-14.5484 47.327 731.991)" fill="#1D951B"/>
<ellipse cx="53.7402" cy="737.108" rx="1.77086" ry="2.57309" transform="rotate(-28.8045 53.7402 737.108)" fill="#1D951B"/>
<ellipse cx="61.7402" cy="753.108" rx="1.77086" ry="2.57309" transform="rotate(-28.8045 61.7402 753.108)" fill="#1D951B"/>
<ellipse cx="68.2991" cy="767.306" rx="1.77086" ry="3.4887" transform="rotate(-28.8045 68.2991 767.306)" fill="#1D951B"/>
<ellipse cx="75.0235" cy="773.194" rx="1.22869" ry="2.97141" transform="rotate(-28.8045 75.0235 773.194)" fill="#1D951B"/>
<ellipse cx="78.0235" cy="770.196" rx="1.22869" ry="2.97141" transform="rotate(-28.8045 78.0235 770.196)" fill="#1D951B"/>
<ellipse cx="73.0235" cy="763.196" rx="1.22869" ry="2.97141" transform="rotate(-28.8045 73.0235 763.196)" fill="#1D951B"/>
<ellipse cx="67.0235" cy="757.196" rx="1.22869" ry="2.97141" transform="rotate(-28.8045 67.0235 757.196)" fill="#1D951B"/>
<ellipse cx="66.0235" cy="749.196" rx="1.22869" ry="2.97141" transform="rotate(-28.8045 66.0235 749.196)" fill="#1D951B"/>
<ellipse cx="61.0235" cy="742.196" rx="1.22869" ry="2.97141" transform="rotate(-28.8045 61.0235 742.196)" fill="#1D951B"/>
<ellipse cx="59.0235" cy="734.196" rx="1.22869" ry="2.97141" transform="rotate(-28.8045 59.0235 734.196)" fill="#1D951B"/>
<ellipse cx="54.0235" cy="728.196" rx="1.22869" ry="2.97141" transform="rotate(-28.8045 54.0235 728.196)" fill="#1D951B"/>
<ellipse cx="54.0235" cy="728.196" rx="1.22869" ry="2.97141" transform="rotate(-28.8045 54.0235 728.196)" fill="#1D951B"/>
<ellipse cx="47.0235" cy="713.196" rx="1.22869" ry="2.97141" transform="rotate(-28.8045 47.0235 713.196)" fill="#1D951B"/>
<ellipse cx="52.0235" cy="719.196" rx="1.22869" ry="2.97141" transform="rotate(-28.8045 52.0235 719.196)" fill="#1D951B"/>
<ellipse cx="57.0233" cy="726.196" rx="1.28141" ry="2.97141" transform="rotate(-28.8045 57.0233 726.196)" fill="#1D951B"/>
<ellipse cx="61.9774" cy="732.221" rx="1.28141" ry="2.97141" transform="rotate(-28.8045 61.9774 732.221)" fill="#1D951B"/>
<ellipse cx="65.9774" cy="741.221" rx="1.28141" ry="2.97141" transform="rotate(-28.8045 65.9774 741.221)" fill="#1D951B"/>
<ellipse cx="83.9774" cy="776.221" rx="1.28141" ry="2.97141" transform="rotate(-28.8045 83.9774 776.221)" fill="#1D951B"/>
<ellipse cx="88.9774" cy="783.221" rx="1.28141" ry="2.97141" transform="rotate(-28.8045 88.9774 783.221)" fill="#1D951B"/>
<ellipse cx="93.9774" cy="789.221" rx="1.28141" ry="2.97141" transform="rotate(-28.8045 93.9774 789.221)" fill="#1D951B"/>
<ellipse cx="99.9774" cy="793.221" rx="1.28141" ry="2.97141" transform="rotate(-28.8045 99.9774 793.221)" fill="#1D951B"/>
<ellipse cx="104.977" cy="799.221" rx="1.28141" ry="2.97141" transform="rotate(-28.8045 104.977 799.221)" fill="#1D951B"/>
<ellipse cx="110.831" cy="806.32" rx="0.695133" ry="2.26487" transform="rotate(-28.8045 110.831 806.32)" fill="#1D951B"/>
<ellipse cx="90.8313" cy="779.32" rx="0.695133" ry="2.26487" transform="rotate(-28.8045 90.8313 779.32)" fill="#1D951B"/>
<ellipse cx="85.8313" cy="771.32" rx="0.695133" ry="2.26487" transform="rotate(-28.8045 85.8313 771.32)" fill="#1D951B"/>
<ellipse cx="80.8313" cy="766.32" rx="0.695133" ry="2.26487" transform="rotate(-28.8045 80.8313 766.32)" fill="#1D951B"/>
<ellipse cx="82.8313" cy="761.32" rx="0.695133" ry="2.26487" transform="rotate(-28.8045 82.8313 761.32)" fill="#1D951B"/>
<ellipse cx="87.8313" cy="767.32" rx="0.695133" ry="2.26487" transform="rotate(-28.8045 87.8313 767.32)" fill="#1D951B"/>
<ellipse cx="92.8313" cy="775.32" rx="0.695133" ry="2.26487" transform="rotate(-28.8045 92.8313 775.32)" fill="#1D951B"/>
<ellipse cx="107.567" cy="808.447" rx="0.813001" ry="2.97141" transform="rotate(-28.8045 107.567 808.447)" fill="#1D951B"/>
<ellipse cx="75.9774" cy="759.221" rx="1.28141" ry="2.97141" transform="rotate(-28.8045 75.9774 759.221)" fill="#1D951B"/>
<ellipse cx="70.9774" cy="754.221" rx="1.28141" ry="2.97141" transform="rotate(-28.8045 70.9774 754.221)" fill="#1D951B"/>
<ellipse cx="68.9774" cy="747.221" rx="1.28141" ry="2.97141" transform="rotate(-28.8045 68.9774 747.221)" fill="#1D951B"/>
<ellipse cx="40.0235" cy="707.196" rx="1.22869" ry="2.97141" transform="rotate(-28.8045 40.0235 707.196)" fill="#1D951B"/>
<ellipse cx="39.0235" cy="698.196" rx="1.22869" ry="2.97141" transform="rotate(-28.8045 39.0235 698.196)" fill="#1D951B"/>
<ellipse cx="45.0235" cy="705.196" rx="1.22869" ry="2.97141" transform="rotate(-28.8045 45.0235 705.196)" fill="#1D951B"/>
<ellipse cx="43.0235" cy="696.196" rx="1.22869" ry="2.97141" transform="rotate(-28.8045 43.0235 696.196)" fill="#1D951B"/>
<ellipse cx="36.0235" cy="690.196" rx="1.22869" ry="2.97141" transform="rotate(-28.8045 36.0235 690.196)" fill="#1D951B"/>
<ellipse cx="34.0235" cy="683.196" rx="1.22869" ry="2.97141" transform="rotate(-28.8045 34.0235 683.196)" fill="#1D951B"/>
<ellipse cx="80.657" cy="779.129" rx="0.940173" ry="3.20666" transform="rotate(-28.8045 80.657 779.129)" fill="#1D951B"/>
<ellipse cx="86.1316" cy="785.206" rx="0.940173" ry="2.87841" transform="rotate(-28.8045 86.1316 785.206)" fill="#1D951B"/>
<ellipse cx="88.3211" cy="793.975" rx="0.940173" ry="2.87841" transform="rotate(-28.8045 88.3211 793.975)" fill="#1D951B"/>
<ellipse cx="88.3211" cy="793.975" rx="0.940173" ry="2.87841" transform="rotate(-28.8045 88.3211 793.975)" fill="#1D951B"/>
<ellipse cx="94.3211" cy="799.975" rx="0.940173" ry="2.87841" transform="rotate(-28.8045 94.3211 799.975)" fill="#1D951B"/>
<ellipse cx="95.3211" cy="808.975" rx="0.940173" ry="2.87841" transform="rotate(-28.8045 95.3211 808.975)" fill="#1D951B"/>
<ellipse cx="105.321" cy="811.975" rx="0.940173" ry="2.87841" transform="rotate(-28.8045 105.321 811.975)" fill="#1D951B"/>
<ellipse cx="99.3211" cy="805.975" rx="0.940173" ry="2.87841" transform="rotate(-28.8045 99.3211 805.975)" fill="#1D951B"/>
<ellipse cx="102.321" cy="802.975" rx="0.940173" ry="2.87841" transform="rotate(-28.8045 102.321 802.975)" fill="#1D951B"/>
<ellipse cx="97.3211" cy="796.975" rx="0.940173" ry="2.87841" transform="rotate(-28.8045 97.3211 796.975)" fill="#1D951B"/>
<ellipse cx="118.321" cy="786.975" rx="0.940173" ry="2.87841" transform="rotate(-28.8045 118.321 786.975)" fill="#1D951B"/>
<ellipse cx="110.321" cy="781.975" rx="0.940173" ry="2.87841" transform="rotate(-28.8045 110.321 781.975)" fill="#1D951B"/>
<ellipse cx="106.321" cy="785.975" rx="0.940173" ry="2.87841" transform="rotate(-28.8045 106.321 785.975)" fill="#1D951B"/>
<ellipse cx="102.321" cy="789.975" rx="0.940173" ry="2.87841" transform="rotate(-28.8045 102.321 789.975)" fill="#1D951B"/>
<ellipse cx="113.321" cy="790.975" rx="0.940173" ry="2.87841" transform="rotate(-28.8045 113.321 790.975)" fill="#1D951B"/>
<ellipse cx="110.321" cy="792.975" rx="0.940173" ry="2.87841" transform="rotate(-28.8045 110.321 792.975)" fill="#1D951B"/>
<ellipse cx="108.321" cy="794.975" rx="0.940173" ry="2.87841" transform="rotate(-28.8045 108.321 794.975)" fill="#1D951B"/>
<ellipse cx="117.321" cy="797.975" rx="0.940173" ry="2.87841" transform="rotate(-28.8045 117.321 797.975)" fill="#1D951B"/>
<ellipse cx="122.321" cy="805.975" rx="0.940173" ry="2.87841" transform="rotate(-28.8045 122.321 805.975)" fill="#1D951B"/>
<ellipse cx="120.321" cy="808.975" rx="0.940173" ry="2.87841" transform="rotate(-28.8045 120.321 808.975)" fill="#1D951B"/>
<ellipse cx="114.321" cy="800.975" rx="0.940173" ry="2.87841" transform="rotate(-28.8045 114.321 800.975)" fill="#1D951B"/>
<ellipse cx="112.321" cy="802.975" rx="0.940173" ry="2.87841" transform="rotate(-28.8045 112.321 802.975)" fill="#1D951B"/>
<ellipse cx="117.321" cy="811.975" rx="0.940173" ry="2.87841" transform="rotate(-28.8045 117.321 811.975)" fill="#1D951B"/>
<ellipse cx="129.321" cy="810.975" rx="0.940173" ry="2.87841" transform="rotate(-28.8045 129.321 810.975)" fill="#1D951B"/>
<ellipse cx="135.321" cy="807.975" rx="0.940173" ry="2.87841" transform="rotate(-28.8045 135.321 807.975)" fill="#1D951B"/>
<ellipse cx="125.321" cy="802.975" rx="0.940173" ry="2.87841" transform="rotate(-28.8045 125.321 802.975)" fill="#1D951B"/>
<ellipse cx="132.321" cy="799.975" rx="0.940173" ry="2.87841" transform="rotate(-28.8045 132.321 799.975)" fill="#1D951B"/>
<ellipse cx="99.3211" cy="780.975" rx="0.940173" ry="2.87841" transform="rotate(-28.8045 99.3211 780.975)" fill="#1D951B"/>
<ellipse cx="96.3211" cy="782.975" rx="0.940173" ry="2.87841" transform="rotate(-28.8045 96.3211 782.975)" fill="#1D951B"/>
<ellipse cx="101.321" cy="776.975" rx="0.940173" ry="2.87841" transform="rotate(-28.8045 101.321 776.975)" fill="#1D951B"/>
<ellipse cx="95.3211" cy="771.975" rx="0.940173" ry="2.87841" transform="rotate(-28.8045 95.3211 771.975)" fill="#1D951B"/>
<ellipse cx="90.3211" cy="763.975" rx="0.940173" ry="2.87841" transform="rotate(-28.8045 90.3211 763.975)" fill="#1D951B"/>
<ellipse cx="94.3211" cy="760.975" rx="0.940173" ry="2.87841" transform="rotate(-28.8045 94.3211 760.975)" fill="#1D951B"/>
<ellipse cx="87.3211" cy="755.975" rx="0.940173" ry="2.87841" transform="rotate(-28.8045 87.3211 755.975)" fill="#1D951B"/>
<ellipse cx="84.3211" cy="756.975" rx="0.940173" ry="2.87841" transform="rotate(-28.8045 84.3211 756.975)" fill="#1D951B"/>
<ellipse cx="78.3211" cy="752.975" rx="0.940173" ry="2.87841" transform="rotate(-28.8045 78.3211 752.975)" fill="#1D951B"/>
<ellipse cx="81.3211" cy="749.975" rx="0.940173" ry="2.87841" transform="rotate(-28.8045 81.3211 749.975)" fill="#1D951B"/>
<ellipse cx="84.3211" cy="747.975" rx="0.940173" ry="2.87841" transform="rotate(-28.8045 84.3211 747.975)" fill="#1D951B"/>
<ellipse cx="89.3211" cy="744.975" rx="0.940173" ry="2.87841" transform="rotate(-28.8045 89.3211 744.975)" fill="#1D951B"/>
<ellipse cx="82.3211" cy="738.975" rx="0.940173" ry="2.87841" transform="rotate(-28.8045 82.3211 738.975)" fill="#1D951B"/>
<ellipse cx="77.3211" cy="741.975" rx="0.940173" ry="2.87841" transform="rotate(-28.8045 77.3211 741.975)" fill="#1D951B"/>
<ellipse cx="73.3211" cy="743.975" rx="0.940173" ry="2.87841" transform="rotate(-28.8045 73.3211 743.975)" fill="#1D951B"/>
<ellipse cx="70.3211" cy="736.975" rx="0.940173" ry="2.87841" transform="rotate(-28.8045 70.3211 736.975)" fill="#1D951B"/>
<ellipse cx="74.3211" cy="734.975" rx="0.940173" ry="2.87841" transform="rotate(-28.8045 74.3211 734.975)" fill="#1D951B"/>
<ellipse cx="73.3211" cy="725.975" rx="0.940173" ry="2.87841" transform="rotate(-28.8045 73.3211 725.975)" fill="#1D951B"/>
<ellipse cx="68.3211" cy="728.975" rx="0.940173" ry="2.87841" transform="rotate(-28.8045 68.3211 728.975)" fill="#1D951B"/>
<ellipse cx="62.3211" cy="722.975" rx="0.940173" ry="2.87841" transform="rotate(-28.8045 62.3211 722.975)" fill="#1D951B"/>
<ellipse cx="65.3211" cy="720.975" rx="0.940173" ry="2.87841" transform="rotate(-28.8045 65.3211 720.975)" fill="#1D951B"/>
<ellipse cx="60.3211" cy="714.975" rx="0.940173" ry="2.87841" transform="rotate(-28.8045 60.3211 714.975)" fill="#1D951B"/>
<ellipse cx="55.3211" cy="711.975" rx="0.940173" ry="2.87841" transform="rotate(-28.8045 55.3211 711.975)" fill="#1D951B"/>
<ellipse cx="51.3211" cy="703.975" rx="0.940173" ry="2.87841" transform="rotate(-28.8045 51.3211 703.975)" fill="#1D951B"/>
<ellipse cx="48.3211" cy="693.975" rx="0.940173" ry="2.87841" transform="rotate(-28.8045 48.3211 693.975)" fill="#1D951B"/>
<ellipse cx="39.3211" cy="687.975" rx="0.940173" ry="2.87841" transform="rotate(-28.8045 39.3211 687.975)" fill="#1D951B"/>
<ellipse cx="43.3211" cy="686.975" rx="0.940173" ry="2.87841" transform="rotate(-28.8045 43.3211 686.975)" fill="#1D951B"/>
<ellipse cx="36.3211" cy="680.975" rx="0.940173" ry="2.87841" transform="rotate(-28.8045 36.3211 680.975)" fill="#1D951B"/>
<ellipse cx="30.3211" cy="674.975" rx="0.940173" ry="2.87841" transform="rotate(-28.8045 30.3211 674.975)" fill="#1D951B"/>
<ellipse cx="35.3211" cy="671.975" rx="0.940173" ry="2.87841" transform="rotate(-28.8045 35.3211 671.975)" fill="#1D951B"/>
<ellipse cx="29.3211" cy="665.975" rx="0.940173" ry="2.87841" transform="rotate(-28.8045 29.3211 665.975)" fill="#1D951B"/>
<ellipse cx="26.3211" cy="665.975" rx="0.940173" ry="2.87841" transform="rotate(-28.8045 26.3211 665.975)" fill="#1D951B"/>
<ellipse cx="20.3212" cy="660.975" rx="0.750867" ry="2.87841" transform="rotate(-28.8045 20.3212 660.975)" fill="#1D951B"/>
<ellipse cx="18.4867" cy="653.884" rx="0.750867" ry="2.87841" transform="rotate(-28.8045 18.4867 653.884)" fill="#1D951B"/>
<ellipse cx="14.4867" cy="651.884" rx="0.750867" ry="2.87841" transform="rotate(-28.8045 14.4867 651.884)" fill="#1D951B"/>
<ellipse cx="24.4867" cy="658.884" rx="0.750867" ry="2.87841" transform="rotate(-28.8045 24.4867 658.884)" fill="#1D951B"/>
<ellipse cx="31.4867" cy="662.884" rx="0.750867" ry="2.87841" transform="rotate(-28.8045 31.4867 662.884)" fill="#1D951B"/>
<ellipse cx="41.3211" cy="677.975" rx="0.940173" ry="2.87841" transform="rotate(-28.8045 41.3211 677.975)" fill="#1D951B"/>
<ellipse cx="91.3211" cy="790.975" rx="0.940173" ry="2.87841" transform="rotate(-28.8045 91.3211 790.975)" fill="#1D951B"/>
<ellipse cx="47.327" cy="721.991" rx="2.40275" ry="3.5" transform="rotate(-14.5484 47.327 721.991)" fill="#1D951B"/>
<ellipse cx="40.327" cy="715.991" rx="2.40275" ry="3.5" transform="rotate(-14.5484 40.327 715.991)" fill="#1D951B"/>
<ellipse cx="32.327" cy="711.991" rx="2.40275" ry="3.5" transform="rotate(-14.5484 32.327 711.991)" fill="#1D951B"/>
<ellipse cx="32.327" cy="701.991" rx="2.40275" ry="3.5" transform="rotate(-14.5484 32.327 701.991)" fill="#1D951B"/>
<ellipse cx="31.0317" cy="693.388" rx="1.82005" ry="2.93916" transform="rotate(-14.5484 31.0317 693.388)" fill="#1D951B"/>
<ellipse cx="22.0317" cy="689.302" rx="1.82005" ry="2.93916" transform="rotate(-23.8624 22.0317 689.302)" fill="#1D951B"/>
<ellipse cx="20.6782" cy="679.424" rx="1.82005" ry="2.93916" transform="rotate(-23.8624 20.6782 679.424)" fill="#1D951B"/>
<ellipse cx="11.6782" cy="675.424" rx="1.82005" ry="2.93916" transform="rotate(-23.8624 11.6782 675.424)" fill="#1D951B"/>
<ellipse cx="10.6782" cy="666.424" rx="1.82005" ry="2.93916" transform="rotate(-23.8624 10.6782 666.424)" fill="#1D951B"/>
<ellipse cx="19.2697" cy="671.605" rx="1.37334" ry="2.93916" transform="rotate(-23.8624 19.2697 671.605)" fill="#1D951B"/>
<ellipse cx="19.0866" cy="671.243" rx="1.37334" ry="2.93916" transform="rotate(-23.8624 19.0866 671.243)" fill="#1D951B"/>
<ellipse cx="30.0866" cy="685.243" rx="1.37334" ry="2.93916" transform="rotate(-23.8624 30.0866 685.243)" fill="#1D951B"/>
<ellipse cx="27.0866" cy="676.243" rx="1.37334" ry="2.93916" transform="rotate(-23.8624 27.0866 676.243)" fill="#1D951B"/>
<ellipse cx="23.0866" cy="668.243" rx="1.37334" ry="2.93916" transform="rotate(-23.8624 23.0866 668.243)" fill="#1D951B"/>
<ellipse cx="16.7215" cy="663.195" rx="1.37334" ry="2.93916" transform="rotate(-34.9846 16.7215 663.195)" fill="#1D951B"/>
<ellipse cx="8.08674" cy="658.243" rx="1.37334" ry="2.93916" transform="rotate(-46.5345 8.08674 658.243)" fill="#1D951B"/>
<ellipse cx="12.4539" cy="655.019" rx="1.37334" ry="2.93916" transform="rotate(-46.5345 12.4539 655.019)" fill="#1D951B"/>
<ellipse cx="8.45393" cy="648.019" rx="1.37334" ry="2.93916" transform="rotate(-46.5345 8.45393 648.019)" fill="#1D951B"/>
<ellipse cx="12.4539" cy="646.019" rx="1.37334" ry="2.93916" transform="rotate(-46.5345 12.4539 646.019)" fill="#1D951B"/>
<ellipse cx="7.45393" cy="640.019" rx="1.37334" ry="2.93916" transform="rotate(-46.5345 7.45393 640.019)" fill="#1D951B"/>
<ellipse cx="12.4142" cy="685.125" rx="2.69084" ry="3.31998" transform="rotate(-23.8624 12.4142 685.125)" fill="#1D951B"/>
<ellipse cx="70.2007" cy="776.765" rx="1.5" ry="3.5" transform="rotate(-14.5484 70.2007 776.765)" fill="#1D951B"/>
<ellipse cx="77.2007" cy="783.765" rx="1.5" ry="3.5" transform="rotate(-14.5484 77.2007 783.765)" fill="#1D951B"/>
<ellipse cx="83.2007" cy="788.765" rx="1.5" ry="3.5" transform="rotate(-14.5484 83.2007 788.765)" fill="#1D951B"/>
<ellipse cx="84.2007" cy="798.765" rx="1.5" ry="3.5" transform="rotate(-14.5484 84.2007 798.765)" fill="#1D951B"/>
<ellipse cx="90.2007" cy="803.765" rx="1.5" ry="3.5" transform="rotate(-14.5484 90.2007 803.765)" fill="#1D951B"/>
<circle cx="2" cy="2" r="2" transform="matrix(-1 0 0 1 163.532 807)" fill="#1D951B"/>
<circle cx="2" cy="2" r="2" transform="matrix(-1 0 0 1 153.532 806)" fill="#1D951B"/>
<circle cx="2" cy="2" r="2" transform="matrix(-1 0 0 1 150.532 796)" fill="#1D951B"/>
<circle cx="2" cy="2" r="2" transform="matrix(-1 0 0 1 142.532 802)" fill="#1D951B"/>
<circle cx="2" cy="2" r="2" transform="matrix(-1 0 0 1 145.532 810)" fill="#1D951B"/>
<circle cx="2" cy="2" r="2" transform="matrix(-1 0 0 1 161.532 800)" fill="#1D951B"/>
<circle cx="2" cy="2" r="2" transform="matrix(-1 0 0 1 158.532 791)" fill="#1D951B"/>
<circle cx="2" cy="2" r="2" transform="matrix(-1 0 0 1 164.532 786)" fill="#1D951B"/>
<circle cx="2" cy="2" r="2" transform="matrix(-1 0 0 1 171.532 780)" fill="#1D951B"/>
<circle cx="2" cy="2" r="2" transform="matrix(-1 0 0 1 161.532 779)" fill="#1D951B"/>
<circle cx="2" cy="2" r="2" transform="matrix(-1 0 0 1 155.532 783)" fill="#1D951B"/>
<circle cx="2" cy="2" r="2" transform="matrix(-1 0 0 1 148.532 787)" fill="#1D951B"/>
<circle cx="2" cy="2" r="2" transform="matrix(-1 0 0 1 136.532 784)" fill="#1D951B"/>
<circle cx="2" cy="2" r="2" transform="matrix(-1 0 0 1 141.532 787)" fill="#1D951B"/>
<circle cx="2" cy="2" r="2" transform="matrix(-1 0 0 1 139.532 792)" fill="#1D951B"/>
<circle cx="2" cy="2" r="2" transform="matrix(-1 0 0 1 127.532 787)" fill="#1D951B"/>
<circle cx="2" cy="2" r="2" transform="matrix(-1 0 0 1 123.532 792)" fill="#1D951B"/>
<circle cx="2" cy="2" r="2" transform="matrix(-1 0 0 1 126.532 780)" fill="#1D951B"/>
<circle cx="2" cy="2" r="2" transform="matrix(-1 0 0 1 117.532 776)" fill="#1D951B"/>
<circle cx="2" cy="2" r="2" transform="matrix(-1 0 0 1 114.532 768)" fill="#1D951B"/>
<circle cx="2" cy="2" r="2" transform="matrix(-1 0 0 1 108.532 772)" fill="#1D951B"/>
<circle cx="2" cy="2" r="2" transform="matrix(-1 0 0 1 105.532 765)" fill="#1D951B"/>
<circle cx="2" cy="2" r="2" transform="matrix(-1 0 0 1 101.532 767)" fill="#1D951B"/>
<circle cx="2" cy="2" r="2" transform="matrix(-1 0 0 1 144.532 780)" fill="#1D951B"/>
<circle cx="2" cy="2" r="2" transform="matrix(-1 0 0 1 134.532 776)" fill="#1D951B"/>
<circle cx="2" cy="2" r="2" transform="matrix(-1 0 0 1 142.532 771)" fill="#1D951B"/>
<circle cx="2" cy="2" r="2" transform="matrix(-1 0 0 1 149.532 775)" fill="#1D951B"/>
<circle cx="2" cy="2" r="2" transform="matrix(-1 0 0 1 154.532 773)" fill="#1D951B"/>
<circle cx="2" cy="2" r="2" transform="matrix(-1 0 0 1 161.532 767)" fill="#1D951B"/>
<circle cx="2" cy="2" r="2" transform="matrix(-1 0 0 1 160.532 759)" fill="#1D951B"/>
<circle cx="2" cy="2" r="2" transform="matrix(-1 0 0 1 147.532 768)" fill="#1D951B"/>
<circle cx="2" cy="2" r="2" transform="matrix(-1 0 0 1 150.532 754)" fill="#1D951B"/>
<circle cx="2" cy="2" r="2" transform="matrix(-1 0 0 1 155.532 750)" fill="#1D951B"/>
<circle cx="2" cy="2" r="2" transform="matrix(-1 0 0 1 168.532 753)" fill="#1D951B"/>
<circle cx="2" cy="2" r="2" transform="matrix(-1 0 0 1 169.532 764)" fill="#1D951B"/>
<circle cx="2" cy="2" r="2" transform="matrix(-1 0 0 1 172.532 771)" fill="#1D951B"/>
<circle cx="2" cy="2" r="2" transform="matrix(-1 0 0 1 165.532 775)" fill="#1D951B"/>
<circle cx="2" cy="2" r="2" transform="matrix(-1 0 0 1 133.532 767)" fill="#1D951B"/>
<circle cx="2" cy="2" r="2" transform="matrix(-1 0 0 1 125.532 771)" fill="#1D951B"/>
<circle cx="2" cy="2" r="2" transform="matrix(-1 0 0 1 122.532 763)" fill="#1D951B"/>
<circle cx="2" cy="2" r="2" transform="matrix(-1 0 0 1 113.532 759)" fill="#1D951B"/>
<circle cx="2" cy="2" r="2" transform="matrix(-1 0 0 1 102.532 755)" fill="#1D951B"/>
<circle cx="2" cy="2" r="2" transform="matrix(-1 0 0 1 94.5317 751)" fill="#1D951B"/>
<circle cx="2" cy="2" r="2" transform="matrix(-1 0 0 1 100.532 747)" fill="#1D951B"/>
<circle cx="2" cy="2" r="2" transform="matrix(-1 0 0 1 112.532 751)" fill="#1D951B"/>
<circle cx="2" cy="2" r="2" transform="matrix(-1 0 0 1 120.532 754)" fill="#1D951B"/>
<circle cx="2" cy="2" r="2" transform="matrix(-1 0 0 1 130.532 758)" fill="#1D951B"/>
<circle cx="2" cy="2" r="2" transform="matrix(-1 0 0 1 128.532 750)" fill="#1D951B"/>
<circle cx="2" cy="2" r="2" transform="matrix(-1 0 0 1 119.532 746)" fill="#1D951B"/>
<circle cx="2" cy="2" r="2" transform="matrix(-1 0 0 1 111.532 742)" fill="#1D951B"/>
<circle cx="2" cy="2" r="2" transform="matrix(-1 0 0 1 101.532 736)" fill="#1D951B"/>
<circle cx="2" cy="2" r="2" transform="matrix(-1 0 0 1 90.5317 732)" fill="#1D951B"/>
<circle cx="2" cy="2" r="2" transform="matrix(-1 0 0 1 82.5317 728)" fill="#1D951B"/>
<circle cx="2" cy="2" r="2" transform="matrix(-1 0 0 1 91.5317 723)" fill="#1D951B"/>
<circle cx="2" cy="2" r="2" transform="matrix(-1 0 0 1 82.5317 719)" fill="#1D951B"/>
<circle cx="2" cy="2" r="2" transform="matrix(-1 0 0 1 73.5317 714)" fill="#1D951B"/>
<circle cx="2" cy="2" r="2" transform="matrix(-1 0 0 1 66.5317 708)" fill="#1D951B"/>
<circle cx="2" cy="2" r="2" transform="matrix(-1 0 0 1 60.5317 704)" fill="#1D951B"/>
<circle cx="2" cy="2" r="2" transform="matrix(-1 0 0 1 57.5317 694)" fill="#1D951B"/>
<circle cx="2" cy="2" r="2" transform="matrix(-1 0 0 1 66.5317 699)" fill="#1D951B"/>
<circle cx="2" cy="2" r="2" transform="matrix(-1 0 0 1 73.5317 704)" fill="#1D951B"/>
<circle cx="2" cy="2" r="2" transform="matrix(-1 0 0 1 82.5317 709)" fill="#1D951B"/>
<circle cx="2" cy="2" r="2" transform="matrix(-1 0 0 1 90.5317 714)" fill="#1D951B"/>
<circle cx="2" cy="2" r="2" transform="matrix(-1 0 0 1 99.5317 718)" fill="#1D951B"/>
<circle cx="2" cy="2" r="2" transform="matrix(-1 0 0 1 106.532 723)" fill="#1D951B"/>
<circle cx="2" cy="2" r="2" transform="matrix(-1 0 0 1 115.532 728)" fill="#1D951B"/>
<circle cx="2" cy="2" r="2" transform="matrix(-1 0 0 1 114.532 719)" fill="#1D951B"/>
<circle cx="2" cy="2" r="2" transform="matrix(-1 0 0 1 106.532 713)" fill="#1D951B"/>
<circle cx="2" cy="2" r="2" transform="matrix(-1 0 0 1 99.5317 708)" fill="#1D951B"/>
<circle cx="2" cy="2" r="2" transform="matrix(-1 0 0 1 91.5317 704)" fill="#1D951B"/>
<circle cx="2" cy="2" r="2" transform="matrix(-1 0 0 1 82.5317 699)" fill="#1D951B"/>
<circle cx="2" cy="2" r="2" transform="matrix(-1 0 0 1 75.5317 695)" fill="#1D951B"/>
<circle cx="2" cy="2" r="2" transform="matrix(-1 0 0 1 66.5317 690)" fill="#1D951B"/>
<circle cx="2" cy="2" r="2" transform="matrix(-1 0 0 1 57.5317 685)" fill="#1D951B"/>
<circle cx="2" cy="2" r="2" transform="matrix(-1 0 0 1 50.5317 680)" fill="#1D951B"/>
<circle cx="56.0317" cy="678.5" r="1.5" fill="#1D951B"/>
<circle cx="47.0317" cy="674.5" r="1.5" fill="#1D951B"/>
<circle cx="39.0317" cy="668.5" r="1.5" fill="#1D951B"/>
<circle cx="46.0317" cy="664.5" r="1.5" fill="#1D951B"/>
<circle cx="37.0317" cy="659.5" r="1.5" fill="#1D951B"/>
<circle cx="28.0317" cy="654.5" r="1.5" fill="#1D951B"/>
<circle cx="21.0317" cy="650.5" r="1.5" fill="#1D951B"/>
<circle cx="18.0317" cy="642.5" r="1.5" fill="#1D951B"/>
<circle cx="15.0317" cy="633.5" r="1.5" fill="#1D951B"/>
<circle cx="24.0317" cy="637.5" r="1.5" fill="#1D951B"/>
<circle cx="10.0317" cy="636.5" r="1.5" fill="#1D951B"/>
<circle cx="12.0317" cy="625.5" r="1.5" fill="#1D951B"/>
<circle cx="21.0317" cy="629.5" r="1.5" fill="#1D951B"/>
<circle cx="20.0317" cy="620.5" r="1.5" fill="#1D951B"/>
<circle cx="33.0317" cy="632.5" r="1.5" fill="#1D951B"/>
<circle cx="29.0317" cy="624.5" r="1.5" fill="#1D951B"/>
<circle cx="34.0317" cy="621.5" r="1.5" fill="#1D951B"/>
<circle cx="37.0317" cy="618.5" r="1.5" fill="#1D951B"/>
<circle cx="42.0317" cy="615.5" r="1.5" fill="#1D951B"/>
<circle cx="52.0317" cy="609.5" r="1.5" fill="#1D951B"/>
<circle cx="64.0317" cy="611.5" r="1.5" fill="#1D951B"/>
<circle cx="39.0317" cy="606.5" r="1.5" fill="#1D951B"/>
<circle cx="33.0317" cy="609.5" r="1.5" fill="#1D951B"/>
<circle cx="29.0317" cy="612.5" r="1.5" fill="#1D951B"/>
<circle cx="25.0317" cy="616.5" r="1.5" fill="#1D951B"/>
<circle cx="17.0317" cy="612.5" r="1.5" fill="#1D951B"/>
<circle cx="21.0317" cy="608.5" r="1.5" fill="#1D951B"/>
<circle cx="27.0317" cy="603.5" r="1.5" fill="#1D951B"/>
<circle cx="26.0317" cy="593.5" r="1.5" fill="#1D951B"/>
<circle cx="18.0317" cy="599.5" r="1.5" fill="#1D951B"/>
<circle cx="13.0317" cy="602.5" r="1.5" fill="#1D951B"/>
<circle cx="8.03174" cy="606.5" r="1.5" fill="#1D951B"/>
<circle cx="8.03174" cy="596.5" r="1.5" fill="#1D951B"/>
<circle cx="14.0317" cy="590.5" r="1.5" fill="#1D951B"/>
<circle cx="52.0317" cy="619.5" r="1.5" fill="#1D951B"/>
<circle cx="46.0317" cy="623.5" r="1.5" fill="#1D951B"/>
<circle cx="38.0317" cy="630.5" r="1.5" fill="#1D951B"/>
<circle cx="45.0317" cy="634.5" r="1.5" fill="#1D951B"/>
<circle cx="49.0317" cy="641.5" r="1.5" fill="#1D951B"/>
<circle cx="54.0317" cy="638.5" r="1.5" fill="#1D951B"/>
<circle cx="61.0317" cy="643.5" r="1.5" fill="#1D951B"/>
<circle cx="57.0317" cy="647.5" r="1.5" fill="#1D951B"/>
<circle cx="66.0317" cy="651.5" r="1.5" fill="#1D951B"/>
<circle cx="71.0317" cy="648.5" r="1.5" fill="#1D951B"/>
<circle cx="68.0317" cy="639.5" r="1.5" fill="#1D951B"/>
<circle cx="76.0317" cy="643.5" r="1.5" fill="#1D951B"/>
<circle cx="86.0317" cy="638.5" r="1.5" fill="#1D951B"/>
<circle cx="75.0317" cy="634.5" r="1.5" fill="#1D951B"/>
<circle cx="65.0317" cy="631.5" r="1.5" fill="#1D951B"/>
<circle cx="58.0317" cy="635.5" r="1.5" fill="#1D951B"/>
<circle cx="49.0317" cy="631.5" r="1.5" fill="#1D951B"/>
<circle cx="56.0317" cy="627.5" r="1.5" fill="#1D951B"/>
<circle cx="64.0317" cy="621.5" r="1.5" fill="#1D951B"/>
<circle cx="75.0317" cy="625.5" r="1.5" fill="#1D951B"/>
<circle cx="76.0317" cy="615.5" r="1.5" fill="#1D951B"/>
<circle cx="87.0317" cy="619.5" r="1.5" fill="#1D951B"/>
<circle cx="85.0317" cy="629.5" r="1.5" fill="#1D951B"/>
<circle cx="94.0317" cy="633.5" r="1.5" fill="#1D951B"/>
<circle cx="86.0317" cy="647.5" r="1.5" fill="#1D951B"/>
<circle cx="80.0317" cy="653.5" r="1.5" fill="#1D951B"/>
<circle cx="75.0317" cy="655.5" r="1.5" fill="#1D951B"/>
<circle cx="82.0317" cy="660.5" r="1.5" fill="#1D951B"/>
<circle cx="88.0317" cy="657.5" r="1.5" fill="#1D951B"/>
<circle cx="94.0317" cy="653.5" r="1.5" fill="#1D951B"/>
<circle cx="100.032" cy="649.5" r="1.5" fill="#1D951B"/>
<circle cx="103.032" cy="639.5" r="1.5" fill="#1D951B"/>
<circle cx="111.032" cy="644.5" r="1.5" fill="#1D951B"/>
<circle cx="106.032" cy="627.5" r="1.5" fill="#1D951B"/>
<circle cx="95.0317" cy="623.5" r="1.5" fill="#1D951B"/>
<circle cx="94.0317" cy="644.5" r="1.5" fill="#1D951B"/>
<circle cx="41.0317" cy="626.5" r="1.5" fill="#1D951B"/>
<circle cx="40.0317" cy="637.5" r="1.5" fill="#1D951B"/>
<circle cx="40.0317" cy="596.5" r="1.5" fill="#1D951B"/>
<circle cx="54.0317" cy="598.5" r="1.5" fill="#1D951B"/>
<circle cx="67.0317" cy="600.5" r="1.5" fill="#1D951B"/>
<circle cx="71.0317" cy="589.5" r="1.5" fill="#1D951B"/>
<circle cx="82.0317" cy="593.5" r="1.5" fill="#1D951B"/>
<circle cx="78.0317" cy="604.5" r="1.5" fill="#1D951B"/>
<circle cx="89.0317" cy="608.5" r="1.5" fill="#1D951B"/>
<circle cx="95.0317" cy="596.5" r="1.5" fill="#1D951B"/>
<circle cx="100.032" cy="612.5" r="1.5" fill="#1D951B"/>
<circle cx="58.0317" cy="588.5" r="1.5" fill="#1D951B"/>
<circle cx="43.0317" cy="585.5" r="1.5" fill="#1D951B"/>
<circle cx="28.0317" cy="584.5" r="1.5" fill="#1D951B"/>
<circle cx="32.0317" cy="571.5" r="1.5" fill="#1D951B"/>
<circle cx="49.0317" cy="574.5" r="1.5" fill="#1D951B"/>
<circle cx="61.0317" cy="576.5" r="1.5" fill="#1D951B"/>
<circle cx="69.0317" cy="564.5" r="1.5" fill="#1D951B"/>
<circle cx="54.0317" cy="561.5" r="1.5" fill="#1D951B"/>
<circle cx="38.0317" cy="560.5" r="1.5" fill="#1D951B"/>
<circle cx="21.0317" cy="559.5" r="1.5" fill="#1D951B"/>
<circle cx="10.0317" cy="547.5" r="1.5" fill="#1D951B"/>
<circle cx="18.0317" cy="532.5" r="1.5" fill="#1D951B"/>
<circle cx="31.0317" cy="547.5" r="1.5" fill="#1D951B"/>
<circle cx="39.0317" cy="532.5" r="1.5" fill="#1D951B"/>
<circle cx="46.0317" cy="549.5" r="1.5" fill="#1D951B"/>
<circle cx="54.0317" cy="534.5" r="1.5" fill="#1D951B"/>
<circle cx="62.0317" cy="550.5" r="1.5" fill="#1D951B"/>
<circle cx="72.0317" cy="535.5" r="1.5" fill="#1D951B"/>
<circle cx="69.0317" cy="518.5" r="1.5" fill="#1D951B"/>
<circle cx="47.0317" cy="518.5" r="1.5" fill="#1D951B"/>
<circle cx="31.0317" cy="519.5" r="1.5" fill="#1D951B"/>
<circle cx="11.0317" cy="519.5" r="1.5" fill="#1D951B"/>
<circle cx="26.0317" cy="503.5" r="1.5" fill="#1D951B"/>
<circle cx="40.0317" cy="505.5" r="1.5" fill="#1D951B"/>
<circle cx="61.0317" cy="502.5" r="1.5" fill="#1D951B"/>
<circle cx="57.0317" cy="485.5" r="1.5" fill="#1D951B"/>
<circle cx="37.0317" cy="488.5" r="1.5" fill="#1D951B"/>
<circle cx="20.0317" cy="488.5" r="1.5" fill="#1D951B"/>
<circle cx="19.0317" cy="470.5" r="1.5" fill="#1D951B"/>
<circle cx="36.0317" cy="471.5" r="1.5" fill="#1D951B"/>
<circle cx="56.0317" cy="472.5" r="1.5" fill="#1D951B"/>
<circle cx="53.0317" cy="453.5" r="1.5" fill="#1D951B"/>
<circle cx="36.0317" cy="453.5" r="1.5" fill="#1D951B"/>
<circle cx="17.0317" cy="452.5" r="1.5" fill="#1D951B"/>
<circle cx="17.0317" cy="434.5" r="1.5" fill="#1D951B"/>
<circle cx="35.0317" cy="435.5" r="1.5" fill="#1D951B"/>
<circle cx="35.0317" cy="415.5" r="1.5" fill="#1D951B"/>
<circle cx="13.0317" cy="418.5" r="1.5" fill="#1D951B"/>
<circle cx="52.0317" cy="418.5" r="1.5" fill="#1D951B"/>
<circle cx="51.0317" cy="401.5" r="1.5" fill="#1D951B"/>
<circle cx="31.0317" cy="400.5" r="1.5" fill="#1D951B"/>
<circle cx="24.0317" cy="383.5" r="1.5" fill="#1D951B"/>
<circle cx="46.0317" cy="384.5" r="1.5" fill="#1D951B"/>
<circle cx="38.0317" cy="369.5" r="1.5" fill="#1D951B"/>
<circle cx="28.0317" cy="355.5" r="1.5" fill="#1D951B"/>
<circle cx="19.0317" cy="343.5" r="1.5" fill="#1D951B"/>
<circle cx="15.0317" cy="372.5" r="1.5" fill="#1D951B"/>
<circle cx="8.03174" cy="327.5" r="1.5" fill="#1D951B"/>
<circle cx="8.03174" cy="402.5" r="1.5" fill="#1D951B"/>
<circle cx="53.0317" cy="436.5" r="1.5" fill="#1D951B"/>
<circle cx="81.0317" cy="549.5" r="1.5" fill="#1D951B"/>
<circle cx="89.0317" cy="534.5" r="1.5" fill="#1D951B"/>
<circle cx="16.0317" cy="571.5" r="1.5" fill="#1D951B"/>
<circle cx="13.0317" cy="582.5" r="1.5" fill="#1D951B"/>
<circle cx="76.0317" cy="578.5" r="1.5" fill="#1D951B"/>
<circle cx="90.0317" cy="581.5" r="1.5" fill="#1D951B"/>
<circle cx="84.0317" cy="565.5" r="1.5" fill="#1D951B"/>
<circle cx="10.0317" cy="616.5" r="1.5" fill="#1D951B"/>
<circle cx="25.0317" cy="647.5" r="1.5" fill="#1D951B"/>
<circle cx="55.0317" cy="669.5" r="1.5" fill="#1D951B"/>
<circle cx="64.0317" cy="673.5" r="1.5" fill="#1D951B"/>
<circle cx="73.0317" cy="677.5" r="1.5" fill="#1D951B"/>
<circle cx="80.0317" cy="682.5" r="1.5" fill="#1D951B"/>
<circle cx="88.0317" cy="686.5" r="1.5" fill="#1D951B"/>
<circle cx="96.0317" cy="692.5" r="1.5" fill="#1D951B"/>
<circle cx="102.032" cy="697.5" r="1.5" fill="#1D951B"/>
<circle cx="108.032" cy="703.5" r="1.5" fill="#1D951B"/>
<circle cx="114.032" cy="709.5" r="1.5" fill="#1D951B"/>
<circle cx="121.032" cy="714.5" r="1.5" fill="#1D951B"/>
<circle cx="126.032" cy="711.5" r="1.5" fill="#1D951B"/>
<circle cx="119.032" cy="704.5" r="1.5" fill="#1D951B"/>
<circle cx="113.032" cy="700.5" r="1.5" fill="#1D951B"/>
<circle cx="117.032" cy="696.5" r="1.5" fill="#1D951B"/>
<circle cx="112.032" cy="690.5" r="1.5" fill="#1D951B"/>
<circle cx="108.032" cy="694.5" r="1.5" fill="#1D951B"/>
<circle cx="102.032" cy="688.5" r="1.5" fill="#1D951B"/>
<circle cx="106.032" cy="685.5" r="1.5" fill="#1D951B"/>
<circle cx="99.0317" cy="680.5" r="1.5" fill="#1D951B"/>
<circle cx="95.0317" cy="682.5" r="1.5" fill="#1D951B"/>
<circle cx="88.0317" cy="678.5" r="1.5" fill="#1D951B"/>
<circle cx="80.0317" cy="673.5" r="1.5" fill="#1D951B"/>
<circle cx="72.0317" cy="668.5" r="1.5" fill="#1D951B"/>
<circle cx="63.0317" cy="663.5" r="1.5" fill="#1D951B"/>
<circle cx="54.0317" cy="658.5" r="1.5" fill="#1D951B"/>
<circle cx="45.0317" cy="654.5" r="1.5" fill="#1D951B"/>
<circle cx="35.0317" cy="650.5" r="1.5" fill="#1D951B"/>
<circle cx="34.0317" cy="641.5" r="1.5" fill="#1D951B"/>
<circle cx="43.0317" cy="646.5" r="1.5" fill="#1D951B"/>
<circle cx="52.0317" cy="650.5" r="1.5" fill="#1D951B"/>
<circle cx="60.0317" cy="654.5" r="1.5" fill="#1D951B"/>
<circle cx="69.0317" cy="659.5" r="1.5" fill="#1D951B"/>
<circle cx="77.0317" cy="665.5" r="1.5" fill="#1D951B"/>
<circle cx="84.0317" cy="669.5" r="1.5" fill="#1D951B"/>
<circle cx="92.0317" cy="674.5" r="1.5" fill="#1D951B"/>
<circle cx="90.0317" cy="665.5" r="1.5" fill="#1D951B"/>
<circle cx="96.0317" cy="663.5" r="1.5" fill="#1D951B"/>
<circle cx="101.032" cy="657.5" r="1.5" fill="#1D951B"/>
<circle cx="109.032" cy="653.5" r="1.5" fill="#1D951B"/>
<circle cx="115.032" cy="659.5" r="1.5" fill="#1D951B"/>
<circle cx="108.032" cy="664.5" r="1.5" fill="#1D951B"/>
<circle cx="103.032" cy="667.5" r="1.5" fill="#1D951B"/>
<circle cx="98.0317" cy="671.5" r="1.5" fill="#1D951B"/>
<circle cx="104.032" cy="676.5" r="1.5" fill="#1D951B"/>
<circle cx="110.032" cy="681.5" r="1.5" fill="#1D951B"/>
<circle cx="116.032" cy="686.5" r="1.5" fill="#1D951B"/>
<circle cx="121.032" cy="683.5" r="1.5" fill="#1D951B"/>
<circle cx="127.032" cy="689.5" r="1.5" fill="#1D951B"/>
<circle cx="122.032" cy="693.5" r="1.5" fill="#1D951B"/>
<circle cx="124.032" cy="702.5" r="1.5" fill="#1D951B"/>
<circle cx="129.032" cy="698.5" r="1.5" fill="#1D951B"/>
<circle cx="136.032" cy="703.5" r="1.5" fill="#1D951B"/>
<circle cx="130.032" cy="707.5" r="1.5" fill="#1D951B"/>
<circle cx="128.032" cy="719.5" r="1.5" fill="#1D951B"/>
<circle cx="132.032" cy="715.5" r="1.5" fill="#1D951B"/>
<circle cx="146.032" cy="717.5" r="1.5" fill="#1D951B"/>
<circle cx="140.032" cy="720.5" r="1.5" fill="#1D951B"/>
<circle cx="135.032" cy="724.5" r="1.5" fill="#1D951B"/>
<circle cx="142.032" cy="729.5" r="1.5" fill="#1D951B"/>
<circle cx="150.032" cy="725.5" r="1.5" fill="#1D951B"/>
<circle cx="160.032" cy="729.5" r="1.5" fill="#1D951B"/>
<circle cx="152.032" cy="733.5" r="1.5" fill="#1D951B"/>
<circle cx="145.032" cy="738.5" r="1.5" fill="#1D951B"/>
<circle cx="155.032" cy="742.5" r="1.5" fill="#1D951B"/>
<circle cx="164.032" cy="738.5" r="1.5" fill="#1D951B"/>
<circle cx="167.032" cy="746.5" r="1.5" fill="#1D951B"/>
<circle cx="175.032" cy="741.5" r="1.5" fill="#1D951B"/>
<circle cx="179.032" cy="748.5" r="1.5" fill="#1D951B"/>
<circle cx="181.032" cy="757.5" r="1.5" fill="#1D951B"/>
<circle cx="180.032" cy="767.5" r="1.5" fill="#1D951B"/>
<circle cx="180.032" cy="775.5" r="1.5" fill="#1D951B"/>
<circle cx="183.032" cy="785.5" r="1.5" fill="#1D951B"/>
<circle cx="174.032" cy="790.5" r="1.5" fill="#1D951B"/>
<circle cx="171.032" cy="793.5" r="1.5" fill="#1D951B"/>
<circle cx="167.032" cy="796.5" r="1.5" fill="#1D951B"/>
<circle cx="168.032" cy="805.5" r="1.5" fill="#1D951B"/>
<circle cx="172.032" cy="802.5" r="1.5" fill="#1D951B"/>
<circle cx="177.032" cy="798.5" r="1.5" fill="#1D951B"/>
<circle cx="184.032" cy="793.5" r="1.5" fill="#1D951B"/>
<circle cx="194.032" cy="788.5" r="1.5" fill="#1D951B"/>
<circle cx="213.032" cy="789.5" r="1.5" fill="#1D951B"/>
<circle cx="214.032" cy="779.5" r="1.5" fill="#1D951B"/>
<circle cx="233.032" cy="781.5" r="1.5" fill="#1D951B"/>
<circle cx="232.032" cy="789.5" r="1.5" fill="#1D951B"/>
<circle cx="250.032" cy="801.5" r="1.5" fill="#1D951B"/>
<circle cx="246.032" cy="810.5" r="1.5" fill="#1D951B"/>
<circle cx="268.032" cy="810.5" r="1.5" fill="#1D951B"/>
<circle cx="270.032" cy="801.5" r="1.5" fill="#1D951B"/>
<circle cx="251.032" cy="792.5" r="1.5" fill="#1D951B"/>
<circle cx="248.032" cy="782.5" r="1.5" fill="#1D951B"/>
<circle cx="245.032" cy="775.5" r="1.5" fill="#1D951B"/>
<circle cx="242.032" cy="765.5" r="1.5" fill="#1D951B"/>
<circle cx="229.032" cy="799.5" r="1.5" fill="#1D951B"/>
<circle cx="224.032" cy="810.5" r="1.5" fill="#1D951B"/>
<circle cx="208.032" cy="811.5" r="1.5" fill="#1D951B"/>
<circle cx="208.032" cy="799.5" r="1.5" fill="#1D951B"/>
<circle cx="198.032" cy="806.5" r="1.5" fill="#1D951B"/>
<circle cx="195.032" cy="798.5" r="1.5" fill="#1D951B"/>
<circle cx="187.032" cy="802.5" r="1.5" fill="#1D951B"/>
<circle cx="189.032" cy="810.5" r="1.5" fill="#1D951B"/>
<circle cx="176.032" cy="810.5" r="1.5" fill="#1D951B"/>
<circle cx="182.032" cy="806.5" r="1.5" fill="#1D951B"/>
<circle cx="194.032" cy="777.5" r="1.5" fill="#1D951B"/>
<circle cx="197.032" cy="768.5" r="1.5" fill="#1D951B"/>
<circle cx="195.032" cy="759.5" r="1.5" fill="#1D951B"/>
<circle cx="115.032" cy="678.5" r="1.5" fill="#1D951B"/>
<circle cx="121.032" cy="673.5" r="1.5" fill="#1D951B"/>
<circle cx="115.032" cy="668.5" r="1.5" fill="#1D951B"/>
<circle cx="108.032" cy="672.5" r="1.5" fill="#1D951B"/>
<circle cx="2" cy="2" r="2" transform="matrix(-1 0 0 1 66.5317 680)" fill="#1D951B"/>
<circle cx="2" cy="2" r="2" transform="matrix(-1 0 0 1 75.5317 685)" fill="#1D951B"/>
<circle cx="2" cy="2" r="2" transform="matrix(-1 0 0 1 82.5317 689)" fill="#1D951B"/>
<circle cx="2" cy="2" r="2" transform="matrix(-1 0 0 1 90.5317 694)" fill="#1D951B"/>
<circle cx="2" cy="2" r="2" transform="matrix(-1 0 0 1 97.5317 699)" fill="#1D951B"/>
<circle cx="2" cy="2" r="2" transform="matrix(-1 0 0 1 105.532 705)" fill="#1D951B"/>
<circle cx="2" cy="2" r="2" transform="matrix(-1 0 0 1 111.532 710)" fill="#1D951B"/>
<circle cx="2" cy="2" r="2" transform="matrix(-1 0 0 1 118.532 716)" fill="#1D951B"/>
<circle cx="2" cy="2" r="2" transform="matrix(-1 0 0 1 124.532 722)" fill="#1D951B"/>
<circle cx="2" cy="2" r="2" transform="matrix(-1 0 0 1 122.532 728)" fill="#1D951B"/>
<circle cx="2" cy="2" r="2" transform="matrix(-1 0 0 1 132.532 736)" fill="#1D951B"/>
<circle cx="2" cy="2" r="2" transform="matrix(-1 0 0 1 124.532 734)" fill="#1D951B"/>
<circle cx="2" cy="2" r="2" transform="matrix(-1 0 0 1 131.532 727)" fill="#1D951B"/>
<circle cx="2" cy="2" r="2" transform="matrix(-1 0 0 1 138.532 732)" fill="#1D951B"/>
<circle cx="2" cy="2" r="2" transform="matrix(-1 0 0 1 148.532 745)" fill="#1D951B"/>
<circle cx="2" cy="2" r="2" transform="matrix(-1 0 0 1 140.532 740)" fill="#1D951B"/>
<circle cx="2" cy="2" r="2" transform="matrix(-1 0 0 1 100.532 728)" fill="#1D951B"/>
<circle cx="2" cy="2" r="2" transform="matrix(-1 0 0 1 108.532 732)" fill="#1D951B"/>
<circle cx="2" cy="2" r="2" transform="matrix(-1 0 0 1 118.532 737)" fill="#1D951B"/>
<circle cx="2" cy="2" r="2" transform="matrix(-1 0 0 1 124.532 741)" fill="#1D951B"/>
<circle cx="2" cy="2" r="2" transform="matrix(-1 0 0 1 132.532 747)" fill="#1D951B"/>
<circle cx="2" cy="2" r="2" transform="matrix(-1 0 0 1 136.532 743)" fill="#1D951B"/>
<circle cx="2" cy="2" r="2" transform="matrix(-1 0 0 1 141.532 748)" fill="#1D951B"/>
<circle cx="2" cy="2" r="2" transform="matrix(-1 0 0 1 137.532 752)" fill="#1D951B"/>
<circle cx="2" cy="2" r="2" transform="matrix(-1 0 0 1 136.532 759)" fill="#1D951B"/>
<circle cx="2" cy="2" r="2" transform="matrix(-1 0 0 1 143.532 759)" fill="#1D951B"/>
<circle cx="2" cy="2" r="2" transform="matrix(-1 0 0 1 153.532 763)" fill="#1D951B"/>
<circle cx="2" cy="2" r="2" transform="matrix(-1 0 0 1 143.532 765)" fill="#1D951B"/>
<ellipse cx="367.698" cy="18.5544" rx="3.17921" ry="3.75686" transform="rotate(-137.246 367.698 18.5544)" fill="#F8B84E"/>
<ellipse cx="376.78" cy="32.7301" rx="3" ry="3.83051" transform="rotate(-137.246 376.78 32.7301)" fill="#F8B84E"/>
<ellipse cx="372.266" cy="44.2772" rx="3.63024" ry="3.83051" transform="rotate(-137.246 372.266 44.2772)" fill="#F8B84E"/>
<ellipse cx="368.266" cy="55.2772" rx="3.63024" ry="3.83051" transform="rotate(-137.246 368.266 55.2772)" fill="#F8B84E"/>
<ellipse cx="356.266" cy="52.2772" rx="3.63024" ry="3.83051" transform="rotate(-137.246 356.266 52.2772)" fill="#F8B84E"/>
<ellipse cx="344.266" cy="48.2772" rx="3.63024" ry="3.83051" transform="rotate(-137.246 344.266 48.2772)" fill="#F8B84E"/>
<ellipse cx="341.5" cy="59.0898" rx="2.94066" ry="3.44812" transform="rotate(-137.246 341.5 59.0898)" fill="#F8B84E"/>
<ellipse cx="333.266" cy="45.2772" rx="3.63024" ry="3.83051" transform="rotate(-137.246 333.266 45.2772)" fill="#F8B84E"/>
<ellipse cx="352.6" cy="62.7772" rx="3.53637" ry="3.23636" transform="rotate(-137.246 352.6 62.7772)" fill="#F8B84E"/>
<ellipse cx="349.6" cy="73.7772" rx="3.53637" ry="3.23636" transform="rotate(-137.246 349.6 73.7772)" fill="#F8B84E"/>
<ellipse cx="363.266" cy="67.2772" rx="3.63024" ry="3.83051" transform="rotate(-137.246 363.266 67.2772)" fill="#F8B84E"/>
<ellipse cx="375.266" cy="70.2772" rx="3.63024" ry="3.83051" transform="rotate(-137.246 375.266 70.2772)" fill="#F8B84E"/>
<ellipse cx="371.266" cy="81.2772" rx="3.63024" ry="3.83051" transform="rotate(-137.246 371.266 81.2772)" fill="#F8B84E"/>
<ellipse cx="367.266" cy="93.2772" rx="3.63024" ry="3.83051" transform="rotate(-137.246 367.266 93.2772)" fill="#F8B84E"/>
<ellipse cx="364.266" cy="103.277" rx="3.63024" ry="3.83051" transform="rotate(-137.246 364.266 103.277)" fill="#F8B84E"/>
<ellipse cx="357.266" cy="88.2772" rx="3.63024" ry="3.83051" transform="rotate(-137.246 357.266 88.2772)" fill="#F8B84E"/>
<ellipse cx="378.266" cy="96.2772" rx="3.63024" ry="3.83051" transform="rotate(-137.246 378.266 96.2772)" fill="#F8B84E"/>
<ellipse cx="375.266" cy="108.277" rx="3.63024" ry="3.83051" transform="rotate(-137.246 375.266 108.277)" fill="#F8B84E"/>
<ellipse cx="373.266" cy="118.277" rx="3.63024" ry="3.83051" transform="rotate(-137.246 373.266 118.277)" fill="#F8B84E"/>
<ellipse cx="372.266" cy="128.277" rx="3.63024" ry="3.83051" transform="rotate(-137.246 372.266 128.277)" fill="#F8B84E"/>
<ellipse cx="360.266" cy="78.2772" rx="3.63024" ry="3.83051" transform="rotate(-137.246 360.266 78.2772)" fill="#F8B84E"/>
<ellipse cx="359.266" cy="41.2772" rx="3.63024" ry="3.83051" transform="rotate(-137.246 359.266 41.2772)" fill="#F8B84E"/>
<ellipse cx="348.266" cy="37.2772" rx="3.63024" ry="3.83051" transform="rotate(-137.246 348.266 37.2772)" fill="#F8B84E"/>
<ellipse cx="350.266" cy="26.2772" rx="3.63024" ry="3.83051" transform="rotate(-137.246 350.266 26.2772)" fill="#F8B84E"/>
<ellipse cx="354.266" cy="16.2772" rx="3.63024" ry="3.83051" transform="rotate(-137.246 354.266 16.2772)" fill="#F8B84E"/>
<ellipse cx="343.266" cy="11.2772" rx="3.63024" ry="3.83051" transform="rotate(-137.246 343.266 11.2772)" fill="#F8B84E"/>
<ellipse cx="340.266" cy="22.2772" rx="3.63024" ry="3.83051" transform="rotate(-137.246 340.266 22.2772)" fill="#F8B84E"/>
<ellipse cx="336.266" cy="33.2772" rx="3.63024" ry="3.83051" transform="rotate(-137.246 336.266 33.2772)" fill="#F8B84E"/>
<ellipse cx="325.266" cy="29.2772" rx="3.63024" ry="3.83051" transform="rotate(-137.246 325.266 29.2772)" fill="#F8B84E"/>
<ellipse cx="327.266" cy="19.2772" rx="3.63024" ry="3.83051" transform="rotate(-137.246 327.266 19.2772)" fill="#F8B84E"/>
<ellipse cx="331.266" cy="8.27715" rx="3.63024" ry="3.83051" transform="rotate(-137.246 331.266 8.27715)" fill="#F8B84E"/>
<ellipse cx="357.266" cy="6.27715" rx="3.63024" ry="3.83051" transform="rotate(-137.246 357.266 6.27715)" fill="#F8B84E"/>
<ellipse cx="357.266" cy="5.27715" rx="3.63024" ry="3.83051" transform="rotate(-137.246 357.266 5.27715)" fill="#F8B84E"/>
<ellipse cx="363.756" cy="29.7557" rx="3" ry="3.86524" transform="rotate(-137.246 363.756 29.7557)" fill="#F8B84E"/>
<ellipse cx="371.792" cy="7.7176" rx="3" ry="3.81334" transform="rotate(-137.246 371.792 7.7176)" fill="#F8B84E"/>
<ellipse cx="310.331" cy="18.7896" rx="1.5" ry="3.5" transform="rotate(165.452 310.331 18.7896)" fill="#F8B84E"/>
<ellipse cx="310.331" cy="8.78956" rx="1.5" ry="3.5" transform="rotate(165.452 310.331 8.78956)" fill="#F8B84E"/>
<ellipse cx="303.331" cy="12.7896" rx="1.5" ry="3.5" transform="rotate(165.452 303.331 12.7896)" fill="#F8B84E"/>
<ellipse cx="296.331" cy="7.78956" rx="1.5" ry="3.5" transform="rotate(165.452 296.331 7.78956)" fill="#F8B84E"/>
<ellipse cx="304.331" cy="4.78956" rx="1.5" ry="3.5" transform="rotate(165.452 304.331 4.78956)" fill="#F8B84E"/>
<ellipse cx="319.331" cy="4.78956" rx="1.5" ry="3.5" transform="rotate(165.452 319.331 4.78956)" fill="#F8B84E"/>
<ellipse cx="318.331" cy="14.7896" rx="1.5" ry="3.5" transform="rotate(165.452 318.331 14.7896)" fill="#F8B84E"/>
<ellipse cx="317.331" cy="24.7896" rx="1.5" ry="3.5" transform="rotate(165.452 317.331 24.7896)" fill="#F8B84E"/>
<ellipse cx="317.331" cy="33.7896" rx="1.5" ry="3.5" transform="rotate(165.452 317.331 33.7896)" fill="#F8B84E"/>
<ellipse cx="325.331" cy="39.7896" rx="1.5" ry="3.5" transform="rotate(165.452 325.331 39.7896)" fill="#F8B84E"/>
<ellipse cx="332.621" cy="54.7143" rx="1.79918" ry="3.5" transform="rotate(165.452 332.621 54.7143)" fill="#F8B84E"/>
<ellipse cx="332.355" cy="63.8811" rx="1.5" ry="3.59456" transform="rotate(165.452 332.355 63.8811)" fill="#F8B84E"/>
<ellipse cx="340.331" cy="69.7896" rx="1.5" ry="3.5" transform="rotate(165.452 340.331 69.7896)" fill="#F8B84E"/>
<ellipse cx="340.331" cy="79.7896" rx="1.5" ry="3.5" transform="rotate(165.452 340.331 79.7896)" fill="#F8B84E"/>
<ellipse cx="348.331" cy="84.7895" rx="2.40275" ry="3.5" transform="rotate(165.452 348.331 84.7895)" fill="#F8B84E"/>
<ellipse cx="355.205" cy="99.563" rx="2.40275" ry="3.5" transform="rotate(165.452 355.205 99.563)" fill="#F8B84E"/>
<ellipse cx="347.205" cy="94.563" rx="2.40275" ry="3.5" transform="rotate(165.452 347.205 94.563)" fill="#F8B84E"/>
<ellipse cx="340.792" cy="89.4462" rx="1.77086" ry="2.57309" transform="rotate(151.195 340.792 89.4462)" fill="#F8B84E"/>
<ellipse cx="332.792" cy="73.4462" rx="1.77086" ry="2.57309" transform="rotate(151.195 332.792 73.4462)" fill="#F8B84E"/>
<ellipse cx="326.233" cy="59.2484" rx="1.77086" ry="3.4887" transform="rotate(151.195 326.233 59.2484)" fill="#F8B84E"/>
<ellipse cx="319.508" cy="53.3606" rx="1.22869" ry="2.97141" transform="rotate(151.195 319.508 53.3606)" fill="#F8B84E"/>
<ellipse cx="316.508" cy="56.3584" rx="1.22869" ry="2.97141" transform="rotate(151.195 316.508 56.3584)" fill="#F8B84E"/>
<ellipse cx="321.508" cy="63.3584" rx="1.22869" ry="2.97141" transform="rotate(151.195 321.508 63.3584)" fill="#F8B84E"/>
<ellipse cx="327.508" cy="69.3584" rx="1.22869" ry="2.97141" transform="rotate(151.195 327.508 69.3584)" fill="#F8B84E"/>
<ellipse cx="328.508" cy="77.3584" rx="1.22869" ry="2.97141" transform="rotate(151.195 328.508 77.3584)" fill="#F8B84E"/>
<ellipse cx="333.508" cy="84.3584" rx="1.22869" ry="2.97141" transform="rotate(151.195 333.508 84.3584)" fill="#F8B84E"/>
<ellipse cx="335.508" cy="92.3584" rx="1.22869" ry="2.97141" transform="rotate(151.195 335.508 92.3584)" fill="#F8B84E"/>
<ellipse cx="340.508" cy="98.3584" rx="1.22869" ry="2.97141" transform="rotate(151.195 340.508 98.3584)" fill="#F8B84E"/>
<ellipse cx="340.508" cy="98.3584" rx="1.22869" ry="2.97141" transform="rotate(151.195 340.508 98.3584)" fill="#F8B84E"/>
<ellipse cx="347.508" cy="113.358" rx="1.22869" ry="2.97141" transform="rotate(151.195 347.508 113.358)" fill="#F8B84E"/>
<ellipse cx="342.508" cy="107.358" rx="1.22869" ry="2.97141" transform="rotate(151.195 342.508 107.358)" fill="#F8B84E"/>
<ellipse cx="337.508" cy="100.358" rx="1.28141" ry="2.97141" transform="rotate(151.195 337.508 100.358)" fill="#F8B84E"/>
<ellipse cx="332.555" cy="94.333" rx="1.28141" ry="2.97141" transform="rotate(151.195 332.555 94.333)" fill="#F8B84E"/>
<ellipse cx="328.555" cy="85.333" rx="1.28141" ry="2.97141" transform="rotate(151.195 328.555 85.333)" fill="#F8B84E"/>
<ellipse cx="310.555" cy="50.333" rx="1.28141" ry="2.97141" transform="rotate(151.195 310.555 50.333)" fill="#F8B84E"/>
<ellipse cx="305.555" cy="43.333" rx="1.28141" ry="2.97141" transform="rotate(151.195 305.555 43.333)" fill="#F8B84E"/>
<ellipse cx="300.555" cy="37.333" rx="1.28141" ry="2.97141" transform="rotate(151.195 300.555 37.333)" fill="#F8B84E"/>
<ellipse cx="294.555" cy="33.333" rx="1.28141" ry="2.97141" transform="rotate(151.195 294.555 33.333)" fill="#F8B84E"/>
<ellipse cx="289.555" cy="27.333" rx="1.28141" ry="2.97141" transform="rotate(151.195 289.555 27.333)" fill="#F8B84E"/>
<ellipse cx="283.701" cy="20.2346" rx="0.695133" ry="2.26487" transform="rotate(151.195 283.701 20.2346)" fill="#F8B84E"/>
<ellipse cx="303.701" cy="47.2346" rx="0.695133" ry="2.26487" transform="rotate(151.195 303.701 47.2346)" fill="#F8B84E"/>
<ellipse cx="308.701" cy="55.2346" rx="0.695133" ry="2.26487" transform="rotate(151.195 308.701 55.2346)" fill="#F8B84E"/>
<ellipse cx="313.701" cy="60.2346" rx="0.695133" ry="2.26487" transform="rotate(151.195 313.701 60.2346)" fill="#F8B84E"/>
<ellipse cx="311.701" cy="65.2346" rx="0.695133" ry="2.26487" transform="rotate(151.195 311.701 65.2346)" fill="#F8B84E"/>
<ellipse cx="306.701" cy="59.2346" rx="0.695133" ry="2.26487" transform="rotate(151.195 306.701 59.2346)" fill="#F8B84E"/>
<ellipse cx="301.701" cy="51.2346" rx="0.695133" ry="2.26487" transform="rotate(151.195 301.701 51.2346)" fill="#F8B84E"/>
<ellipse cx="280.701" cy="12.2346" rx="0.695133" ry="2.26487" transform="rotate(151.195 280.701 12.2346)" fill="#F8B84E"/>
<ellipse cx="282.701" cy="9.23457" rx="0.695133" ry="2.26487" transform="rotate(151.195 282.701 9.23457)" fill="#F8B84E"/>
<ellipse cx="287.701" cy="8.23457" rx="0.695133" ry="2.26487" transform="rotate(151.195 287.701 8.23457)" fill="#F8B84E"/>
<ellipse cx="286.965" cy="18.1073" rx="0.813001" ry="2.97141" transform="rotate(151.195 286.965 18.1073)" fill="#F8B84E"/>
<ellipse cx="318.555" cy="67.333" rx="1.28141" ry="2.97141" transform="rotate(151.195 318.555 67.333)" fill="#F8B84E"/>
<ellipse cx="323.555" cy="72.333" rx="1.28141" ry="2.97141" transform="rotate(151.195 323.555 72.333)" fill="#F8B84E"/>
<ellipse cx="325.555" cy="79.333" rx="1.28141" ry="2.97141" transform="rotate(151.195 325.555 79.333)" fill="#F8B84E"/>
<ellipse cx="354.508" cy="119.358" rx="1.22869" ry="2.97141" transform="rotate(151.195 354.508 119.358)" fill="#F8B84E"/>
<ellipse cx="355.508" cy="128.358" rx="1.22869" ry="2.97141" transform="rotate(151.195 355.508 128.358)" fill="#F8B84E"/>
<ellipse cx="349.508" cy="121.358" rx="1.22869" ry="2.97141" transform="rotate(151.195 349.508 121.358)" fill="#F8B84E"/>
<ellipse cx="351.508" cy="130.358" rx="1.22869" ry="2.97141" transform="rotate(151.195 351.508 130.358)" fill="#F8B84E"/>
<ellipse cx="358.508" cy="136.358" rx="1.22869" ry="2.97141" transform="rotate(151.195 358.508 136.358)" fill="#F8B84E"/>
<ellipse cx="360.508" cy="143.358" rx="1.22869" ry="2.97141" transform="rotate(151.195 360.508 143.358)" fill="#F8B84E"/>
<ellipse cx="313.874" cy="47.4256" rx="0.940173" ry="3.20666" transform="rotate(151.195 313.874 47.4256)" fill="#F8B84E"/>
<ellipse cx="308.4" cy="41.3482" rx="0.940173" ry="2.87841" transform="rotate(151.195 308.4 41.3482)" fill="#F8B84E"/>
<ellipse cx="306.211" cy="32.5789" rx="0.940173" ry="2.87841" transform="rotate(151.195 306.211 32.5789)" fill="#F8B84E"/>
<ellipse cx="306.211" cy="32.5789" rx="0.940173" ry="2.87841" transform="rotate(151.195 306.211 32.5789)" fill="#F8B84E"/>
<ellipse cx="300.211" cy="26.5789" rx="0.940173" ry="2.87841" transform="rotate(151.195 300.211 26.5789)" fill="#F8B84E"/>
<ellipse cx="299.211" cy="17.5789" rx="0.940173" ry="2.87841" transform="rotate(151.195 299.211 17.5789)" fill="#F8B84E"/>
<ellipse cx="292.211" cy="11.5789" rx="0.940173" ry="2.87841" transform="rotate(151.195 292.211 11.5789)" fill="#F8B84E"/>
<ellipse cx="289.211" cy="14.5789" rx="0.940173" ry="2.87841" transform="rotate(151.195 289.211 14.5789)" fill="#F8B84E"/>
<ellipse cx="295.211" cy="20.5789" rx="0.940173" ry="2.87841" transform="rotate(151.195 295.211 20.5789)" fill="#F8B84E"/>
<ellipse cx="292.211" cy="23.5789" rx="0.940173" ry="2.87841" transform="rotate(151.195 292.211 23.5789)" fill="#F8B84E"/>
<ellipse cx="297.211" cy="29.5789" rx="0.940173" ry="2.87841" transform="rotate(151.195 297.211 29.5789)" fill="#F8B84E"/>
<ellipse cx="276.211" cy="39.5789" rx="0.940173" ry="2.87841" transform="rotate(151.195 276.211 39.5789)" fill="#F8B84E"/>
<ellipse cx="284.211" cy="44.5789" rx="0.940173" ry="2.87841" transform="rotate(151.195 284.211 44.5789)" fill="#F8B84E"/>
<ellipse cx="288.211" cy="40.5789" rx="0.940173" ry="2.87841" transform="rotate(151.195 288.211 40.5789)" fill="#F8B84E"/>
<ellipse cx="292.211" cy="36.5789" rx="0.940173" ry="2.87841" transform="rotate(151.195 292.211 36.5789)" fill="#F8B84E"/>
<ellipse cx="281.211" cy="35.5789" rx="0.940173" ry="2.87841" transform="rotate(151.195 281.211 35.5789)" fill="#F8B84E"/>
<ellipse cx="284.211" cy="33.5789" rx="0.940173" ry="2.87841" transform="rotate(151.195 284.211 33.5789)" fill="#F8B84E"/>
<ellipse cx="286.211" cy="31.5789" rx="0.940173" ry="2.87841" transform="rotate(151.195 286.211 31.5789)" fill="#F8B84E"/>
<ellipse cx="277.211" cy="28.5789" rx="0.940173" ry="2.87841" transform="rotate(151.195 277.211 28.5789)" fill="#F8B84E"/>
<ellipse cx="272.211" cy="20.5789" rx="0.940173" ry="2.87841" transform="rotate(151.195 272.211 20.5789)" fill="#F8B84E"/>
<ellipse cx="274.211" cy="17.5789" rx="0.940173" ry="2.87841" transform="rotate(151.195 274.211 17.5789)" fill="#F8B84E"/>
<ellipse cx="280.211" cy="25.5789" rx="0.940173" ry="2.87841" transform="rotate(151.195 280.211 25.5789)" fill="#F8B84E"/>
<ellipse cx="282.211" cy="23.5789" rx="0.940173" ry="2.87841" transform="rotate(151.195 282.211 23.5789)" fill="#F8B84E"/>
<ellipse cx="277.211" cy="14.5789" rx="0.940173" ry="2.87841" transform="rotate(151.195 277.211 14.5789)" fill="#F8B84E"/>
<ellipse cx="274.211" cy="7.57893" rx="0.940173" ry="2.87841" transform="rotate(151.195 274.211 7.57893)" fill="#F8B84E"/>
<ellipse cx="271.211" cy="9.57893" rx="0.940173" ry="2.87841" transform="rotate(151.195 271.211 9.57893)" fill="#F8B84E"/>
<ellipse cx="267.211" cy="11.5789" rx="0.940173" ry="2.87841" transform="rotate(151.195 267.211 11.5789)" fill="#F8B84E"/>
<ellipse cx="265.211" cy="15.5789" rx="0.940173" ry="2.87841" transform="rotate(151.195 265.211 15.5789)" fill="#F8B84E"/>
<ellipse cx="259.211" cy="18.5789" rx="0.940173" ry="2.87841" transform="rotate(151.195 259.211 18.5789)" fill="#F8B84E"/>
<ellipse cx="256.211" cy="10.5789" rx="0.940173" ry="2.87841" transform="rotate(151.195 256.211 10.5789)" fill="#F8B84E"/>
<ellipse cx="260.211" cy="7.57893" rx="0.940173" ry="2.87841" transform="rotate(151.195 260.211 7.57893)" fill="#F8B84E"/>
<ellipse cx="269.211" cy="23.5789" rx="0.940173" ry="2.87841" transform="rotate(151.195 269.211 23.5789)" fill="#F8B84E"/>
<ellipse cx="262.211" cy="26.5789" rx="0.940173" ry="2.87841" transform="rotate(151.195 262.211 26.5789)" fill="#F8B84E"/>
<ellipse cx="295.211" cy="45.5789" rx="0.940173" ry="2.87841" transform="rotate(151.195 295.211 45.5789)" fill="#F8B84E"/>
<ellipse cx="298.211" cy="43.5789" rx="0.940173" ry="2.87841" transform="rotate(151.195 298.211 43.5789)" fill="#F8B84E"/>
<ellipse cx="293.211" cy="49.5789" rx="0.940173" ry="2.87841" transform="rotate(151.195 293.211 49.5789)" fill="#F8B84E"/>
<ellipse cx="299.211" cy="54.5789" rx="0.940173" ry="2.87841" transform="rotate(151.195 299.211 54.5789)" fill="#F8B84E"/>
<ellipse cx="304.211" cy="62.5789" rx="0.940173" ry="2.87841" transform="rotate(151.195 304.211 62.5789)" fill="#F8B84E"/>
<ellipse cx="300.211" cy="65.5789" rx="0.940173" ry="2.87841" transform="rotate(151.195 300.211 65.5789)" fill="#F8B84E"/>
<ellipse cx="307.211" cy="70.5789" rx="0.940173" ry="2.87841" transform="rotate(151.195 307.211 70.5789)" fill="#F8B84E"/>
<ellipse cx="310.211" cy="69.5789" rx="0.940173" ry="2.87841" transform="rotate(151.195 310.211 69.5789)" fill="#F8B84E"/>
<ellipse cx="316.211" cy="73.5789" rx="0.940173" ry="2.87841" transform="rotate(151.195 316.211 73.5789)" fill="#F8B84E"/>
<ellipse cx="313.211" cy="76.5789" rx="0.940173" ry="2.87841" transform="rotate(151.195 313.211 76.5789)" fill="#F8B84E"/>
<ellipse cx="310.211" cy="78.5789" rx="0.940173" ry="2.87841" transform="rotate(151.195 310.211 78.5789)" fill="#F8B84E"/>
<ellipse cx="305.211" cy="81.5789" rx="0.940173" ry="2.87841" transform="rotate(151.195 305.211 81.5789)" fill="#F8B84E"/>
<ellipse cx="312.211" cy="87.5789" rx="0.940173" ry="2.87841" transform="rotate(151.195 312.211 87.5789)" fill="#F8B84E"/>
<ellipse cx="317.211" cy="84.5789" rx="0.940173" ry="2.87841" transform="rotate(151.195 317.211 84.5789)" fill="#F8B84E"/>
<ellipse cx="321.211" cy="82.5789" rx="0.940173" ry="2.87841" transform="rotate(151.195 321.211 82.5789)" fill="#F8B84E"/>
<ellipse cx="324.211" cy="89.5789" rx="0.940173" ry="2.87841" transform="rotate(151.195 324.211 89.5789)" fill="#F8B84E"/>
<ellipse cx="320.211" cy="91.5789" rx="0.940173" ry="2.87841" transform="rotate(151.195 320.211 91.5789)" fill="#F8B84E"/>
<ellipse cx="321.211" cy="100.579" rx="0.940173" ry="2.87841" transform="rotate(151.195 321.211 100.579)" fill="#F8B84E"/>
<ellipse cx="326.211" cy="97.5789" rx="0.940173" ry="2.87841" transform="rotate(151.195 326.211 97.5789)" fill="#F8B84E"/>
<ellipse cx="332.211" cy="103.579" rx="0.940173" ry="2.87841" transform="rotate(151.195 332.211 103.579)" fill="#F8B84E"/>
<ellipse cx="329.211" cy="105.579" rx="0.940173" ry="2.87841" transform="rotate(151.195 329.211 105.579)" fill="#F8B84E"/>
<ellipse cx="334.211" cy="111.579" rx="0.940173" ry="2.87841" transform="rotate(151.195 334.211 111.579)" fill="#F8B84E"/>
<ellipse cx="339.211" cy="114.579" rx="0.940173" ry="2.87841" transform="rotate(151.195 339.211 114.579)" fill="#F8B84E"/>
<ellipse cx="343.211" cy="122.579" rx="0.940173" ry="2.87841" transform="rotate(151.195 343.211 122.579)" fill="#F8B84E"/>
<ellipse cx="346.211" cy="132.579" rx="0.940173" ry="2.87841" transform="rotate(151.195 346.211 132.579)" fill="#F8B84E"/>
<ellipse cx="355.211" cy="138.579" rx="0.940173" ry="2.87841" transform="rotate(151.195 355.211 138.579)" fill="#F8B84E"/>
<ellipse cx="351.211" cy="139.579" rx="0.940173" ry="2.87841" transform="rotate(151.195 351.211 139.579)" fill="#F8B84E"/>
<ellipse cx="358.211" cy="145.579" rx="0.940173" ry="2.87841" transform="rotate(151.195 358.211 145.579)" fill="#F8B84E"/>
<ellipse cx="364.211" cy="151.579" rx="0.940173" ry="2.87841" transform="rotate(151.195 364.211 151.579)" fill="#F8B84E"/>
<ellipse cx="359.211" cy="154.579" rx="0.940173" ry="2.87841" transform="rotate(151.195 359.211 154.579)" fill="#F8B84E"/>
<ellipse cx="365.211" cy="160.579" rx="0.940173" ry="2.87841" transform="rotate(151.195 365.211 160.579)" fill="#F8B84E"/>
<ellipse cx="368.211" cy="160.579" rx="0.940173" ry="2.87841" transform="rotate(151.195 368.211 160.579)" fill="#F8B84E"/>
<ellipse cx="374.211" cy="165.579" rx="0.750867" ry="2.87841" transform="rotate(151.195 374.211 165.579)" fill="#F8B84E"/>
<ellipse cx="376.045" cy="172.67" rx="0.750867" ry="2.87841" transform="rotate(151.195 376.045 172.67)" fill="#F8B84E"/>
<ellipse cx="370.045" cy="167.67" rx="0.750867" ry="2.87841" transform="rotate(151.195 370.045 167.67)" fill="#F8B84E"/>
<ellipse cx="363.045" cy="163.67" rx="0.750867" ry="2.87841" transform="rotate(151.195 363.045 163.67)" fill="#F8B84E"/>
<ellipse cx="353.211" cy="148.579" rx="0.940173" ry="2.87841" transform="rotate(151.195 353.211 148.579)" fill="#F8B84E"/>
<ellipse cx="303.211" cy="35.5789" rx="0.940173" ry="2.87841" transform="rotate(151.195 303.211 35.5789)" fill="#F8B84E"/>
<ellipse cx="347.205" cy="104.563" rx="2.40275" ry="3.5" transform="rotate(165.452 347.205 104.563)" fill="#F8B84E"/>
<ellipse cx="354.205" cy="110.563" rx="2.40275" ry="3.5" transform="rotate(165.452 354.205 110.563)" fill="#F8B84E"/>
<ellipse cx="362.205" cy="114.563" rx="2.40275" ry="3.5" transform="rotate(165.452 362.205 114.563)" fill="#F8B84E"/>
<ellipse cx="362.205" cy="124.563" rx="2.40275" ry="3.5" transform="rotate(165.452 362.205 124.563)" fill="#F8B84E"/>
<ellipse cx="363.5" cy="133.166" rx="1.82005" ry="2.93916" transform="rotate(165.452 363.5 133.166)" fill="#F8B84E"/>
<ellipse cx="372.5" cy="137.252" rx="1.82005" ry="2.93916" transform="rotate(156.138 372.5 137.252)" fill="#F8B84E"/>
<ellipse cx="373.854" cy="147.13" rx="1.82005" ry="2.93916" transform="rotate(156.138 373.854 147.13)" fill="#F8B84E"/>
<ellipse cx="375.262" cy="154.949" rx="1.37334" ry="2.93916" transform="rotate(156.138 375.262 154.949)" fill="#F8B84E"/>
<ellipse cx="375.445" cy="155.311" rx="1.37334" ry="2.93916" transform="rotate(156.138 375.445 155.311)" fill="#F8B84E"/>
<ellipse cx="364.445" cy="141.311" rx="1.37334" ry="2.93916" transform="rotate(156.138 364.445 141.311)" fill="#F8B84E"/>
<ellipse cx="367.445" cy="150.311" rx="1.37334" ry="2.93916" transform="rotate(156.138 367.445 150.311)" fill="#F8B84E"/>
<ellipse cx="371.445" cy="158.311" rx="1.37334" ry="2.93916" transform="rotate(156.138 371.445 158.311)" fill="#F8B84E"/>
<ellipse cx="324.331" cy="49.7896" rx="1.5" ry="3.5" transform="rotate(165.452 324.331 49.7896)" fill="#F8B84E"/>
<ellipse cx="317.331" cy="42.7896" rx="1.5" ry="3.5" transform="rotate(165.452 317.331 42.7896)" fill="#F8B84E"/>
<ellipse cx="311.331" cy="37.7896" rx="1.5" ry="3.5" transform="rotate(165.452 311.331 37.7896)" fill="#F8B84E"/>
<ellipse cx="310.331" cy="27.7896" rx="1.5" ry="3.5" transform="rotate(165.452 310.331 27.7896)" fill="#F8B84E"/>
<ellipse cx="304.331" cy="22.7896" rx="1.5" ry="3.5" transform="rotate(165.452 304.331 22.7896)" fill="#F8B84E"/>
<circle cx="2" cy="2" r="2" transform="matrix(1 0 0 -1 231 19.5542)" fill="#F8B84E"/>
<circle cx="2" cy="2" r="2" transform="matrix(1 0 0 -1 241 20.5542)" fill="#F8B84E"/>
<circle cx="2" cy="2" r="2" transform="matrix(1 0 0 -1 244 30.5542)" fill="#F8B84E"/>
<circle cx="2" cy="2" r="2" transform="matrix(1 0 0 -1 252 24.5542)" fill="#F8B84E"/>
<circle cx="2" cy="2" r="2" transform="matrix(1 0 0 -1 249 16.5542)" fill="#F8B84E"/>
<circle cx="2" cy="2" r="2" transform="matrix(1 0 0 -1 245 9.5542)" fill="#F8B84E"/>
<circle cx="2" cy="2" r="2" transform="matrix(1 0 0 -1 238 12.5542)" fill="#F8B84E"/>
<circle cx="2" cy="2" r="2" transform="matrix(1 0 0 -1 228 9.5542)" fill="#F8B84E"/>
<circle cx="2" cy="2" r="2" transform="matrix(1 0 0 -1 233 26.5542)" fill="#F8B84E"/>
<circle cx="2" cy="2" r="2" transform="matrix(1 0 0 -1 236 35.5542)" fill="#F8B84E"/>
<circle cx="2" cy="2" r="2" transform="matrix(1 0 0 -1 230 40.5542)" fill="#F8B84E"/>
<circle cx="2" cy="2" r="2" transform="matrix(1 0 0 -1 223 46.5542)" fill="#F8B84E"/>
<circle cx="2" cy="2" r="2" transform="matrix(1 0 0 -1 233 47.5542)" fill="#F8B84E"/>
<circle cx="2" cy="2" r="2" transform="matrix(1 0 0 -1 239 43.5542)" fill="#F8B84E"/>
<circle cx="2" cy="2" r="2" transform="matrix(1 0 0 -1 246 39.5542)" fill="#F8B84E"/>
<circle cx="2" cy="2" r="2" transform="matrix(1 0 0 -1 258 42.5542)" fill="#F8B84E"/>
<circle cx="2" cy="2" r="2" transform="matrix(1 0 0 -1 253 39.5542)" fill="#F8B84E"/>
<circle cx="2" cy="2" r="2" transform="matrix(1 0 0 -1 255 34.5542)" fill="#F8B84E"/>
<circle cx="2" cy="2" r="2" transform="matrix(1 0 0 -1 267 39.5542)" fill="#F8B84E"/>
<circle cx="2" cy="2" r="2" transform="matrix(1 0 0 -1 271 34.5542)" fill="#F8B84E"/>
<circle cx="2" cy="2" r="2" transform="matrix(1 0 0 -1 268 46.5542)" fill="#F8B84E"/>
<circle cx="2" cy="2" r="2" transform="matrix(1 0 0 -1 277 50.5542)" fill="#F8B84E"/>
<circle cx="2" cy="2" r="2" transform="matrix(1 0 0 -1 280 58.5542)" fill="#F8B84E"/>
<circle cx="2" cy="2" r="2" transform="matrix(1 0 0 -1 286 54.5542)" fill="#F8B84E"/>
<circle cx="2" cy="2" r="2" transform="matrix(1 0 0 -1 289 61.5542)" fill="#F8B84E"/>
<circle cx="2" cy="2" r="2" transform="matrix(1 0 0 -1 293 59.5542)" fill="#F8B84E"/>
<circle cx="2" cy="2" r="2" transform="matrix(1 0 0 -1 250 46.5542)" fill="#F8B84E"/>
<circle cx="2" cy="2" r="2" transform="matrix(1 0 0 -1 260 50.5542)" fill="#F8B84E"/>
<circle cx="2" cy="2" r="2" transform="matrix(1 0 0 -1 252 55.5542)" fill="#F8B84E"/>
<circle cx="2" cy="2" r="2" transform="matrix(1 0 0 -1 245 51.5542)" fill="#F8B84E"/>
<circle cx="2" cy="2" r="2" transform="matrix(1 0 0 -1 240 53.5542)" fill="#F8B84E"/>
<circle cx="2" cy="2" r="2" transform="matrix(1 0 0 -1 233 59.5542)" fill="#F8B84E"/>
<circle cx="2" cy="2" r="2" transform="matrix(1 0 0 -1 234 67.5542)" fill="#F8B84E"/>
<circle cx="2" cy="2" r="2" transform="matrix(1 0 0 -1 247 58.5542)" fill="#F8B84E"/>
<circle cx="2" cy="2" r="2" transform="matrix(1 0 0 -1 244 72.5542)" fill="#F8B84E"/>
<circle cx="2" cy="2" r="2" transform="matrix(1 0 0 -1 239 76.5542)" fill="#F8B84E"/>
<circle cx="2" cy="2" r="2" transform="matrix(1 0 0 -1 226 73.5542)" fill="#F8B84E"/>
<circle cx="2" cy="2" r="2" transform="matrix(1 0 0 -1 225 62.5542)" fill="#F8B84E"/>
<circle cx="2" cy="2" r="2" transform="matrix(1 0 0 -1 222 55.5542)" fill="#F8B84E"/>
<circle cx="2" cy="2" r="2" transform="matrix(1 0 0 -1 229 51.5542)" fill="#F8B84E"/>
<circle cx="2" cy="2" r="2" transform="matrix(1 0 0 -1 261 59.5542)" fill="#F8B84E"/>
<circle cx="2" cy="2" r="2" transform="matrix(1 0 0 -1 269 55.5542)" fill="#F8B84E"/>
<circle cx="2" cy="2" r="2" transform="matrix(1 0 0 -1 272 63.5542)" fill="#F8B84E"/>
<circle cx="2" cy="2" r="2" transform="matrix(1 0 0 -1 281 67.5542)" fill="#F8B84E"/>
<circle cx="2" cy="2" r="2" transform="matrix(1 0 0 -1 292 71.5542)" fill="#F8B84E"/>
<circle cx="2" cy="2" r="2" transform="matrix(1 0 0 -1 300 75.5542)" fill="#F8B84E"/>
<circle cx="2" cy="2" r="2" transform="matrix(1 0 0 -1 294 79.5542)" fill="#F8B84E"/>
<circle cx="2" cy="2" r="2" transform="matrix(1 0 0 -1 282 75.5542)" fill="#F8B84E"/>
<circle cx="2" cy="2" r="2" transform="matrix(1 0 0 -1 274 72.5542)" fill="#F8B84E"/>
<circle cx="2" cy="2" r="2" transform="matrix(1 0 0 -1 264 68.5542)" fill="#F8B84E"/>
<circle cx="2" cy="2" r="2" transform="matrix(1 0 0 -1 266 76.5542)" fill="#F8B84E"/>
<circle cx="2" cy="2" r="2" transform="matrix(1 0 0 -1 275 80.5542)" fill="#F8B84E"/>
<circle cx="2" cy="2" r="2" transform="matrix(1 0 0 -1 283 84.5542)" fill="#F8B84E"/>
<circle cx="2" cy="2" r="2" transform="matrix(1 0 0 -1 293 90.5542)" fill="#F8B84E"/>
<circle cx="2" cy="2" r="2" transform="matrix(1 0 0 -1 304 94.5542)" fill="#F8B84E"/>
<circle cx="2" cy="2" r="2" transform="matrix(1 0 0 -1 312 98.5542)" fill="#F8B84E"/>
<circle cx="2" cy="2" r="2" transform="matrix(1 0 0 -1 303 103.554)" fill="#F8B84E"/>
<circle cx="2" cy="2" r="2" transform="matrix(1 0 0 -1 312 107.554)" fill="#F8B84E"/>
<circle cx="2" cy="2" r="2" transform="matrix(1 0 0 -1 321 112.554)" fill="#F8B84E"/>
<circle cx="2" cy="2" r="2" transform="matrix(1 0 0 -1 328 118.554)" fill="#F8B84E"/>
<circle cx="2" cy="2" r="2" transform="matrix(1 0 0 -1 334 122.554)" fill="#F8B84E"/>
<circle cx="2" cy="2" r="2" transform="matrix(1 0 0 -1 337 132.554)" fill="#F8B84E"/>
<circle cx="2" cy="2" r="2" transform="matrix(1 0 0 -1 328 127.554)" fill="#F8B84E"/>
<circle cx="2" cy="2" r="2" transform="matrix(1 0 0 -1 321 122.554)" fill="#F8B84E"/>
<circle cx="2" cy="2" r="2" transform="matrix(1 0 0 -1 312 117.554)" fill="#F8B84E"/>
<circle cx="2" cy="2" r="2" transform="matrix(1 0 0 -1 304 112.554)" fill="#F8B84E"/>
<circle cx="2" cy="2" r="2" transform="matrix(1 0 0 -1 295 108.554)" fill="#F8B84E"/>
<circle cx="2" cy="2" r="2" transform="matrix(1 0 0 -1 288 103.554)" fill="#F8B84E"/>
<circle cx="2" cy="2" r="2" transform="matrix(1 0 0 -1 279 98.5542)" fill="#F8B84E"/>
<circle cx="2" cy="2" r="2" transform="matrix(1 0 0 -1 280 107.554)" fill="#F8B84E"/>
<circle cx="2" cy="2" r="2" transform="matrix(1 0 0 -1 288 113.554)" fill="#F8B84E"/>
<circle cx="2" cy="2" r="2" transform="matrix(1 0 0 -1 295 118.554)" fill="#F8B84E"/>
<circle cx="2" cy="2" r="2" transform="matrix(1 0 0 -1 303 122.554)" fill="#F8B84E"/>
<circle cx="2" cy="2" r="2" transform="matrix(1 0 0 -1 312 127.554)" fill="#F8B84E"/>
<circle cx="2" cy="2" r="2" transform="matrix(1 0 0 -1 319 131.554)" fill="#F8B84E"/>
<circle cx="2" cy="2" r="2" transform="matrix(1 0 0 -1 328 136.554)" fill="#F8B84E"/>
<circle cx="2" cy="2" r="2" transform="matrix(1 0 0 -1 337 141.554)" fill="#F8B84E"/>
<circle cx="2" cy="2" r="2" transform="matrix(1 0 0 -1 344 146.554)" fill="#F8B84E"/>
<circle cx="338.5" cy="148.054" r="1.5" transform="rotate(-180 338.5 148.054)" fill="#F8B84E"/>
<circle cx="347.5" cy="152.054" r="1.5" transform="rotate(-180 347.5 152.054)" fill="#F8B84E"/>
<circle cx="355.5" cy="158.054" r="1.5" transform="rotate(-180 355.5 158.054)" fill="#F8B84E"/>
<circle cx="348.5" cy="162.054" r="1.5" transform="rotate(-180 348.5 162.054)" fill="#F8B84E"/>
<circle cx="357.5" cy="167.054" r="1.5" transform="rotate(-180 357.5 167.054)" fill="#F8B84E"/>
<circle cx="366.5" cy="172.054" r="1.5" transform="rotate(-180 366.5 172.054)" fill="#F8B84E"/>
<circle cx="373.5" cy="176.054" r="1.5" transform="rotate(-180 373.5 176.054)" fill="#F8B84E"/>
<circle cx="370.5" cy="189.054" r="1.5" transform="rotate(-180 370.5 189.054)" fill="#F8B84E"/>
<circle cx="373.5" cy="197.054" r="1.5" transform="rotate(-180 373.5 197.054)" fill="#F8B84E"/>
<circle cx="374.5" cy="206.054" r="1.5" transform="rotate(-180 374.5 206.054)" fill="#F8B84E"/>
<circle cx="361.5" cy="194.054" r="1.5" transform="rotate(-180 361.5 194.054)" fill="#F8B84E"/>
<circle cx="365.5" cy="202.054" r="1.5" transform="rotate(-180 365.5 202.054)" fill="#F8B84E"/>
<circle cx="360.5" cy="205.054" r="1.5" transform="rotate(-180 360.5 205.054)" fill="#F8B84E"/>
<circle cx="357.5" cy="208.054" r="1.5" transform="rotate(-180 357.5 208.054)" fill="#F8B84E"/>
<circle cx="352.5" cy="211.054" r="1.5" transform="rotate(-180 352.5 211.054)" fill="#F8B84E"/>
<circle cx="342.5" cy="217.054" r="1.5" transform="rotate(-180 342.5 217.054)" fill="#F8B84E"/>
<circle cx="330.5" cy="215.054" r="1.5" transform="rotate(-180 330.5 215.054)" fill="#F8B84E"/>
<circle cx="355.5" cy="220.054" r="1.5" transform="rotate(-180 355.5 220.054)" fill="#F8B84E"/>
<circle cx="361.5" cy="217.054" r="1.5" transform="rotate(-180 361.5 217.054)" fill="#F8B84E"/>
<circle cx="365.5" cy="214.054" r="1.5" transform="rotate(-180 365.5 214.054)" fill="#F8B84E"/>
<circle cx="369.5" cy="210.054" r="1.5" transform="rotate(-180 369.5 210.054)" fill="#F8B84E"/>
<circle cx="373.5" cy="218.054" r="1.5" transform="rotate(-180 373.5 218.054)" fill="#F8B84E"/>
<circle cx="367.5" cy="223.054" r="1.5" transform="rotate(-180 367.5 223.054)" fill="#F8B84E"/>
<circle cx="368.5" cy="233.054" r="1.5" transform="rotate(-180 368.5 233.054)" fill="#F8B84E"/>
<circle cx="342.5" cy="207.054" r="1.5" transform="rotate(-180 342.5 207.054)" fill="#F8B84E"/>
<circle cx="348.5" cy="203.054" r="1.5" transform="rotate(-180 348.5 203.054)" fill="#F8B84E"/>
<circle cx="356.5" cy="196.054" r="1.5" transform="rotate(-180 356.5 196.054)" fill="#F8B84E"/>
<circle cx="349.5" cy="192.054" r="1.5" transform="rotate(-180 349.5 192.054)" fill="#F8B84E"/>
<circle cx="345.5" cy="185.054" r="1.5" transform="rotate(-180 345.5 185.054)" fill="#F8B84E"/>
<circle cx="340.5" cy="188.054" r="1.5" transform="rotate(-180 340.5 188.054)" fill="#F8B84E"/>
<circle cx="333.5" cy="183.054" r="1.5" transform="rotate(-180 333.5 183.054)" fill="#F8B84E"/>
<circle cx="337.5" cy="179.054" r="1.5" transform="rotate(-180 337.5 179.054)" fill="#F8B84E"/>
<circle cx="328.5" cy="175.054" r="1.5" transform="rotate(-180 328.5 175.054)" fill="#F8B84E"/>
<circle cx="323.5" cy="178.054" r="1.5" transform="rotate(-180 323.5 178.054)" fill="#F8B84E"/>
<circle cx="326.5" cy="187.054" r="1.5" transform="rotate(-180 326.5 187.054)" fill="#F8B84E"/>
<circle cx="318.5" cy="183.054" r="1.5" transform="rotate(-180 318.5 183.054)" fill="#F8B84E"/>
<circle cx="308.5" cy="188.054" r="1.5" transform="rotate(-180 308.5 188.054)" fill="#F8B84E"/>
<circle cx="319.5" cy="192.054" r="1.5" transform="rotate(-180 319.5 192.054)" fill="#F8B84E"/>
<circle cx="329.5" cy="195.054" r="1.5" transform="rotate(-180 329.5 195.054)" fill="#F8B84E"/>
<circle cx="336.5" cy="191.054" r="1.5" transform="rotate(-180 336.5 191.054)" fill="#F8B84E"/>
<circle cx="345.5" cy="195.054" r="1.5" transform="rotate(-180 345.5 195.054)" fill="#F8B84E"/>
<circle cx="338.5" cy="199.054" r="1.5" transform="rotate(-180 338.5 199.054)" fill="#F8B84E"/>
<circle cx="330.5" cy="205.054" r="1.5" transform="rotate(-180 330.5 205.054)" fill="#F8B84E"/>
<circle cx="319.5" cy="201.054" r="1.5" transform="rotate(-180 319.5 201.054)" fill="#F8B84E"/>
<circle cx="318.5" cy="211.054" r="1.5" transform="rotate(-180 318.5 211.054)" fill="#F8B84E"/>
<circle cx="307.5" cy="207.054" r="1.5" transform="rotate(-180 307.5 207.054)" fill="#F8B84E"/>
<circle cx="309.5" cy="197.054" r="1.5" transform="rotate(-180 309.5 197.054)" fill="#F8B84E"/>
<circle cx="300.5" cy="193.054" r="1.5" transform="rotate(-180 300.5 193.054)" fill="#F8B84E"/>
<circle cx="308.5" cy="179.054" r="1.5" transform="rotate(-180 308.5 179.054)" fill="#F8B84E"/>
<circle cx="314.5" cy="173.054" r="1.5" transform="rotate(-180 314.5 173.054)" fill="#F8B84E"/>
<circle cx="319.5" cy="171.054" r="1.5" transform="rotate(-180 319.5 171.054)" fill="#F8B84E"/>
<circle cx="312.5" cy="166.054" r="1.5" transform="rotate(-180 312.5 166.054)" fill="#F8B84E"/>
<circle cx="306.5" cy="169.054" r="1.5" transform="rotate(-180 306.5 169.054)" fill="#F8B84E"/>
<circle cx="300.5" cy="173.054" r="1.5" transform="rotate(-180 300.5 173.054)" fill="#F8B84E"/>
<circle cx="294.5" cy="177.054" r="1.5" transform="rotate(-180 294.5 177.054)" fill="#F8B84E"/>
<circle cx="291.5" cy="187.054" r="1.5" transform="rotate(-180 291.5 187.054)" fill="#F8B84E"/>
<circle cx="283.5" cy="182.054" r="1.5" transform="rotate(-180 283.5 182.054)" fill="#F8B84E"/>
<circle cx="288.5" cy="199.054" r="1.5" transform="rotate(-180 288.5 199.054)" fill="#F8B84E"/>
<circle cx="299.5" cy="203.054" r="1.5" transform="rotate(-180 299.5 203.054)" fill="#F8B84E"/>
<circle cx="300.5" cy="182.054" r="1.5" transform="rotate(-180 300.5 182.054)" fill="#F8B84E"/>
<circle cx="353.5" cy="200.054" r="1.5" transform="rotate(-180 353.5 200.054)" fill="#F8B84E"/>
<circle cx="354.5" cy="189.054" r="1.5" transform="rotate(-180 354.5 189.054)" fill="#F8B84E"/>
<circle cx="354.5" cy="230.054" r="1.5" transform="rotate(-180 354.5 230.054)" fill="#F8B84E"/>
<circle cx="340.5" cy="228.054" r="1.5" transform="rotate(-180 340.5 228.054)" fill="#F8B84E"/>
<circle cx="327.5" cy="226.054" r="1.5" transform="rotate(-180 327.5 226.054)" fill="#F8B84E"/>
<circle cx="323.5" cy="237.054" r="1.5" transform="rotate(-180 323.5 237.054)" fill="#F8B84E"/>
<circle cx="312.5" cy="233.054" r="1.5" transform="rotate(-180 312.5 233.054)" fill="#F8B84E"/>
<circle cx="316.5" cy="222.054" r="1.5" transform="rotate(-180 316.5 222.054)" fill="#F8B84E"/>
<circle cx="305.5" cy="218.054" r="1.5" transform="rotate(-180 305.5 218.054)" fill="#F8B84E"/>
<circle cx="299.5" cy="230.054" r="1.5" transform="rotate(-180 299.5 230.054)" fill="#F8B84E"/>
<circle cx="294.5" cy="214.054" r="1.5" transform="rotate(-180 294.5 214.054)" fill="#F8B84E"/>
<circle cx="336.5" cy="238.054" r="1.5" transform="rotate(-180 336.5 238.054)" fill="#F8B84E"/>
<circle cx="351.5" cy="241.054" r="1.5" transform="rotate(-180 351.5 241.054)" fill="#F8B84E"/>
<circle cx="366.5" cy="242.054" r="1.5" transform="rotate(-180 366.5 242.054)" fill="#F8B84E"/>
<circle cx="362.5" cy="255.054" r="1.5" transform="rotate(-180 362.5 255.054)" fill="#F8B84E"/>
<circle cx="345.5" cy="252.054" r="1.5" transform="rotate(-180 345.5 252.054)" fill="#F8B84E"/>
<circle cx="333.5" cy="250.054" r="1.5" transform="rotate(-180 333.5 250.054)" fill="#F8B84E"/>
<circle cx="325.5" cy="262.054" r="1.5" transform="rotate(-180 325.5 262.054)" fill="#F8B84E"/>
<circle cx="340.5" cy="265.054" r="1.5" transform="rotate(-180 340.5 265.054)" fill="#F8B84E"/>
<circle cx="356.5" cy="266.054" r="1.5" transform="rotate(-180 356.5 266.054)" fill="#F8B84E"/>
<circle cx="373.5" cy="267.054" r="1.5" transform="rotate(-180 373.5 267.054)" fill="#F8B84E"/>
<circle cx="363.5" cy="279.054" r="1.5" transform="rotate(-180 363.5 279.054)" fill="#F8B84E"/>
<circle cx="355.5" cy="294.054" r="1.5" transform="rotate(-180 355.5 294.054)" fill="#F8B84E"/>
<circle cx="348.5" cy="277.054" r="1.5" transform="rotate(-180 348.5 277.054)" fill="#F8B84E"/>
<circle cx="340.5" cy="292.054" r="1.5" transform="rotate(-180 340.5 292.054)" fill="#F8B84E"/>
<circle cx="332.5" cy="276.054" r="1.5" transform="rotate(-180 332.5 276.054)" fill="#F8B84E"/>
<circle cx="322.5" cy="291.054" r="1.5" transform="rotate(-180 322.5 291.054)" fill="#F8B84E"/>
<circle cx="325.5" cy="308.054" r="1.5" transform="rotate(-180 325.5 308.054)" fill="#F8B84E"/>
<circle cx="347.5" cy="308.054" r="1.5" transform="rotate(-180 347.5 308.054)" fill="#F8B84E"/>
<circle cx="363.5" cy="307.054" r="1.5" transform="rotate(-180 363.5 307.054)" fill="#F8B84E"/>
<circle cx="368.5" cy="323.054" r="1.5" transform="rotate(-180 368.5 323.054)" fill="#F8B84E"/>
<circle cx="354.5" cy="321.054" r="1.5" transform="rotate(-180 354.5 321.054)" fill="#F8B84E"/>
<circle cx="333.5" cy="324.054" r="1.5" transform="rotate(-180 333.5 324.054)" fill="#F8B84E"/>
<circle cx="337.5" cy="341.054" r="1.5" transform="rotate(-180 337.5 341.054)" fill="#F8B84E"/>
<circle cx="357.5" cy="338.054" r="1.5" transform="rotate(-180 357.5 338.054)" fill="#F8B84E"/>
<circle cx="374.5" cy="338.054" r="1.5" transform="rotate(-180 374.5 338.054)" fill="#F8B84E"/>
<circle cx="375.5" cy="356.054" r="1.5" transform="rotate(-180 375.5 356.054)" fill="#F8B84E"/>
<circle cx="358.5" cy="355.054" r="1.5" transform="rotate(-180 358.5 355.054)" fill="#F8B84E"/>
<circle cx="338.5" cy="354.054" r="1.5" transform="rotate(-180 338.5 354.054)" fill="#F8B84E"/>
<circle cx="341.5" cy="373.054" r="1.5" transform="rotate(-180 341.5 373.054)" fill="#F8B84E"/>
<circle cx="358.5" cy="373.054" r="1.5" transform="rotate(-180 358.5 373.054)" fill="#F8B84E"/>
<circle cx="359.5" cy="391.054" r="1.5" transform="rotate(-180 359.5 391.054)" fill="#F8B84E"/>
<circle cx="359.5" cy="411.054" r="1.5" transform="rotate(-180 359.5 411.054)" fill="#F8B84E"/>
<circle cx="342.5" cy="408.054" r="1.5" transform="rotate(-180 342.5 408.054)" fill="#F8B84E"/>
<circle cx="343.5" cy="425.054" r="1.5" transform="rotate(-180 343.5 425.054)" fill="#F8B84E"/>
<circle cx="363.5" cy="426.054" r="1.5" transform="rotate(-180 363.5 426.054)" fill="#F8B84E"/>
<circle cx="370.5" cy="443.054" r="1.5" transform="rotate(-180 370.5 443.054)" fill="#F8B84E"/>
<circle cx="348.5" cy="442.054" r="1.5" transform="rotate(-180 348.5 442.054)" fill="#F8B84E"/>
<circle cx="356.5" cy="457.054" r="1.5" transform="rotate(-180 356.5 457.054)" fill="#F8B84E"/>
<circle cx="366.5" cy="471.054" r="1.5" transform="rotate(-180 366.5 471.054)" fill="#F8B84E"/>
<circle cx="375.5" cy="483.054" r="1.5" transform="rotate(-180 375.5 483.054)" fill="#F8B84E"/>
<circle cx="341.5" cy="390.054" r="1.5" transform="rotate(-180 341.5 390.054)" fill="#F8B84E"/>
<circle cx="313.5" cy="277.054" r="1.5" transform="rotate(-180 313.5 277.054)" fill="#F8B84E"/>
<circle cx="305.5" cy="292.054" r="1.5" transform="rotate(-180 305.5 292.054)" fill="#F8B84E"/>
<circle cx="318.5" cy="248.054" r="1.5" transform="rotate(-180 318.5 248.054)" fill="#F8B84E"/>
<circle cx="304.5" cy="245.054" r="1.5" transform="rotate(-180 304.5 245.054)" fill="#F8B84E"/>
<circle cx="310.5" cy="261.054" r="1.5" transform="rotate(-180 310.5 261.054)" fill="#F8B84E"/>
<circle cx="369.5" cy="179.054" r="1.5" transform="rotate(-180 369.5 179.054)" fill="#F8B84E"/>
<circle cx="339.5" cy="157.054" r="1.5" transform="rotate(-180 339.5 157.054)" fill="#F8B84E"/>
<circle cx="330.5" cy="153.054" r="1.5" transform="rotate(-180 330.5 153.054)" fill="#F8B84E"/>
<circle cx="321.5" cy="149.054" r="1.5" transform="rotate(-180 321.5 149.054)" fill="#F8B84E"/>
<circle cx="314.5" cy="144.054" r="1.5" transform="rotate(-180 314.5 144.054)" fill="#F8B84E"/>
<circle cx="306.5" cy="140.054" r="1.5" transform="rotate(-180 306.5 140.054)" fill="#F8B84E"/>
<circle cx="298.5" cy="134.054" r="1.5" transform="rotate(-180 298.5 134.054)" fill="#F8B84E"/>
<circle cx="292.5" cy="129.054" r="1.5" transform="rotate(-180 292.5 129.054)" fill="#F8B84E"/>
<circle cx="286.5" cy="123.054" r="1.5" transform="rotate(-180 286.5 123.054)" fill="#F8B84E"/>
<circle cx="280.5" cy="117.054" r="1.5" transform="rotate(-180 280.5 117.054)" fill="#F8B84E"/>
<circle cx="273.5" cy="112.054" r="1.5" transform="rotate(-180 273.5 112.054)" fill="#F8B84E"/>
<circle cx="268.5" cy="115.054" r="1.5" transform="rotate(-180 268.5 115.054)" fill="#F8B84E"/>
<circle cx="275.5" cy="122.054" r="1.5" transform="rotate(-180 275.5 122.054)" fill="#F8B84E"/>
<circle cx="281.5" cy="126.054" r="1.5" transform="rotate(-180 281.5 126.054)" fill="#F8B84E"/>
<circle cx="277.5" cy="130.054" r="1.5" transform="rotate(-180 277.5 130.054)" fill="#F8B84E"/>
<circle cx="282.5" cy="136.054" r="1.5" transform="rotate(-180 282.5 136.054)" fill="#F8B84E"/>
<circle cx="286.5" cy="132.054" r="1.5" transform="rotate(-180 286.5 132.054)" fill="#F8B84E"/>
<circle cx="292.5" cy="138.054" r="1.5" transform="rotate(-180 292.5 138.054)" fill="#F8B84E"/>
<circle cx="288.5" cy="141.054" r="1.5" transform="rotate(-180 288.5 141.054)" fill="#F8B84E"/>
<circle cx="295.5" cy="146.054" r="1.5" transform="rotate(-180 295.5 146.054)" fill="#F8B84E"/>
<circle cx="299.5" cy="144.054" r="1.5" transform="rotate(-180 299.5 144.054)" fill="#F8B84E"/>
<circle cx="306.5" cy="148.054" r="1.5" transform="rotate(-180 306.5 148.054)" fill="#F8B84E"/>
<circle cx="314.5" cy="153.054" r="1.5" transform="rotate(-180 314.5 153.054)" fill="#F8B84E"/>
<circle cx="322.5" cy="158.054" r="1.5" transform="rotate(-180 322.5 158.054)" fill="#F8B84E"/>
<circle cx="331.5" cy="163.054" r="1.5" transform="rotate(-180 331.5 163.054)" fill="#F8B84E"/>
<circle cx="340.5" cy="168.054" r="1.5" transform="rotate(-180 340.5 168.054)" fill="#F8B84E"/>
<circle cx="349.5" cy="172.054" r="1.5" transform="rotate(-180 349.5 172.054)" fill="#F8B84E"/>
<circle cx="359.5" cy="176.054" r="1.5" transform="rotate(-180 359.5 176.054)" fill="#F8B84E"/>
<circle cx="360.5" cy="185.054" r="1.5" transform="rotate(-180 360.5 185.054)" fill="#F8B84E"/>
<circle cx="351.5" cy="180.054" r="1.5" transform="rotate(-180 351.5 180.054)" fill="#F8B84E"/>
<circle cx="342.5" cy="176.054" r="1.5" transform="rotate(-180 342.5 176.054)" fill="#F8B84E"/>
<circle cx="334.5" cy="172.054" r="1.5" transform="rotate(-180 334.5 172.054)" fill="#F8B84E"/>
<circle cx="325.5" cy="167.054" r="1.5" transform="rotate(-180 325.5 167.054)" fill="#F8B84E"/>
<circle cx="317.5" cy="161.054" r="1.5" transform="rotate(-180 317.5 161.054)" fill="#F8B84E"/>
<circle cx="310.5" cy="157.054" r="1.5" transform="rotate(-180 310.5 157.054)" fill="#F8B84E"/>
<circle cx="302.5" cy="152.054" r="1.5" transform="rotate(-180 302.5 152.054)" fill="#F8B84E"/>
<circle cx="304.5" cy="161.054" r="1.5" transform="rotate(-180 304.5 161.054)" fill="#F8B84E"/>
<circle cx="298.5" cy="163.054" r="1.5" transform="rotate(-180 298.5 163.054)" fill="#F8B84E"/>
<circle cx="293.5" cy="169.054" r="1.5" transform="rotate(-180 293.5 169.054)" fill="#F8B84E"/>
<circle cx="285.5" cy="173.054" r="1.5" transform="rotate(-180 285.5 173.054)" fill="#F8B84E"/>
<circle cx="279.5" cy="167.054" r="1.5" transform="rotate(-180 279.5 167.054)" fill="#F8B84E"/>
<circle cx="286.5" cy="162.054" r="1.5" transform="rotate(-180 286.5 162.054)" fill="#F8B84E"/>
<circle cx="291.5" cy="159.054" r="1.5" transform="rotate(-180 291.5 159.054)" fill="#F8B84E"/>
<circle cx="296.5" cy="155.054" r="1.5" transform="rotate(-180 296.5 155.054)" fill="#F8B84E"/>
<circle cx="290.5" cy="150.054" r="1.5" transform="rotate(-180 290.5 150.054)" fill="#F8B84E"/>
<circle cx="284.5" cy="145.054" r="1.5" transform="rotate(-180 284.5 145.054)" fill="#F8B84E"/>
<circle cx="278.5" cy="140.054" r="1.5" transform="rotate(-180 278.5 140.054)" fill="#F8B84E"/>
<circle cx="273.5" cy="143.054" r="1.5" transform="rotate(-180 273.5 143.054)" fill="#F8B84E"/>
<circle cx="267.5" cy="137.054" r="1.5" transform="rotate(-180 267.5 137.054)" fill="#F8B84E"/>
<circle cx="272.5" cy="133.054" r="1.5" transform="rotate(-180 272.5 133.054)" fill="#F8B84E"/>
<circle cx="270.5" cy="124.054" r="1.5" transform="rotate(-180 270.5 124.054)" fill="#F8B84E"/>
<circle cx="265.5" cy="128.054" r="1.5" transform="rotate(-180 265.5 128.054)" fill="#F8B84E"/>
<circle cx="258.5" cy="123.054" r="1.5" transform="rotate(-180 258.5 123.054)" fill="#F8B84E"/>
<circle cx="264.5" cy="119.054" r="1.5" transform="rotate(-180 264.5 119.054)" fill="#F8B84E"/>
<circle cx="266.5" cy="107.054" r="1.5" transform="rotate(-180 266.5 107.054)" fill="#F8B84E"/>
<circle cx="262.5" cy="111.054" r="1.5" transform="rotate(-180 262.5 111.054)" fill="#F8B84E"/>
<circle cx="248.5" cy="109.054" r="1.5" transform="rotate(-180 248.5 109.054)" fill="#F8B84E"/>
<circle cx="254.5" cy="106.054" r="1.5" transform="rotate(-180 254.5 106.054)" fill="#F8B84E"/>
<circle cx="259.5" cy="102.054" r="1.5" transform="rotate(-180 259.5 102.054)" fill="#F8B84E"/>
<circle cx="252.5" cy="97.0542" r="1.5" transform="rotate(-180 252.5 97.0542)" fill="#F8B84E"/>
<circle cx="244.5" cy="101.054" r="1.5" transform="rotate(-180 244.5 101.054)" fill="#F8B84E"/>
<circle cx="234.5" cy="97.0542" r="1.5" transform="rotate(-180 234.5 97.0542)" fill="#F8B84E"/>
<circle cx="242.5" cy="93.0542" r="1.5" transform="rotate(-180 242.5 93.0542)" fill="#F8B84E"/>
<circle cx="249.5" cy="88.0542" r="1.5" transform="rotate(-180 249.5 88.0542)" fill="#F8B84E"/>
<circle cx="239.5" cy="84.0542" r="1.5" transform="rotate(-180 239.5 84.0542)" fill="#F8B84E"/>
<circle cx="230.5" cy="88.0542" r="1.5" transform="rotate(-180 230.5 88.0542)" fill="#F8B84E"/>
<circle cx="227.5" cy="80.0542" r="1.5" transform="rotate(-180 227.5 80.0542)" fill="#F8B84E"/>
<circle cx="219.5" cy="85.0542" r="1.5" transform="rotate(-180 219.5 85.0542)" fill="#F8B84E"/>
<circle cx="215.5" cy="78.0542" r="1.5" transform="rotate(-180 215.5 78.0542)" fill="#F8B84E"/>
<circle cx="213.5" cy="69.0542" r="1.5" transform="rotate(-180 213.5 69.0542)" fill="#F8B84E"/>
<circle cx="214.5" cy="59.0542" r="1.5" transform="rotate(-180 214.5 59.0542)" fill="#F8B84E"/>
<circle cx="214.5" cy="51.0542" r="1.5" transform="rotate(-180 214.5 51.0542)" fill="#F8B84E"/>
<circle cx="211.5" cy="41.0542" r="1.5" transform="rotate(-180 211.5 41.0542)" fill="#F8B84E"/>
<circle cx="220.5" cy="36.0542" r="1.5" transform="rotate(-180 220.5 36.0542)" fill="#F8B84E"/>
<circle cx="223.5" cy="33.0542" r="1.5" transform="rotate(-180 223.5 33.0542)" fill="#F8B84E"/>
<circle cx="227.5" cy="30.0542" r="1.5" transform="rotate(-180 227.5 30.0542)" fill="#F8B84E"/>
<circle cx="226.5" cy="21.0542" r="1.5" transform="rotate(-180 226.5 21.0542)" fill="#F8B84E"/>
<circle cx="222.5" cy="24.0542" r="1.5" transform="rotate(-180 222.5 24.0542)" fill="#F8B84E"/>
<circle cx="217.5" cy="28.0542" r="1.5" transform="rotate(-180 217.5 28.0542)" fill="#F8B84E"/>
<circle cx="210.5" cy="33.0542" r="1.5" transform="rotate(-180 210.5 33.0542)" fill="#F8B84E"/>
<circle cx="200.5" cy="38.0542" r="1.5" transform="rotate(-180 200.5 38.0542)" fill="#F8B84E"/>
<circle cx="181.5" cy="37.0542" r="1.5" transform="rotate(-180 181.5 37.0542)" fill="#F8B84E"/>
<circle cx="180.5" cy="47.0542" r="1.5" transform="rotate(-180 180.5 47.0542)" fill="#F8B84E"/>
<circle cx="161.5" cy="45.0542" r="1.5" transform="rotate(-180 161.5 45.0542)" fill="#F8B84E"/>
<circle cx="162.5" cy="37.0542" r="1.5" transform="rotate(-180 162.5 37.0542)" fill="#F8B84E"/>
<circle cx="144.5" cy="25.0542" r="1.5" transform="rotate(-180 144.5 25.0542)" fill="#F8B84E"/>
<circle cx="148.5" cy="16.0542" r="1.5" transform="rotate(-180 148.5 16.0542)" fill="#F8B84E"/>
<circle cx="126.5" cy="16.0542" r="1.5" transform="rotate(-180 126.5 16.0542)" fill="#F8B84E"/>
<circle cx="124.5" cy="25.0542" r="1.5" transform="rotate(-180 124.5 25.0542)" fill="#F8B84E"/>
<circle cx="143.5" cy="34.0542" r="1.5" transform="rotate(-180 143.5 34.0542)" fill="#F8B84E"/>
<circle cx="146.5" cy="44.0542" r="1.5" transform="rotate(-180 146.5 44.0542)" fill="#F8B84E"/>
<circle cx="149.5" cy="51.0542" r="1.5" transform="rotate(-180 149.5 51.0542)" fill="#F8B84E"/>
<circle cx="152.5" cy="61.0542" r="1.5" transform="rotate(-180 152.5 61.0542)" fill="#F8B84E"/>
<circle cx="165.5" cy="27.0542" r="1.5" transform="rotate(-180 165.5 27.0542)" fill="#F8B84E"/>
<circle cx="170.5" cy="16.0542" r="1.5" transform="rotate(-180 170.5 16.0542)" fill="#F8B84E"/>
<circle cx="184.5" cy="7.0542" r="1.5" transform="rotate(-180 184.5 7.0542)" fill="#F8B84E"/>
<circle cx="186.5" cy="15.0542" r="1.5" transform="rotate(-180 186.5 15.0542)" fill="#F8B84E"/>
<circle cx="186.5" cy="27.0542" r="1.5" transform="rotate(-180 186.5 27.0542)" fill="#F8B84E"/>
<circle cx="196.5" cy="20.0542" r="1.5" transform="rotate(-180 196.5 20.0542)" fill="#F8B84E"/>
<circle cx="199.5" cy="28.0542" r="1.5" transform="rotate(-180 199.5 28.0542)" fill="#F8B84E"/>
<circle cx="207.5" cy="24.0542" r="1.5" transform="rotate(-180 207.5 24.0542)" fill="#F8B84E"/>
<circle cx="205.5" cy="16.0542" r="1.5" transform="rotate(-180 205.5 16.0542)" fill="#F8B84E"/>
<circle cx="195.5" cy="12.0542" r="1.5" transform="rotate(-180 195.5 12.0542)" fill="#F8B84E"/>
<circle cx="202.5" cy="8.0542" r="1.5" transform="rotate(-180 202.5 8.0542)" fill="#F8B84E"/>
<circle cx="210.5" cy="12.0542" r="1.5" transform="rotate(-180 210.5 12.0542)" fill="#F8B84E"/>
<circle cx="212.5" cy="9.0542" r="1.5" transform="rotate(-180 212.5 9.0542)" fill="#F8B84E"/>
<circle cx="221.5" cy="13.0542" r="1.5" transform="rotate(-180 221.5 13.0542)" fill="#F8B84E"/>
<circle cx="218.5" cy="16.0542" r="1.5" transform="rotate(-180 218.5 16.0542)" fill="#F8B84E"/>
<circle cx="212.5" cy="20.0542" r="1.5" transform="rotate(-180 212.5 20.0542)" fill="#F8B84E"/>
<circle cx="200.5" cy="49.0542" r="1.5" transform="rotate(-180 200.5 49.0542)" fill="#F8B84E"/>
<circle cx="197.5" cy="58.0542" r="1.5" transform="rotate(-180 197.5 58.0542)" fill="#F8B84E"/>
<circle cx="199.5" cy="67.0542" r="1.5" transform="rotate(-180 199.5 67.0542)" fill="#F8B84E"/>
<circle cx="279.5" cy="148.054" r="1.5" transform="rotate(-180 279.5 148.054)" fill="#F8B84E"/>
<circle cx="273.5" cy="153.054" r="1.5" transform="rotate(-180 273.5 153.054)" fill="#F8B84E"/>
<circle cx="279.5" cy="158.054" r="1.5" transform="rotate(-180 279.5 158.054)" fill="#F8B84E"/>
<circle cx="286.5" cy="154.054" r="1.5" transform="rotate(-180 286.5 154.054)" fill="#F8B84E"/>
<circle cx="2" cy="2" r="2" transform="matrix(1 0 0 -1 328 146.554)" fill="#F8B84E"/>
<circle cx="2" cy="2" r="2" transform="matrix(1 0 0 -1 319 141.554)" fill="#F8B84E"/>
<circle cx="2" cy="2" r="2" transform="matrix(1 0 0 -1 312 137.554)" fill="#F8B84E"/>
<circle cx="2" cy="2" r="2" transform="matrix(1 0 0 -1 304 132.554)" fill="#F8B84E"/>
<circle cx="2" cy="2" r="2" transform="matrix(1 0 0 -1 297 127.554)" fill="#F8B84E"/>
<circle cx="2" cy="2" r="2" transform="matrix(1 0 0 -1 289 121.554)" fill="#F8B84E"/>
<circle cx="2" cy="2" r="2" transform="matrix(1 0 0 -1 283 116.554)" fill="#F8B84E"/>
<circle cx="2" cy="2" r="2" transform="matrix(1 0 0 -1 276 110.554)" fill="#F8B84E"/>
<circle cx="2" cy="2" r="2" transform="matrix(1 0 0 -1 270 104.554)" fill="#F8B84E"/>
<circle cx="2" cy="2" r="2" transform="matrix(1 0 0 -1 272 98.5542)" fill="#F8B84E"/>
<circle cx="2" cy="2" r="2" transform="matrix(1 0 0 -1 262 90.5542)" fill="#F8B84E"/>
<circle cx="2" cy="2" r="2" transform="matrix(1 0 0 -1 270 92.5542)" fill="#F8B84E"/>
<circle cx="2" cy="2" r="2" transform="matrix(1 0 0 -1 263 99.5542)" fill="#F8B84E"/>
<circle cx="2" cy="2" r="2" transform="matrix(1 0 0 -1 256 94.5542)" fill="#F8B84E"/>
<circle cx="2" cy="2" r="2" transform="matrix(1 0 0 -1 246 81.5542)" fill="#F8B84E"/>
<circle cx="2" cy="2" r="2" transform="matrix(1 0 0 -1 254 86.5542)" fill="#F8B84E"/>
<circle cx="2" cy="2" r="2" transform="matrix(1 0 0 -1 294 98.5542)" fill="#F8B84E"/>
<circle cx="2" cy="2" r="2" transform="matrix(1 0 0 -1 286 94.5542)" fill="#F8B84E"/>
<circle cx="2" cy="2" r="2" transform="matrix(1 0 0 -1 276 89.5542)" fill="#F8B84E"/>
<circle cx="2" cy="2" r="2" transform="matrix(1 0 0 -1 270 85.5542)" fill="#F8B84E"/>
<circle cx="2" cy="2" r="2" transform="matrix(1 0 0 -1 262 79.5542)" fill="#F8B84E"/>
<circle cx="2" cy="2" r="2" transform="matrix(1 0 0 -1 258 83.5542)" fill="#F8B84E"/>
<circle cx="2" cy="2" r="2" transform="matrix(1 0 0 -1 253 78.5542)" fill="#F8B84E"/>
<circle cx="2" cy="2" r="2" transform="matrix(1 0 0 -1 257 74.5542)" fill="#F8B84E"/>
<circle cx="2" cy="2" r="2" transform="matrix(1 0 0 -1 258 67.5542)" fill="#F8B84E"/>
<circle cx="2" cy="2" r="2" transform="matrix(1 0 0 -1 251 67.5542)" fill="#F8B84E"/>
<circle cx="2" cy="2" r="2" transform="matrix(1 0 0 -1 241 63.5542)" fill="#F8B84E"/>
<circle cx="2" cy="2" r="2" transform="matrix(1 0 0 -1 251 61.5542)" fill="#F8B84E"/>
</g>
</svg>
